<svg id="圖層_1" data-name="圖層 1" xmlns="http://www.w3.org/2000/svg" viewBox="0 0 168.74 154.82"><defs><style>.cls-1,.cls-4{fill:#3e454f;}.cls-2{fill:#3f454f;}.cls-3{fill:#ffdc5f;}.cls-4{stroke:#3e454f;stroke-miterlimit:10;stroke-width:2.4px;}.cls-5{fill:#23c8c8;}</style></defs><title>工作區域 2</title><path class="cls-1" d="M108.13.09l.12.07a.87.87,0,0,1,.23.2.39.39,0,0,1,.06.3l0,.4c0,.6-.11,1.46-.18,2.5s-.17,2.23-.26,3.52-.2,2.66-.33,4c-.26,2.75-.48,5.5-.71,7.55s-.38,3.43-.38,3.43a.37.37,0,0,1-.42.32.37.37,0,0,1-.32-.37s0-1.38.08-3.45.18-4.82.3-7.57c0-1.38.14-2.76.2-4s.15-2.49.21-3.52.12-1.89.16-2.5c0-.15,0-.28,0-.4A.42.42,0,0,1,107,.26a.79.79,0,0,1,.25-.17l.14,0A1.1,1.1,0,0,1,108.13.09Z"/><path class="cls-1" d="M98.61,130.64l-.13-.07a1.07,1.07,0,0,1-.23-.2.36.36,0,0,1-.06-.3c0-.12,0-.25,0-.41,0-.6.1-1.45.18-2.49s.16-2.23.26-3.52.2-2.66.34-4c.25-2.74.48-5.49.72-7.54s.38-3.43.38-3.43a.37.37,0,0,1,.41-.33.39.39,0,0,1,.33.38s0,1.38-.09,3.45-.19,4.82-.3,7.57c-.06,1.38-.15,2.76-.22,4.05s-.15,2.49-.21,3.52-.12,1.9-.16,2.49l0,.41a.37.37,0,0,1-.1.29,1,1,0,0,1-.25.17l-.14.05A1.13,1.13,0,0,1,98.61,130.64Z"/><path class="cls-1" d="M74.85,6.46H75a.65.65,0,0,1,.3.06.35.35,0,0,1,.21.22l.17.37c.27.54.65,1.31,1.1,2.24l1.53,3.18c.56,1.17,1.16,2.41,1.73,3.66,1.16,2.51,2.34,5,3.16,6.9s1.39,3.16,1.39,3.16a.37.37,0,0,1-.2.48.36.36,0,0,1-.46-.16s-.68-1.2-1.66-3S80,19.28,78.73,16.83c-.64-1.21-1.26-2.45-1.84-3.6S75.77,11,75.31,10.07s-.85-1.7-1.11-2.24q-.11-.2-.18-.36a.37.37,0,0,1-.06-.3.63.63,0,0,1,.14-.27.63.63,0,0,1,.09-.12A1.14,1.14,0,0,1,74.85,6.46Z"/><path class="cls-1" d="M131.88,124.28a.54.54,0,0,1-.14,0,.8.8,0,0,1-.3-.06.4.4,0,0,1-.21-.23l-.17-.36c-.27-.54-.65-1.32-1.1-2.25s-1-2-1.53-3.19-1.15-2.4-1.72-3.66c-1.15-2.5-2.33-5-3.15-6.89s-1.39-3.16-1.39-3.16a.37.37,0,0,1,.2-.49.38.38,0,0,1,.47.16s.67,1.2,1.65,3,2.24,4.27,3.52,6.72c.64,1.22,1.25,2.45,1.84,3.6l1.58,3.16,1.11,2.24c.06.14.12.26.17.36a.39.39,0,0,1,.06.31.77.77,0,0,1-.14.27.42.42,0,0,1-.09.11A1.1,1.1,0,0,1,131.88,124.28Z"/><path class="cls-1" d="M49.22,28.61a.36.36,0,0,1,.12-.07.91.91,0,0,1,.29-.1.35.35,0,0,1,.29.09l.34.23,2.07,1.4,2.92,2c1.06.73,2.2,1.5,3.33,2.3,2.25,1.59,4.51,3.16,6.18,4.39s2.78,2,2.78,2a.37.37,0,0,1-.41.62s-1.19-.71-2.95-1.8-4.08-2.57-6.41-4.05c-1.17-.73-2.32-1.49-3.4-2.2l-2.95-1.94-2.08-1.38L49,29.91a.42.42,0,0,1-.2-.24.76.76,0,0,1,0-.3.61.61,0,0,1,0-.15A1.08,1.08,0,0,1,49.22,28.61Z"/><path class="cls-1" d="M157.52,102.13a.52.52,0,0,1-.13.07.85.85,0,0,1-.28.1.41.41,0,0,1-.3-.09l-.33-.23-2.07-1.4c-.85-.59-1.85-1.27-2.92-2s-2.2-1.51-3.32-2.31c-2.25-1.6-4.52-3.17-6.18-4.4s-2.78-2-2.78-2a.37.37,0,0,1,.41-.62s1.19.71,2.95,1.8,4.08,2.57,6.4,4c1.17.74,2.32,1.5,3.4,2.21l2.95,2,2.08,1.38.33.22a.4.4,0,0,1,.2.24.79.79,0,0,1,0,.3.41.41,0,0,1,0,.14A1.17,1.17,0,0,1,157.52,102.13Z"/><path class="cls-1" d="M38.09,60.61a.7.7,0,0,1,.08-.12.55.55,0,0,1,.2-.23.34.34,0,0,1,.3-.07l.4,0,2.49.17,3.52.27c1.29.1,2.67.2,4,.33,2.75.25,5.5.48,7.55.71s3.43.38,3.43.38a.36.36,0,0,1,.32.41.37.37,0,0,1-.37.33s-1.38,0-3.45-.09-4.82-.18-7.58-.29c-1.37-.06-2.75-.14-4-.21L41.45,62,39,61.87l-.4,0a.36.36,0,0,1-.29-.11.7.7,0,0,1-.17-.25c0-.07-.05-.14-.06-.13A1.23,1.23,0,0,1,38.09,60.61Z"/><path class="cls-1" d="M168.65,70.13s0,.06-.08.12a.55.55,0,0,1-.2.23.38.38,0,0,1-.3.07l-.4,0-2.49-.18-3.52-.27c-1.29-.1-2.67-.2-4-.33-2.74-.26-5.49-.49-7.55-.72s-3.43-.38-3.43-.38a.38.38,0,0,1-.32-.42.38.38,0,0,1,.37-.32s1.38,0,3.45.08,4.82.19,7.58.31c1.38,0,2.75.14,4,.21l3.53.21,2.49.16.4,0a.36.36,0,0,1,.29.11.59.59,0,0,1,.17.25c0,.07.06.14.06.13A1.24,1.24,0,0,1,168.65,70.13Z"/><path class="cls-1" d="M44.46,93.89a.63.63,0,0,1,0-.15,1.07,1.07,0,0,1,.06-.29.39.39,0,0,1,.23-.22,2.84,2.84,0,0,0,.36-.17L47.36,92l3.18-1.54c1.17-.55,2.41-1.15,3.66-1.73,2.51-1.15,5-2.33,6.89-3.16s3.17-1.39,3.17-1.39a.38.38,0,0,1,.48.2.38.38,0,0,1-.16.47s-1.2.67-3,1.65S57.28,88.72,54.84,90c-1.22.64-2.45,1.26-3.6,1.85S49,93,48.08,93.43l-2.24,1.11-.36.18a.38.38,0,0,1-.31,0,.84.84,0,0,1-.27-.13l-.11-.09A1.19,1.19,0,0,1,44.46,93.89Z"/><path class="cls-1" d="M162.28,36.85a.63.63,0,0,1,0,.15.61.61,0,0,1-.06.29.35.35,0,0,1-.22.21l-.37.18-2.24,1.09L156.2,40.3c-1.17.55-2.41,1.15-3.66,1.73-2.51,1.15-5,2.32-6.9,3.15s-3.16,1.38-3.16,1.38a.36.36,0,0,1-.48-.2.36.36,0,0,1,.16-.46s1.2-.68,3-1.65,4.27-2.25,6.71-3.53c1.22-.64,2.46-1.25,3.61-1.83l3.16-1.58,2.24-1.11.36-.18a.36.36,0,0,1,.3-.05.75.75,0,0,1,.27.13.63.63,0,0,1,.12.09A1.17,1.17,0,0,1,162.28,36.85Z"/><path class="cls-1" d="M66.62,119.52a.8.8,0,0,1-.08-.13.62.62,0,0,1-.09-.28.38.38,0,0,1,.09-.3l.23-.33c.33-.5.82-1.21,1.4-2.07l2-2.92c.74-1.06,1.51-2.21,2.31-3.33,1.59-2.25,3.16-4.52,4.39-6.18s2-2.78,2-2.78a.37.37,0,0,1,.61.41s-.7,1.19-1.79,2.94-2.57,4.09-4,6.42c-.73,1.16-1.49,2.31-2.2,3.39l-1.94,3c-.57.86-1,1.57-1.38,2.08l-.23.33a.37.37,0,0,1-.23.2.66.66,0,0,1-.31,0,.58.58,0,0,1-.14,0A1.15,1.15,0,0,1,66.62,119.52Z"/><path class="cls-1" d="M140.14,11.22a.86.86,0,0,1,.07.12.7.7,0,0,1,.09.29.38.38,0,0,1-.09.3,3.76,3.76,0,0,0-.22.33c-.35.5-.83,1.21-1.41,2.06s-1.26,1.86-2,2.92-1.51,2.21-2.31,3.33c-1.59,2.25-3.16,4.52-4.39,6.18s-2,2.78-2,2.78a.37.37,0,0,1-.61-.42s.7-1.18,1.8-2.94,2.57-4.08,4.05-6.41c.74-1.17,1.5-2.31,2.2-3.4s1.38-2.08,1.95-2.94l1.39-2.08.22-.34a.4.4,0,0,1,.24-.2,1,1,0,0,1,.3,0l.14,0A1.14,1.14,0,0,1,140.14,11.22Z"/><path class="cls-1" d="M95.14,18.63l.1,0a.54.54,0,0,1,.2.1.28.28,0,0,1,.1.2c0,.08,0,.18,0,.28.08.44.19,1.05.32,1.79l.44,2.52c.15.92.33,1.91.48,2.9.31,2,.64,3.94.84,5.43s.34,2.48.34,2.48a.28.28,0,0,1-.23.3.28.28,0,0,1-.3-.21s-.23-1-.55-2.43-.73-3.43-1.13-5.38c-.21-1-.39-2-.58-2.89s-.33-1.77-.47-2.51-.25-1.35-.33-1.78c0-.11,0-.2-.06-.29a.28.28,0,0,1,0-.22.58.58,0,0,1,.15-.16l.08-.07A.84.84,0,0,1,95.14,18.63Z"/><path class="cls-1" d="M111.59,112.1l-.1,0a.62.62,0,0,1-.2-.1.26.26,0,0,1-.1-.2c0-.08,0-.18,0-.28-.07-.44-.18-1-.31-1.79l-.44-2.52c-.15-.92-.33-1.91-.48-2.9-.31-2-.63-3.94-.83-5.43s-.34-2.48-.34-2.48a.27.27,0,0,1,.53-.1s.23,1,.55,2.44.72,3.43,1.13,5.38c.2,1,.38,2,.56,2.88s.34,1.78.48,2.52.25,1.35.33,1.78c0,.11,0,.21.05.29a.28.28,0,0,1,0,.22.46.46,0,0,1-.15.16l-.08.07A.83.83,0,0,1,111.59,112.1Z"/><path class="cls-1" d="M72.88,29l.1,0a.4.4,0,0,1,.22,0,.25.25,0,0,1,.18.12l.19.22,1.17,1.39,1.64,2c.6.73,1.24,1.49,1.87,2.27,1.25,1.56,2.52,3.1,3.44,4.29s1.54,2,1.54,2a.27.27,0,0,1-.06.38.26.26,0,0,1-.35,0s-.69-.73-1.7-1.84-2.34-2.6-3.67-4.09c-.67-.74-1.32-1.5-1.94-2.21l-1.67-1.94-1.18-1.37-.19-.22a.3.3,0,0,1-.09-.21.5.5,0,0,1,.05-.21.25.25,0,0,1,0-.1A.87.87,0,0,1,72.88,29Z"/><path class="cls-1" d="M133.86,101.73l-.1,0a.81.81,0,0,1-.22,0,.28.28,0,0,1-.19-.13l-.19-.22L132,100l-1.64-2c-.6-.73-1.24-1.49-1.87-2.27-1.25-1.56-2.52-3.11-3.44-4.29s-1.53-2-1.53-2a.27.27,0,0,1,0-.37.26.26,0,0,1,.36,0s.69.72,1.7,1.83,2.34,2.61,3.67,4.1c.66.74,1.31,1.5,1.93,2.21l1.67,1.94,1.17,1.38a1.74,1.74,0,0,1,.19.22.3.3,0,0,1,.1.21.72.72,0,0,1-.05.21.41.41,0,0,1,0,.09A.81.81,0,0,1,133.86,101.73Z"/><path class="cls-1" d="M58.78,49.12a.31.31,0,0,1,.08-.07.47.47,0,0,1,.18-.12.31.31,0,0,1,.23,0l.27.1,1.7.62,2.41.88c.88.33,1.82.67,2.75,1,1.86.72,3.73,1.42,5.12,2s2.32.94,2.32.94a.27.27,0,0,1-.18.51l-2.39-.74c-1.43-.44-3.33-1.09-5.23-1.71-1-.31-1.89-.64-2.78-1l-2.41-.84-1.71-.6-.28-.1a.27.27,0,0,1-.18-.13.58.58,0,0,1-.07-.21.82.82,0,0,1,0-.1A.83.83,0,0,1,58.78,49.12Z"/><path class="cls-1" d="M148,81.61a.5.5,0,0,1-.08.08.57.57,0,0,1-.18.12.31.31,0,0,1-.23,0l-.27-.11-1.7-.61-2.41-.89c-.88-.33-1.82-.67-2.75-1-1.86-.72-3.73-1.43-5.12-2s-2.31-.94-2.31-.94a.27.27,0,0,1,.18-.51s1,.29,2.38.75,3.33,1.08,5.23,1.71c1,.31,1.89.64,2.78,1l2.42.84,1.7.61.28.09a.32.32,0,0,1,.18.14.52.52,0,0,1,.07.21.58.58,0,0,1,0,.1A.84.84,0,0,1,148,81.61Z"/><path class="cls-1" d="M56.63,73.59s0,0,0-.1a.5.5,0,0,1,.1-.19.24.24,0,0,1,.21-.1l.28,0L59,72.83l2.52-.44c.92-.16,1.9-.34,2.89-.49,2-.31,4-.63,5.44-.83s2.48-.35,2.48-.35a.27.27,0,0,1,.09.53s-1,.24-2.44.55-3.42.73-5.38,1.14c-1,.21-2,.39-2.88.57L59.25,74l-1.78.33-.29.05a.3.3,0,0,1-.23,0,.46.46,0,0,1-.16-.15.35.35,0,0,1-.06-.08A.9.9,0,0,1,56.63,73.59Z"/><path class="cls-1" d="M150.11,57.14a1,1,0,0,1,0,.11.5.5,0,0,1-.1.19.3.3,0,0,1-.2.1l-.29.05-1.78.32-2.53.43c-.92.16-1.9.33-2.89.48-2,.31-3.95.64-5.44.84l-2.48.34a.28.28,0,0,1-.3-.24.28.28,0,0,1,.21-.29s1-.24,2.44-.55,3.42-.73,5.38-1.13c1-.21,2-.39,2.88-.57l2.52-.48,1.78-.32.29-.06a.25.25,0,0,1,.22,0,.54.54,0,0,1,.16.14.57.57,0,0,1,.06.09A.8.8,0,0,1,150.11,57.14Z"/><path class="cls-1" d="M67,95.86a.31.31,0,0,1,0-.1.53.53,0,0,1,0-.22.28.28,0,0,1,.13-.19l.22-.19L68.71,94c.57-.49,1.24-1,2-1.65s1.49-1.24,2.27-1.86C74.49,89.23,76,88,77.22,87s2-1.53,2-1.53a.26.26,0,0,1,.37,0,.27.27,0,0,1,0,.36s-.73.69-1.84,1.7-2.6,2.34-4.09,3.67c-.74.67-1.5,1.32-2.21,1.93L69.47,94.9l-1.38,1.18-.22.19a.31.31,0,0,1-.2.09.71.71,0,0,1-.22,0l-.09,0A.86.86,0,0,1,67,95.86Z"/><path class="cls-1" d="M139.74,34.88s0,0,0,.1a.41.41,0,0,1,0,.22.23.23,0,0,1-.12.18l-.23.19L138,36.74l-2,1.64c-.72.59-1.49,1.24-2.27,1.86-1.55,1.25-3.1,2.52-4.29,3.44s-2,1.53-2,1.53a.27.27,0,0,1-.38-.05.28.28,0,0,1,0-.36s.73-.69,1.84-1.69,2.6-2.34,4.09-3.67c.75-.67,1.51-1.32,2.21-1.93l1.95-1.67,1.37-1.18.23-.19a.27.27,0,0,1,.2-.09.44.44,0,0,1,.22,0,.25.25,0,0,1,.09,0A.87.87,0,0,1,139.74,34.88Z"/><path class="cls-1" d="M87.13,110a.4.4,0,0,1-.07-.07.41.41,0,0,1-.12-.19.28.28,0,0,1,0-.22l.1-.27.62-1.71c.25-.7.55-1.52.88-2.4s.66-1.82,1-2.75c.72-1.87,1.42-3.74,2-5.13s.94-2.31.94-2.31a.26.26,0,0,1,.35-.15.29.29,0,0,1,.16.33s-.29,1-.74,2.39-1.09,3.32-1.71,5.22c-.31,1-.64,1.9-.95,2.78s-.59,1.71-.84,2.42-.46,1.3-.6,1.71l-.1.27c0,.09-.06.15-.13.18a.44.44,0,0,1-.21.07h-.11A.8.8,0,0,1,87.13,110Z"/><path class="cls-1" d="M119.62,20.78l.07.07a.47.47,0,0,1,.12.19.28.28,0,0,1,0,.22l-.1.28-.62,1.7-.88,2.4c-.33.88-.67,1.82-1,2.75-.73,1.87-1.43,3.74-2,5.12s-1,2.32-1,2.32a.27.27,0,0,1-.5-.18s.28-1,.74-2.39,1.09-3.32,1.71-5.22c.32-.95.65-1.9,1-2.78l.85-2.42c.25-.71.46-1.3.6-1.71l.1-.27a.28.28,0,0,1,.13-.18.65.65,0,0,1,.21-.07h.11A.8.8,0,0,1,119.62,20.78Z"/><path class="cls-1" d="M8.52,46.24l0-.21-.4-3.22a3.21,3.21,0,0,0-3.43-3h0a3.21,3.21,0,0,0-2.6,3.71l.41,3.22.7,5.63L11,110.2l.7,5.63,4.53,36.1a1.78,1.78,0,0,0,1.89,1.63l2.71-.34a1.77,1.77,0,0,0,1.43-2l-.54-4.31Z"/><path class="cls-2" d="M1.49,50.88c.06.73-.07.79.05,1.78a12.78,12.78,0,0,0,.67,2.59l.11,0,0,.06v-.05a.75.75,0,0,0,.33,0,6.3,6.3,0,0,1-.06,1.13l0,.24v.13l.12,1,0,.12c.06.39.11.77.15,1.11v.08l0,.23v0l.14,1,0,.22a3.7,3.7,0,0,0,.07.38l.11.67c0,.07.06.08.09.15v.07l.11.62c0,.38,0,2.77.11,3.71l.05.28,0,.29v0c.16.67.4,1.72.54,2.35v.69c0,.62,0,1.22.07,1.64A50,50,0,0,0,5.3,77.1c.28,1.55.61,4.66.72,4.94l.07.9v.83l.07.75v0l.07.58c0,.11.62,3.76.66,4.05,0,.62.09,1.54.13,2.28a5.08,5.08,0,0,0,0,.7l0,.23,0,.17a7,7,0,0,0,.16.77c.11.57.24,1.16.3,1.6.1.77.14,2,.24,2.8l.05.28,0,.29s0,0,0,0a1.89,1.89,0,0,1,.18.69c0,.27.06.57.08.88a7.48,7.48,0,0,0,.13,1.6c.1.78.15,1.12.25,1.66a32.36,32.36,0,0,1,1.24,4.44,20.24,20.24,0,0,1,0,2.06c0,.28,0,.59.08.92s0,.79,0,1.16a7.46,7.46,0,0,0,0,1.64l0,.18,0,.21,0,.27c.13.79.43,2.23.7,3.5l.13,1.06c.1.77-.08.36,0,1.37l.19.33a4.87,4.87,0,0,0,0,1.68l0,.3v.09c.05.36.14.92.25,1.56.16,1,.37,2.19.56,3.17a3.49,3.49,0,0,0,0,1l0,.1,0,.21c.1.77.34,1.68.44,2.46,0,.33.08.81.11,1.31a10.43,10.43,0,0,0,.12,1.56l0,.17v.38c0,.33.08.57.12.78.16,1,.39,2.24.48,3s.11,1.27.15,1.93.09,1.42.14,2.07.07,1,.1,1.24v.08l0,.23a3.15,3.15,0,0,0,.33,1.31c.09.36.17.71.22,1,0,.56.14,2,.26,3.38.06.67.12,1.31.17,1.79s.07.79.07.81a4.35,4.35,0,0,0,.18.9,2.25,2.25,0,0,0,.23.45,4.93,4.93,0,0,0,.82,1,2.81,2.81,0,0,0,1.86.71l.44,0,.29,0,.62-.08,1.35-.16.35,0a2.84,2.84,0,0,0,1.59-.75,3.1,3.1,0,0,0,.92-1.74,3.83,3.83,0,0,0,0-1.2l0-.31a11.47,11.47,0,0,0-.28-1.33c-.08-.63-.17-1.27-.24-1.87l0-.27c0-.74-.35-4.23-.52-5l-.09-.59c-.09-.74-.09-1.62-.18-2.35,0,0,0-.73,0-.83-.06-.7-.12-1.13-.25-2.11a10.77,10.77,0,0,0-.36-2q-.11-.57-.18-1.11c-.08-.59-.06-1.42-.08-1.58-.13-1-.46-2.53-.59-3.51s-.21-2.56-.33-3.54a15.23,15.23,0,0,0-.84-3s-.1,0-.1,0a7.36,7.36,0,0,1-.19-.83c0-.25-.06-1.08-.07-1.17l0-.3s0,0,0,0l-.2-.76-.06-.51c-.13-1-.05-1.47-.19-2.06a36.08,36.08,0,0,0-.66-4.4s0-.3,0-.47v-.1a7.72,7.72,0,0,0,0-1.26v0l0-.31,0-.3,0-.16c-.13-.66-.37-1.63-.58-2.5l-.12-.88,0-.32c-.05-.58,0-1-.12-1.76l-.07-.48.05-.51-.07-.82c0-.64-.07-1.42-.2-2.48s-.42-2.13-.55-3.11c-.1-.79-.15-2.49-.24-3.63,0,0,0,0,0,0l0-.36,0-.36c-.16-1.2-.89-4.11-1-4.59l-.08-.79V86c0-.11,0-.12,0-.23l-.09-.84-.05-.49,0-.27-.17-1.28v0l0-.29v-.1c-.06-.43-.12-.91-.19-1.4l0-.17,0-.2L14,79.6l0-.16-.05-.31A10.11,10.11,0,0,1,13.43,77c-.13-1,.05-.6-.08-1.58s-.1.2-.24-.76L13,73.8,12.91,73l0-.2c.15.12.23-.41.32-1a.14.14,0,0,1,.15,0l-.07-.49c0-.15.06-.28.09-.38-.11-.47-.22-1-.34-1.49L12.9,68a1,1,0,0,0-.22-.31c-.11-.51-.21-1-.25-1.31-.13-1,0-1.39-.18-2.37l0-.25v-.14c-.06-.47-.24-1.33-.42-2.2a9.41,9.41,0,0,0-.18-1.12l-.16-.68c0-.32-.1-.6-.14-.81s-.06-.76-.07-1.2.06-1,0-1.56c0,0,0,.06.05,0l-.06-.45,0-.28c-.13-1-.54-1.94-.83-3.34-.12-.64-.22-1.37-.32-2.14,0-.21,0-.45-.07-.73s-.07-.46-.1-.61L9.85,48l-.13-1v0h0v0l-.24-.86-2.2.29.15,1.2-.21,1.22c0,.47.11.9.17,1.31v.17c.13,1,.48,2.38.77,3.64,0,.19.1.38.16.57a35,35,0,0,1,.86,4.32c.34,2.6.36,2.06,0,3.27l.19,1.43.05.45,0,.29v.1l.05.3.15,1.17a31.85,31.85,0,0,1,1.23,4.32c.12,1,.1,1.78.23,2.75s.29,1.34.42,2.25,0,.3.18,3.29v1.61a8.77,8.77,0,0,0,0,1c.08.74.14,1.16.26,2.14l0,.18h0v0c.08.55.15,1,.23,1.44l0-.08a4,4,0,0,0,.17.81c.39,1.83.36,2.67.68,5.16.32,2.24.58,4.14.81,5.75.13,1,.36,1.75.49,2.73s.06,1.32.15,2.15a25.91,25.91,0,0,0,.1,2.77,4.27,4.27,0,0,0,.26,1l.09.74a13,13,0,0,0,.23,1.48,17.42,17.42,0,0,1,.37,1.83c0,.37,0,.88.07,1.45,0,.27,0,.54,0,.79s0,.25.07.72h0v0l0,.29c.1.78.11.83.16,1.08v0l.15,1.31,0,.12,0,.28.11.44c.08.35.41,1.92.53,2.26.18.73.36,1.46.51,2.1s.15,1,.18,1.27c.1.75.18,1.33.23,1.93a2.76,2.76,0,0,0,0,.44l0,.64a17.28,17.28,0,0,0,0,2c0,.4.26,1.48.47,2.53l.06.47a2.68,2.68,0,0,0,.2.88l.12.69.09.79c0,.62.62,6.44.77,7l.09.4,0,.11.05.66a15.91,15.91,0,0,0,0,1.83l.13,1c.52,1.13.4.07.64,1.89,0,.32.08.78.12,1.26a10.79,10.79,0,0,0,.11,1.54l0,.19v.12c.08.65.13,1,.19,1.33h0l.09.33.15,1.49,0,.45v.17a.86.86,0,0,1,0,.24.34.34,0,0,1-.26.06l-.08,0h-.12l-.65.09-.24,0s0,0,0,0l-.58.17h0l-1.06.31a.34.34,0,0,1-.47-.13l0-.05,0,0,0-.05a1.43,1.43,0,0,0,0-.23c0-.05,0-.06,0-.15v-.41a15.05,15.05,0,0,0-.21-2.32,22.53,22.53,0,0,0-.62-3.61c-.15-.78-.28-1.43-.33-1.84l-.06-.56c0-.42-.06-.81-.08-1.15s-.07-.92-.11-1.34v-.11h0l0-.27,0-.11,0-.24v-.15c-.12-.89-.28-1.29-.4-2.09l-.05-.74a9.81,9.81,0,0,0-.14-2.92l0-.27,0-.27a15,15,0,0,0-.63-3.44,6.79,6.79,0,0,0-.05-1l0-.12,0-.19,0-.16v-.15c-.06-.5-.19-1.05-.29-1.59a8.54,8.54,0,0,0-.11-1.61l-.05-.32-.07-.48a14.84,14.84,0,0,0-.21-2.83,9.14,9.14,0,0,0-.3-1.81,4.67,4.67,0,0,0-.33-1l0-.1h-.05a.13.13,0,0,0-.06,0c-.11-.9-.24-1.89-.37-2.87l-.05-.15a19.12,19.12,0,0,0-.1-2.29l0-.18v-.13l-.06-.35c-.13-.79-.33-2.1-.56-3.41l-.11-.89-.06-1,0-1.4h0V105s0,0,0,0l0-.3a7.12,7.12,0,0,0-.1-.82,14.4,14.4,0,0,0-.61-2.35,1.59,1.59,0,0,0,0-.29.07.07,0,0,0-.08,0c-.07-.93-.14-1.76-.18-2.07l0-.17,0-.14a9.5,9.5,0,0,0-.2-1v-.48a0,0,0,0,0,0,0c0-.39-.1-.87-.21-1.69l0-.13v-.26A16.31,16.31,0,0,0,10,93.69L9.77,92.5l-.1-.67c-.32-2.3-.12-1,.05-2.5l-.16-1.22a19.84,19.84,0,0,0-.46-2,2.41,2.41,0,0,0,0-.53V84.35l0-.22V84l-.16-1,0-.9c0-.33,0-.39-.17-1.37a14,14,0,0,0-.36-1.71l0-.08-.06-.31-.05-.15c-.3-1.19-.63-2.51-.77-3.24l0-.31c0-.6,0-1.14-.07-1.44a7.06,7.06,0,0,0-.15-.75c-.14-1.59-.3-3.5-.38-4.11s-.34-1.6-.56-2.45c0-.27-.27-1.16-.33-1.31-.11-.62-.19-1.23-.29-1.94V60.33a7.62,7.62,0,0,0-.66-3.72l-.08-.29-.25-1.77v-.06c-.07-.69.08-1.13.08-2.05,0-.33,0-.39-.16-1.37l0-.37v0h0c-.07-.6-.09-.69-.13-.91C4.2,49.2,4,48.6,3.84,48c-.08-.35-.19-2.57-.17-2.67l-.11-.92v0c0-.42-.14-1.12-.12-1.39a2.33,2.33,0,0,1,.09-.57c.09-.17.18-.2.47-.59a1.81,1.81,0,0,1,.84-.61l-.34-2.74.34,2.74a1.5,1.5,0,0,1,.89,0l.16.16.17.24a2.28,2.28,0,0,1,.36.83c.06.32,0,.47.1.95l0,.13c0,.33.07.67.13,1l.48.88.13.95,2.2-.28,0-.71h0v0h0l-.09-.76-.06-.44a3.39,3.39,0,0,0,0-.49,5.73,5.73,0,0,0-.1-.58l-.05-.45c0-.19-.05-.38-.1-.56a6,6,0,0,0-.34-1,4.27,4.27,0,0,0-2.66-2.62,1.6,1.6,0,0,0-.33-.07,3.84,3.84,0,0,0-.55-.06s0,0,.07.05a3.34,3.34,0,0,0-.77.12l.34,2.7-.34-2.7a4.55,4.55,0,0,0-1,.41,4.65,4.65,0,0,0-1.08.75,4.15,4.15,0,0,0-.64.63,5.15,5.15,0,0,0-.45.59A3.47,3.47,0,0,0,.9,42a5.5,5.5,0,0,0-.15,2.21l0,.11,0,.2c.1.77.27,1.07.36,1.84a7.9,7.9,0,0,1,.05,1.06.91.91,0,0,0-.14.28l.14,1.12,0,1.21.17.27.05.39a.2.2,0,0,1,.15,0"/><path class="cls-3" d="M157.1,29c-.78,0-1.63-.66-2.4-.3-.25.12-.62.25-.85.11a3.51,3.51,0,0,0-1.61-.5c-.3,0-.66.27-.86.12-.54-.38-1.41.37-1.86.11a3.25,3.25,0,0,0-1.51-.27,40.77,40.77,0,0,0-4.94.15,10.1,10.1,0,0,0-2.52,0,9.1,9.1,0,0,1-1.43.2c-.47,0-1,.06-1.42.09-.63,0-1.28-.18-1.9-.09-1,.13-1.94.23-2.93.33-.7.07-1.43.31-2.14.42s-1.38.79-2.1,1a15.94,15.94,0,0,0-2.35.62,19.52,19.52,0,0,1-2.35.41c-1.83.56-3.57,1.48-5.42,2a42.23,42.23,0,0,0-6.2,2c-.75.32-1.2,1.5-2,1.71-.6.17-1.29,0-1.85.17s-.92.88-1.44,1.22a23.47,23.47,0,0,1-3.13,1.68c-.62.28-1.06.87-1.65,1.21-1,.59-2.26.81-3.32,1.32s-2,.81-2.94,1.21-1.67,1.28-2.61,1.56a9.47,9.47,0,0,1-3.24.33c-.14,0-.24.34-.38.37-.81.19-1.63.33-2.45.45a22.07,22.07,0,0,1-2.57,0,22,22,0,0,1-2.29-.14,10.63,10.63,0,0,1-3.16-.36c-.45-.16-1.09.21-1.58.16a10.85,10.85,0,0,0-1.4.1,9,9,0,0,1-3.08-.67c-1.21-.44-2.26-1.3-3.59-1.43a9.26,9.26,0,0,1-2.16-.9,15,15,0,0,0-1.75-.45A26,26,0,0,1,62,41.39a5.71,5.71,0,0,0-1.72-.64,27.34,27.34,0,0,0-3.37-.48c-1,.06-2.07.49-3.1.47-1.23,0-2.45-.5-3.68-.48s-2.41-.06-3.61,0c-.07,0-.22.15-.27.19a2.31,2.31,0,0,1-1.49.54,10.28,10.28,0,0,0-1.49.22,7.5,7.5,0,0,0-2,0c-.82.25-1.56.86-2.39,1a12.51,12.51,0,0,0-3.45,1,6.4,6.4,0,0,1-2.62,1.17c-.39.47-1.06-.07-1.55.1-1,.33-1.75,1.29-2.75,1.55-2,.53-4.05.75-6.05,1.27-1,.27-1.9,1.15-2.92,1.48s-2.5.12-3.69.32a15.63,15.63,0,0,1-3.06,0c-.08-.29-.1-.38-.16-.59-.13-.49-.61-.78-.92-1.15a3.53,3.53,0,0,0-2.88-1.43c-.78,0-1.59.9-2.38.76a5.93,5.93,0,0,0-2.85.38c-.5.13-.88.65-1.31,1a3.37,3.37,0,0,0-.59,4.29,34.42,34.42,0,0,0,1.79,3.72C4,56.72,4.78,57.19,5,58a24.31,24.31,0,0,1,.69,3.13c.11.68.66,1.26.79,1.94s.19,1.4.36,2.08.37,1.45.57,2.16c.38,1.3.89,2.54,1.21,3.86.08.35.64.53.77,1,.06.06-.46.4-.33.54,0,.38.72.56.83.94a3.69,3.69,0,0,1,.2,1.84c.48.35-.4,1.11-.17,1.56a3.54,3.54,0,0,1,.34,1.36c0,.11-.26.28-.23.39a8.86,8.86,0,0,1,.35,3c0,.11.23.21.29.26.33.28.13.7.19,1s.32.69.37,1.05c.08.62-.18,1.3,0,1.86a17.9,17.9,0,0,1,.54,2.87,12.19,12.19,0,0,0,.38,1.47,6.64,6.64,0,0,1,.16,2.4c0,.88.08,1.77.07,2.65a2,2,0,0,0,.09.64,6.84,6.84,0,0,1,.08,2.17c-.08,2.53.38,5.08.34,7.61,0,.32-.43.66-.32,1a3.2,3.2,0,0,1,.31,1.7,2,2,0,0,0-.06.77c.06,2.12-.35,4.21-.08,6.34a8.8,8.8,0,0,1-.32,4.13,13.93,13.93,0,0,0-.4,1.76,8.07,8.07,0,0,0-.71,2.49c0,.14.79,1.15.89,1a1.93,1.93,0,0,1,1.12-1.12c.12,0,.22-.3.32-.4.57-.61.8-1.66,1.47-2.12A16.83,16.83,0,0,0,17.82,119c.72-.77,1.49-1.51,2.24-2.25,0,0,.51.22.52.19.17-.54.65-.66,1-1s.41-1.14.8-1.52c1.21-1.19,2.59-2.18,3.84-3.32.63-.56,1-1.48,1.77-1.9,1-.56,2.2-.77,3.19-1.35A28,28,0,0,1,35,105.6c.73-.26,1.58-.25,2.3-.54.53-.21,1-.58,1.51-.81a25.87,25.87,0,0,1,2.89-.84A20.59,20.59,0,0,1,46,103a7.08,7.08,0,0,1,2.34-.16,2.1,2.1,0,0,1,1.43-.58,12,12,0,0,0,1.36.26,6,6,0,0,0,2.26-.29c.72-.26,1.63.5,2.26,0l3-.13a1.1,1.1,0,0,0,.46-.27c.44-.41.95.06,1.42,0s.9-.63,1.37-.63a26.35,26.35,0,0,1,2.82-.2,4.16,4.16,0,0,0,1.43-.15c1-.24,2-.64,3-.91.8-.21,1.74.09,2.52-.2s1.42-.66,2.17-.89,1.55-.3,2.28-.57c1.27-.47,2.54-.94,3.78-1.47a16.17,16.17,0,0,0,2.61-1.44c.79-.53,1.76-.74,2.48-1.33a15,15,0,0,1,2.52-1.44,18.68,18.68,0,0,0,2.32-1.26c.46-.34,1.06-.5,1.53-.83a37.36,37.36,0,0,0,3.51-2.76c2-1.82,4-3.79,6.08-5.55,1.45-1.21,3-2.35,4.32-3.7.08-.09.06-.28.13-.37a13.46,13.46,0,0,1,1.76-2.28c.53-.5.89-1.19,1.43-1.68a21.17,21.17,0,0,0,3.15-4A20.48,20.48,0,0,1,114,67.94c1.17-1.29,2.41-2.52,3.55-3.83.52-.59.84-1.42,1.5-1.85.25-.16.51-.2.66-.45.66-1.17,2-1.7,3-2.61.19-.19.12-.61.18-.83.12-.46.58-.66.83-1s.41-.93.73-1.11A7.11,7.11,0,0,0,126.33,55c1.57-1.65,3.06-3.36,4.59-5.06,1.25-1.37,2.82-2.45,4.2-3.7.06-.05.27.11.33.07a15.27,15.27,0,0,0,2.35-1.9c.89-.82,1.52-2.05,2.54-2.66a36.78,36.78,0,0,1,4-2c.52-.24.89-.83,1.38-1.14s1.06-1,1.68-1.41c1.1-.67,2.31-1.18,3.41-1.86,1.69-1,3.26-2.26,4.94-3.32,1.33-.85,3.07-1.24,4.08-2.41,0-.29-.18-.68-.17-1C158.77,28.68,157.94,29,157.1,29Z"/><path class="cls-2" d="M119.89,31.53a8.65,8.65,0,0,1-1.3.37c-.34.07-.8.16-1.69.4a21.47,21.47,0,0,0-4.68,1.81.56.56,0,0,0,0,.12l-.11.06.09,0a.32.32,0,0,0,.08.28,2.93,2.93,0,0,0-.72.35,3.5,3.5,0,0,0-.52.44c-.28.26-.49.47-.66.6a1.22,1.22,0,0,1-.17.15l-.07,0a.43.43,0,0,1-.17,0h-.49a3.73,3.73,0,0,0-1,.09,2.08,2.08,0,0,0-.26.08l-.12,0a3.87,3.87,0,0,0-1.11.89l-.29.29-.1.08-.18.12-.11.06-.35.21,0,0c-.48.28-1,.56-1.56.83l-.35.17a6.82,6.82,0,0,0-.71.36,8,8,0,0,0-1.09.86c-.08.09-.08.12-.15.2l-.08,0a4.74,4.74,0,0,1-.84.43c-.15.06-.51.15-1,.29l-.89.25c-.33.1-.71.27-1,.37l-1.93.67-.44.17-.21.07-.28.12a5.77,5.77,0,0,0-.81.48l-.44.33-.39.27s0,0,0,0a2.54,2.54,0,0,1-.56.34,5.38,5.38,0,0,1-.82.25,6.76,6.76,0,0,1-.9.15,7.27,7.27,0,0,1-1.08,0,2.07,2.07,0,0,0-.58.09,1.33,1.33,0,0,0-.31.18l-.14.13-.07.07s0,0,0,0v0h0l.52.67h0a.07.07,0,0,1,0,.05v0h0l-.17-.94h-.17l-.23,0h-.1l-.22,0-1.61.2a6.62,6.62,0,0,1-1.09,0c-.31,0-.74-.06-1.32-.06a11.73,11.73,0,0,1-1.5-.07c-.55-.06-1.33-.12-2-.12a5,5,0,0,1-1.64-.21,2.13,2.13,0,0,0-.79-.11,4,4,0,0,0-.69.11l-.37.1-.1,0a6.12,6.12,0,0,0-1.28.11,3.09,3.09,0,0,1-.76,0,9.11,9.11,0,0,1-2.21-.57c-.73-.26-1.58-.84-2.64-1.21a4.81,4.81,0,0,0-.83-.21l-.35-.05-.15,0a5.45,5.45,0,0,1-.82-.37,5.82,5.82,0,0,0-.85-.4,4.65,4.65,0,0,0-.5-.15s-.47-.14-.85-.23-.72-.2-.75-.21-.31-.11-.62-.25l-.62-.3-1.22-.56,0,0-1-.43a10.7,10.7,0,0,0-1.23-.51,3.34,3.34,0,0,0-.8-.15l-.49,0-1.25-.24A7.55,7.55,0,0,0,57,39.1a7.43,7.43,0,0,0-1.38.2c-.74.17-1.15.25-1.26.26-.88.17-2.22-.42-3.91-.6l-.4,0h-.33l-.63,0h-.75c-.47,0-1,0-1.45.05h-.44a1.55,1.55,0,0,0-.93.39,1.64,1.64,0,0,1-.25.18l-.14.1a.94.94,0,0,1-.3.12,3.33,3.33,0,0,0-.88,0l-.59.13a1,1,0,0,1-.31,0,9.22,9.22,0,0,0-1.52-.13,4.72,4.72,0,0,0-1.78.58,10.08,10.08,0,0,1-.92.43,2.07,2.07,0,0,1-.32.09L38,41s0,0,.07,0a12.33,12.33,0,0,1-1.31.38A10.58,10.58,0,0,0,35,42c-1,.38-1.69,1-2.19,1h0l-1.44.16,1,.77c.21.16.06.21.07-.28a3.7,3.7,0,0,1,0-.45h0l-.15,0a2.46,2.46,0,0,0-1.4,0l-.28.11-.25.12-.35.2a5.47,5.47,0,0,0-.61.42c-.14.11-.49.44-.83.69l-.25.15-.47.16c-.34.12-.72.24-1.12.35-.8.23-1.67.45-2.5.65L23,46.39c-.38.11-.7.18-1.08.32-1.58.68-2.14,1.26-3.23,1.28-.42,0-.95,0-1.57,0a9,9,0,0,0-1.17,0l-.5,0H15l-.63-.09-.34,0-.16,0,0,0-.06,0a.17.17,0,0,0,0-.07l-.09-.18c-.06-.1-.13-.2-.19-.28a3.57,3.57,0,0,0-.4-.44l-.31-.3-.15-.17-.26-.27a6.21,6.21,0,0,0-.65-.54,4.72,4.72,0,0,0-1.87-.82,3.88,3.88,0,0,0-1.19,0,3.45,3.45,0,0,0-1.2.41c-.28.16-.5.29-.66.36s-.14.07-.23.08a4.75,4.75,0,0,0-.56,0,5.08,5.08,0,0,0-1.23.09,9.37,9.37,0,0,0-1,.26L3.33,46a3.49,3.49,0,0,0-1.08.52,4,4,0,0,0-.39.32l-.24.2s-.27.22-.47.43a3.3,3.3,0,0,0-.44.81,4.18,4.18,0,0,0-.55,1.1,3.89,3.89,0,0,0-.16,1,5.06,5.06,0,0,0,.3,1.84,6.65,6.65,0,0,0,.29.65L.67,53c.28.48.6,1.38,1.18,2.56A6.74,6.74,0,0,0,2.8,57c.43.47.82.78,1,1a.72.72,0,0,1,.11.15.62.62,0,0,1,.07.17l.2.66c.13.44.23.89.33,1.32,0,.14,0,.33,0,.6s0,.25.1.6a3.73,3.73,0,0,0,.34.82l.09.18.16.31a2.24,2.24,0,0,1,.24.79l.24,1.16c.14.79.44,1.54.61,2.25s.42,1.51.69,2.37l.51,1.91a1.5,1.5,0,0,0,.31.65,2.52,2.52,0,0,0,.27.3l.22.19c.07,0-.05.11.23-.1l.16-.09,0,0,.6-.17h0L8.29,72h0l-.12-.06c0,.09-.08.16-.11.24l0,.15a1.3,1.3,0,0,0,0,.21.6.6,0,0,0,0,.32,1,1,0,0,0,.09.32,1.86,1.86,0,0,0,.33.48,3.16,3.16,0,0,0,.44.38l.09.06,0,0H9l.23-.21h0l.08-.07.14-.1.08,0h0l-.71.2h0l0,.06,0,.1.06.2c0,.13.06.26.08.37a1.68,1.68,0,0,1,0,.58l-.4,2.27L9.82,75.8c.17-.25.21,0-.51-.18l-.1,0h0l0,.06L9.05,76a1.67,1.67,0,0,0,0,1.51,1.55,1.55,0,0,1,.17.54.11.11,0,0,1,0,.11l0,0v0l0,0a.94.94,0,0,0-.06.15,1.21,1.21,0,0,0,0,.52l0,.11a6,6,0,0,1,.22,1.12c0,.2,0,.4,0,.6v.83a1.44,1.44,0,0,0,.13.69,1.35,1.35,0,0,0,.2.27l.14.13.06.06v-.06h0l.47-.31h0l-.15,0a1.42,1.42,0,0,1-.36,0c-.07,0,0,0,0,0l0,.28a2.07,2.07,0,0,0,0,.43,2.56,2.56,0,0,0,.17.6l.14.32a.81.81,0,0,1,0,.24,5.4,5.4,0,0,0,0,1.7c0,.1.06.19.08.27a10.2,10.2,0,0,1,.31,1.82l0,.14.07.47a13.36,13.36,0,0,0,.5,1.82,3.79,3.79,0,0,1,.21.48,7.33,7.33,0,0,1,.08,1.71c-.06.59,0,1.57,0,2.58,0,.21.05.42.08.63l.07.42a3.53,3.53,0,0,1,0,.68c0,.53-.09,1.26-.08,1.89,0,1.3.08,2.49.14,3.36s.07,1.42.07,1.46c.06,1.12.08,1.47.11,1.68a.16.16,0,0,1,0,.1v0s0,0-.06.13a2.21,2.21,0,0,0-.19.51,1.45,1.45,0,0,0,0,.49,1.59,1.59,0,0,0,.06.3l0,.11c.11.31.19.54.24.73s0,.2,0,.29a3.4,3.4,0,0,0-.09,1.06v.69c0,.47,0,.94-.07,1.43,0,1-.13,2-.1,3a14.57,14.57,0,0,0,.12,1.56,9.94,9.94,0,0,1,.06,1.33,7.37,7.37,0,0,1-.13,1.26,4.91,4.91,0,0,1-.16.58l-.12.36c0,.15-.09.3-.13.44-.17.8-.18,1.19-.25,1.44a5.77,5.77,0,0,1-.26.8c-.06.15-.12.31-.17.47l-.08.27c0,.11-.06.24-.08.36a1.81,1.81,0,0,0,.21,1.39,5.62,5.62,0,0,0,.41.55,3,3,0,0,0,.47.45l.12.08a1.15,1.15,0,0,0,.25.12,1.2,1.2,0,0,0,.33.06,1,1,0,0,0,.42-.08,1.06,1.06,0,0,0,.5-.41l.05-.08.09-.17a2.21,2.21,0,0,1,.14-.24.76.76,0,0,1,.14-.13l.12-.05a1.45,1.45,0,0,0,.79-.63,6.83,6.83,0,0,0,.56-.76,4.85,4.85,0,0,1,.79-1.22,16.15,16.15,0,0,0,2.77-2.22c.74-.73,1.32-1.31,1.62-1.64l.12-.13,0,0s.05-.08.09-.08a.38.38,0,0,0,.15.06h.13a1.06,1.06,0,0,0,.67-.31,1,1,0,0,0,.22-.29.53.53,0,0,0,.06-.14h0v-.06s0-.06,0-.06-.07,0-.05,0l.05,0,.06,0h0a4.64,4.64,0,0,0,.79-.64,2.52,2.52,0,0,0,.43-.65,4.16,4.16,0,0,0,.21-.48,2.36,2.36,0,0,1,.13-.27l.05,0,.38-.35c.06-.07,1-.78,1.16-.89l1.36-1.09.75-.64.21-.2a2.65,2.65,0,0,0,.29-.29,6.13,6.13,0,0,0,.48-.58c.24-.32.42-.55.55-.69a1.13,1.13,0,0,1,.16-.13l.27-.15c.44-.21.93-.4,1.42-.63s.71-.28,1.08-.47a10.26,10.26,0,0,0,1-.57,21.73,21.73,0,0,1,2.41-1.37c.17-.09.35-.17.54-.25a2.54,2.54,0,0,1,.53-.17,11,11,0,0,0,1.89-.48c.78-.35,1.23-.74,1.55-.87a7.87,7.87,0,0,1,1.24-.42c.41-.1.94-.21,1.52-.37a6.7,6.7,0,0,1,1.44-.19,25.71,25.71,0,0,0,3.37-.13l.75-.13.26,0c.22,0,.55.09.82.13l.63-.49.29-.2a.28.28,0,0,1,.14-.1c.14,0,.66.12,1.18.14a6.68,6.68,0,0,0,1.14-.1c.06,0,.06-.09.11-.1l.52-.09a6.54,6.54,0,0,0,.92-.26l.11,0a.91.91,0,0,1,.23,0l.63.17a2.43,2.43,0,0,0,1,0,1.61,1.61,0,0,0,.65-.3h0l-.49.18.55,0s0,0,0,0l1.41-.15.92,0,.18,0a1.71,1.71,0,0,0,.8-.42l0,0h0l-.05-.07h0v0l0,0,0,0s0,.29,0,.22l.45.13a1.59,1.59,0,0,0,.68.06,2.1,2.1,0,0,0,.61-.21c.2-.1.37-.22.44-.26a.73.73,0,0,1,.33-.13h0A4.78,4.78,0,0,0,63.4,102a5.76,5.76,0,0,1,1.1-.08l.38,0a3.46,3.46,0,0,0,.46,0,5.49,5.49,0,0,0,.86-.15c1.07-.26,2-.65,2.72-.88l.45-.14a1.47,1.47,0,0,1,.29,0l.35,0a6.09,6.09,0,0,0,.87.11h.22a3.22,3.22,0,0,0,.72-.09l.6-.2,1.12-.43.08,0,.47-.16.46-.13.27-.07c.29-.07.64-.15,1-.27.19-.06.42-.15.61-.23l.55-.24,2.29-1,.76-.29c.39-.16.78-.35.78-.35l.56-.28c.49-.25.91-.47,1.35-.73a9.27,9.27,0,0,1,1.44-.7,7.65,7.65,0,0,0,.89-.48,2.54,2.54,0,0,0,.44-.25l.37-.21a9.84,9.84,0,0,1,1.22-.65l1.78-.81a8.39,8.39,0,0,0,1.18-.61l.33-.21a1.11,1.11,0,0,1,.18-.12c.13-.08.32-.16.54-.27a5.37,5.37,0,0,0,.76-.41l.61-.45c.4-.3.79-.61,1.19-.94.78-.64,1.55-1.34,2.22-2,1.11-1,3.42-3,5-4.33,0,0,0,0,0,0l.5-.43.5-.41a48.22,48.22,0,0,0,3.59-3.24l.24-.25.36-.41a1.28,1.28,0,0,0,.21-.48v-.07s0,0,0,0h0l-.71-.29-.06,0,0,0h0c-.16-.1,1.35.93.71.49l0,0,.08-.13.57-.92a8.07,8.07,0,0,1,.75-1,5.5,5.5,0,0,0,.53-.54c.18-.21.34-.43.5-.63l.09-.12.26-.22.2-.2.31-.29c.2-.19.39-.39.58-.6s.4-.45.62-.72l.33-.42c.52-.68,1-1.35,1.38-2l0,0a3.56,3.56,0,0,1,.25-.36l.09-.1c.41-.48,1.12-1,1.88-1.73l.22-.23.25-.28,1.36-1.49.21-.22.38-.42c.3-.4.63-.84,1-1.33A17.61,17.61,0,0,1,119.37,63a.8.8,0,0,1,.21-.13,2.73,2.73,0,0,0,.42-.23,1.84,1.84,0,0,0,.44-.47,5.16,5.16,0,0,1,1.09-1c1.44-1-.38.14,1.1-.94l.18-.13.22-.19a2.32,2.32,0,0,0,.39-.44,1.4,1.4,0,0,0,.17-.57l0-.31v-.06h0l-.09,0-.14,0h-.07l.29.12h0v0s0-.07.17-.18a4.36,4.36,0,0,0,.55-.54l.18-.28.22-.33c0,.09.07,0,.16,0a.52.52,0,0,1,.24-.07s.17,0,.29-.08l.43-.17c.07,0,.12,0,.09.11s.22-.12.46-.28.47-.35.47-.35a5.09,5.09,0,0,0,.42-.3l.28-.21,1.78-2.14,1.76-1.94a3.62,3.62,0,0,0,.3-.56c.32-.39.57-.7.83-1s.52-.51.75-.72c.53-.46,1-.78,1.39-1.1l1.12-.85s0,0,.05,0h.12a1.4,1.4,0,0,0,.43-.16h0l0,0,.05,0,.11-.07c.15-.09.29-.19.46-.31l.23-.17a16.41,16.41,0,0,0,1.38-1.24,8,8,0,0,0,.87-.93l.74-1a6.52,6.52,0,0,1,.64-.69l.27-.21.33-.22c.28-.19.65-.4,1-.62s.95-.5,1.31-.67.74-.32,1.17-.5a3.61,3.61,0,0,0,1-.72,2.93,2.93,0,0,1,.46-.35l.07,0,.2-.12a3.62,3.62,0,0,0,.38-.26c.46-.35.79-.66,1-.8,0,0,0,.07,0,.07l.18-.12.35-.2.42-.22a26.19,26.19,0,0,0,2.48-1.49c.88-.61,1.76-1.33,2.8-2.12a19.27,19.27,0,0,1,3.17-2c.35-.15.75-.31,1.25-.56a6.82,6.82,0,0,0,1.11-.68,7.14,7.14,0,0,0,1.14-1.05.76.76,0,0,0,0-.15,4.65,4.65,0,0,0-.07-.75l-.09-.37,0-.09-.17,0h-.17l-.62-1a5.83,5.83,0,0,0-1,.07h-.1a12.27,12.27,0,0,1-1.48.32l0,2c1,0,1.68-.26,2.24-.28l.23,0-1.15-1.2c0,.16,0,.39,0,.41s0,0,0,.05,0,0-.08.05a.18.18,0,0,1-.15-.05c.06,0-.17.12-.28.18l-.46.24-1,.48-.3.14a10.57,10.57,0,0,0-1.45.83c-.47.32-.94.67-1.41,1-.95.72-1.9,1.48-2.82,2.13l-.83.58c-.87.56-1.82,1-2.94,1.78-.63.47-1,1-1.39,1.28l-.15.12-.27.21c-.16.14-.29.27-.41.39a2.21,2.21,0,0,1-.54.47l-.76.35c-1.09.5-1.86.89-2.42,1.2a12.57,12.57,0,0,0-1.25.74c-.61.44-.91.67-1.75,1.37a7.72,7.72,0,0,1-.76.86l-.94.85-.57.47-.39.28-.11.07-.12.07-.06,0h0l.63,1h0l-.23-1.17,0,0c0-.08,0,0,0,0a1.47,1.47,0,0,0-.42.05c-.18.09-.34.2-.51.3l-.85.74-.69.56a34.19,34.19,0,0,0-2.44,2.63c-1,1.34-2.19,2.81-3,3.65-.52.58-1,1.09-1.51,1.59a7.37,7.37,0,0,1-1.7,1,1.67,1.67,0,0,0-.71.75l-.3.58c0,.09-.3.26-.57.57a2,2,0,0,0-.33.6v0a.7.7,0,0,0,0,.14,1,1,0,0,0,0,.16v.11a.39.39,0,0,1-.17.38l-.09.09-.16.13-.39.29-.91.62a4.58,4.58,0,0,0-1.26,1.19.45.45,0,0,1-.22.18l-.08,0-.22.11a3,3,0,0,0-.45.34c-.57.5-.9,1.2-1.35,1.66l-2.11,2c-.37.33-.78.69-1.29,1.17l-.34.35a3.07,3.07,0,0,1-.25.26l-.6.51c-.22.19-.48.4-.77.68s-.3.3-.47.49a7.09,7.09,0,0,0-.46.63l-.18.28v0l0,0c-.55.83-1,1.51-1.46,2.08L109,72,108.1,73l-.41.43a6.66,6.66,0,0,0-.47.55c-.26.34-.45.63-.63.85a3.45,3.45,0,0,1-.27.29c-.14.14-.28.28-.4.42s-.49.58-.71.88l-.64.89-.08.12c0,.08,0,0-.19.32l0,.14-.2.19c-.58.54-1.28,1.13-2.16,1.85-1.61,1.27-3.13,2.6-4.4,3.82s-2.43,2.34-3.52,3.3c-.66.58-1.25,1.09-1.86,1.6-.3.25-.61.49-.94.74l-.47.35a4.6,4.6,0,0,1-.46.24c-.18.09-.38.17-.58.28l-.3.17-.24.16a6.66,6.66,0,0,1-.69.38c-.46.21-1.06.44-1.73.79-.41.18-.87.37-1.35.6-.24.12-.49.25-.73.4s-.51.36-.58.39c-.48.28-1.33.53-1.89.85l-.47.3-.27.19-.36.26a3.82,3.82,0,0,1-.47.35c-.38.21-.76.4-1.11.55-.92.36-2,.75-2.49,1l-.74.33c-.3.13-.62.28-.87.36-.56.18-1.26.32-1.46.37a16.17,16.17,0,0,0-2.64.9,1.09,1.09,0,0,1-.36,0l-.56-.06-.51,0a4.14,4.14,0,0,0-.45,0,3.06,3.06,0,0,0-.36.05c-.14,0-.31.07-.4.09h0L68,98.9l-1.84.6-.07,0a5.55,5.55,0,0,1-1.07.18h-.16l-.31,0a5.55,5.55,0,0,0-.58,0l-.27,0-.57.06-.78.15a3.6,3.6,0,0,1-.46,0,2.14,2.14,0,0,0-.79.18,3.42,3.42,0,0,0-.67.4c-.06.06-.1.1-.18.1l-.12,0a2.24,2.24,0,0,0-.46-.07,1.78,1.78,0,0,0-1.24.38.46.46,0,0,1-.12.14h0l-2.66.26-.67.07.21.21,0,0a.1.1,0,0,1,0,0,.35.35,0,0,1,0-.11h0a.74.74,0,0,1-.25,0,8.8,8.8,0,0,0-1-.19,2.14,2.14,0,0,0-.82.11,4.36,4.36,0,0,1-.8.19,5.94,5.94,0,0,1-1.17.05c-.27,0-.58-.15-1.16-.25a2.33,2.33,0,0,0-1.45.28,2.56,2.56,0,0,1-.4.15h0l-.09,0-.32,0a5.58,5.58,0,0,0-.73,0c-.34,0-.66.07-.91.08l-.91,0a16.17,16.17,0,0,0-1.68,0,8.89,8.89,0,0,0-2.12.37c-.7.25-1.7.43-2.78.88a6,6,0,0,0-.92.46l-.8.46a3.92,3.92,0,0,1-.36.16c-.38.1-.83.16-1.24.26a6,6,0,0,0-.91.29c-.32.13-.61.27-.69.31a20.92,20.92,0,0,0-2.1,1.24l-.75.46a6.22,6.22,0,0,1-.78.37c-.57.23-1.29.42-2.07.76-.21.1-.37.17-.61.31a3.5,3.5,0,0,0-.65.51,10.11,10.11,0,0,0-.79.94,3.19,3.19,0,0,1-.53.59l-.67.58c-.88.73-1.58,1.29-1.77,1.49l-.56.53-.15.14-.63.56a2.72,2.72,0,0,0-.47.63c-.3.6-.44,1-.49.9s-.06,0-.21.11a3.85,3.85,0,0,0-.59.48,2.18,2.18,0,0,0-.33.45,2.37,2.37,0,0,0-.14.3l0,0v0h0l1.26.45h0c0-2.63,0-.73,0-1.32h0v0c0-.06,0-.07,0-.07a1.19,1.19,0,0,0-.44-.09l-.37.12h0l0-.1h0l0,0-.08.05-.17.09-.33.19-1.23,1.24a7,7,0,0,0-.75,1.17,6.44,6.44,0,0,1-1.5,1.42,11.66,11.66,0,0,1-1,.74,3.21,3.21,0,0,0-.94,1l-.55.9-.11.15-.2.24c-.08.11-.08.11-.16.14a2.44,2.44,0,0,0-.59.41,2.79,2.79,0,0,0-.37.42l-.17.26-.14.23-.05.1,0,0h0l.92.5h0c0-.12.22-.52.54-.89,0,0,0,0,0-.06l-.14-.15-.05-.06c-.06-.08,0-.17,0-.23h0a3.47,3.47,0,0,1,.1-.44,8.16,8.16,0,0,0,.56-1.55c.12-.52.17-.9.25-1.17a3.21,3.21,0,0,1,.12-.31q.09-.24.15-.45l.09-.35c0-.19.08-.37.09-.48a7.64,7.64,0,0,0,.12-1.36,10.32,10.32,0,0,0,.08-1.84c0-.6,0-1.12,0-1.58l0-1.12,0-.42s0,0,0,0l0-1.09v0h0c0-.69,0-1.41-.1-2.11a2.37,2.37,0,0,1,0-.44,2.37,2.37,0,0,0,0-1.09,5.77,5.77,0,0,0-.25-.9l-.06-.19,0-.08,0,0h0c.12,0-1.1.36-.58.19h0a.68.68,0,0,1,.21,0c.05,0,.19,0,.3.1l.08,0h0s0,0,.07,0a.11.11,0,0,0,.07,0,3.72,3.72,0,0,0,.21-.39,1.72,1.72,0,0,0,.17-.8c0-.21,0-.4.05-.63,0-.45,0-1,0-1.49,0-1.3-.1-1.65-.2-4.19,0-.86,0-1.46,0-2.29a4.63,4.63,0,0,0-.15-1.22c0-.29-.05-.2-.08-.46,0-1.14-.18-1.83-.19-2.6a9,9,0,0,0-.16-2.25c-.16-.57-.29-1.06-.4-1.42a5.3,5.3,0,0,1-.17-.9,12.57,12.57,0,0,0-.36-2.27l-.08-.26v-.16a3.36,3.36,0,0,1,0-.45,6.68,6.68,0,0,0,0-.71,2.6,2.6,0,0,0-.19-1l0-.07L12.19,83h0c-.09-.21-.07-.15-.08-.19h0v-.1c0-.09,0-.21,0-.37a1.77,1.77,0,0,0-.18-.74,2,2,0,0,0-.22-.34l0,0,0,0s0,0,0-.06,0-.34,0-.58a6.8,6.8,0,0,0-.11-.77c0-.25-.1-.51-.17-.78l-.12-.43,0-.1v0h0l-1,.29h0l.06,0,.88.41h0s0,0,.05-.06a.86.86,0,0,0,.1-.16,1.2,1.2,0,0,0,.16-.66,5,5,0,0,0-.25-1.37h0c0-.12.07-.14.12-.21a2.09,2.09,0,0,0,.27-.74,1.73,1.73,0,0,0-.08-.81,2,2,0,0,0-.25-.45,3.11,3.11,0,0,0-.32-.31l.51,1.34a3.72,3.72,0,0,0,0-1.7c0-.17-.07-.33-.11-.5l-.07-.25,0-.1a2.18,2.18,0,0,0-.11-.27,1.6,1.6,0,0,0-.26-.37l-.08-.09h0s0,0,0-.05h0s0,0,0,0,0,0,0-.08a1.43,1.43,0,0,0-.37-1l.31.54,0-.09a2.4,2.4,0,0,0-.63-.93l-.15-.13a0,0,0,0,1,0,0L9.71,70l-.17-.57-.3-.89-.4-1.14c-.2-.54-.35-1-.69-2-.12-.48-.17-1-.28-1.66l0-.21,0-.34,0-.27,0-.14,0-.22A6.77,6.77,0,0,0,7,61.11l-.08-.18a.31.31,0,0,1,0-.07l0-.19c-.05-.25-.11-.5-.16-.75a9.85,9.85,0,0,0-.14-1c0-.21-.1-.47-.18-.8,0-.18-.09-.34-.17-.59a3.14,3.14,0,0,0-.52-1A5.58,5.58,0,0,0,5.16,56c-.21-.2-.42-.4-.57-.57A9.1,9.1,0,0,1,3.88,54c-.14-.36-.3-.77-.49-1.24-.11-.25-.23-.53-.39-.83l-.18-.36a2.85,2.85,0,0,1-.12-.31,2.31,2.31,0,0,1-.06-1.29,2.42,2.42,0,0,1,.25-.66A1.57,1.57,0,0,1,3.11,49a6.08,6.08,0,0,0,.45-.46c.22-.25.33-.37.32-.41l0,0V48l0,0a4.92,4.92,0,0,1,2.32-.35,2.34,2.34,0,0,0,1-.06,3.61,3.61,0,0,0,.75-.31,3.71,3.71,0,0,1,.84-.37.34.34,0,0,1,.15,0,2.4,2.4,0,0,1,1.29.61,3.51,3.51,0,0,1,.56.59c.36.41.6.6.66.7l0,0a0,0,0,0,1,0,0h0l0,.08.12.41.15.54.09.28c0,.06.06,0,.11,0h.16l1,0,.88,0a8.71,8.71,0,0,0,1.73-.06l.38-.07.36,0,.83,0a9.79,9.79,0,0,0,2-.19,5.93,5.93,0,0,0,1.8-.78,6.54,6.54,0,0,1,1.39-.69l.52-.1.6-.09L25,48h0l1.38-.16s-.05,0,0,0l.55-.11c.16,0,.17,0,1.54-.33l.38-.1a5.25,5.25,0,0,0,.59-.21,5.47,5.47,0,0,0,1-.61l.72-.56a4.09,4.09,0,0,0,.4-.31.23.23,0,0,1,.1-.05h.05l.22,0a1.85,1.85,0,0,0,1.17-.07c.08,0,0-.06-.1,0a1.47,1.47,0,0,0,.67-.47l-.75.38a5.22,5.22,0,0,0,2.5-.91,6.7,6.7,0,0,1,1-.53l.25-.1.21-.07c.56-.18,1.11-.32,1.69-.47L39,43.3a3.55,3.55,0,0,0,.56-.12h0a7.94,7.94,0,0,0,1.3-.58,5.9,5.9,0,0,1,.63-.3.73.73,0,0,1,.22-.06,1.1,1.1,0,0,1,.32,0h.19l.16,0,.16,0,.19,0a3.79,3.79,0,0,0,1.39-.13,2.19,2.19,0,0,1,.49-.09,2.87,2.87,0,0,0,1.72-.45c.51-.29.41-.33.54-.33l1,0h1.21a9.33,9.33,0,0,1,1.93.09,4.78,4.78,0,0,1,.66.16l.41.19a6.08,6.08,0,0,0,1.39.38A5.79,5.79,0,0,0,54.93,42c.65-.12,1.15-.24,1.15-.24.27,0,.52-.11.74-.14a3.46,3.46,0,0,1,.65,0,17.27,17.27,0,0,1,1.72.21,4.12,4.12,0,0,0,.53.12L60,42l.19,0,0,0a9.67,9.67,0,0,1,1.22.6l.58.3.36.16.15.08c.36.15,1,.42,1.76.7a10.66,10.66,0,0,0,1.7.62l.7.18a5.35,5.35,0,0,1,1.29.58,5.13,5.13,0,0,0,1,.41l.33.07.28,0,.24,0a5.92,5.92,0,0,1,1.19.38l.13.06.51.25.28.11c.24.1.5.21.79.3l.76.23a11.19,11.19,0,0,0,1.57.33,6.73,6.73,0,0,0,1.62,0,9,9,0,0,1,1-.13,3.1,3.1,0,0,0,1-.13l.26-.06.11,0a.33.33,0,0,1,.14,0,6,6,0,0,0,1.4.35c.42.05.74.06,1,.07l1.33,0c.36,0,.74.09,1.15.12s.89,0,1.16,0a12.28,12.28,0,0,0,2.41.06l1.84-.29.38-.07.17,0,.08,0a1.36,1.36,0,0,0,.45-.17l.12-.08,0,0s0-.06.07-.06h0c.61,0,3.16-.11,4.47-1.38.23-.17.64-.53,1-.74l.23-.13.31-.15.39-.2c1.06-.45,2.14-1,3.24-1.35l.75-.2a9.32,9.32,0,0,0,1.79-.65c.77-.44,1.18-.86,1.43-.95l.58-.23-.11,0a16,16,0,0,0,2.84-1.4,3.74,3.74,0,0,0,.68-.52l.42-.44.22-.24,0,0c0-.07.56-.1.92-.15a2.81,2.81,0,0,0,.49-.1l.18,0a2.16,2.16,0,0,0,.8-.44,4.77,4.77,0,0,0,.75-.74,4.47,4.47,0,0,1,.46-.52c.16-.14.07-.09.4-.23l.72-.29.1,0a27.21,27.21,0,0,1,3.52-.78l.78-.19c.31-.09.77-.18,1.72-.49l.7-.25h0c1.06-.41,1.21-.48,1.59-.65l1.42-.68.71-.31a2.38,2.38,0,0,1,.58-.15c.15,0,.49,0,1.13-.12a4.92,4.92,0,0,0,.52-.13l.4-.16a5.41,5.41,0,0,1,.64-.16,12,12,0,0,0,1.65-.33,8.92,8.92,0,0,0,.88-.4s.4-.26.63-.37a.64.64,0,0,1,.22-.08l.29-.05.07,0,1.34-.28c.35-.06,1-.12,1.5-.18l1.74-.21a1.32,1.32,0,0,1,.51.06c.12,0,.28.06.58.1a5.48,5.48,0,0,0,1.23,0c.37,0,.79,0,1.38-.13s1.39-.24,1.64-.3a16.81,16.81,0,0,1,1.81,0,19.78,19.78,0,0,0,2-.19h.69l.8,0a7,7,0,0,1,1.24.13l.44.06.36,0a.4.4,0,0,1,.25.09,2,2,0,0,0,1.25.25,4.7,4.7,0,0,0,.63-.13l.27-.08H151s0,.09,0-.19a3.57,3.57,0,0,1,0-.42c0-.08,0-.16,0-.21s0-.11,0-.06l0,0h0c-1.13,1.39-.31.39-.56.7h0a1.59,1.59,0,0,0,.49.24,1.9,1.9,0,0,0,1.11,0l.14,0h0l.24,0a2.26,2.26,0,0,1,.5.18l.07,0s0,0,0,0l.15.08a2.29,2.29,0,0,0,.56.14,1.89,1.89,0,0,0,.7-.08,2.21,2.21,0,0,0,.64-.31.26.26,0,0,1,.11-.14,3.83,3.83,0,0,1,.63.17,3.65,3.65,0,0,0,1.23.21l0-2a6.55,6.55,0,0,1-1-.36H156a2.54,2.54,0,0,0-1.77.07l-.14.06h-.06a1.29,1.29,0,0,0,0,.19v.23a1,1,0,0,1,0,.15l0,.05h0l.32-.55h0l-.22-.13a3.56,3.56,0,0,0-1.08-.42l-.36-.06a3,3,0,0,0-.44,0,2,2,0,0,0-.78.17l-.05,0h0a1.87,1.87,0,0,1,.06.22,1.33,1.33,0,0,1,0,.5v0h0c.71-1.35.2-.38.35-.68h0l0,0,0,0-.13-.06a2,2,0,0,0-.27-.08,2.33,2.33,0,0,0-1.11.09,1.79,1.79,0,0,1-.36.1.23.23,0,0,1-.18,0,2.87,2.87,0,0,0-.8-.21,7.13,7.13,0,0,1-.73-.08c-.23,0-.52-.09-.76-.11-.5-.06-1-.09-1.38-.1-.86,0-1.57,0-2.23,0l-.36,0h-.57s0,0,.08,0a11.46,11.46,0,0,0-2.49.26c-.66.15-1.07.22-1.57.29l-1.16,0a4.13,4.13,0,0,1-.8-.11,4.87,4.87,0,0,0-.9-.08c-.48,0-.67.06-1,.09l-1.81.13-.39,0-.44,0-.68.12-.2.06-.36.07-.43.1-.22,0-.35.1a4.38,4.38,0,0,0-.93.48c-.23.16-.43.3-.61.41a1.55,1.55,0,0,1-.59.22,14.09,14.09,0,0,0-2.08.47c-.23,0-.2,0-.33,0a.68.68,0,0,1-.17,0,5.21,5.21,0,0,1-.6.05c-.27,0-.58.05-.86.1s-.48.13-.46.12c-.76.19-1.51.44-2.2.68l-.45.31-.65.27s0,.07,0,.13"/><path class="cls-4" d="M55.24,75.22,50,76.34l-2.59-12,5.22-1.12Zm-4-9.82-1.65.36.36,1.69,1.66-.36Zm1.54,11.22a29.25,29.25,0,0,1-1.17,4.14,10.88,10.88,0,0,0-1.73-.67,15.37,15.37,0,0,0,1.06-3.62Zm-.82-7.9-1.65.36.37,1.73,1.65-.36Zm.73,3.38L51,72.46l.37,1.72L53,73.83Zm10.8.83A12.06,12.06,0,0,0,67.4,75.4a8.68,8.68,0,0,0-1,1.8,13.73,13.73,0,0,1-3.34-2.38l.74,3.43-1.83.4-1.12-5.16-1.14.25,1.11,5.14L59,79.27l-.66-3a10.66,10.66,0,0,1-1.33,3,10.4,10.4,0,0,0-1.41-1.13l-.69.68a22.52,22.52,0,0,0-1.81-2l1.24-1.07a17.06,17.06,0,0,1,1.53,1.54,11,11,0,0,0,1.28-2.95l-1.44.31L55.4,73l2.17-.47-.22-1.05L54.81,72l-.35-1.63L57,69.85l-.21-1-2.1.45-.34-1.57,2.1-.46-.22-1L54,66.74l-.36-1.63,2.25-.49c-.37-.57-1-1.3-1.42-1.87l1.7-1.15c.56.62,1.3,1.48,1.69,2l-1.08.8,2.42-.52a19.72,19.72,0,0,0,1-3.17l2.25.4c-.36.79-.78,1.58-1.15,2.31l2.83-.61.35,1.63L61,65.21l.22,1,2.87-.62.56,2.57,1-.23.35,1.64-1,.22.57,2.64Zm-5.21-6,1.14-.25-.22-1L58,65.86Zm.55,2.57L60,69.21l-.22-1-1.14.25Zm1.73,2.44-.23-1.05-1.14.24.22,1Zm1-4.08.22,1,1.1-.24-.21-1Zm1.68,2.39-1.11.24.23,1,1.1-.24Z"/><path class="cls-4" d="M85.79,71l.4,1.86L69.77,76.36,66.25,60l16-3.46.4,1.85L75.28,60l1.46.1c-.09.61-.19,1.22-.34,1.82l2-.43a10.17,10.17,0,0,0-.85-1.23l1.84-1A11.53,11.53,0,0,1,80.68,61l2.2-.47.36,1.68-2.79.61.21,1,2.25-.48.33,1.52L81,65.36l.21,1,2.25-.49.34,1.54-2.26.48.23,1,2.92-.64L85.05,70l-6.89,1.49.14.64-1.93.42L75,66a10.8,10.8,0,0,1-.57,1,9.3,9.3,0,0,0-1.07-1l-.7,1.31A12.84,12.84,0,0,0,69.82,66l1.73,8Zm-17-9.53,1,4.48.78-1.45a13.79,13.79,0,0,1,2.42.9,13.64,13.64,0,0,0,1.79-5.22l-3.9.84a11.6,11.6,0,0,1,2.79,1.07l-1,1.7a11.18,11.18,0,0,0-2.8-1.24L70.78,61ZM71.58,72c.49-1.11,1.15-2.86,1.67-4.49l1.54,1c-.38,1.43-.91,3.08-1.4,4.52Zm6.88-8.73-2,.42.21,1,2-.43ZM79,65.79l-2,.43.21,1,2-.43Zm.55,2.53-2,.43.22,1,2-.42Z"/><path class="cls-4" d="M98,64.21a8.72,8.72,0,0,0-.56-.84c-4.39,1.42-5.07,1.68-5.5,2a14.15,14.15,0,0,0-1-1.65c-1.1.92-2.27,1.88-3.26,2.65L86.21,64.8c1.09-.68,2.69-1.81,4.27-2.9l.76,1.54-.3.26a4.13,4.13,0,0,0,1.39-1.3,18.41,18.41,0,0,0,1.2-1.63,7.89,7.89,0,0,0-2.07.78c-.2-.37-.66-1.17-1-1.62a1.81,1.81,0,0,0,.73-.82c.12-.24.41-.82.71-1.55l-6.4,1.38-.43-2,7-1.51c-.29-.33-.6-.68-.87-.93l2.15-1a10,10,0,0,1,1.38,1.38l6.68-1.45.43,2-7.75,1.67A16.62,16.62,0,0,1,93.16,59l1.69-.42a16.32,16.32,0,0,0,.88-1.78l1.92.64a31.68,31.68,0,0,1-3.38,5.09L96.21,62a7.79,7.79,0,0,0-.84-.8l1.51-.94c.36.32.77.66,1.14,1l1-1.24a23.49,23.49,0,0,1,4.25,1.58L102,63.33a18.66,18.66,0,0,0-3.47-1.51,8,8,0,0,1,1.06,1.36Zm-8.89-2.13a16.32,16.32,0,0,0-3.21-1.52l1.21-1.5a16.3,16.3,0,0,1,3.3,1.37Zm15.3,3.85L97,67.52l.74,3.41-2.39.52L94.65,68l-7.34,1.58-.45-2.06L94.2,66l-.27-1.26,2.38-.51.27,1.25,7.36-1.59Zm-6.74-6.79a16.63,16.63,0,0,0,1.9-2.85l2.09.67a23.2,23.2,0,0,1-2.12,2.85Z"/><path class="cls-4" d="M108.32,51a30.42,30.42,0,0,1-.54,3.69l2.9,13.45-2.12.46-2-9.44a20.27,20.27,0,0,1-.84,1.85,18.6,18.6,0,0,0-1.59-2.17,21.43,21.43,0,0,0,2-8Zm14.21,7.07-1.71.36a8.63,8.63,0,0,1,1,.81l-1,1a10.91,10.91,0,0,0-1.31-1.09c0,.83-.42,1.17-1.41,1.39l-1.64.35c-.12.22-.23.45-.36.67l3.81-.82.36-.16,1.49.46A7.63,7.63,0,0,1,119.6,64a30.3,30.3,0,0,0,4.11-.32,8.21,8.21,0,0,0-.72,1.87,25.31,25.31,0,0,1-5.56,0,31.88,31.88,0,0,1-5.21,2.38,7.12,7.12,0,0,0-1.41-1.38,36.9,36.9,0,0,0,4-1.56c-.42-.15-.83-.3-1.22-.47a17.74,17.74,0,0,1-1.42,1.17,4.91,4.91,0,0,0-1.47-1,12.8,12.8,0,0,0,1.39-1,6.81,6.81,0,0,1-.83-.65l1.5-.91a5.87,5.87,0,0,0,.54.41,9.06,9.06,0,0,0,1-1.4,1.14,1.14,0,0,1-.79-.91A6.73,6.73,0,0,1,112.44,62L111,61.34a5.33,5.33,0,0,0,.72-.93l-1.76.38-.58-2.66,1.71-.37-1-4.65,3.09-.67a5.35,5.35,0,0,0,0-.69l-4.37,1-.34-1.6,11.61-2.5.34,1.59-4.93,1.07-.14.71,4-.86,1,4.65,1.58-.34Zm-3.1-.53c.34.2.7.4,1,.65l-.24-1.1-3.6.77a10.08,10.08,0,0,1,1.21.7l-1.08,1a10.85,10.85,0,0,0-1.72-1l.5-.42-4,.86.27,1.27a6.58,6.58,0,0,0,.57-1.12l1,.26-.08-.37,1.74-.38.18.84c.08.38.21.41.72.3l1.65-.36c.37-.08.45-.19.38-.75a4.74,4.74,0,0,0,1,.13c-.16-.12-.34-.22-.5-.32Zm-7.1-3.79.12.56,5.2-1.12-.12-.56Zm5.51.34-5.19,1.12.13.6L118,54.71Zm-4.74,3.22,5.2-1.12-.13-.6L113,56.73ZM117,63.77a8.11,8.11,0,0,0,1.69-1.37l-3.86.85A8.41,8.41,0,0,0,117,63.77Z"/><path class="cls-4" d="M129.59,48.53,122.77,50l-.37-1.74,6.81-1.47-.2-.9,2.31-.5.2.9,7-1.51.37,1.74-7,1.51.18.83,5.73-1.24L139,53.18l-1.85.4a17.84,17.84,0,0,1,3.78,1.62l-1.3,1.53c-.3-.21-.65-.4-1.06-.63l-5.36,1.27a12.08,12.08,0,0,1,2.65,1.34l-1.25,1.6a14.8,14.8,0,0,0-3.29-1.7l.81-1L125,59.27l-.5-1.86c1.81-.37,4.17-.88,6.74-1.45L131,54.91l-5.68,1.23-1.2-5.56,5.68-1.22Zm-4.52,14.84a10.42,10.42,0,0,0,1-3.71l2.1.37a14.32,14.32,0,0,1-.94,4Zm1.58-11.08,3.58-.78-.19-.86-3.58.78Zm4,1.31-.19-.87-3.58.78.18.86Zm5.15,7c.83-.18.95-.44.74-1.85a7,7,0,0,0,2.09.27c.2,2.24-.3,2.92-2.25,3.34l-3.66.79c-2.61.56-3.4.16-3.79-1.66l-.46-2.14,2.21-.48.46,2.12c.11.51.31.55,1.4.31Zm-3.48-10.41.19.87,3.51-.76-.19-.86Zm.64,3,3.51-.76-.19-.86-3.51.76Zm2.85,1.84c-.34-.11-.65-.2-1-.28l.73-.75-2.33.5.23,1.05Zm3.69,1.91a11.63,11.63,0,0,1,2.74,3.24l-1.92,1.1a12.6,12.6,0,0,0-2.62-3.3Z"/><path class="cls-1" d="M20.87,84.64l.56,2.59-1.61.35L19.26,85l-2.54.55-.37-1.71,2.54-.55-.21-1-2.05.44L15.35,76.8l2-.44-.19-.85-2.3.5-.36-1.7,2.3-.49-.34-1.56,1.61-.35.34,1.56L20.79,73l.37,1.7-2.35.5L19,76l2.17-.47,1.28,5.93-2.15.46.21,1L23,82.38l.36,1.71Zm-3.65-5.8.87-.19-.21-1-.87.19Zm.48,2.25.87-.19-.21-1-.87.19ZM20,77.22l-.91.2.2,1,.92-.19Zm.49,2.25-.92.2.21,1,.92-.19Zm9.07-7.65L21.36,73.6,21,72l8.24-1.78ZM24.13,80a18.91,18.91,0,0,0-2.39-3,29.93,29.93,0,0,0,.76-3.37h1.66c-.22,1-.5,2.08-.77,3A19,19,0,0,1,25.51,79Zm8.09,2.77.36,1.64-8.86,1.92-.35-1.65,3.48-.75-.53-2.45-2.74.6-.35-1.65,7.62-1.64.35,1.64-2.94.64.53,2.44Zm-5.44-9.67a27.09,27.09,0,0,1-.82,3,16.73,16.73,0,0,1,2.23,2.34l-1.36.94a17.57,17.57,0,0,0-2.55-2.9,25.07,25.07,0,0,0,.85-3.36Zm2.83,5.72a16.4,16.4,0,0,0-2.69-2.91,30.18,30.18,0,0,0,1-3.41h1.68c-.26,1-.63,2.1-.95,3A15.25,15.25,0,0,1,31,77.85Z"/><path class="cls-1" d="M39.24,75.53c-.17-.15-.4-.34-.67-.54-4.41,1.28-5,1.43-5.43,1.69-.13-.23-.44-.77-.63-1.05a1.49,1.49,0,0,0,.54-.41,6,6,0,0,0,.58-.69L32,74.88l-.24-1.08L33,73.52,32.1,69.3l6.39-1.37L38.73,69l-4.64,1,.1.44,4.12-.89.19.89-4.12.89.1.46,4.12-.89.19.87-4.12.89.1.47,5-1.08L40,73.15l-1.34.29a17.78,17.78,0,0,1,1.72,1.22Zm-2,3.33c.62.26,2,.93,2.38,1.14l-.76,1.49c-.28-.25-.76-.61-1.26-1l.65,3-1.74.38L35.91,81a9.86,9.86,0,0,1-1.31,2.31,8.06,8.06,0,0,0-1.45-1.06A9.18,9.18,0,0,0,35.21,79L33,79.49,32.71,78l2.43-.53-.25-1.16,1.74-.38.25,1.17,2-.44.32,1.48-2,.43ZM37.19,74l.48-.35-2.35.51c-.23.31-.45.61-.72.91l3-.81Zm5,1.16a10.27,10.27,0,0,1-1.81,4.38,9.72,9.72,0,0,0-1.5-.83,7.39,7.39,0,0,0,1.59-3.61ZM44.73,67a17.49,17.49,0,0,1-4.13,3,6.46,6.46,0,0,0-1.35-.85,16.9,16.9,0,0,0,3.83-2.55Zm.9,1.92a13.42,13.42,0,0,1-4.46,3.27,6.1,6.1,0,0,0-1.29-1,12.11,12.11,0,0,0,4.1-2.6Zm.88,2c-1,1.59-3,2.81-5.27,3.78A4.82,4.82,0,0,0,40,73.63c2-.73,3.95-1.78,4.78-2.93ZM45.75,78c.91.86,2.11,2,2.76,2.69l-1.37,1c-.17-.22-.4-.47-.64-.74-4.25,1.28-5,1.52-5.39,1.8a10.23,10.23,0,0,0-.91-1.4,2.1,2.1,0,0,0,.82-.92,14.8,14.8,0,0,0,1.44-3.69l1.82.46a19.25,19.25,0,0,1-1.5,3.19l2.5-.69-.83-.82Zm-1-4.08a7,7,0,0,0,3.45,2.43A8.57,8.57,0,0,0,47.29,78a9.7,9.7,0,0,1-3.36-2.4l-1.43.31-.31-1.48Z"/><path class="cls-5" d="M55.24,75.22,50,76.34l-2.59-12,5.22-1.12Zm-4-9.82-1.65.36.36,1.69,1.66-.36Zm1.54,11.22a29.25,29.25,0,0,1-1.17,4.14,10,10,0,0,0-1.73-.67,15.31,15.31,0,0,0,1.06-3.63Zm-.82-7.9-1.65.36.37,1.73,1.65-.36Zm.73,3.38L51,72.46l.37,1.72L53,73.83Zm10.8.83A12.23,12.23,0,0,0,67.4,75.4a8.68,8.68,0,0,0-1,1.8,14,14,0,0,1-3.34-2.38l.74,3.43-1.84.4-1.11-5.16-1.14.25,1.11,5.14L59,79.27l-.66-3a10.66,10.66,0,0,1-1.33,3,10.4,10.4,0,0,0-1.41-1.13l-.69.68a21.23,21.23,0,0,0-1.81-2l1.24-1.07a17.06,17.06,0,0,1,1.53,1.54,11,11,0,0,0,1.28-2.95l-1.44.31L55.4,73l2.17-.46-.22-1.06L54.81,72l-.35-1.63L57,69.85l-.21-1-2.1.45-.34-1.58,2.1-.45-.22-1L54,66.74l-.36-1.63,2.25-.49c-.37-.57-1-1.3-1.42-1.87l1.7-1.15c.56.62,1.3,1.48,1.69,2l-1.08.8,2.42-.52a19.72,19.72,0,0,0,1-3.17l2.25.4c-.36.78-.78,1.58-1.15,2.31l2.83-.61.35,1.63L61,65.21l.22,1,2.87-.62.56,2.58,1-.23.35,1.64-1,.22.57,2.64Zm-5.21-6,1.14-.25-.22-1L58,65.86Zm.55,2.57L60,69.21l-.22-1-1.14.24Zm1.73,2.44-.23-1.06-1.14.25.22,1Zm1-4.08.22,1,1.1-.23-.21-1Zm1.68,2.39-1.11.24.23,1,1.1-.24Z"/><path class="cls-5" d="M85.79,71l.4,1.86L69.77,76.36,66.25,60l16-3.46.4,1.85L75.28,60l1.46.1c-.09.61-.19,1.22-.34,1.82l2-.44a10.67,10.67,0,0,0-.86-1.23l1.85-1A11.53,11.53,0,0,1,80.68,61l2.2-.48.36,1.69-2.79.61.21,1,2.25-.49.33,1.52L81,65.36l.21,1,2.25-.48.34,1.54-2.26.48.23,1,2.92-.64L85.05,70l-6.89,1.49.14.64-1.93.41L75,66a9.8,9.8,0,0,1-.57,1,10.26,10.26,0,0,0-1.07-1l-.7,1.31a13.33,13.33,0,0,0-2.8-1.3l1.73,8Zm-17-9.54,1,4.49.78-1.45a13.4,13.4,0,0,1,2.41.9,13.48,13.48,0,0,0,1.8-5.22l-3.9.84a11.6,11.6,0,0,1,2.79,1.07l-1,1.7a11.56,11.56,0,0,0-2.8-1.25l.85-1.5ZM71.58,72c.49-1.11,1.15-2.86,1.67-4.49l1.54,1c-.38,1.44-.91,3.09-1.4,4.53Zm6.88-8.73-2,.42.21,1,2-.43ZM79,65.79l-2,.43.21,1,2-.43Zm.55,2.53-2,.43.22,1,2-.43Z"/><path class="cls-5" d="M98,64.21a8.72,8.72,0,0,0-.56-.84c-4.39,1.42-5.07,1.68-5.5,2a14.15,14.15,0,0,0-1-1.65c-1.1.92-2.27,1.88-3.26,2.64L86.21,64.8c1.09-.68,2.69-1.82,4.27-2.9l.76,1.54-.3.26a4.13,4.13,0,0,0,1.39-1.3,18.41,18.41,0,0,0,1.2-1.63,7.89,7.89,0,0,0-2.07.78c-.2-.37-.66-1.17-1-1.62a1.81,1.81,0,0,0,.73-.82c.12-.24.41-.82.71-1.55l-6.4,1.38-.43-2,7-1.51c-.29-.33-.6-.68-.87-.93l2.15-1a10.51,10.51,0,0,1,1.38,1.37l6.68-1.44.43,2-7.75,1.67A17.41,17.41,0,0,1,93.16,59l1.69-.42a16.32,16.32,0,0,0,.88-1.78l1.92.64a31.68,31.68,0,0,1-3.38,5.09L96.21,62a7.79,7.79,0,0,0-.84-.8l1.51-.94c.36.32.77.66,1.14,1l1-1.24a23.49,23.49,0,0,1,4.25,1.58L102,63.33a19.31,19.31,0,0,0-3.47-1.52,8.47,8.47,0,0,1,1.06,1.37Zm-8.89-2.13a15.77,15.77,0,0,0-3.21-1.52l1.21-1.5a16.3,16.3,0,0,1,3.3,1.37Zm15.3,3.85L97,67.51l.74,3.42-2.39.51L94.65,68l-7.34,1.58-.45-2.06L94.2,66l-.27-1.25,2.38-.52.27,1.26,7.36-1.59Zm-6.74-6.79a16.63,16.63,0,0,0,1.9-2.85l2.09.67a23.2,23.2,0,0,1-2.12,2.85Z"/><path class="cls-5" d="M108.32,51a30.42,30.42,0,0,1-.54,3.69l2.9,13.45-2.12.46-2-9.44a20.27,20.27,0,0,1-.84,1.85,18.6,18.6,0,0,0-1.59-2.17,21.43,21.43,0,0,0,2-8Zm14.21,7.06-1.71.37a9.9,9.9,0,0,1,1,.8l-1,1a10.91,10.91,0,0,0-1.31-1.09c0,.83-.42,1.17-1.41,1.39l-1.64.35c-.12.22-.23.44-.36.67l3.81-.82.36-.16,1.49.46A7.63,7.63,0,0,1,119.6,64a30.3,30.3,0,0,0,4.11-.32A8.13,8.13,0,0,0,123,65.5a24.74,24.74,0,0,1-5.56,0,31.88,31.88,0,0,1-5.21,2.38,7.16,7.16,0,0,0-1.41-1.39,35,35,0,0,0,4-1.55c-.42-.15-.83-.3-1.22-.47a17.74,17.74,0,0,1-1.42,1.17,4.91,4.91,0,0,0-1.47-1,13.86,13.86,0,0,0,1.39-1,6.81,6.81,0,0,1-.83-.65l1.5-.91a5.87,5.87,0,0,0,.54.41,9.06,9.06,0,0,0,1-1.4,1.14,1.14,0,0,1-.79-.91A6.73,6.73,0,0,1,112.44,62l-1.42-.7a5.24,5.24,0,0,0,.72-.92l-1.76.38-.58-2.66,1.71-.37-1-4.65,3.09-.67c0-.22,0-.45,0-.69l-4.37,1-.34-1.6,11.61-2.51.34,1.6-4.93,1.07-.14.71,4-.86,1,4.65,1.58-.34Zm-3.1-.52a11.11,11.11,0,0,1,1,.65l-.24-1.1-3.6.77a10.08,10.08,0,0,1,1.21.7l-1.08,1a10.85,10.85,0,0,0-1.72-1l.5-.42-4,.86.27,1.27a6.58,6.58,0,0,0,.57-1.12l1,.26-.08-.37,1.74-.38.18.84c.08.38.21.41.72.3l1.65-.36c.37-.08.45-.19.38-.75a4.74,4.74,0,0,0,1,.13c-.16-.12-.34-.22-.5-.32Zm-7.1-3.79.12.56,5.2-1.12-.12-.57Zm5.51.34-5.19,1.12.13.6L118,54.71Zm-4.74,3.22,5.2-1.12-.13-.6L113,56.73ZM117,63.77a8.11,8.11,0,0,0,1.69-1.37l-3.86.85A8.41,8.41,0,0,0,117,63.77Z"/><path class="cls-5" d="M129.59,48.53,122.77,50l-.37-1.74,6.81-1.47-.2-.91,2.31-.49.2.9,7-1.51.37,1.74-7,1.51.18.83,5.73-1.24L139,53.18l-1.86.4a18.26,18.26,0,0,1,3.79,1.61l-1.3,1.54a10.62,10.62,0,0,0-1.06-.63l-5.36,1.27a12.08,12.08,0,0,1,2.65,1.34l-1.25,1.6a14.8,14.8,0,0,0-3.29-1.7l.81-1L125,59.27l-.5-1.86c1.81-.37,4.17-.88,6.74-1.45L131,54.91l-5.68,1.23-1.2-5.56,5.68-1.22Zm-4.52,14.84a10.42,10.42,0,0,0,1-3.71l2.1.37a14.32,14.32,0,0,1-.94,4Zm1.58-11.08,3.58-.78-.19-.86-3.58.77Zm4,1.31-.19-.87-3.58.78.18.86Zm5.15,6.95c.83-.17.95-.43.74-1.84a7,7,0,0,0,2.09.27c.2,2.24-.3,2.91-2.25,3.34l-3.66.79c-2.61.56-3.4.16-3.79-1.66l-.46-2.14,2.21-.48.46,2.12c.11.51.31.54,1.4.31Zm-3.48-10.4.19.87,3.51-.76-.19-.86Zm.64,3,3.51-.76-.19-.86-3.51.76Zm2.85,1.84-1-.29.73-.74-2.33.5.23,1.05Zm3.69,1.91a11.63,11.63,0,0,1,2.74,3.24l-1.92,1.1a12.6,12.6,0,0,0-2.62-3.3Z"/></svg>