<svg id="txt" xmlns="http://www.w3.org/2000/svg" viewBox="0 0 333.27 151.28"><defs><style>.cls-1,.cls-6{fill:none;}.cls-1,.cls-6,.cls-7{stroke:#3e454f;stroke-linecap:round;stroke-linejoin:round;}.cls-1{stroke-width:4px;}.cls-2,.cls-7{fill:#ffdc5f;}.cls-3{fill:#3e454f;}.cls-4{fill:#23c8c8;}.cls-5{fill:#fff;}.cls-6{stroke-width:3.72px;}.cls-7{stroke-width:2px;}.cls-8{fill:#f4a91e;}</style></defs><title>工作區域 2</title><path class="cls-1" d="M44.13,16.56S44.13,28,35.5,28c8.63,0,8.63,11.41,8.63,11.41S44.13,28,52.76,28C44.13,28,44.13,16.56,44.13,16.56Z"/><path class="cls-2" d="M44.13,16.56S44.13,28,35.5,28c8.63,0,8.63,11.41,8.63,11.41S44.13,28,52.76,28C44.13,28,44.13,16.56,44.13,16.56Z"/><path class="cls-1" d="M99.37,52.59c2.68,2,6.24,4.56,8.08,6.24l-3,3a99,99,0,0,0-8.64-7.16l2.28-2H95.57c-1.47,4.4-4.87,7.28-12.83,9a11.21,11.21,0,0,0-2.32-3.68c6-1.08,8.8-2.76,10.24-5.32H81.78v-3.8h2.76V38l-.2.16a13.41,13.41,0,0,0-2.28-2.84v.92H78.62v5.72c1.12-.32,2.2-.68,3.32-1l.68,4.28c-1.32.44-2.64.88-4,1.28V56c0,2.28-.36,3.52-1.6,4.32s-2.92,1-5.4,1a21.39,21.39,0,0,0-1.24-4.68c1.32,0,2.6,0,3.08,0s.64-.16.64-.68V47.87L70.46,49l-1.08-4.56c1.36-.32,3-.76,4.72-1.24v-7H70v-4.4H74.1V24.23h4.52v7.56h3.44v2.72A24.61,24.61,0,0,0,89.3,24.27l4.36.72c-.33.76-.68,1.6-1.08,2.4h5.07l.64-.16,2.8,1.84a38.3,38.3,0,0,1-3,4.88h6.56V48.79h2.4v3.8Zm-11-9.36a17.74,17.74,0,0,0,4.72-5.48H88.38Zm8.39,2.36c-.08,1.12-.2,2.2-.32,3.2h4.2V44l-1.36,1.64A35.76,35.76,0,0,0,94.42,42a22.09,22.09,0,0,1-3.64,3.8,15.6,15.6,0,0,0-2.4-1.8v4.76h3.48c.16-1,.28-2.08.36-3.2ZM90.54,31.07A27.5,27.5,0,0,1,88.46,34h5.12a32.28,32.28,0,0,0,1.75-2.88Zm10.11,6.68H97c-.28.6-.6,1.2-.92,1.8a37.31,37.31,0,0,1,4.56,2.88Z"/><path class="cls-1" d="M146.53,56.31v4h-35V25.47h34.19v4H129.94l2.92.84c-.44,1.2-.92,2.4-1.48,3.56h4.31A24,24,0,0,0,134.5,31l4.19-1.24a24.77,24.77,0,0,1,1.8,4.12h4.68v3.6h-6v2.12H144v3.24h-4.8v2.12H144v3.28h-4.8v2.2h6.24V54H130.78v1.36h-4.12V41.43a23.29,23.29,0,0,1-1.6,1.8,18.57,18.57,0,0,0-1.76-2.44l-2,2.36a26.3,26.3,0,0,0-5.12-3.88v17ZM116.18,29.43V39l2.24-2.6a27.93,27.93,0,0,1,4.52,2.88,28.2,28.2,0,0,0,6-9.84h-8.32a23.88,23.88,0,0,1,5.2,3.4l-2.68,3a23.57,23.57,0,0,0-5.16-3.76l2.4-2.68Zm1,22.76c1.48-2,3.6-5.32,5.36-8.4l2.68,2.8c-1.4,2.76-3.2,5.88-4.84,8.6ZM135,37.43h-4.2v2.12H135Zm0,5.36h-4.2v2.12H135Zm0,5.4h-4.2v2.2H135Z"/><path class="cls-1" d="M162,55.11a26.65,26.65,0,0,0,8.16.92c3,0,13.71,0,17.31-.16a19,19,0,0,0-1.8,4.72H170.14c-7.44,0-12.2-1-15.36-5.48a29,29,0,0,1-1.84,6.48,26.5,26.5,0,0,0-3.8-2.08c2-4,2.32-10.4,2.36-17.2l4.16.28c0,1.84-.08,3.68-.16,5.44a12.06,12.06,0,0,0,2.24,4.24v-12h-7.52v-4.2H157V32.43h-5.84V28.31H157v-4h4.4v4h5.68v4.12h-5.68v3.68h6.36v1a10.73,10.73,0,0,0,4.76-7.44h-4.28v-4h17.63s0,1.08,0,1.64c-.28,6.64-.64,9.56-1.6,10.68a3.89,3.89,0,0,1-2.68,1.36,30.15,30.15,0,0,1-4.44.08,9.6,9.6,0,0,0-1.16-4,28.16,28.16,0,0,0,3.24.16,1.48,1.48,0,0,0,1.16-.4c.36-.52.64-2,.84-5.56h-4.24c-.92,5-3.08,8.52-6.71,10.84a26.11,26.11,0,0,0-2.48-2v1.84H162v4.36h5.28v4.12H162ZM169.26,41h15.63v12.6H169.26Zm4.44,8.8h6.47v-5H173.7Z"/><path class="cls-1" d="M201.18,25.59a67.21,67.21,0,0,1-2.72,7.28V61.55h-4.52V41.43a41.75,41.75,0,0,1-2.52,3.4,39.68,39.68,0,0,0-2.28-5.12,44.67,44.67,0,0,0,7.68-15.44ZM227,46.23h-3.64a20.2,20.2,0,0,1,1.72,2.08l-2.56,1.6a22,22,0,0,0-2.2-2.8c-.4,1.68-1.36,2.2-3.48,2.2h-3.47c-.36.4-.68.8-1,1.2h8.11l.8-.16,2.84,1.6a15.69,15.69,0,0,1-5.64,5A66.43,66.43,0,0,0,227,58.07a16.3,16.3,0,0,0-2.28,3.48,51.3,51.3,0,0,1-11.36-2.36,64.36,64.36,0,0,1-11.63,2.56,15.09,15.09,0,0,0-2.28-3.44,71,71,0,0,0,8.92-1.4c-.8-.48-1.56-1-2.28-1.48-1,.6-2.16,1.2-3.4,1.76a10.2,10.2,0,0,0-2.56-2.68A31.12,31.12,0,0,0,203.38,53a13.55,13.55,0,0,1-1.4-1.68l3.44-1.2c.28.36.6.72.92,1.08a18.4,18.4,0,0,0,2.72-2.4,2.38,2.38,0,0,1-1.2-2.2,14,14,0,0,1-3.12,3.2l-2.6-2A11.11,11.11,0,0,0,204,46.23h-3.76V40.55h3.64V30.63h6.6c.12-.44.2-.92.28-1.4h-9.32v-3.4h24.75v3.4H215.69l-.6,1.4h8.56v9.92H227Zm-6.08-2.44c.6.56,1.24,1.12,1.84,1.8V43.23h-7.68a18.41,18.41,0,0,1,2.16,2l-2.63,1.56a21.24,21.24,0,0,0-3-2.88l1.2-.64H204.3V46a14.66,14.66,0,0,0,1.64-2l1.88,1v-.8h3.72v1.8c0,.8.24.92,1.32.92h3.51c.8,0,1-.2,1.12-1.36a10,10,0,0,0,1.88.68c-.28-.32-.6-.6-.88-.88ZM208.14,33v1.2h11.07V33Zm11.07,3.12H208.14v1.28h11.07Zm-11.07,4.48h11.07V39.27H208.14Zm5.19,14.84a16.37,16.37,0,0,0,4-2l-8.23,0A17.87,17.87,0,0,0,213.33,55.39Z"/><path class="cls-1" d="M229.86,58.11A21.89,21.89,0,0,0,233.54,51l4.12,1.68A30.13,30.13,0,0,1,234,60.43Zm15.72-28.24H231.06V26.15h14.52V24.23h4.92v1.92h14.91v3.72H250.5v1.76h12.19V43.47h-4a37.77,37.77,0,0,1,7,5L262.41,51c-.52-.56-1.16-1.12-1.88-1.76l-11.47.24a24.79,24.79,0,0,1,4.79,3.88l-3.23,2.72a31,31,0,0,0-6-4.92l2.08-1.64c-5.8.08-11.16.16-15.32.2l-.2-4c3.84,0,8.88,0,14.36,0V43.47H233.46V31.63h12.12Zm-7.64,6.36h7.64V34.39h-7.64Zm7.64,4.44V38.83h-7.64v1.84ZM253,57.11c1.75,0,2.11-.48,2.31-3.44a14.81,14.81,0,0,0,4.12,1.48c-.56,4.64-1.88,5.8-6,5.8h-7.8c-5.56,0-7-1.16-7-5V51.35h4.72v4.52c0,1.08.4,1.24,2.72,1.24ZM250.5,34.39v1.84H258V34.39Zm0,6.28H258V38.83H250.5Zm5,5c-.64-.36-1.24-.68-1.83-1l1.8-1.2h-5v2.24Zm6.68,5.52a24.39,24.39,0,0,1,4.16,7.8l-4.4,1.4a26.49,26.49,0,0,0-3.88-7.88Z"/><path class="cls-3" d="M99.37,52.59c2.68,2,6.24,4.56,8.08,6.24l-3,3a99,99,0,0,0-8.64-7.16l2.28-2H95.57c-1.47,4.4-4.87,7.28-12.83,9a11.21,11.21,0,0,0-2.32-3.68c6-1.08,8.8-2.76,10.24-5.32H81.78v-3.8h2.76V38l-.2.16a13.41,13.41,0,0,0-2.28-2.84v.92H78.62v5.72c1.12-.32,2.2-.68,3.32-1l.68,4.28c-1.32.44-2.64.88-4,1.28V56c0,2.28-.36,3.52-1.6,4.32s-2.92,1-5.4,1a21.39,21.39,0,0,0-1.24-4.68c1.32,0,2.6,0,3.08,0s.64-.16.64-.68V47.87L70.46,49l-1.08-4.56c1.36-.32,3-.76,4.72-1.24v-7H70v-4.4H74.1V24.23h4.52v7.56h3.44v2.72A24.61,24.61,0,0,0,89.3,24.27l4.36.72c-.33.76-.68,1.6-1.08,2.4h5.07l.64-.16,2.8,1.84a38.3,38.3,0,0,1-3,4.88h6.56V48.79h2.4v3.8Zm-11-9.36a17.74,17.74,0,0,0,4.72-5.48H88.38Zm8.39,2.36c-.08,1.12-.2,2.2-.32,3.2h4.2V44l-1.36,1.64A35.76,35.76,0,0,0,94.42,42a22.09,22.09,0,0,1-3.64,3.8,15.6,15.6,0,0,0-2.4-1.8v4.76h3.48c.16-1,.28-2.08.36-3.2ZM90.54,31.07A27.5,27.5,0,0,1,88.46,34h5.12a32.28,32.28,0,0,0,1.75-2.88Zm10.11,6.68H97c-.28.6-.6,1.2-.92,1.8a37.31,37.31,0,0,1,4.56,2.88Z"/><path class="cls-3" d="M146.53,56.31v4h-35V25.47h34.19v4H129.94l2.92.84c-.44,1.2-.92,2.4-1.48,3.56h4.31A24,24,0,0,0,134.5,31l4.19-1.24a24.77,24.77,0,0,1,1.8,4.12h4.68v3.6h-6v2.12H144v3.24h-4.8v2.12H144v3.28h-4.8v2.2h6.24V54H130.78v1.36h-4.12V41.43a23.29,23.29,0,0,1-1.6,1.8,18.57,18.57,0,0,0-1.76-2.44l-2,2.36a26.3,26.3,0,0,0-5.12-3.88v17ZM116.18,29.43V39l2.24-2.6a27.93,27.93,0,0,1,4.52,2.88,28.2,28.2,0,0,0,6-9.84h-8.32a23.88,23.88,0,0,1,5.2,3.4l-2.68,3a23.57,23.57,0,0,0-5.16-3.76l2.4-2.68Zm1,22.76c1.48-2,3.6-5.32,5.36-8.4l2.68,2.8c-1.4,2.76-3.2,5.88-4.84,8.6ZM135,37.43h-4.2v2.12H135Zm0,5.36h-4.2v2.12H135Zm0,5.4h-4.2v2.2H135Z"/><path class="cls-3" d="M162,55.11a26.65,26.65,0,0,0,8.16.92c3,0,13.71,0,17.31-.16a19,19,0,0,0-1.8,4.72H170.14c-7.44,0-12.2-1-15.36-5.48a29,29,0,0,1-1.84,6.48,26.5,26.5,0,0,0-3.8-2.08c2-4,2.32-10.4,2.36-17.2l4.16.28c0,1.84-.08,3.68-.16,5.44a12.06,12.06,0,0,0,2.24,4.24v-12h-7.52v-4.2H157V32.43h-5.84V28.31H157v-4h4.4v4h5.68v4.12h-5.68v3.68h6.36v1a10.73,10.73,0,0,0,4.76-7.44h-4.28v-4h17.63s0,1.08,0,1.64c-.28,6.64-.64,9.56-1.6,10.68a3.89,3.89,0,0,1-2.68,1.36,30.15,30.15,0,0,1-4.44.08,9.6,9.6,0,0,0-1.16-4,28.16,28.16,0,0,0,3.24.16,1.48,1.48,0,0,0,1.16-.4c.36-.52.64-2,.84-5.56h-4.24c-.92,5-3.08,8.52-6.71,10.84a26.11,26.11,0,0,0-2.48-2v1.84H162v4.36h5.28v4.12H162ZM169.26,41h15.63v12.6H169.26Zm4.44,8.8h6.47v-5H173.7Z"/><path class="cls-3" d="M201.18,25.59a67.21,67.21,0,0,1-2.72,7.28V61.55h-4.52V41.43a41.75,41.75,0,0,1-2.52,3.4,39.68,39.68,0,0,0-2.28-5.12,44.67,44.67,0,0,0,7.68-15.44ZM227,46.23h-3.64a20.2,20.2,0,0,1,1.72,2.08l-2.56,1.6a22,22,0,0,0-2.2-2.8c-.4,1.68-1.36,2.2-3.48,2.2h-3.47c-.36.4-.68.8-1,1.2h8.11l.8-.16,2.84,1.6a15.69,15.69,0,0,1-5.64,5A66.43,66.43,0,0,0,227,58.07a16.3,16.3,0,0,0-2.28,3.48,51.3,51.3,0,0,1-11.36-2.36,64.36,64.36,0,0,1-11.63,2.56,15.09,15.09,0,0,0-2.28-3.44,71,71,0,0,0,8.92-1.4c-.8-.48-1.56-1-2.28-1.48-1,.6-2.16,1.2-3.4,1.76a10.2,10.2,0,0,0-2.56-2.68A31.12,31.12,0,0,0,203.38,53a13.55,13.55,0,0,1-1.4-1.68l3.44-1.2c.28.36.6.72.92,1.08a18.4,18.4,0,0,0,2.72-2.4,2.38,2.38,0,0,1-1.2-2.2,14,14,0,0,1-3.12,3.2l-2.6-2A11.11,11.11,0,0,0,204,46.23h-3.76V40.55h3.64V30.63h6.6c.12-.44.2-.92.28-1.4h-9.32v-3.4h24.75v3.4H215.69l-.6,1.4h8.56v9.92H227Zm-6.08-2.44c.6.56,1.24,1.12,1.84,1.8V43.23h-7.68a18.41,18.41,0,0,1,2.16,2l-2.63,1.56a21.24,21.24,0,0,0-3-2.88l1.2-.64H204.3V46a14.66,14.66,0,0,0,1.64-2l1.88,1v-.8h3.72v1.8c0,.8.24.92,1.32.92h3.51c.8,0,1-.2,1.12-1.36a10,10,0,0,0,1.88.68c-.28-.32-.6-.6-.88-.88ZM208.14,33v1.2h11.07V33Zm11.07,3.12H208.14v1.28h11.07Zm-11.07,4.48h11.07V39.27H208.14Zm5.19,14.84a16.37,16.37,0,0,0,4-2l-8.23,0A17.87,17.87,0,0,0,213.33,55.39Z"/><path class="cls-3" d="M229.86,58.11A21.89,21.89,0,0,0,233.54,51l4.12,1.68A30.13,30.13,0,0,1,234,60.43Zm15.72-28.24H231.06V26.15h14.52V24.23h4.92v1.92h14.91v3.72H250.5v1.76h12.19V43.47h-4a37.77,37.77,0,0,1,7,5L262.41,51c-.52-.56-1.16-1.12-1.88-1.76l-11.47.24a24.79,24.79,0,0,1,4.79,3.88l-3.23,2.72a31,31,0,0,0-6-4.92l2.08-1.64c-5.8.08-11.16.16-15.32.2l-.2-4c3.84,0,8.88,0,14.36,0V43.47H233.46V31.63h12.12Zm-7.64,6.36h7.64V34.39h-7.64Zm7.64,4.44V38.83h-7.64v1.84ZM253,57.11c1.75,0,2.11-.48,2.31-3.44a14.81,14.81,0,0,0,4.12,1.48c-.56,4.64-1.88,5.8-6,5.8h-7.8c-5.56,0-7-1.16-7-5V51.35h4.72v4.52c0,1.08.4,1.24,2.72,1.24ZM250.5,34.39v1.84H258V34.39Zm0,6.28H258V38.83H250.5Zm5,5c-.64-.36-1.24-.68-1.83-1l1.8-1.2h-5v2.24Zm6.68,5.52a24.39,24.39,0,0,1,4.16,7.8l-4.4,1.4a26.49,26.49,0,0,0-3.88-7.88Z"/><path class="cls-1" d="M52,90.59a46.44,46.44,0,0,1,7.6,3.92l-2.68,4a41.09,41.09,0,0,0-7.48-4.32Zm6.08,9.72,3.56,3.08c-2,4.2-4.4,8.72-6.72,12.6l-4.08-3.08A108.81,108.81,0,0,0,58.06,100.31ZM54.42,79.67a36.15,36.15,0,0,1,7.56,4l-2.76,3.88a34.82,34.82,0,0,0-7.44-4.44ZM85.09,98.59c-3.76,10.64-11.11,15.64-23,18.32a15.4,15.4,0,0,0-2.6-4.48c10.92-1.84,17.83-6,21.15-15.24ZM69,86.47a57,57,0,0,1-5.2,15.72,27.08,27.08,0,0,0-4.16-2.6c2.08-3.36,3.72-8.88,4.6-14Zm6.87-6.72v25h-5v-25Zm6.12,5a41.54,41.54,0,0,1,5.16,11l-4.36,2a40.91,40.91,0,0,0-4.84-11.2Z"/><path class="cls-1" d="M98.1,91.19C97.26,95.91,96,101.51,94,105l-4.6-1.72A41.28,41.28,0,0,0,93.58,90Zm15.36,20.2c2,0,2.35-1.16,2.67-6.8a15.19,15.19,0,0,0,4.68,2c-.64,7.2-2,9.56-7,9.56h-7c-4.92,0-6.6-1.36-6.88-5.76a56.5,56.5,0,0,1-7.4,4.28,27.79,27.79,0,0,0-3.12-3.76,53.69,53.69,0,0,0,10.48-6.32V88.23H105v12.08a64.17,64.17,0,0,0,13.87-18.72l4.8,1.88A74.56,74.56,0,0,1,105,106.63v2.44c0,2,.32,2.32,2.36,2.32Zm-3.52-21.52c-2.32-1.92-6.4-5-9.52-7.2l3.08-3.48c3.24,2.08,7.28,5,9.56,6.8Zm11.35,2.84a52.27,52.27,0,0,1,6,11.92L122.77,107A54.49,54.49,0,0,0,117,94.75Z"/><path class="cls-1" d="M129.94,112a27.37,27.37,0,0,0,4.2-9.28l4.32,1.56c-1,3.4-2.32,7.44-4.24,10.08Zm16.52-12.08H133.94v-19h28.63v19H147.46a31.28,31.28,0,0,1,7.39,5.08l-3.39,3.24a33.11,33.11,0,0,0-7.8-5.72Zm-8-11.48h7.52V85h-7.52Zm0,7.36h7.52V92.23h-7.52Zm14.12,15.8c1.64,0,2-.6,2.19-4.56a13.6,13.6,0,0,0,4.28,1.76c-.52,5.68-1.92,7.12-6.07,7.12H146.3c-5.28,0-6.6-1.4-6.6-5.64v-6.56h4.8v6.52c0,1.2.36,1.36,2.36,1.36ZM157.85,85h-7.31v3.36h7.31Zm0,7.2h-7.31v3.52h7.31Zm3.84,10.2a34.79,34.79,0,0,1,5.28,9.68l-4.64,2a35.78,35.78,0,0,0-4.88-9.88Z"/><path class="cls-1" d="M181.94,104.19q-.12-.84-.36-1.92c-8.08,1.2-9.52,1.56-10.44,2a36.07,36.07,0,0,0-1.56-4.28c1.08-.28,2-1.16,3.24-2.64.48-.52,1.4-1.68,2.52-3.2-3,.36-3.92.6-4.52.88A33.81,33.81,0,0,0,169.38,91a4.91,4.91,0,0,0,2.32-2.2,45.68,45.68,0,0,0,5-9.8L181,80.71a53.58,53.58,0,0,1-5.68,9.64l2.72-.2A42.61,42.61,0,0,0,180.78,85l4,2.52a68.76,68.76,0,0,1-8.32,11.68l4.2-.52c-.32-1.08-.68-2.12-1-3.08l3.44-1.12a58.62,58.62,0,0,1,2.56,8.4Zm-6.72,2a45.24,45.24,0,0,1-1.84,10.24,27.18,27.18,0,0,0-3.84-1.4,36.91,36.91,0,0,0,1.68-9.44Zm4.4-.76a77.48,77.48,0,0,1,1.16,8.88l-3.76.8a69.67,69.67,0,0,0-1-9Zm4.16-1.2a61,61,0,0,1,2.2,7.48l-3.52,1.2a55.21,55.21,0,0,0-2-7.6Zm14.47-23.76a14.73,14.73,0,0,1-.6,1.4,36,36,0,0,0,10.28,10.44,17.88,17.88,0,0,0-3.52,3.84c-.88-.68-1.72-1.44-2.6-2.24v2.52H188.62v-2a27.1,27.1,0,0,1-2.68,2.12,20.18,20.18,0,0,0-3.24-3.44,29.94,29.94,0,0,0,11.24-14ZM186.74,99.67h18v17h-4.84v-1.92h-8.51v2h-4.64Zm13.47-7.56A53,53,0,0,1,195.57,86,40.14,40.14,0,0,1,191,92.11Zm-8.83,11.76v6.64h8.51v-6.64Z"/><path class="cls-1" d="M222.46,80.79a60.63,60.63,0,0,1-3.8,8.2v27.52H214.1V96.07a38.51,38.51,0,0,1-2.68,3.24,30.76,30.76,0,0,0-2.56-5,42.11,42.11,0,0,0,9.08-15Zm14.15,10v20.48c0,2.28-.4,3.6-1.84,4.4s-3.31,1-5.87,1a16.25,16.25,0,0,0-1.64-4.8c1.68,0,3.36,0,3.92,0s.72-.16.72-.68V90.79h-4.64a34,34,0,0,1-3.76,6.12,33.41,33.41,0,0,0-3.84-3.12c3-3.4,5.44-8.92,6.8-14.4l4.64,1a60.65,60.65,0,0,1-1.88,6H243l.76-.16,3.36.64c-.48,3.24-1.16,7-1.72,9.28l-4-.68c.2-1.24.44-2.92.64-4.68ZM230,98a41.08,41.08,0,0,1-5.44,13.36,29.43,29.43,0,0,0-4.08-2.56c2.28-2.8,4-7.32,4.88-11.76Zm12.31-1.36a49.46,49.46,0,0,1,4.36,13l-4.56,1.56a50.61,50.61,0,0,0-4-13.16Z"/><path class="cls-1" d="M256.78,108.31a60.7,60.7,0,0,1-4.2,7.92,22.6,22.6,0,0,0-3.24-2.12,31.87,31.87,0,0,0,3.76-6.92Zm5.68-1.76H251.34V81h11.12Zm-3.88-21.76h-3.52v3.6h3.52Zm0,7.08h-3.52v3.68h3.52Zm0,7.2h-3.52v3.68h3.52Zm21.63,6.44a25.15,25.15,0,0,0,6.92,6.76,17.91,17.91,0,0,0-2.76,3.24,28.8,28.8,0,0,1-5.76-6.32v7.32h-3.92v-11h-2.43v11h-3.88V110a21.93,21.93,0,0,1-4,5.56,21.59,21.59,0,0,0-2.36-2.92l-1.72,1.08a42.89,42.89,0,0,0-2.8-4.92l3-1.64a33.68,33.68,0,0,1,2.44,3.8,22.79,22.79,0,0,0,3.92-5.44h-3.08v-3.4h4.64V99.87H263V96.39h5.4V94.27H263.9V90.91h4.48v-2.2h-4.84V85.23h4.8c-.52-1.32-1.4-3.08-2.08-4.44l4-1.6c.88,1.52,2,3.6,2.56,4.88l-2.56,1.16h5.16a43.07,43.07,0,0,0,3.47-6l4.4,1.8c-1.08,1.44-2.28,2.88-3.36,4.2h6v3.48h-7.32v2.2h6.12v5.48h2.2v3.48h-2.2v5.64Zm-7.95-14.6h2.43v-2.2h-2.43Zm0,5.48h2.43V94.27h-2.43Zm2.43,5.72V99.87h-2.43v2.24Zm3.92-7.84v2.12H281V94.27Zm2.36,5.6h-2.36v2.24H281Z"/><path class="cls-3" d="M52,90.59a46.44,46.44,0,0,1,7.6,3.92l-2.68,4a41.09,41.09,0,0,0-7.48-4.32Zm6.08,9.72,3.56,3.08c-2,4.2-4.4,8.72-6.72,12.6l-4.08-3.08A108.81,108.81,0,0,0,58.06,100.31ZM54.42,79.67a36.15,36.15,0,0,1,7.56,4l-2.76,3.88a34.82,34.82,0,0,0-7.44-4.44ZM85.09,98.59c-3.76,10.64-11.11,15.64-23,18.32a15.4,15.4,0,0,0-2.6-4.48c10.92-1.84,17.83-6,21.15-15.24ZM69,86.47a57,57,0,0,1-5.2,15.72,27.08,27.08,0,0,0-4.16-2.6c2.08-3.36,3.72-8.88,4.6-14Zm6.87-6.72v25h-5v-25Zm6.12,5a41.54,41.54,0,0,1,5.16,11l-4.36,2a40.91,40.91,0,0,0-4.84-11.2Z"/><path class="cls-3" d="M98.1,91.19C97.26,95.91,96,101.51,94,105l-4.6-1.72A41.28,41.28,0,0,0,93.58,90Zm15.36,20.2c2,0,2.35-1.16,2.67-6.8a15.19,15.19,0,0,0,4.68,2c-.64,7.2-2,9.56-7,9.56h-7c-4.92,0-6.6-1.36-6.88-5.76a56.5,56.5,0,0,1-7.4,4.28,27.79,27.79,0,0,0-3.12-3.76,53.69,53.69,0,0,0,10.48-6.32V88.23H105v12.08a64.17,64.17,0,0,0,13.87-18.72l4.8,1.88A74.56,74.56,0,0,1,105,106.63v2.44c0,2,.32,2.32,2.36,2.32Zm-3.52-21.52c-2.32-1.92-6.4-5-9.52-7.2l3.08-3.48c3.24,2.08,7.28,5,9.56,6.8Zm11.35,2.84a52.27,52.27,0,0,1,6,11.92L122.77,107A54.49,54.49,0,0,0,117,94.75Z"/><path class="cls-3" d="M129.94,112a27.37,27.37,0,0,0,4.2-9.28l4.32,1.56c-1,3.4-2.32,7.44-4.24,10.08Zm16.52-12.08H133.94v-19h28.63v19H147.46a31.28,31.28,0,0,1,7.39,5.08l-3.39,3.24a33.11,33.11,0,0,0-7.8-5.72Zm-8-11.48h7.52V85h-7.52Zm0,7.36h7.52V92.23h-7.52Zm14.12,15.8c1.64,0,2-.6,2.19-4.56a13.6,13.6,0,0,0,4.28,1.76c-.52,5.68-1.92,7.12-6.07,7.12H146.3c-5.28,0-6.6-1.4-6.6-5.64v-6.56h4.8v6.52c0,1.2.36,1.36,2.36,1.36ZM157.85,85h-7.31v3.36h7.31Zm0,7.2h-7.31v3.52h7.31Zm3.84,10.2a34.79,34.79,0,0,1,5.28,9.68l-4.64,2a35.78,35.78,0,0,0-4.88-9.88Z"/><path class="cls-3" d="M181.94,104.19q-.12-.84-.36-1.92c-8.08,1.2-9.52,1.56-10.44,2a36.07,36.07,0,0,0-1.56-4.28c1.08-.28,2-1.16,3.24-2.64.48-.52,1.4-1.68,2.52-3.2-3,.36-3.92.6-4.52.88A33.81,33.81,0,0,0,169.38,91a4.91,4.91,0,0,0,2.32-2.2,45.68,45.68,0,0,0,5-9.8L181,80.71a53.58,53.58,0,0,1-5.68,9.64l2.72-.2A42.61,42.61,0,0,0,180.78,85l4,2.52a68.76,68.76,0,0,1-8.32,11.68l4.2-.52c-.32-1.08-.68-2.12-1-3.08l3.44-1.12a58.62,58.62,0,0,1,2.56,8.4Zm-6.72,2a45.24,45.24,0,0,1-1.84,10.24,27.18,27.18,0,0,0-3.84-1.4,36.91,36.91,0,0,0,1.68-9.44Zm4.4-.76a77.48,77.48,0,0,1,1.16,8.88l-3.76.8a69.67,69.67,0,0,0-1-9Zm4.16-1.2a61,61,0,0,1,2.2,7.48l-3.52,1.2a55.21,55.21,0,0,0-2-7.6Zm14.47-23.76a14.73,14.73,0,0,1-.6,1.4,36,36,0,0,0,10.28,10.44,17.88,17.88,0,0,0-3.52,3.84c-.88-.68-1.72-1.44-2.6-2.24v2.52H188.62v-2a27.1,27.1,0,0,1-2.68,2.12,20.18,20.18,0,0,0-3.24-3.44,29.94,29.94,0,0,0,11.24-14ZM186.74,99.67h18v17h-4.84v-1.92h-8.51v2h-4.64Zm13.47-7.56A53,53,0,0,1,195.57,86,40.14,40.14,0,0,1,191,92.11Zm-8.83,11.76v6.64h8.51v-6.64Z"/><path class="cls-3" d="M222.46,80.79a60.63,60.63,0,0,1-3.8,8.2v27.52H214.1V96.07a38.51,38.51,0,0,1-2.68,3.24,30.76,30.76,0,0,0-2.56-5,42.11,42.11,0,0,0,9.08-15Zm14.15,10v20.48c0,2.28-.4,3.6-1.84,4.4s-3.31,1-5.87,1a16.25,16.25,0,0,0-1.64-4.8c1.68,0,3.36,0,3.92,0s.72-.16.72-.68V90.79h-4.64a34,34,0,0,1-3.76,6.12,33.41,33.41,0,0,0-3.84-3.12c3-3.4,5.44-8.92,6.8-14.4l4.64,1a60.65,60.65,0,0,1-1.88,6H243l.76-.16,3.36.64c-.48,3.24-1.16,7-1.72,9.28l-4-.68c.2-1.24.44-2.92.64-4.68ZM230,98a41.08,41.08,0,0,1-5.44,13.36,29.43,29.43,0,0,0-4.08-2.56c2.28-2.8,4-7.32,4.88-11.76Zm12.31-1.36a49.46,49.46,0,0,1,4.36,13l-4.56,1.56a50.61,50.61,0,0,0-4-13.16Z"/><path class="cls-3" d="M256.78,108.31a60.7,60.7,0,0,1-4.2,7.92,22.6,22.6,0,0,0-3.24-2.12,31.87,31.87,0,0,0,3.76-6.92Zm5.68-1.76H251.34V81h11.12Zm-3.88-21.76h-3.52v3.6h3.52Zm0,7.08h-3.52v3.68h3.52Zm0,7.2h-3.52v3.68h3.52Zm21.63,6.44a25.15,25.15,0,0,0,6.92,6.76,17.91,17.91,0,0,0-2.76,3.24,28.8,28.8,0,0,1-5.76-6.32v7.32h-3.92v-11h-2.43v11h-3.88V110a21.93,21.93,0,0,1-4,5.56,21.59,21.59,0,0,0-2.36-2.92l-1.72,1.08a42.89,42.89,0,0,0-2.8-4.92l3-1.64a33.68,33.68,0,0,1,2.44,3.8,22.79,22.79,0,0,0,3.92-5.44h-3.08v-3.4h4.64V99.87H263V96.39h5.4V94.27H263.9V90.91h4.48v-2.2h-4.84V85.23h4.8c-.52-1.32-1.4-3.08-2.08-4.44l4-1.6c.88,1.52,2,3.6,2.56,4.88l-2.56,1.16h5.16a43.07,43.07,0,0,0,3.47-6l4.4,1.8c-1.08,1.44-2.28,2.88-3.36,4.2h6v3.48h-7.32v2.2h6.12v5.48h2.2v3.48h-2.2v5.64Zm-7.95-14.6h2.43v-2.2h-2.43Zm0,5.48h2.43V94.27h-2.43Zm2.43,5.72V99.87h-2.43v2.24Zm3.92-7.84v2.12H281V94.27Zm2.36,5.6h-2.36v2.24H281Z"/><path class="cls-1" d="M97.37,50.59c2.68,2,6.24,4.56,8.08,6.24l-3,3a99,99,0,0,0-8.64-7.16l2.28-2H93.57c-1.47,4.4-4.87,7.28-12.83,9a11.21,11.21,0,0,0-2.32-3.68c6-1.08,8.8-2.76,10.24-5.32H79.78v-3.8h2.76V36l-.2.16a13.41,13.41,0,0,0-2.28-2.84v.92H76.62v5.72c1.12-.32,2.2-.68,3.32-1l.68,4.28c-1.32.44-2.64.88-4,1.28V54c0,2.28-.36,3.52-1.6,4.32s-2.92,1-5.4,1a21.39,21.39,0,0,0-1.24-4.68c1.32,0,2.6,0,3.08,0s.64-.16.64-.68V45.87L68.46,47l-1.08-4.56c1.36-.32,3-.76,4.72-1.24v-7H68v-4.4H72.1V22.23h4.52v7.56h3.44v2.72A24.61,24.61,0,0,0,87.3,22.27l4.36.72c-.33.76-.68,1.6-1.08,2.4h5.07l.64-.16,2.8,1.84a38.3,38.3,0,0,1-3,4.88h6.56V46.79h2.4v3.8Zm-11-9.36a17.74,17.74,0,0,0,4.72-5.48H86.38Zm8.39,2.36c-.08,1.12-.2,2.2-.32,3.2h4.2V42l-1.36,1.64A35.76,35.76,0,0,0,92.42,40a22.09,22.09,0,0,1-3.64,3.8,15.6,15.6,0,0,0-2.4-1.8v4.76h3.48c.16-1,.28-2.08.36-3.2ZM88.54,29.07A27.5,27.5,0,0,1,86.46,32h5.12a32.28,32.28,0,0,0,1.75-2.88Zm10.11,6.68H95c-.28.6-.6,1.2-.92,1.8a37.31,37.31,0,0,1,4.56,2.88Z"/><path class="cls-1" d="M144.53,54.31v4h-35V23.47h34.19v4H127.94l2.92.84c-.44,1.2-.92,2.4-1.48,3.56h4.31A24,24,0,0,0,132.5,29l4.19-1.24a24.77,24.77,0,0,1,1.8,4.12h4.68v3.6h-6v2.12H142v3.24h-4.8v2.12H142v3.28h-4.8v2.2h6.24V52H128.78v1.36h-4.12V39.43a23.29,23.29,0,0,1-1.6,1.8,18.57,18.57,0,0,0-1.76-2.44l-2,2.36a26.3,26.3,0,0,0-5.12-3.88v17ZM114.18,27.43V37l2.24-2.6a27.93,27.93,0,0,1,4.52,2.88,28.2,28.2,0,0,0,6-9.84h-8.32a23.88,23.88,0,0,1,5.2,3.4l-2.68,3a23.57,23.57,0,0,0-5.16-3.76l2.4-2.68Zm1,22.76c1.48-2,3.6-5.32,5.36-8.4l2.68,2.8c-1.4,2.76-3.2,5.88-4.84,8.6ZM133,35.43h-4.2v2.12H133Zm0,5.36h-4.2v2.12H133Zm0,5.4h-4.2v2.2H133Z"/><path class="cls-1" d="M160,53.11a26.65,26.65,0,0,0,8.16.92c3,0,13.71,0,17.31-.16a19,19,0,0,0-1.8,4.72H168.14c-7.44,0-12.2-1-15.36-5.48a29,29,0,0,1-1.84,6.48,26.5,26.5,0,0,0-3.8-2.08c2-4,2.32-10.4,2.36-17.2l4.16.28c0,1.84-.08,3.68-.16,5.44a12.06,12.06,0,0,0,2.24,4.24v-12h-7.52v-4.2H155V30.43h-5.84V26.31H155v-4h4.4v4h5.68v4.12h-5.68v3.68h6.36v1a10.73,10.73,0,0,0,4.76-7.44h-4.28v-4h17.63s0,1.08,0,1.64c-.28,6.64-.64,9.56-1.6,10.68a3.89,3.89,0,0,1-2.68,1.36,30.15,30.15,0,0,1-4.44.08,9.6,9.6,0,0,0-1.16-4,28.16,28.16,0,0,0,3.24.16,1.48,1.48,0,0,0,1.16-.4c.36-.52.64-2,.84-5.56h-4.24c-.92,5-3.08,8.52-6.71,10.84a26.11,26.11,0,0,0-2.48-2v1.84H160v4.36h5.28v4.12H160ZM167.26,39h15.63v12.6H167.26Zm4.44,8.8h6.47v-5H171.7Z"/><path class="cls-1" d="M199.18,23.59a67.21,67.21,0,0,1-2.72,7.28V59.55h-4.52V39.43a41.75,41.75,0,0,1-2.52,3.4,39.68,39.68,0,0,0-2.28-5.12,44.67,44.67,0,0,0,7.68-15.44ZM225,44.23h-3.64a20.2,20.2,0,0,1,1.72,2.08l-2.56,1.6a22,22,0,0,0-2.2-2.8c-.4,1.68-1.36,2.2-3.48,2.2h-3.47c-.36.4-.68.8-1,1.2h8.11l.8-.16,2.84,1.6a15.69,15.69,0,0,1-5.64,5A66.43,66.43,0,0,0,225,56.07a16.3,16.3,0,0,0-2.28,3.48,51.3,51.3,0,0,1-11.36-2.36,64.36,64.36,0,0,1-11.63,2.56,15.09,15.09,0,0,0-2.28-3.44,71,71,0,0,0,8.92-1.4c-.8-.48-1.56-1-2.28-1.48-1,.6-2.16,1.2-3.4,1.76a10.2,10.2,0,0,0-2.56-2.68A31.12,31.12,0,0,0,201.38,51a13.55,13.55,0,0,1-1.4-1.68l3.44-1.2c.28.36.6.72.92,1.08a18.4,18.4,0,0,0,2.72-2.4,2.38,2.38,0,0,1-1.2-2.2,14,14,0,0,1-3.12,3.2l-2.6-2A11.11,11.11,0,0,0,202,44.23h-3.76V38.55h3.64V28.63h6.6c.12-.44.2-.92.28-1.4h-9.32v-3.4h24.75v3.4H213.69l-.6,1.4h8.56v9.92H225Zm-6.08-2.44c.6.56,1.24,1.12,1.84,1.8V41.23h-7.68a18.41,18.41,0,0,1,2.16,2l-2.63,1.56a21.24,21.24,0,0,0-3-2.88l1.2-.64H202.3V44a14.66,14.66,0,0,0,1.64-2l1.88,1v-.8h3.72v1.8c0,.8.24.92,1.32.92h3.51c.8,0,1-.2,1.12-1.36a10,10,0,0,0,1.88.68c-.28-.32-.6-.6-.88-.88ZM206.14,31v1.2h11.07V31Zm11.07,3.12H206.14v1.28h11.07Zm-11.07,4.48h11.07V37.27H206.14Zm5.19,14.84a16.37,16.37,0,0,0,4-2l-8.23,0A17.87,17.87,0,0,0,211.33,53.39Z"/><path class="cls-1" d="M227.86,56.11A21.89,21.89,0,0,0,231.54,49l4.12,1.68A30.13,30.13,0,0,1,232,58.43Zm15.72-28.24H229.06V24.15h14.52V22.23h4.92v1.92h14.91v3.72H248.5v1.76h12.19V41.47h-4a37.77,37.77,0,0,1,7,5L260.41,49c-.52-.56-1.16-1.12-1.88-1.76l-11.47.24a24.79,24.79,0,0,1,4.79,3.88l-3.23,2.72a31,31,0,0,0-6-4.92l2.08-1.64c-5.8.08-11.16.16-15.32.2l-.2-4c3.84,0,8.88,0,14.36,0V41.47H231.46V29.63h12.12Zm-7.64,6.36h7.64V32.39h-7.64Zm7.64,4.44V36.83h-7.64v1.84ZM251,55.11c1.75,0,2.11-.48,2.31-3.44a14.81,14.81,0,0,0,4.12,1.48c-.56,4.64-1.88,5.8-6,5.8h-7.8c-5.56,0-7-1.16-7-5V49.35h4.72v4.52c0,1.08.4,1.24,2.72,1.24ZM248.5,32.39v1.84H256V32.39Zm0,6.28H256V36.83H248.5Zm5,5c-.64-.36-1.24-.68-1.83-1l1.8-1.2h-5v2.24Zm6.68,5.52a24.39,24.39,0,0,1,4.16,7.8l-4.4,1.4a26.49,26.49,0,0,0-3.88-7.88Z"/><path class="cls-4" d="M97.37,50.59c2.68,2,6.24,4.56,8.08,6.24l-3,3a99,99,0,0,0-8.64-7.16l2.28-2H93.57c-1.47,4.4-4.87,7.28-12.83,9a11.21,11.21,0,0,0-2.32-3.68c6-1.08,8.8-2.76,10.24-5.32H79.78v-3.8h2.76V36l-.2.16a13.41,13.41,0,0,0-2.28-2.84v.92H76.62v5.72c1.12-.32,2.2-.68,3.32-1l.68,4.28c-1.32.44-2.64.88-4,1.28V54c0,2.28-.36,3.52-1.6,4.32s-2.92,1-5.4,1a21.39,21.39,0,0,0-1.24-4.68c1.32,0,2.6,0,3.08,0s.64-.16.64-.68V45.87L68.46,47l-1.08-4.56c1.36-.32,3-.76,4.72-1.24v-7H68v-4.4H72.1V22.23h4.52v7.56h3.44v2.72A24.61,24.61,0,0,0,87.3,22.27l4.36.72c-.33.76-.68,1.6-1.08,2.4h5.07l.64-.16,2.8,1.84a38.3,38.3,0,0,1-3,4.88h6.56V46.79h2.4v3.8Zm-11-9.36a17.74,17.74,0,0,0,4.72-5.48H86.38Zm8.39,2.36c-.08,1.12-.2,2.2-.32,3.2h4.2V42l-1.36,1.64A35.76,35.76,0,0,0,92.42,40a22.09,22.09,0,0,1-3.64,3.8,15.6,15.6,0,0,0-2.4-1.8v4.76h3.48c.16-1,.28-2.08.36-3.2ZM88.54,29.07A27.5,27.5,0,0,1,86.46,32h5.12a32.28,32.28,0,0,0,1.75-2.88Zm10.11,6.68H95c-.28.6-.6,1.2-.92,1.8a37.31,37.31,0,0,1,4.56,2.88Z"/><path class="cls-4" d="M144.53,54.31v4h-35V23.47h34.19v4H127.94l2.92.84c-.44,1.2-.92,2.4-1.48,3.56h4.31A24,24,0,0,0,132.5,29l4.19-1.24a24.77,24.77,0,0,1,1.8,4.12h4.68v3.6h-6v2.12H142v3.24h-4.8v2.12H142v3.28h-4.8v2.2h6.24V52H128.78v1.36h-4.12V39.43a23.29,23.29,0,0,1-1.6,1.8,18.57,18.57,0,0,0-1.76-2.44l-2,2.36a26.3,26.3,0,0,0-5.12-3.88v17ZM114.18,27.43V37l2.24-2.6a27.93,27.93,0,0,1,4.52,2.88,28.2,28.2,0,0,0,6-9.84h-8.32a23.88,23.88,0,0,1,5.2,3.4l-2.68,3a23.57,23.57,0,0,0-5.16-3.76l2.4-2.68Zm1,22.76c1.48-2,3.6-5.32,5.36-8.4l2.68,2.8c-1.4,2.76-3.2,5.88-4.84,8.6ZM133,35.43h-4.2v2.12H133Zm0,5.36h-4.2v2.12H133Zm0,5.4h-4.2v2.2H133Z"/><path class="cls-4" d="M160,53.11a26.65,26.65,0,0,0,8.16.92c3,0,13.71,0,17.31-.16a19,19,0,0,0-1.8,4.72H168.14c-7.44,0-12.2-1-15.36-5.48a29,29,0,0,1-1.84,6.48,26.5,26.5,0,0,0-3.8-2.08c2-4,2.32-10.4,2.36-17.2l4.16.28c0,1.84-.08,3.68-.16,5.44a12.06,12.06,0,0,0,2.24,4.24v-12h-7.52v-4.2H155V30.43h-5.84V26.31H155v-4h4.4v4h5.68v4.12h-5.68v3.68h6.36v1a10.73,10.73,0,0,0,4.76-7.44h-4.28v-4h17.63s0,1.08,0,1.64c-.28,6.64-.64,9.56-1.6,10.68a3.89,3.89,0,0,1-2.68,1.36,30.15,30.15,0,0,1-4.44.08,9.6,9.6,0,0,0-1.16-4,28.16,28.16,0,0,0,3.24.16,1.48,1.48,0,0,0,1.16-.4c.36-.52.64-2,.84-5.56h-4.24c-.92,5-3.08,8.52-6.71,10.84a26.11,26.11,0,0,0-2.48-2v1.84H160v4.36h5.28v4.12H160ZM167.26,39h15.63v12.6H167.26Zm4.44,8.8h6.47v-5H171.7Z"/><path class="cls-4" d="M199.18,23.59a67.21,67.21,0,0,1-2.72,7.28V59.55h-4.52V39.43a41.75,41.75,0,0,1-2.52,3.4,39.68,39.68,0,0,0-2.28-5.12,44.67,44.67,0,0,0,7.68-15.44ZM225,44.23h-3.64a20.2,20.2,0,0,1,1.72,2.08l-2.56,1.6a22,22,0,0,0-2.2-2.8c-.4,1.68-1.36,2.2-3.48,2.2h-3.47c-.36.4-.68.8-1,1.2h8.11l.8-.16,2.84,1.6a15.69,15.69,0,0,1-5.64,5A66.43,66.43,0,0,0,225,56.07a16.3,16.3,0,0,0-2.28,3.48,51.3,51.3,0,0,1-11.36-2.36,64.36,64.36,0,0,1-11.63,2.56,15.09,15.09,0,0,0-2.28-3.44,71,71,0,0,0,8.92-1.4c-.8-.48-1.56-1-2.28-1.48-1,.6-2.16,1.2-3.4,1.76a10.2,10.2,0,0,0-2.56-2.68A31.12,31.12,0,0,0,201.38,51a13.55,13.55,0,0,1-1.4-1.68l3.44-1.2c.28.36.6.72.92,1.08a18.4,18.4,0,0,0,2.72-2.4,2.38,2.38,0,0,1-1.2-2.2,14,14,0,0,1-3.12,3.2l-2.6-2A11.11,11.11,0,0,0,202,44.23h-3.76V38.55h3.64V28.63h6.6c.12-.44.2-.92.28-1.4h-9.32v-3.4h24.75v3.4H213.69l-.6,1.4h8.56v9.92H225Zm-6.08-2.44c.6.56,1.24,1.12,1.84,1.8V41.23h-7.68a18.41,18.41,0,0,1,2.16,2l-2.63,1.56a21.24,21.24,0,0,0-3-2.88l1.2-.64H202.3V44a14.66,14.66,0,0,0,1.64-2l1.88,1v-.8h3.72v1.8c0,.8.24.92,1.32.92h3.51c.8,0,1-.2,1.12-1.36a10,10,0,0,0,1.88.68c-.28-.32-.6-.6-.88-.88ZM206.14,31v1.2h11.07V31Zm11.07,3.12H206.14v1.28h11.07Zm-11.07,4.48h11.07V37.27H206.14Zm5.19,14.84a16.37,16.37,0,0,0,4-2l-8.23,0A17.87,17.87,0,0,0,211.33,53.39Z"/><path class="cls-4" d="M227.86,56.11A21.89,21.89,0,0,0,231.54,49l4.12,1.68A30.13,30.13,0,0,1,232,58.43Zm15.72-28.24H229.06V24.15h14.52V22.23h4.92v1.92h14.91v3.72H248.5v1.76h12.19V41.47h-4a37.77,37.77,0,0,1,7,5L260.41,49c-.52-.56-1.16-1.12-1.88-1.76l-11.47.24a24.79,24.79,0,0,1,4.79,3.88l-3.23,2.72a31,31,0,0,0-6-4.92l2.08-1.64c-5.8.08-11.16.16-15.32.2l-.2-4c3.84,0,8.88,0,14.36,0V41.47H231.46V29.63h12.12Zm-7.64,6.36h7.64V32.39h-7.64Zm7.64,4.44V36.83h-7.64v1.84ZM251,55.11c1.75,0,2.11-.48,2.31-3.44a14.81,14.81,0,0,0,4.12,1.48c-.56,4.64-1.88,5.8-6,5.8h-7.8c-5.56,0-7-1.16-7-5V49.35h4.72v4.52c0,1.08.4,1.24,2.72,1.24ZM248.5,32.39v1.84H256V32.39Zm0,6.28H256V36.83H248.5Zm5,5c-.64-.36-1.24-.68-1.83-1l1.8-1.2h-5v2.24Zm6.68,5.52a24.39,24.39,0,0,1,4.16,7.8l-4.4,1.4a26.49,26.49,0,0,0-3.88-7.88Z"/><path class="cls-1" d="M50,88.59a46.44,46.44,0,0,1,7.6,3.92l-2.68,4a41.09,41.09,0,0,0-7.48-4.32Zm6.08,9.72,3.56,3.08c-2,4.2-4.4,8.72-6.72,12.6l-4.08-3.08A108.81,108.81,0,0,0,56.06,98.31ZM52.42,77.67a36.15,36.15,0,0,1,7.56,4l-2.76,3.88a34.82,34.82,0,0,0-7.44-4.44ZM83.09,96.59c-3.76,10.64-11.11,15.64-23,18.32a15.4,15.4,0,0,0-2.6-4.48c10.92-1.84,17.83-6,21.15-15.24ZM67,84.47a57,57,0,0,1-5.2,15.72,27.08,27.08,0,0,0-4.16-2.6c2.08-3.36,3.72-8.88,4.6-14Zm6.87-6.72v25h-5v-25Zm6.12,5a41.54,41.54,0,0,1,5.16,11l-4.36,2a40.91,40.91,0,0,0-4.84-11.2Z"/><path class="cls-1" d="M96.1,89.19C95.26,93.91,94,99.51,92,103l-4.6-1.72A41.28,41.28,0,0,0,91.58,88Zm15.36,20.2c2,0,2.35-1.16,2.67-6.8a15.19,15.19,0,0,0,4.68,2c-.64,7.2-2,9.56-7,9.56h-7c-4.92,0-6.6-1.36-6.88-5.76a56.5,56.5,0,0,1-7.4,4.28,27.79,27.79,0,0,0-3.12-3.76,53.69,53.69,0,0,0,10.48-6.32V86.23H103V98.31a64.17,64.17,0,0,0,13.87-18.72l4.8,1.88A74.56,74.56,0,0,1,103,104.63v2.44c0,2,.32,2.32,2.36,2.32Zm-3.52-21.52c-2.32-1.92-6.4-5-9.52-7.2l3.08-3.48c3.24,2.08,7.28,5,9.56,6.8Zm11.35,2.84a52.27,52.27,0,0,1,6,11.92L120.77,105A54.49,54.49,0,0,0,115,92.75Z"/><path class="cls-1" d="M127.94,110a27.37,27.37,0,0,0,4.2-9.28l4.32,1.56c-1,3.4-2.32,7.44-4.24,10.08Zm16.52-12.08H131.94v-19h28.63v19H145.46a31.28,31.28,0,0,1,7.39,5.08l-3.39,3.24a33.11,33.11,0,0,0-7.8-5.72Zm-8-11.48h7.52V83h-7.52Zm0,7.36h7.52V90.23h-7.52Zm14.12,15.8c1.64,0,2-.6,2.19-4.56a13.6,13.6,0,0,0,4.28,1.76c-.52,5.68-1.92,7.12-6.07,7.12H144.3c-5.28,0-6.6-1.4-6.6-5.64v-6.56h4.8v6.52c0,1.2.36,1.36,2.36,1.36ZM155.85,83h-7.31v3.36h7.31Zm0,7.2h-7.31v3.52h7.31Zm3.84,10.2a34.79,34.79,0,0,1,5.28,9.68l-4.64,2a35.78,35.78,0,0,0-4.88-9.88Z"/><path class="cls-1" d="M179.94,102.19q-.12-.84-.36-1.92c-8.08,1.2-9.52,1.56-10.44,2A36.07,36.07,0,0,0,167.58,98c1.08-.28,2-1.16,3.24-2.64.48-.52,1.4-1.68,2.52-3.2-3,.36-3.92.6-4.52.88A33.81,33.81,0,0,0,167.38,89a4.91,4.91,0,0,0,2.32-2.2,45.68,45.68,0,0,0,5-9.8L179,78.71a53.58,53.58,0,0,1-5.68,9.64l2.72-.2A42.61,42.61,0,0,0,178.78,83l4,2.52a68.76,68.76,0,0,1-8.32,11.68l4.2-.52c-.32-1.08-.68-2.12-1-3.08l3.44-1.12a58.62,58.62,0,0,1,2.56,8.4Zm-6.72,2a45.24,45.24,0,0,1-1.84,10.24,27.18,27.18,0,0,0-3.84-1.4,36.91,36.91,0,0,0,1.68-9.44Zm4.4-.76a77.48,77.48,0,0,1,1.16,8.88l-3.76.8a69.67,69.67,0,0,0-1-9Zm4.16-1.2a61,61,0,0,1,2.2,7.48l-3.52,1.2a55.21,55.21,0,0,0-2-7.6Zm14.47-23.76a14.73,14.73,0,0,1-.6,1.4,36,36,0,0,0,10.28,10.44,17.88,17.88,0,0,0-3.52,3.84c-.88-.68-1.72-1.44-2.6-2.24v2.52H186.62v-2a27.1,27.1,0,0,1-2.68,2.12,20.18,20.18,0,0,0-3.24-3.44,29.94,29.94,0,0,0,11.24-14ZM184.74,97.67h18v17h-4.84v-1.92h-8.51v2h-4.64Zm13.47-7.56A53,53,0,0,1,193.57,84,40.14,40.14,0,0,1,189,90.11Zm-8.83,11.76v6.64h8.51v-6.64Z"/><path class="cls-1" d="M220.46,78.79a60.63,60.63,0,0,1-3.8,8.2v27.52H212.1V94.07a38.51,38.51,0,0,1-2.68,3.24,30.76,30.76,0,0,0-2.56-5,42.11,42.11,0,0,0,9.08-15Zm14.15,10v20.48c0,2.28-.4,3.6-1.84,4.4s-3.31,1-5.87,1a16.25,16.25,0,0,0-1.64-4.8c1.68,0,3.36,0,3.92,0s.72-.16.72-.68V88.79h-4.64a34,34,0,0,1-3.76,6.12,33.41,33.41,0,0,0-3.84-3.12c3-3.4,5.44-8.92,6.8-14.4l4.64,1a60.65,60.65,0,0,1-1.88,6H241l.76-.16,3.36.64c-.48,3.24-1.16,7-1.72,9.28l-4-.68c.2-1.24.44-2.92.64-4.68ZM228,96a41.08,41.08,0,0,1-5.44,13.36,29.43,29.43,0,0,0-4.08-2.56c2.28-2.8,4-7.32,4.88-11.76Zm12.31-1.36a49.46,49.46,0,0,1,4.36,13l-4.56,1.56a50.61,50.61,0,0,0-4-13.16Z"/><path class="cls-1" d="M254.78,106.31a60.7,60.7,0,0,1-4.2,7.92,22.6,22.6,0,0,0-3.24-2.12,31.87,31.87,0,0,0,3.76-6.92Zm5.68-1.76H249.34V79h11.12Zm-3.88-21.76h-3.52v3.6h3.52Zm0,7.08h-3.52v3.68h3.52Zm0,7.2h-3.52v3.68h3.52Zm21.63,6.44a25.15,25.15,0,0,0,6.92,6.76,17.91,17.91,0,0,0-2.76,3.24,28.8,28.8,0,0,1-5.76-6.32v7.32h-3.92v-11h-2.43v11h-3.88V108a21.93,21.93,0,0,1-4,5.56,21.59,21.59,0,0,0-2.36-2.92l-1.72,1.08a42.89,42.89,0,0,0-2.8-4.92l3-1.64a33.68,33.68,0,0,1,2.44,3.8,22.79,22.79,0,0,0,3.92-5.44h-3.08v-3.4h4.64V97.87H261V94.39h5.4V92.27H261.9V88.91h4.48v-2.2h-4.84V83.23h4.8c-.52-1.32-1.4-3.08-2.08-4.44l4-1.6c.88,1.52,2,3.6,2.56,4.88l-2.56,1.16h5.16a43.07,43.07,0,0,0,3.47-6l4.4,1.8c-1.08,1.44-2.28,2.88-3.36,4.2h6v3.48h-7.32v2.2h6.12v5.48h2.2v3.48h-2.2v5.64Zm-7.95-14.6h2.43v-2.2h-2.43Zm0,5.48h2.43V92.27h-2.43Zm2.43,5.72V97.87h-2.43v2.24Zm3.92-7.84v2.12H279V92.27Zm2.36,5.6h-2.36v2.24H279Z"/><path class="cls-5" d="M50,88.59a46.44,46.44,0,0,1,7.6,3.92l-2.68,4a41.09,41.09,0,0,0-7.48-4.32Zm6.08,9.72,3.56,3.08c-2,4.2-4.4,8.72-6.72,12.6l-4.08-3.08A108.81,108.81,0,0,0,56.06,98.31ZM52.42,77.67a36.15,36.15,0,0,1,7.56,4l-2.76,3.88a34.82,34.82,0,0,0-7.44-4.44ZM83.09,96.59c-3.76,10.64-11.11,15.64-23,18.32a15.4,15.4,0,0,0-2.6-4.48c10.92-1.84,17.83-6,21.15-15.24ZM67,84.47a57,57,0,0,1-5.2,15.72,27.08,27.08,0,0,0-4.16-2.6c2.08-3.36,3.72-8.88,4.6-14Zm6.87-6.72v25h-5v-25Zm6.12,5a41.54,41.54,0,0,1,5.16,11l-4.36,2a40.91,40.91,0,0,0-4.84-11.2Z"/><path class="cls-5" d="M96.1,89.19C95.26,93.91,94,99.51,92,103l-4.6-1.72A41.28,41.28,0,0,0,91.58,88Zm15.36,20.2c2,0,2.35-1.16,2.67-6.8a15.19,15.19,0,0,0,4.68,2c-.64,7.2-2,9.56-7,9.56h-7c-4.92,0-6.6-1.36-6.88-5.76a56.5,56.5,0,0,1-7.4,4.28,27.79,27.79,0,0,0-3.12-3.76,53.69,53.69,0,0,0,10.48-6.32V86.23H103V98.31a64.17,64.17,0,0,0,13.87-18.72l4.8,1.88A74.56,74.56,0,0,1,103,104.63v2.44c0,2,.32,2.32,2.36,2.32Zm-3.52-21.52c-2.32-1.92-6.4-5-9.52-7.2l3.08-3.48c3.24,2.08,7.28,5,9.56,6.8Zm11.35,2.84a52.27,52.27,0,0,1,6,11.92L120.77,105A54.49,54.49,0,0,0,115,92.75Z"/><path class="cls-5" d="M127.94,110a27.37,27.37,0,0,0,4.2-9.28l4.32,1.56c-1,3.4-2.32,7.44-4.24,10.08Zm16.52-12.08H131.94v-19h28.63v19H145.46a31.28,31.28,0,0,1,7.39,5.08l-3.39,3.24a33.11,33.11,0,0,0-7.8-5.72Zm-8-11.48h7.52V83h-7.52Zm0,7.36h7.52V90.23h-7.52Zm14.12,15.8c1.64,0,2-.6,2.19-4.56a13.6,13.6,0,0,0,4.28,1.76c-.52,5.68-1.92,7.12-6.07,7.12H144.3c-5.28,0-6.6-1.4-6.6-5.64v-6.56h4.8v6.52c0,1.2.36,1.36,2.36,1.36ZM155.85,83h-7.31v3.36h7.31Zm0,7.2h-7.31v3.52h7.31Zm3.84,10.2a34.79,34.79,0,0,1,5.28,9.68l-4.64,2a35.78,35.78,0,0,0-4.88-9.88Z"/><path class="cls-5" d="M179.94,102.19q-.12-.84-.36-1.92c-8.08,1.2-9.52,1.56-10.44,2A36.07,36.07,0,0,0,167.58,98c1.08-.28,2-1.16,3.24-2.64.48-.52,1.4-1.68,2.52-3.2-3,.36-3.92.6-4.52.88A33.81,33.81,0,0,0,167.38,89a4.91,4.91,0,0,0,2.32-2.2,45.68,45.68,0,0,0,5-9.8L179,78.71a53.58,53.58,0,0,1-5.68,9.64l2.72-.2A42.61,42.61,0,0,0,178.78,83l4,2.52a68.76,68.76,0,0,1-8.32,11.68l4.2-.52c-.32-1.08-.68-2.12-1-3.08l3.44-1.12a58.62,58.62,0,0,1,2.56,8.4Zm-6.72,2a45.24,45.24,0,0,1-1.84,10.24,27.18,27.18,0,0,0-3.84-1.4,36.91,36.91,0,0,0,1.68-9.44Zm4.4-.76a77.48,77.48,0,0,1,1.16,8.88l-3.76.8a69.67,69.67,0,0,0-1-9Zm4.16-1.2a61,61,0,0,1,2.2,7.48l-3.52,1.2a55.21,55.21,0,0,0-2-7.6Zm14.47-23.76a14.73,14.73,0,0,1-.6,1.4,36,36,0,0,0,10.28,10.44,17.88,17.88,0,0,0-3.52,3.84c-.88-.68-1.72-1.44-2.6-2.24v2.52H186.62v-2a27.1,27.1,0,0,1-2.68,2.12,20.18,20.18,0,0,0-3.24-3.44,29.94,29.94,0,0,0,11.24-14ZM184.74,97.67h18v17h-4.84v-1.92h-8.51v2h-4.64Zm13.47-7.56A53,53,0,0,1,193.57,84,40.14,40.14,0,0,1,189,90.11Zm-8.83,11.76v6.64h8.51v-6.64Z"/><path class="cls-5" d="M220.46,78.79a60.63,60.63,0,0,1-3.8,8.2v27.52H212.1V94.07a38.51,38.51,0,0,1-2.68,3.24,30.76,30.76,0,0,0-2.56-5,42.11,42.11,0,0,0,9.08-15Zm14.15,10v20.48c0,2.28-.4,3.6-1.84,4.4s-3.31,1-5.87,1a16.25,16.25,0,0,0-1.64-4.8c1.68,0,3.36,0,3.92,0s.72-.16.72-.68V88.79h-4.64a34,34,0,0,1-3.76,6.12,33.41,33.41,0,0,0-3.84-3.12c3-3.4,5.44-8.92,6.8-14.4l4.64,1a60.65,60.65,0,0,1-1.88,6H241l.76-.16,3.36.64c-.48,3.24-1.16,7-1.72,9.28l-4-.68c.2-1.24.44-2.92.64-4.68ZM228,96a41.08,41.08,0,0,1-5.44,13.36,29.43,29.43,0,0,0-4.08-2.56c2.28-2.8,4-7.32,4.88-11.76Zm12.31-1.36a49.46,49.46,0,0,1,4.36,13l-4.56,1.56a50.61,50.61,0,0,0-4-13.16Z"/><path class="cls-5" d="M254.78,106.31a60.7,60.7,0,0,1-4.2,7.92,22.6,22.6,0,0,0-3.24-2.12,31.87,31.87,0,0,0,3.76-6.92Zm5.68-1.76H249.34V79h11.12Zm-3.88-21.76h-3.52v3.6h3.52Zm0,7.08h-3.52v3.68h3.52Zm0,7.2h-3.52v3.68h3.52Zm21.63,6.44a25.15,25.15,0,0,0,6.92,6.76,17.91,17.91,0,0,0-2.76,3.24,28.8,28.8,0,0,1-5.76-6.32v7.32h-3.92v-11h-2.43v11h-3.88V108a21.93,21.93,0,0,1-4,5.56,21.59,21.59,0,0,0-2.36-2.92l-1.72,1.08a42.89,42.89,0,0,0-2.8-4.92l3-1.64a33.68,33.68,0,0,1,2.44,3.8,22.79,22.79,0,0,0,3.92-5.44h-3.08v-3.4h4.64V97.87H261V94.39h5.4V92.27H261.9V88.91h4.48v-2.2h-4.84V83.23h4.8c-.52-1.32-1.4-3.08-2.08-4.44l4-1.6c.88,1.52,2,3.6,2.56,4.88l-2.56,1.16h5.16a43.07,43.07,0,0,0,3.47-6l4.4,1.8c-1.08,1.44-2.28,2.88-3.36,4.2h6v3.48h-7.32v2.2h6.12v5.48h2.2v3.48h-2.2v5.64Zm-7.95-14.6h2.43v-2.2h-2.43Zm0,5.48h2.43V92.27h-2.43Zm2.43,5.72V97.87h-2.43v2.24Zm3.92-7.84v2.12H279V92.27Zm2.36,5.6h-2.36v2.24H279Z"/><path class="cls-6" d="M318.49,10.9S318.49,28,305.57,28c12.92,0,12.92,17.08,12.92,17.08S318.49,28,331.41,28C318.49,28,318.49,10.9,318.49,10.9Z"/><path class="cls-2" d="M318.49,10.9S318.49,28,305.57,28c12.92,0,12.92,17.08,12.92,17.08S318.49,28,331.41,28C318.49,28,318.49,10.9,318.49,10.9Z"/><path class="cls-6" d="M297.62,44.26s0,6.79-5.13,6.79c5.13,0,5.13,6.79,5.13,6.79s0-6.79,5.14-6.79C297.62,51.05,297.62,44.26,297.62,44.26Z"/><path class="cls-2" d="M297.62,44.26s0,6.79-5.13,6.79c5.13,0,5.13,6.79,5.13,6.79s0-6.79,5.14-6.79C297.62,51.05,297.62,44.26,297.62,44.26Z"/><path class="cls-7" d="M293.38,14.47A19.24,19.24,0,1,1,269.25,1.89,19.25,19.25,0,0,1,293.38,14.47Z"/><path class="cls-8" d="M285.37,18.11a22.2,22.2,0,0,0-4.47-2.34,7.8,7.8,0,0,0-7.16.73l9.93,3.4-1.46,2.29L271.7,18.6a7.87,7.87,0,0,0-.61,1.31l-.12.35,10.3,3.52-1.46,2.3-8.94-3A5.75,5.75,0,0,0,272.51,26a8.06,8.06,0,0,0,3.13,1.9,23.21,23.21,0,0,0,5.64,1l-2.35,4.32a41.4,41.4,0,0,1-5.77-1.46,14.49,14.49,0,0,1-6.51-4.23,8.79,8.79,0,0,1-2.12-6.64l-1.78-.61,1.46-2.3.85.29.1-.29c.13-.36.31-.83.54-1.4L264.19,16l1.46-2.3,1.48.51a10.31,10.31,0,0,1,6.22-3.73,15.53,15.53,0,0,1,8.09.71,35.14,35.14,0,0,1,5.21,2.39Z"/><rect class="cls-4" x="130.67" y="147.28" width="71.42" height="4"/></svg>