<?xml version="1.0" encoding="utf-8"?>
<!-- Generator: Adobe Illustrator 16.0.0, SVG Export Plug-In . SVG Version: 6.00 Build 0)  -->
<!DOCTYPE svg PUBLIC "-//W3C//DTD SVG 1.1//EN" "http://www.w3.org/Graphics/SVG/1.1/DTD/svg11.dtd">
<svg version="1.1" id="圖層_1" xmlns="http://www.w3.org/2000/svg" xmlns:xlink="http://www.w3.org/1999/xlink" x="0px" y="0px"
	 width="254.439px" height="57.371px" viewBox="0 0 254.439 57.371" enable-background="new 0 0 254.439 57.371"
	 xml:space="preserve">
<g id="圖層_2">
	<g id="MENU">
		<g>
			<g>
				<g>
					<path fill="#FFFFFF" d="M9.51,28.27l0.06-0.1c-0.136-0.152-0.181-0.365-0.119-0.56c0.046-0.126,0.117-0.242,0.21-0.34
						c0,0,0.08-0.07,0.08-0.1c0-0.27,0.21-0.44,0.25-0.67c0.26-0.09,0.449-0.23,0.479-0.5c0-0.07,0.07-0.12,0.11-0.19
						c0.036-0.059,0.063-0.123,0.08-0.19c0-0.12,0-0.25,0.14-0.34c0.14-0.09,0-0.08,0-0.13c0-0.05,0.22-0.38,0.19-0.61
						c0.229-0.12,0.13-0.32,0.14-0.49s0-0.35,0-0.52c-0.017-0.093,0.022-0.187,0.1-0.24c0.061-0.05,0.07-0.18,0.11-0.28
						c0.04-0.1,0.29,0,0.34-0.16c0,0,0.09,0,0.14,0c0.051,0,0.131,0,0.141,0c0.08-0.19,0.25-0.13,0.399-0.14h0.73
						c0.11,0,0.25,0,0.31,0.12c0.061,0.12,0.141,0,0.221,0s0.26-0.05,0.31,0.12s0.1,0,0.16,0c0.06,0,0.14,0,0.18,0.1
						c0.04,0.1,0.13,0.05,0.2,0.06c0.2-0.016,0.393,0.081,0.5,0.25c0.05,0.07,0.18,0.08,0.31,0.14c0.131,0.06,0,0.27,0.2,0.3
						c0,0.14,0.15,0.11,0.261,0.11c0.109,0,0.229,0,0.35,0s0.25,0,0.34-0.11c0.042-0.017,0.089-0.017,0.13,0
						c0.26,0.06,0.42-0.2,0.66-0.19c0,0,0,0,0.06-0.06l0.261-0.09c0.09,0,0.21,0,0.26,0s0.37-0.15,0.56-0.21l0.41-0.08
						c0.119-0.016,0.229-0.072,0.311-0.16c0.104-0.13,0.262-0.208,0.43-0.21c0.1-0.18,0.28-0.14,0.44-0.15
						c0.159-0.01,0.069,0,0.079,0c0.131-0.2,0.341-0.12,0.53-0.15c0.103-0.014,0.202-0.037,0.3-0.07
						c0.079-0.035,0.159-0.064,0.24-0.09c0.24-0.08,0.47-0.2,0.7-0.29c0.229-0.09,0.37-0.25,0.62-0.23c0.08,0,0.17-0.07,0.25-0.1
						c0.08-0.03,0,0,0,0c0.229,0,0.38-0.15,0.57-0.21c0.237-0.101,0.491-0.158,0.75-0.17c0,0,0.079,0,0.119-0.06l0.29-0.09
						c0.051,0,0.12,0,0.15,0c0.15-0.18,0.36-0.15,0.56-0.15c0,0,0.11,0,0.141,0c0.33-0.24,0.71-0.14,1.069-0.16
						c0.36-0.02,0.54,0,0.811,0c0.115-0.003,0.229,0.024,0.33,0.08c0.2,0.1,0.43,0.15,0.63,0.24c0.12,0.065,0.231,0.146,0.33,0.24
						l0.41,0.37c0.024,0.014,0.055,0.014,0.08,0c0.21,0,0.279,0.15,0.409,0.24c0.046,0.037,0.097,0.068,0.15,0.09
						c0.09,0,0.2,0,0.23,0.12c0.029,0.12,0.09,0,0.13,0s0.18,0,0.21,0.11c0.029,0.11,0.06,0,0.09,0
						c0.29,0.072,0.556,0.221,0.77,0.43c0.038,0.036,0.088,0.058,0.141,0.06c0.1,0,0.2,0,0.239,0.12
						c0.043,0.011,0.088,0.011,0.131,0c0.149,0,0.319,0,0.399,0.15c0.22,0,0.33,0.2,0.54,0.2c0.115,0.03,0.217,0.097,0.29,0.19
						c0.119,0.156,0.289,0.266,0.48,0.31c0.167,0.084,0.313,0.203,0.43,0.35c0.22,0.269,0.543,0.432,0.89,0.45
						c0.181,0.035,0.32,0.179,0.351,0.36c0,0.25,0,0.5,0,0.74c0.005,0.083-0.028,0.165-0.09,0.22c-0.07,0.06-0.07,0.19-0.08,0.29
						c-0.011,0.1,0,0.37-0.141,0.51c-0.14,0.14,0,0.14,0,0.21c0,0.07,0.05,0.25-0.13,0.3c0,0,0,0.07,0,0.12
						c0,0.05,0,0.14-0.109,0.18c-0.11,0.04-0.061,0.08-0.061,0.13c0,0.05,0,0.18-0.13,0.22s0,0.06,0,0.09c0,0.03,0,0.1,0,0.11
						c-0.18,0.12-0.15,0.31-0.2,0.47s-0.09,0.24-0.13,0.35c-0.04,0.11,0,0.05,0,0.06c-0.25,0.14-0.1,0.38-0.15,0.56
						c0.002,0.062,0.022,0.121,0.061,0.17c0.105,0.131,0.105,0.318,0,0.449c-0.041,0.05-0.068,0.107-0.08,0.17
						c-0.004,0.129-0.05,0.252-0.13,0.351c-0.061,0.06,0,0.19,0,0.29s0.06,0.29-0.141,0.38c-0.001,0.023-0.001,0.047,0,0.07
						c-0.057,0.219-0.158,0.423-0.3,0.601l0,0c0,0.299-0.3,0.379-0.42,0.6c-0.146,0.207-0.333,0.381-0.55,0.51
						c-0.282,0.219-0.596,0.395-0.93,0.52c-0.17,0.061-0.32,0.19-0.49,0.26c-0.199,0.111-0.441,0.111-0.64,0H29.9
						c-0.237-0.053-0.472-0.123-0.699-0.209c-0.24-0.07-0.49-0.09-0.721-0.16c-0.229-0.07-0.189-0.141-0.29-0.15
						c-0.1-0.01-0.42-0.22-0.66-0.21h-0.06c-0.151,0.034-0.306,0.062-0.46,0.08h-0.49c-0.06,0-0.149,0-0.17,0
						c-0.02,0-0.31,0.11-0.47,0.149c-0.247,0.043-0.489,0.113-0.72,0.211c-0.12,0-0.28,0.129-0.28,0.31s-0.061,0.101-0.101,0.149
						c-0.085,0.07-0.098,0.196-0.028,0.282c0.009,0.011,0.019,0.021,0.028,0.028c0.08,0.047,0.123,0.139,0.11,0.23
						c0,0.209,0,0.42,0,0.629c0,0.211,0,0.261,0.12,0.361c0.12,0.1,0.05,0.189,0.05,0.289c0,0.551,0,1.1,0,1.641
						c-0.001,0.173,0.086,0.334,0.23,0.43c0.12,0.1,0.31,0,0.47,0c0.118-0.036,0.238-0.063,0.36-0.08c0.37,0,0.739,0,1.109-0.07
						c0.121-0.028,0.228-0.1,0.3-0.199c0.062-0.086,0.165-0.133,0.271-0.121h0.38c0.1,0,0.22,0,0.271-0.109
						c0.05-0.109,0.119,0,0.18,0H29c0.149,0,0.34,0.061,0.43-0.13l0,0c0.271,0,0.54-0.11,0.811-0.14c0.27-0.03,0.449,0,0.67,0
						c0.171-0.02,0.338-0.061,0.5-0.121c0.244-0.139,0.545-0.139,0.79,0c0.063,0.016,0.127,0.016,0.189,0
						c0.227,0.023,0.451,0.067,0.67,0.131c0.25,0.061,0.46,0.279,0.75,0.199c0.035,0.007,0.066,0.024,0.09,0.051
						c0,0.119,0.12,0.1,0.2,0.109s0.08,0,0.09,0c0.181,0.26,0.45,0.11,0.681,0.141c0.086,0.01,0.173,0.01,0.26,0
						c0.08,0,0.16,0,0.189,0.09c0.017,0.033,0.046,0.059,0.08,0.07c0.19,0.06,0.391,0.1,0.58,0.18
						c0.188,0.076,0.372,0.164,0.55,0.26c0.15,0.061,0.28,0.15,0.431,0.2c0.455,0.163,0.865,0.431,1.2,0.78
						c0.112,0.111,0.233,0.215,0.359,0.311c0.029,0.011,0.062,0.011,0.09,0c0.101,0,0.2,0,0.24,0.119
						c0.017,0.005,0.034,0.005,0.05,0c0.341,0,0.48,0.29,0.73,0.41s0.27,0.15,0.28,0.34c0.01,0.189,0.13,0.18,0.22,0.23
						c0.09,0.05,0.12,0.129,0.12,0.22c0,0.09,0,0.399,0,0.601c0,0.199-0.05,0.299,0.14,0.379c0,0,0,0.08,0,0.121
						c0,0.039,0,0.119,0,0.129c0.19,0.09,0.13,0.26,0.15,0.41c0.02,0.15,0,0.141,0,0.18c0,0.041,0.13,0.371,0.14,0.561
						c-0.01,0.119-0.01,0.24,0,0.359c0.021,0.064,0.052,0.125,0.09,0.181c0.027,0.041,0.051,0.085,0.07,0.13c0,0.08,0,0.16,0.13,0.2
						c0.04,0.048,0.061,0.108,0.06,0.17c0,0.47,0,1,0,1.42c0,0,0,0.091,0,0.11c-0.229,0.17-0.119,0.4-0.13,0.609
						c-0.01,0.211,0,0.18,0,0.271c0,0.09,0,0.12,0,0.13c-0.22,0.12-0.13,0.32-0.14,0.49s0,0.189-0.12,0.25
						c-0.12,0.06-0.05,0.15-0.05,0.23c0,0.43,0,0.869,0,1.309c0,0.111,0,0.23-0.13,0.271s0,0,0,0.07
						c0.021,0.226-0.052,0.449-0.2,0.62c-0.1,0.17-0.11,0.369-0.21,0.52C39.99,50.705,39.974,50.855,40,51
						c0,0.121,0,0.271-0.13,0.33c-0.13,0.061,0,0,0,0.07s0.06,0.34-0.15,0.45c-0.01,0.036-0.01,0.073,0,0.11c0,0.22,0,0.439,0,0.66
						c0.036,0.188-0.008,0.383-0.12,0.539c-0.024,0.051-0.024,0.109,0,0.16c0.08,0.15,0,0.28-0.07,0.4
						c-0.046,0.09-0.073,0.188-0.079,0.289c0,0.091-0.08,0.181-0.11,0.291c-0.059,0.158-0.136,0.31-0.23,0.449
						c0,0-0.09,0.11-0.08,0.15c0.061,0.23-0.109,0.4-0.17,0.59c-0.036,0.082-0.095,0.151-0.17,0.2
						c-0.294,0.233-0.564,0.495-0.81,0.78c-0.046,0.066-0.119,0.111-0.2,0.119c-0.066,0.027-0.13,0.062-0.189,0.101
						c-0.056,0.033-0.117,0.054-0.181,0.06c-0.399,0-0.8,0-1.2,0c-0.199,0-0.239-0.189-0.38-0.24
						c-0.14-0.049-0.109-0.069-0.17-0.079c-0.06-0.011-0.18,0-0.2-0.11c-0.02-0.109,0-0.05-0.069-0.05
						c-0.311,0-0.41-0.271-0.63-0.39l-0.181-0.1c-0.05,0-0.12,0-0.18-0.07c-0.059-0.037-0.123-0.064-0.19-0.08
						c-0.09,0-0.18,0-0.26,0s-0.45-0.15-0.42-0.43c-0.14-0.061-0.34,0-0.4-0.181c0,0-0.09,0-0.14,0s-0.149,0-0.17-0.101
						c-0.02-0.1,0-0.049-0.06-0.049c-0.33,0-0.44-0.261-0.65-0.391s-0.35-0.3-0.62-0.27c-0.07,0-0.14-0.061-0.21-0.08
						C31.127,54.078,31.067,54.033,31,54c-0.101,0-0.2,0-0.24-0.119c-0.017-0.005-0.033-0.005-0.05,0c-0.22,0-0.34-0.18-0.55-0.19
						c-0.21-0.01-0.141-0.09-0.221-0.12c-0.27-0.119-0.56-0.22-0.83-0.35c-0.234-0.098-0.446-0.244-0.619-0.43
						c-0.048-0.069-0.109-0.127-0.181-0.17c-0.17-0.07-0.189-0.19-0.189-0.34c-0.219-0.031-0.372-0.232-0.342-0.451
						c0.001-0.004,0.001-0.006,0.001-0.01c0-0.16,0-0.32,0.16-0.449c0.073-0.068,0.171-0.105,0.271-0.101h1.899
						c0.136,0.024,0.274-0.013,0.381-0.101c0.05-0.06,0.18-0.06,0.27-0.06h1.2c0.149,0,0.3,0,0.399-0.12c0.101-0.119,0.11,0,0.16,0
						h0.3c0.08-0.13,0-0.31,0.2-0.4c0.2-0.09,0-0.199,0-0.309c0-0.111-0.09-0.361,0.141-0.49c0,0,0-0.131,0-0.201
						c0-0.469,0-0.939,0-1.399c0-0.12,0-0.26,0.13-0.34s0-0.101,0-0.149v-0.33c0,0,0-0.111,0-0.121c0.22-0.1,0.12-0.279,0.14-0.43
						c0.021-0.15,0-0.27,0-0.41c0-0.14,0-0.14,0-0.15c0.21-0.09,0.13-0.25,0.13-0.379c0-0.131,0-0.25,0.181-0.42
						c-0.07-0.08-0.23-0.121-0.181-0.26c0.05-0.141,0-0.101,0-0.101c0.22-0.08,0.13-0.261,0.141-0.399
						c-0.01-0.051-0.034-0.096-0.07-0.131c-0.14-0.14-0.15-0.21,0-0.34c0.149-0.13,0.09-0.221,0-0.33s-0.12-0.4,0-0.46
						c0.075-0.03,0.12-0.108,0.11-0.19c0-0.1,0-0.199,0-0.31s0-0.17-0.11-0.19l0,0c0.05-0.199-0.21-0.299-0.2-0.49
						c0.007-0.025,0.007-0.053,0-0.079c-0.22-0.07-0.17-0.24-0.16-0.38c0.01-0.141-0.09-0.17-0.149-0.24
						c-0.126-0.182-0.342-0.277-0.561-0.25c-0.14,0-0.31,0-0.399-0.12C32.07,41.07,32,41,32,41h-1
						c-0.123-0.012-0.244-0.039-0.36-0.08c-0.08-0.01-0.16-0.01-0.24,0h-2.22c-0.06,0-0.15,0-0.16,0s-0.22,0.121-0.35,0.131h-1.76
						c-0.173-0.02-0.346,0.039-0.471,0.16c-0.122,0.107-0.256,0.201-0.399,0.279l0.14,0.16C25.047,41.711,24.973,41.856,25,42
						c0.016,0.129-0.021,0.258-0.101,0.36c-0.101,0.166-0.101,0.374,0,0.54c0.057,0.077,0.145,0.125,0.24,0.131
						c0.12,0,0.25,0,0.38,0s0.19,0,0.25,0.09c0.061,0.09,0.12,0.06,0.181,0.06h0.729c0.2,0,0.25-0.091,0.311-0.271
						c0.068-0.264,0.219-0.498,0.43-0.67l0,0c0.399-0.06,0.75-0.31,1.17-0.209c0.109,0.039,0.209,0.104,0.29,0.189
						c0,0,0.07,0.09,0.1,0.09c0.221,0,0.351,0.189,0.57,0.221c0.238,0.052,0.468,0.139,0.68,0.26c0.141,0,0.24,0.119,0.23,0.279
						s0.05,0.061,0.09,0.09h0.06c-0.06,0.291,0.221,0.48,0.21,0.76c0,0.84,0,1.681,0,2.521c0,0.12,0,0.24-0.14,0.3
						c-0.14,0.061,0,0.11,0,0.18v0.761c0.013,0.122-0.023,0.243-0.1,0.34c-0.052,0.091-0.073,0.196-0.061,0.3
						c0,0.301,0,0.29-0.22,0.48c-0.336,0.258-0.778,0.332-1.18,0.199c-0.21,0-0.36-0.229-0.521-0.369
						c-0.16-0.141-0.07-0.08-0.09-0.08c-0.23,0-0.3-0.16-0.44-0.24C27.93,48.23,28,48.3,28,48.3c-0.24,0-0.311-0.16-0.42-0.311
						c-0.093-0.116-0.197-0.223-0.311-0.32c-0.187-0.16-0.376-0.31-0.569-0.449c-0.052-0.042-0.114-0.066-0.181-0.07h-1.58
						c-0.05,0-0.13,0-0.14,0s-0.31,0.131-0.47,0.15c-0.082,0.025-0.162,0.055-0.24,0.09c-0.055,0.027-0.111,0.051-0.17,0.07
						c-0.101,0-0.2,0-0.23,0.119c-0.029,0.121-0.08,0-0.13,0.051c-0.05,0.05-0.2,0-0.229,0.119c-0.03,0.121-0.08,0-0.12,0
						s-0.21,0-0.23,0.131H22.91c-0.239,0.028-0.459,0.143-0.62,0.32c0,0-0.12,0-0.17,0c-0.057,0.023-0.11,0.053-0.16,0.09
						c0,0-0.08,0.069-0.11,0.069c-0.229-0.06-0.27,0.149-0.399,0.24c-0.141,0.118-0.274,0.245-0.4,0.38c0,0-0.11,0-0.16,0
						s-0.12,0-0.13,0s-0.17,0.12-0.28,0.13c-0.109,0.011-0.239,0-0.29,0.12c-0.052,0.016-0.107,0.016-0.16,0H19.74
						c-0.051,0-0.12,0-0.15,0c-0.25,0.279-0.59,0.109-0.88,0.16c0,0,0,0-0.061,0c-0.188,0.049-0.386-0.022-0.5-0.18
						c-0.079-0.105-0.209-0.16-0.34-0.141c-0.1,0-0.2,0-0.28-0.1c-0.079-0.1-0.14,0-0.21-0.051c-0.069-0.049-0.239,0-0.29-0.129
						c-0.05-0.131-0.079,0-0.13,0c-0.05,0-0.34,0.06-0.42-0.141c-0.019-0.011-0.041-0.011-0.06,0c-0.22,0-0.29-0.15-0.42-0.25
						s-0.26-0.279-0.49-0.25c-0.042-0.156-0.157-0.283-0.31-0.34c-0.086-0.029-0.16-0.085-0.21-0.16
						c-0.062-0.106-0.178-0.168-0.301-0.16c-0.06,0-0.109-0.09-0.17-0.14c-0.06-0.05-0.319-0.2-0.399-0.341
						c-0.171-0.238-0.361-0.463-0.57-0.67c-0.033-0.072-0.05-0.15-0.05-0.229c0-0.11,0-0.21-0.141-0.271
						c-0.14-0.059-0.159-0.17-0.25-0.229c-0.096-0.038-0.203-0.038-0.3,0c-0.188,0.101-0.32,0.28-0.359,0.49
						c0,0.13,0,0.26-0.12,0.37c-0.12,0.109,0,0.14,0,0.21c0,0.069,0,0.17-0.11,0.229c-0.11,0.061-0.05,0.131-0.06,0.2
						c-0.011,0.07,0,0.25-0.101,0.341c-0.1,0.09-0.05,0.139-0.05,0.209c0.041,0.201-0.058,0.406-0.24,0.5
						C11.443,48.367,11.177,48.656,11,49c-0.162,0.155-0.24,0.379-0.21,0.601c0.014,0.049,0.014,0.101,0,0.149
						c-0.04,0.082-0.073,0.165-0.101,0.25c0,0.101,0,0.221-0.13,0.271s0,0.069,0,0.101c0.008,0.102-0.033,0.201-0.109,0.27
						c-0.051,0-0.051,0.13-0.07,0.199c-0.021,0.07,0,0.211-0.12,0.25l0,0c0,0.24-0.25,0.4-0.21,0.65
						c0.023,0.134-0.031,0.27-0.14,0.35c-0.19,0.16-0.42,0.351-0.37,0.65l0,0C9.32,52.85,9.4,53.05,9.38,53.22
						c-0.021,0.17,0,0,0,0.05c-0.23,0.101-0.15,0.3-0.15,0.46c0,0.7,0,1.4,0,2.109c0,0.111,0,0.24-0.13,0.291l0,0
						c-0.173,0.281-0.378,0.543-0.609,0.779C8.27,57.16,7.94,57.283,7.61,57.24C7.404,57.304,7.179,57.271,7,57.15
						C6.934,57.06,6.831,57.005,6.72,57c-0.06,0-0.11-0.049-0.17-0.08c-0.039-0.036-0.088-0.061-0.14-0.069
						c-0.101,0-0.19,0-0.23-0.12s0,0,0,0c-0.32,0-0.43-0.26-0.64-0.38s-0.24-0.28-0.471-0.3c-0.229-0.02-0.17-0.11-0.25-0.16
						L4.5,55.65c-0.027-0.075-0.051-0.152-0.07-0.23h-0.3c-0.09,0-0.19,0-0.22-0.09c-0.03-0.09,0-0.06-0.061,0
						c-0.25,0-0.359-0.189-0.55-0.279C3.23,55.019,3.156,55,3.08,54.99c-0.09,0-0.2,0-0.23-0.119c-0.03-0.121-0.05,0-0.08,0
						C2.59,54.835,2.428,54.74,2.31,54.6l0,0c0,0-0.28-0.101-0.43-0.149c-0.11-0.037-0.212-0.096-0.3-0.17
						C1.48,54.201,1.4,54.08,1.21,54.08c-0.19,0-0.21-0.27-0.311-0.35c-0.1-0.08-0.21-0.24-0.33-0.35
						C0.45,53.27,0.33,53.23,0.36,53.07c-0.3-0.22-0.14-0.529-0.17-0.8C0.212,52.08,0.141,51.89,0,51.759
						c0.229-0.09,0.18-0.279,0.18-0.449v-0.439c0-0.08,0-0.15,0.1-0.201c0.101-0.049,0-0.1,0.061-0.16c0.06-0.059,0-0.219,0-0.329
						C0.357,50.117,0.384,50.055,0.42,50h0.07c0.078-0.256,0.189-0.501,0.329-0.729c0.108-0.219,0.231-0.429,0.37-0.63
						c0.176-0.181,0.306-0.4,0.38-0.641c0.011-0.026,0.028-0.051,0.051-0.069c0.14-0.12,0.3-0.22,0.319-0.431
						c0.021-0.209,0.13-0.18,0.21-0.27s0.07-0.05,0.07-0.08c0-0.029,0.12-0.23,0.21-0.32s0.2-0.16,0.19-0.31
						c-0.011-0.149,0-0.06,0.08-0.09C2.78,46.4,2.86,46.33,2.89,46.27c0.132-0.198,0.298-0.37,0.49-0.511c0,0,0.06,0,0.07,0
						l0.199-0.479c0.063-0.082,0.116-0.168,0.16-0.261c0.01-0.122,0.081-0.232,0.19-0.29c0,0,0.1,0,0.1-0.08
						c0-0.21,0.17-0.3,0.3-0.42l0,0c0-0.32,0.36-0.449,0.521-0.689c0.113-0.162,0.213-0.333,0.3-0.51
						c0.08-0.181,0.25-0.271,0.39-0.391c0.141-0.12,0.101,0,0.12-0.08c0.135-0.254,0.331-0.471,0.57-0.63
						c0-0.229,0.21-0.32,0.34-0.46c0.009-0.025,0.009-0.055,0-0.08c0-0.2,0.13-0.301,0.25-0.41s0.18-0.34,0.4-0.4
						c0,0,0-0.08,0-0.119c0-0.041,0-0.15,0.12-0.17c0.119-0.021,0.06-0.08,0.06-0.11c-0.06-0.3,0.15-0.47,0.34-0.63
						c0.128-0.098,0.202-0.25,0.2-0.41h0.71c0,0,0.09,0,0.13,0.07s0.11,0.08,0.17,0.08c0.061,0,0.16,0,0.21,0.109
						s0.11,0.051,0.181,0.061c0.069,0.01,0.29,0,0.38,0.119c0.09,0.121,0.109,0,0.16,0c0.373-0.02,0.743,0.086,1.05,0.301
						c0.046,0.006,0.094,0.006,0.14,0c0.14,0,0.32,0,0.4,0.14c0.26,0,0.41,0.261,0.689,0.19c0.064-0.004,0.127,0.014,0.181,0.049
						c0.13,0.098,0.309,0.098,0.439,0c0.239-0.104,0.501-0.145,0.76-0.119c0.15,0,0.32,0,0.41-0.131c0.09-0.129,0.11,0,0.17,0
						c0.061,0,0.271,0,0.351-0.119c0.08-0.12,0.08,0,0.13,0s0.1,0,0.109,0c0.15-0.21,0.381-0.141,0.58-0.16c0.2-0.02,0.12,0,0.141,0
						c0.02,0,0.33-0.12,0.51-0.141c0.18-0.02,0.33,0,0.46-0.139c0.13-0.141,0.16,0,0.24,0s0.3,0,0.439,0
						c0.141,0,0.181-0.121,0.28-0.15c0.1-0.03,0.29,0,0.34-0.051c0.05-0.049,0.351-0.109,0.53-0.129c0.18-0.021,0.34,0,0.45-0.131
						c0.109-0.13,0.09,0,0.14,0c0.262,0.027,0.519-0.082,0.68-0.289c0-0.431,0-0.91,0-1.4s0-1,0-1.42c0-0.09,0-0.18,0-0.271
						c0-0.09,0-0.22-0.109-0.28c-0.11-0.06,0-0.09-0.061-0.14c-0.049-0.286-0.299-0.494-0.59-0.489h-0.96
						c-0.109,0-0.229,0-0.32-0.091c-0.09-0.09-0.159-0.05-0.239-0.05H16.44c-0.17,0-0.359,0-0.47-0.15c0,0-0.11,0-0.16,0
						s-0.29,0-0.38-0.13s-0.189,0-0.22,0s-0.4-0.11-0.53-0.3c-0.134-0.154-0.341-0.223-0.54-0.18
						c-0.149,0.006-0.295-0.053-0.399-0.16c-0.156-0.134-0.327-0.248-0.511-0.34c-0.384-0.129-0.745-0.318-1.069-0.561
						c0-0.25-0.311-0.35-0.48-0.55c0,0-0.08-0.06-0.08-0.101c0-0.189-0.2-0.279-0.35-0.379c-0.15-0.101-0.34-0.19-0.38-0.4
						c0-0.061-0.12-0.109-0.17-0.17c-0.134-0.184-0.284-0.355-0.45-0.51C10.059,30.48,9.963,30.24,10,30c0-0.24-0.26-0.42-0.19-0.68
						c-0.24-0.18-0.13-0.43-0.17-0.66C9.611,28.526,9.568,28.395,9.51,28.27z M19.58,42.13H18.73c-0.05,0-0.12,0-0.14,0
						c-0.021,0-0.26,0.119-0.41,0.129c-0.15,0.011-0.18,0-0.22,0c-0.16,0.112-0.357,0.158-0.55,0.131c-0.061,0-0.15,0-0.19,0.05
						s-0.3,0.101-0.46,0.11s-0.37,0-0.48,0.07c-0.136,0.087-0.298,0.125-0.46,0.109c-0.31,0-0.63,0-0.939,0
						c-0.311,0-0.36-0.08-0.45,0.141c0,0-0.07,0-0.11,0c-0.189,0-0.25,0.16-0.369,0.239c-0.123,0.089-0.236,0.19-0.341,0.3
						c0,0,0,0.11,0,0.121c0,0.01-0.109,0.149-0.119,0.239c-0.011,0.09,0,0.21-0.07,0.239c-0.078,0.041-0.126,0.123-0.12,0.211
						c0.013,0.242-0.14,0.463-0.37,0.539l0.26,0.351c0.221-0.079,0.33-0.28,0.57-0.29c0,0,0-0.061,0.08-0.09
						c0.124-0.146,0.31-0.224,0.5-0.21c0.146,0.036,0.299-0.011,0.4-0.12c0,0,0.1,0,0.159,0h1.19c0.104-0.012,0.204-0.039,0.3-0.08
						c0.246-0.057,0.486-0.134,0.72-0.23c0.07,0,0.17,0,0.261,0c0.09,0,0.12,0,0.14,0c0.15-0.199,0.37-0.119,0.56-0.139
						c0.19-0.021,0.261,0,0.311,0c0.12-0.1,0.274-0.146,0.43-0.131c0,0,0.09,0,0.101,0c0.01,0,0.34-0.23,0.409-0.43
						c0.042-0.131,0.114-0.252,0.21-0.35c0.063-0.048,0.101-0.121,0.101-0.201L19.58,42.13z M24.39,28.5c0,0.31,0,0.59,0,0.871
						c0,0.279,0.17,0.279,0.33,0.35s0.12,0,0.13,0s0.3-0.09,0.46-0.11c0.203-0.004,0.405-0.034,0.601-0.09
						c0.158-0.067,0.328-0.101,0.5-0.101h0.819c0.142,0.022,0.284-0.035,0.37-0.149c0.08-0.12,0.17-0.43,0.07-0.48
						c-0.101-0.05-0.13-0.24-0.15-0.38c-0.02-0.14,0-0.12,0-0.13c-0.17-0.06-0.13-0.23-0.2-0.36c-0.146-0.01-0.293-0.01-0.439,0
						c-0.33,0-0.7-0.1-1,0.16l0,0c-0.24,0-0.49,0-0.68,0.16C24.87,28.22,24.67,28.42,24.39,28.5z M23.28,25.15
						c0.1,0.018,0.196,0.045,0.29,0.08c0.091,0.06,0.16,0.14,0.25,0.21c0.084,0.088,0.223,0.092,0.312,0.009
						c0.003-0.003,0.006-0.006,0.009-0.009c0.043-0.062,0.115-0.096,0.19-0.09h0.35c0.061,0,0.15,0,0.16,0s0.2-0.12,0.31-0.12h1
						c0.11,0,0.23,0,0.28-0.14c0.053-0.113,0.009-0.249-0.1-0.31c-0.258-0.273-0.627-0.413-1-0.38h-0.12
						c-0.271,0-0.57-0.07-0.8,0.15c0,0-0.091,0-0.141,0s-0.41,0-0.54,0.16c0,0-0.06,0-0.09,0C23.35,24.73,23.26,24.85,23.28,25.15z
						 M17.21,30.57c0.22,0.301,0.54,0.24,0.85,0.24c0.127-0.01,0.254-0.01,0.38,0c0.17,0.014,0.334-0.058,0.44-0.189
						c0.062-0.092,0.083-0.203,0.06-0.311c0-0.1,0-0.24-0.069-0.301c-0.224-0.26-0.559-0.397-0.9-0.369
						c-0.146,0.016-0.294,0.016-0.44,0c-0.17,0-0.329,0-0.439,0.16s-0.15,0.42-0.061,0.47C17.12,30.32,17.17,30.48,17.21,30.57z
						 M17.68,26.69h0.13c0.29,0,0.34,0,0.521-0.18c0.028-0.045,0.028-0.104,0-0.15c-0.166-0.186-0.434-0.242-0.66-0.14
						C17.68,26.38,17.68,26.52,17.68,26.69z"/>
					<path fill="#FFFFFF" d="M25.48,5.68c0.183-0.062,0.287-0.253,0.24-0.44c0,0,0-0.07,0-0.08c-0.229-0.12-0.14-0.33-0.15-0.51
						c-0.01-0.18,0-0.17-0.109-0.23C25.35,4.36,25.4,4.28,25.39,4.2s0-0.24-0.12-0.3s0-0.08-0.05-0.12c-0.05-0.04,0-0.07,0-0.08
						c-0.29-0.2-0.14-0.49-0.18-0.74S25.1,2.68,24.9,2.61c0,0,0-0.08,0-0.12c0-0.32,0-0.64,0-1c0-0.09,0-0.16,0.12-0.2
						s0.07-0.12,0-0.17L24.72,1c-0.1-0.09-0.12-0.21,0-0.29s0.11-0.11,0.09-0.18c-0.02-0.07,0.08-0.22,0.16-0.3
						c0.3-0.29,0.67-0.21,1-0.2c0.06,0,0.11,0.07,0.17,0.1c0.145,0.093,0.295,0.177,0.45,0.25c0.168,0.076,0.347,0.123,0.53,0.14
						c0.038,0.002,0.074,0.02,0.1,0.05c0,0.12,0.15,0.09,0.24,0.1C27.698,0.629,27.928,0.77,28,1c0.015,0.049,0.047,0.092,0.09,0.12
						l0.689,0.52c0,0,0.08,0.07,0.08,0.1c0,0.03,0.12,0.17,0.23,0.22c0.107,0.049,0.206,0.117,0.29,0.2
						c0.135,0.129,0.261,0.266,0.38,0.41l0,0c0.31,0,0.44,0.32,0.73,0.38c0.164,0.064,0.31,0.171,0.42,0.31
						c0.131,0.149,0.301,0.26,0.489,0.32c0.181,0,0.311,0.23,0.46,0.35C32.01,4.05,31.92,4,32,4c0.31,0,0.42,0.27,0.64,0.4
						c0.172,0.091,0.307,0.24,0.38,0.42c0.05,0.14,0.25,0.23,0.38,0.35l0.58,0.49l0,0c0,0.16,0.101,0.26,0.181,0.39
						c0.08,0.13,0,0.22,0.17,0.27c0.17,0.05,0,0.09,0,0.13s0,0.13,0,0.16c0,0.03,0.149,0.31,0.149,0.48v0.52
						c0,0.13-0.05,0.28,0.15,0.34c0,0,0,0.07,0,0.1c-0.02,0.153,0.08,0.295,0.229,0.33c0.153,0.066,0.327,0.066,0.48,0
						c0.155-0.097,0.338-0.139,0.52-0.12h0.351h0.22c0.113-0.045,0.23-0.082,0.35-0.11c0.141,0,0.301,0,0.381-0.14
						c0.08-0.14,0.09,0,0.13,0s0.3,0,0.42-0.13s0.21,0,0.319,0c0.11,0,0.091,0.08,0.141,0.09c0.27,0.08,0.51,0.22,0.77,0.311
						c0.149,0.054,0.283,0.144,0.391,0.26c0.064,0.081,0.168,0.119,0.27,0.1c0.207-0.021,0.401,0.103,0.47,0.3
						c0.045,0.093,0.13,0.159,0.23,0.18c0.081,0.037,0.156,0.088,0.22,0.15c0.23,0.17,0.45,0.34,0.69,0.5
						c0.206,0.152,0.346,0.378,0.39,0.63c-0.006,0.2-0.061,0.396-0.16,0.57c-0.109,0.25-0.37,0.39-0.55,0.59c0,0-0.08,0-0.08,0.07
						c0,0.24-0.28,0.25-0.38,0.41s-0.1,0-0.16,0c-0.06,0-0.27,0-0.359,0.12c-0.091,0.12-0.131,0-0.2,0c-0.07,0-0.24,0-0.33,0.12
						c-0.09,0.12-0.18,0-0.271,0H36.04c-0.13,0-0.28,0-0.36,0.12c-0.08,0.12-0.1,0-0.15,0.05l-0.17,0.08c0,0-0.08,0.07-0.119,0.07
						c-0.23,0-0.37,0.14-0.561,0.23v0.39c0.021,0.118-0.012,0.239-0.09,0.33c-0.048,0.068-0.075,0.147-0.08,0.23
						c0,0.189,0,0.38,0,0.57s0,0.23-0.13,0.27s0,0.08,0,0.12c0.021,0.296-0.111,0.583-0.351,0.76
						c-0.125,0.099-0.195,0.251-0.189,0.41c-0.24,0-0.33,0.14-0.49,0.23l-0.47,0.29c0,0-0.061,0-0.07,0
						c-0.16,0.37-0.5,0.43-0.87,0.46h-0.12c-0.125,0.06-0.256,0.11-0.39,0.15c-0.14,0-0.29,0-0.39,0.14c-0.101,0.14-0.12,0-0.19,0
						H30.12c-0.16-0.002-0.317-0.04-0.46-0.11c-0.197-0.109-0.409-0.187-0.631-0.23c-0.195-0.031-0.387-0.085-0.569-0.16
						c0-0.08,0-0.17-0.05-0.28H28.11c-0.069-0.11,0-0.3-0.18-0.34c0,0,0-0.07,0-0.1c0-0.03,0-0.12,0-0.13
						c-0.28-0.18-0.12-0.45-0.16-0.67c-0.04-0.22,0-0.19-0.13-0.25c-0.13-0.06-0.05-0.16-0.05-0.25c0-0.09,0-0.34-0.14-0.48
						c-0.141-0.14,0-0.1,0-0.15c0-0.05,0-0.22-0.141-0.26c-0.14-0.04,0-0.12,0-0.18s0-0.38,0-0.58c0-0.2,0-0.17-0.1-0.23
						c-0.101-0.06-0.061-0.16-0.07-0.24s0.05-0.35-0.149-0.47c0,0,0,0,0-0.05c0.019-0.234-0.045-0.468-0.181-0.66
						c-0.05-0.07,0-0.18-0.14-0.22c-0.141-0.04,0-0.13,0-0.2c0-0.32,0-0.64,0-1c0-0.12,0-0.24-0.11-0.34
						c-0.109-0.1,0-0.16-0.05-0.25c-0.05-0.09,0-0.33,0-0.49c-0.017-0.035-0.017-0.075,0-0.11c0.21-0.17,0.11-0.32,0-0.5
						c-0.035-0.124-0.035-0.256,0-0.38c0.023-0.202-0.074-0.398-0.25-0.5c-0.062-0.04-0.099-0.107-0.1-0.18V7.06
						c0-0.12,0-0.28-0.141-0.35c0,0,0-0.1,0-0.15V6.07c0.077-0.171,0.001-0.373-0.17-0.449C25.726,5.564,25.58,5.588,25.48,5.68z"/>
					<path fill="#FFFFFF" d="M12.06,17.74c-0.14,0.171-0.392,0.196-0.563,0.056c-0.003-0.002-0.005-0.004-0.007-0.006
						c-0.094-0.046-0.197-0.066-0.301-0.06c-0.143,0.015-0.285-0.024-0.399-0.11c-0.046-0.036-0.103-0.053-0.16-0.05
						c-0.11,0-0.21,0-0.28-0.11s-0.08,0-0.12-0.05L10,17.31c0,0-0.05,0-0.07,0c-0.26,0-0.439-0.14-0.66-0.2
						C9.172,17.036,9.081,16.952,9,16.86c-0.191-0.187-0.396-0.36-0.61-0.52C8.2,16.26,8.028,16.145,7.88,16
						c-0.08-0.1-0.19-0.26-0.39-0.2l0,0c-0.11-0.18-0.32-0.12-0.48-0.16c-0.177-0.046-0.351-0.103-0.52-0.17
						c-0.096-0.051-0.184-0.114-0.261-0.189C6.06,15.12,6,15,5.73,15c-0.27,0-0.17-0.11-0.239-0.17L4.89,14.26l0,0
						c-0.27,0-0.39-0.21-0.57-0.34c-0.18-0.13-0.409-0.35-0.63-0.5c-0.072-0.039-0.115-0.117-0.109-0.2v-0.53
						c-0.009-0.097,0.028-0.193,0.1-0.26c0.11-0.09,0.13-0.25,0.21-0.37s0.14-0.36,0.32-0.49c0.18-0.13,0-0.24,0.149-0.29
						c0.061-0.33,0.42-0.41,0.62-0.63c0.138-0.165,0.304-0.303,0.49-0.41c0.15-0.082,0.319-0.123,0.49-0.12
						c0.07-0.016,0.132-0.059,0.17-0.12C6.3,9.826,6.481,9.663,6.67,9.51c0.081-0.077,0.209-0.077,0.29,0
						C7.031,9.573,7.125,9.605,7.22,9.6c0.317-0.035,0.612,0.17,0.69,0.48H8.2c0.087-0.017,0.177,0.018,0.229,0.09
						c0,0,0.07,0.05,0.12,0.06c0.41,0.092,0.785,0.3,1.08,0.6c0.06,0.038,0.129,0.059,0.2,0.06c0.14,0,0.279,0,0.38,0.1
						c0.1,0.1,0.1,0,0.16,0h1.75H13c0.12,0,0.26-0.05,0.319,0.12c0.061,0.17,0.12,0,0.19,0h0.79c0.09,0,0.19,0,0.25,0.1
						s0.15,0,0.229,0.06c0.08,0.06,0.221,0,0.301,0.1s0.18,0,0.27,0s0.34,0,0.45,0.13c0,0,0.07,0,0.11,0h0.899c0-0.12,0-0.24,0-0.35
						s0-0.39,0-0.58c-0.009-0.094-0.043-0.184-0.1-0.26c-0.14-0.205-0.158-0.468-0.05-0.69c0.069-0.17,0.31-0.29,0.489-0.39
						c0.181-0.1,0.341-0.25,0.57-0.2c0.019,0.01,0.041,0.01,0.06,0c0.341-0.271,0.75-0.14,1.12-0.14c0.221,0,0.431,0.16,0.681,0.16
						c0.149,0.2,0.479,0.18,0.6,0.43c0,0,0.19,0,0.21,0c0.021,0,0.36,0.11,0.5,0.26c0.132,0.117,0.304,0.179,0.48,0.17
						c0.247,0.021,0.48,0.127,0.659,0.3c0.091,0.05,0.15,0.16,0.24,0.21c0.09,0.05,0.21,0.21,0.41,0.2c0.2-0.01,0.18,0.14,0.28,0.22
						c0.1,0.08,0.05,0.06,0.08,0.07c0.351,0.063,0.688,0.185,1,0.36c0.261,0.131,0.495,0.312,0.689,0.53
						c0.101,0.09,0.25,0.18,0.221,0.35c0.25,0.12,0.13,0.41,0.3,0.58s0,0.28,0,0.42c0.014,0.334-0.14,0.653-0.41,0.85
						c-0.214,0.192-0.367,0.442-0.44,0.72c-0.07,0.235-0.214,0.441-0.409,0.59c-0.063,0.045-0.112,0.107-0.141,0.18
						c-0.022,0.064-0.069,0.118-0.13,0.15c-0.3,0.14-0.46,0.43-0.72,0.62l-0.16,0.13c-0.128,0.098-0.205,0.249-0.21,0.41H22.36
						c-0.06,0-0.149,0-0.17,0.05c-0.02,0.05-0.239,0.11-0.38,0.14v0.27c-0.109,0.09-0.33,0-0.359,0.17c-0.19,0-0.15,0.19-0.171,0.31
						L20.88,18c-0.031,0.022-0.056,0.054-0.07,0.09c-0.093,0.271-0.308,0.482-0.58,0.57c-0.06,0-0.109,0.1-0.18,0.12
						c-0.07,0.02-0.22,0.24-0.43,0.21c-0.061,0-0.101,0.15-0.24,0.14c-0.32,0-0.65,0-1,0c-0.09,0-0.17-0.13-0.26-0.19
						c-0.059-0.056-0.132-0.094-0.21-0.11c-0.118-0.029-0.224-0.096-0.301-0.19c-0.17-0.15-0.149-0.39-0.34-0.53
						c-0.189-0.14,0-0.19,0-0.29c0-0.27,0-0.29-0.319-0.31c-0.101,0-0.19,0-0.261-0.09c-0.069-0.09-0.1-0.06-0.149-0.06h-0.61
						c-0.16,0.22-0.4,0.13-0.61,0.15c-0.21,0.021-0.399,0-0.569,0.14c-0.091,0.05-0.2,0.05-0.29,0c-0.1-0.093-0.236-0.134-0.37-0.11
						h-0.64c-0.11,0-0.221,0-0.271,0.11s-0.08,0.05-0.13,0.05c-0.23,0-0.47,0-0.7,0C12.25,17.86,12.17,17.79,12.06,17.74z"/>
				</g>
				<g>
					<path fill="#FFFFFF" d="M81.12,30c0.14,0.121,0.189,0.33,0.42,0.311c0.08,0.141,0.239,0.15,0.359,0.221
						c0.058,0.051,0.09,0.123,0.091,0.199c0,0.24,0.21,0.4,0.289,0.609c0,0,0.061,0.061,0.07,0.091c0,0.3,0.271,0.479,0.42,0.71
						c0.175,0.164,0.297,0.376,0.351,0.609c0.037,0.16,0.112,0.307,0.22,0.431c0.091,0.097,0.114,0.239,0.06,0.36
						c-0.09,0.235-0.208,0.461-0.35,0.67c-0.32,0.41-0.67,0.81-1,1.199c-0.1,0.121-0.24,0.221-0.34,0.34
						c-0.129,0.165-0.239,0.343-0.33,0.531c-0.151,0.316-0.365,0.599-0.63,0.829c-0.255,0.245-0.471,0.528-0.641,0.841
						c-0.286,0.522-0.621,1.018-1,1.479l-0.199,0.31c0.18,0.16,0.33,0.33,0.51,0.461c0.151,0.16,0.335,0.287,0.54,0.369
						c0,0,0.09,0.061,0.14,0.1c0.215,0.214,0.485,0.363,0.78,0.431c0.11,0,0.2,0.13,0.29,0.21s0.14,0.221,0.229,0.279
						c0.091,0.061,0.21,0.271,0.42,0.211c0.12,0.16,0.32,0.15,0.48,0.229c0.352,0.194,0.663,0.452,0.92,0.761
						c0.09,0.1,0.24,0.08,0.35,0.189c0.11,0.109,0.351,0.17,0.53,0.24c0.148,0.08,0.303,0.15,0.46,0.21
						c0.189,0.062,0.36,0.168,0.5,0.31c0.122,0.127,0.296,0.189,0.47,0.17c0.061,0,0.12,0.07,0.19,0.11s0,0.05,0,0.05
						c0.35,0,0.61,0.29,1,0.25c0.11,0,0.24,0.07,0.35,0.131c0.278,0.128,0.546,0.278,0.801,0.449
						c0.196,0.156,0.411,0.287,0.64,0.391c0.246,0.068,0.478,0.184,0.68,0.34c0.181,0.109,0.381,0.182,0.59,0.209
						c0.091,0,0.2,0,0.24,0.131c0.04,0.13,0,0,0.07,0c0.21,0.07,0.43,0.119,0.64,0.199c0.13,0.035,0.25,0.101,0.351,0.19
						c0.13,0.16,0.3,0.14,0.46,0.16s0.22,0,0.29,0.101c0.069,0.1,0.13,0,0.189,0.06c0.061,0.06,0.311-0.06,0.391,0.14
						c0,0,0.109,0,0.17,0c0.26,0,0.54-0.07,0.75,0.17c0.26,0,0.479,0.28,0.77,0.19l0,0c0.223,0.095,0.449,0.179,0.68,0.25
						c0.087,0.058,0.187,0.093,0.29,0.1c0,0,0.101,0,0.12,0c0.16,0.19,0.37,0.14,0.58,0.171c0.21,0.029,0.21,0.1,0.33,0.139
						c0.12,0.041,0.271,0,0.34,0.08c0.116,0.092,0.264,0.135,0.41,0.121c0.141,0,0.3,0,0.391,0.129c0.229,0,0.329,0.261,0.569,0.221
						c0,0,0.08,0.05,0.11,0.08c0.03,0.029,0,0,0.06,0.06l0.71,0.171c0.13,0,0.23,0,0.311,0.17c0.092,0.102,0.215,0.172,0.35,0.199
						c0.13,0.01,0.261,0.01,0.391,0c0.13,0,0.279-0.05,0.359,0.12c0.28,0,0.47,0.25,0.771,0.25c0.3,0,0.46,0.181,0.729,0.17
						c0.16,0.22,0.51,0.07,0.67,0.31l0,0c0.391,0,0.66,0.221,1,0.381c0.005,0.15,0.062,0.295,0.16,0.41
						c0.113,0.141,0.186,0.311,0.21,0.49c0.067,0.254-0.027,0.523-0.24,0.68c-0.092,0.092-0.205,0.161-0.33,0.199
						c-0.18,0.061-0.35,0.17-0.54,0.24c-0.189,0.07-0.1,0.141-0.13,0.221c-0.008,0.082-0.008,0.166,0,0.25l-0.279-0.11
						c-0.19-0.08-0.261-0.07-0.41,0.09c-0.123,0.134-0.29,0.219-0.47,0.239c-0.221,0-0.431,0.181-0.681,0.201c0,0,0,0.06-0.069,0.08
						c-0.146,0.127-0.321,0.216-0.511,0.26c-0.188,0.043-0.363,0.133-0.51,0.26c-0.117,0.064-0.226,0.145-0.32,0.24
						c-0.125,0.09-0.269,0.15-0.42,0.18c-0.14,0-0.33,0-0.42,0.18s-0.109,0-0.16,0c-0.06,0.027-0.116,0.062-0.17,0.1
						c0,0-0.069,0.08-0.109,0.08c-0.158,0.014-0.307,0.08-0.42,0.19c-0.119,0.108-0.271,0.175-0.431,0.19c0,0-0.1,0.05-0.149,0.07
						L96.57,55.15l-0.39,0.17c-0.14,0-0.29,0.07-0.43,0.12c-0.141,0.05-0.42,0.33-0.63,0.5c0,0-0.07,0.101-0.11,0.101
						s-0.22,0.119-0.32,0.199c-0.146,0.122-0.3,0.236-0.46,0.34c-0.066,0.012-0.134,0.012-0.2,0c-0.119,0-0.25,0-0.319,0.121
						c-0.017,0.004-0.034,0.004-0.05,0C93.35,56.77,93.03,56.86,92.71,56.9c-0.32,0.04-0.54,0-0.811,0
						c-0.339,0.045-0.681-0.065-0.93-0.3l0,0c-0.217,0.002-0.429-0.062-0.61-0.181c-0.104-0.058-0.215-0.104-0.33-0.14
						c-0.06,0.19-0.199,0.15-0.319,0.11l-0.36-0.52L89,55.621c-0.17,0-0.3-0.25-0.55-0.201C88.283,55.298,88.133,55.158,88,55
						c-0.13-0.199-0.351-0.289-0.48-0.479c-0.083-0.113-0.188-0.208-0.31-0.28c-0.13-0.1-0.2-0.27-0.41-0.289
						c-0.21-0.021-0.19-0.16-0.29-0.25c-0.28-0.271-0.58-0.521-0.83-0.811c-0.197-0.174-0.363-0.38-0.49-0.609
						c-0.144-0.234-0.326-0.439-0.54-0.611c-0.221-0.17-0.398-0.389-0.52-0.639c-0.03-0.072-0.083-0.133-0.15-0.171
						c-0.17-0.09-0.18-0.3-0.3-0.43s-0.45-0.479-0.68-0.71c-0.206-0.172-0.388-0.37-0.54-0.59c-0.122-0.17-0.267-0.32-0.431-0.45
						c-0.27-0.261-0.52-0.54-0.8-0.771c-0.272-0.195-0.524-0.42-0.75-0.67c-0.479-0.119-0.7-0.57-1-0.85c0,0,0,0-0.069-0.061
						c-0.341-0.1-0.521-0.39-0.74-0.629c-0.22-0.24-0.18-0.291-0.34-0.381c-0.152-0.064-0.294-0.152-0.42-0.26
						c-0.101-0.109-0.29-0.17-0.261-0.38c0,0,0-0.101-0.08-0.14c-0.152-0.162-0.319-0.311-0.5-0.44
						c-0.25-0.202-0.483-0.423-0.699-0.66c-0.221-0.22-0.311-0.21-0.521,0c-0.13,0.13-0.273,0.243-0.43,0.341
						c-0.152,0.084-0.31,0.16-0.47,0.229c-0.068,0.041-0.127,0.096-0.171,0.16c-0.189,0.261-0.35,0.541-0.55,0.791
						c-0.1,0.117-0.218,0.219-0.35,0.299c-0.22,0.136-0.405,0.32-0.54,0.541c-0.18,0.313-0.442,0.568-0.76,0.74
						c-0.217,0.131-0.425,0.278-0.62,0.439c-0.13,0.09-0.271,0.189-0.391,0.29c-0.119,0.101-0.109,0.11-0.17,0.16
						c-0.131,0.134-0.275,0.254-0.43,0.36c-0.191,0.099-0.358,0.238-0.49,0.41c-0.06,0.104-0.146,0.189-0.25,0.25
						c-0.245,0.134-0.471,0.303-0.67,0.5c0,0-0.069,0.069-0.1,0.069c-0.234,0-0.46,0.089-0.63,0.25
						c-0.301,0.22-0.63,0.101-0.931,0.16c-0.3,0.06-0.43-0.14-0.63-0.22c-0.111-0.059-0.219-0.125-0.319-0.201v-0.42
						c0.359,0,0.489-0.319,0.67-0.559c0,0,0-0.121,0.06-0.141c0.32-0.109,0.39-0.439,0.561-0.68c0.17-0.24,0.13-0.311,0.229-0.44
						c0.25-0.319,0.53-0.62,0.79-1c0.199-0.208,0.361-0.448,0.48-0.71c0.093-0.201,0.207-0.393,0.34-0.57
						c0.097-0.188,0.207-0.368,0.33-0.539c0.151-0.223,0.291-0.453,0.42-0.691c0-0.079,0.12-0.149,0.17-0.239
						c0.25-0.431,0.54-0.84,0.81-1.261c0.213-0.28,0.397-0.582,0.55-0.899c0.086-0.192,0.201-0.372,0.341-0.53
						c0.104-0.176,0.104-0.395,0-0.57c-0.063-0.155-0.204-0.266-0.37-0.289h-0.29L72,39.24c-0.168-0.01-0.324-0.09-0.431-0.22
						L71.5,39c0-0.219-0.181-0.299-0.23-0.479s-0.18-0.22-0.279-0.33c-0.101-0.11-0.25-0.22-0.25-0.409
						c0-0.191-0.211-0.281-0.33-0.33c0,0.35-0.271,0.629-0.2,1c0.015,0.072-0.008,0.146-0.061,0.199
						c-0.149,0.109-0.109,0.26-0.12,0.4c-0.01,0.14,0,0.35-0.13,0.49c-0.13,0.14,0,0.149,0,0.229s0,0.34,0,0.511
						c-0.039,0.301-0.148,0.588-0.319,0.84c-0.009,0.025-0.009,0.053,0,0.08c0,0.26-0.181,0.43-0.2,0.67c0,0,0,0.06-0.07,0.09
						c-0.11,0.092-0.125,0.256-0.033,0.365c0.01,0.013,0.021,0.023,0.033,0.034c0.08,0.078,0.104,0.197,0.061,0.3
						c-0.15,0.311-0.311,0.61-0.45,0.92c-0.141,0.311-0.15,0.381-0.23,0.57s-0.149,0.32-0.229,0.49l-0.4,0.07c0,0,0,0.06,0,0.08
						c0,0.02,0,0.33-0.17,0.459c-0.17,0.131-0.16,0.26-0.32,0.351c-0.153,0.067-0.249,0.222-0.239,0.39
						c0.013,0.094,0.013,0.188,0,0.28c-0.34,0-0.49,0.239-0.641,0.44c-0.196,0.244-0.407,0.479-0.63,0.699
						c-0.229,0.24-0.51,0.43-0.72,0.69c-0.21,0.26-0.41,0.37-0.49,0.659c-0.036,0.108-0.116,0.195-0.22,0.24
						c-0.25,0-0.36,0.25-0.521,0.391c-0.159,0.14-0.29,0.4-0.59,0.39c-0.05,0-0.1,0.101-0.16,0.14l-0.689,0.49
						c-0.043,0.027-0.091,0.045-0.141,0.051c-0.199,0-0.42,0-0.569,0.18c-0.3,0-0.521,0.279-0.83,0.24H61.07
						c-0.369,0.27-0.8,0.1-1.21,0.14c-0.071-0.017-0.139-0.048-0.199-0.09c-0.061,0-0.11-0.07-0.16-0.07
						c-0.174,0.004-0.34-0.065-0.46-0.19c-0.101-0.119-0.32-0.109-0.4-0.199c-0.097-0.096-0.224-0.156-0.36-0.17
						c0.004-0.023,0.004-0.047,0-0.07c-0.31-0.5-0.159-0.4,0.12-0.811c0.219-0.254,0.452-0.494,0.7-0.719l0,0
						c0.152-0.348,0.386-0.652,0.68-0.891l0,0c0.051-0.225,0.117-0.445,0.2-0.66c0.061-0.199,0.145-0.391,0.25-0.57
						c0-0.09,0.07-0.18,0.11-0.27c0.055-0.131,0.118-0.258,0.189-0.38c0.2-0.25,0.2-0.63,0.5-0.8
						c0.144-0.281,0.308-0.553,0.49-0.811c0.087-0.236,0.219-0.455,0.391-0.64c0-0.24,0.25-0.36,0.22-0.61
						c0-0.08,0.149-0.18,0.24-0.27c0.09-0.09,0.08-0.051,0.08-0.07c0-0.359,0.279-0.66,0.199-1s0.17-0.37,0.24-0.57
						c0.07-0.199,0.08-0.18,0.101-0.27c0.02-0.09,0-0.35,0.149-0.45c0,0,0-0.101,0-0.14c0-0.041,0-0.12,0-0.15
						c0.22-0.27,0.11-0.59,0.16-0.891c0-0.139,0-0.319,0.14-0.42c0.141-0.1,0-0.149,0-0.229c0-0.079,0-0.239,0.12-0.31
						s0-0.12,0-0.19c0-0.239,0-0.479,0-0.71c-0.016-0.129,0.028-0.258,0.12-0.35c0.061-0.07,0-0.23,0-0.35
						c-0.036-0.188,0.011-0.382,0.13-0.531c0,0,0-0.109,0-0.17c0-0.469,0-1,0-1.43c-0.023-0.129,0.014-0.262,0.101-0.359
						c0,0,0-0.15,0-0.221c0-0.6,0-1.189,0-1.789c0-0.131,0-0.281,0.119-0.361c0.12-0.08,0-0.129,0-0.189c0-0.57,0-1.141,0-1.699
						c0,0,0-0.07,0-0.091c0.123-0.251,0.179-0.53,0.16-0.81c0.23-0.17,0.13-0.42,0.16-0.64c0.03-0.22,0.12-0.33,0-0.51
						s0-0.1,0.061-0.16c0.036-0.069,0.063-0.144,0.08-0.22c-0.022-0.169,0.028-0.34,0.14-0.47c0,0,0-0.17,0-0.25
						c0-0.27,0-0.54,0-0.81c0-0.27,0-0.36,0.1-0.51c0.101-0.15,0-0.12,0-0.18c0-0.58,0-1.15,0-1.73
						c0.025-0.198-0.006-0.399-0.09-0.58c-0.046-0.153-0.046-0.317,0-0.47c0-0.2,0.09-0.4,0.13-0.61c0.011-0.09,0.011-0.181,0-0.27
						c0-0.09,0-0.2,0.101-0.25c0.1-0.05,0.05-0.06,0.06-0.1c0-0.23,0.12-0.45,0.15-0.68c0.029-0.23,0.17-0.27,0.3-0.38
						s0.1,0.09,0.149,0.09c0.298,0.048,0.581,0.161,0.83,0.33c0.066,0.016,0.135,0.016,0.2,0h0.47c0.061,0,0.16,0,0.171,0
						c0.119,0.21,0.31,0.13,0.479,0.14h0.84c0.315,0.011,0.628,0.061,0.931,0.15c0.274,0.049,0.555,0.049,0.829,0
						c0.146-0.025,0.287-0.068,0.421-0.13c0.069,0,0.13-0.08,0.189-0.11c0.027-0.023,0.058-0.044,0.09-0.06
						c0.4-0.07,0.79-0.15,1.19-0.21c0.132,0.004,0.261-0.042,0.359-0.13c0.16-0.112,0.347-0.181,0.54-0.2
						c0.145-0.032,0.292-0.049,0.44-0.05c0.116,0.001,0.211-0.092,0.212-0.208c0-0.011,0-0.021-0.002-0.032v-1c0,0,0-0.09,0-0.1
						c-0.19-0.08-0.14-0.25-0.14-0.39v-2.18c0-0.14,0.06-0.3-0.13-0.4c-0.19-0.1,0-0.14,0-0.22c0-0.53,0-1.06,0-1.59
						c0-0.11,0-0.22,0-0.33c-0.044-0.205,0.008-0.418,0.14-0.58l-0.13-0.17l0,0c0.31-0.29,0.06-0.65,0.13-1
						c0.016-0.045,0.016-0.095,0-0.14c-0.21-0.11-0.14-0.31-0.14-0.47c0-0.16,0-0.54,0-0.81c0.018-0.18-0.028-0.361-0.131-0.51
						c-0.005-0.026-0.005-0.054,0-0.08c0-0.31-0.17-0.56-0.229-0.85c-0.074-0.241-0.168-0.475-0.28-0.7
						c-0.08-0.2-0.17-0.39-0.26-0.58c-0.021-0.063-0.048-0.123-0.08-0.18c-0.095-0.146-0.095-0.334,0-0.48
						c0.19-0.446,0.524-0.816,0.95-1.05c0.036-0.01,0.074-0.01,0.109,0c0.5,0,1-0.28,1.461-0.21c0.119,0,0.239,0,0.359,0
						c0.417-0.003,0.828,0.093,1.2,0.28c0.279,0.117,0.551,0.254,0.81,0.41l0.62,0.38c0.34,0.22,0.681,0.44,1,0.68
						c0.432,0.311,0.846,0.645,1.24,1c0.276,0.277,0.527,0.578,0.75,0.9c0.061,0.087,0.102,0.186,0.12,0.29
						c0.09,0.458-0.023,0.932-0.311,1.3c-0.18,0.22-0.289,0.479-0.449,0.71c-0.109,0.18-0.158,0.39-0.141,0.6c0,0.93,0,1.86,0,2.79
						c-0.013,0.136-0.039,0.27-0.08,0.4l0,0c0.16,0.28-0.13,0.53-0.069,0.8c0,0,0,0.1,0,0.11c-0.221,0.12-0.12,0.33-0.15,0.5
						c-0.007,0.237-0.058,0.471-0.149,0.69c-0.041,0.218-0.041,0.442,0,0.66c0.159,0,0.289,0,0.42-0.08
						c0.074-0.049,0.16-0.077,0.25-0.08l1.279-0.06c0.131,0.021,0.264-0.011,0.37-0.09c0,0,0.13,0,0.19-0.06
						c0.068-0.026,0.135-0.056,0.2-0.09c0.059-0.037,0.122-0.064,0.189-0.08c0.157,0,0.307-0.062,0.42-0.17
						c0.212-0.179,0.456-0.315,0.72-0.4c0.099-0.063,0.192-0.134,0.28-0.21c0.199-0.135,0.461-0.135,0.66,0
						c0.108,0.043,0.224,0.066,0.34,0.07c0.101,0,0.21,0,0.24,0.12s0,0,0,0c0.18,0,0.27,0.13,0.4,0.2
						c0.13,0.07,0.47,0.21,0.689,0.33c0.168,0.135,0.375,0.212,0.59,0.22c0,0,0.08,0.08,0.13,0.11
						c0.331,0.182,0.626,0.423,0.87,0.71l0,0c0.32,0,0.431,0.33,0.66,0.48c0.23,0.15,0.19,0.34,0.36,0.47
						c0.185,0.141,0.346,0.31,0.479,0.5c0.19,0.28,0.53,0.42,0.65,0.76c0.018,0.044,0.055,0.078,0.1,0.09
						c0.173,0.054,0.321,0.167,0.42,0.32c0,0,0,0.05,0.061,0.05c0.26,0,0.39,0.22,0.56,0.38c0.137,0.154,0.291,0.292,0.46,0.41
						c0.15,0.1,0.221,0.33,0.37,0.43c0.15,0.1,0.19,0.32,0.33,0.46c0.14,0.14,0,0.27,0,0.41c0,0.14-0.09,0.46,0.13,0.66
						c0.05,0.087,0.05,0.193,0,0.28c-0.149,0.15-0.13,0.34-0.17,0.53c-0.15,0.025-0.29,0.095-0.399,0.2
						c-0.219,0.164-0.457,0.298-0.711,0.4c-0.289,0.16-0.63,0.21-0.899,0.39c-0.271,0.18-0.32,0.27-0.48,0.4
						c-0.035,0.033-0.075,0.061-0.12,0.08c-0.313,0.069-0.593,0.246-0.789,0.5c-0.021,0.004-0.041,0.004-0.061,0
						c-0.31,0.105-0.593,0.276-0.83,0.5c-0.044,0.026-0.091,0.046-0.14,0.06c-0.08,0-0.19,0-0.2,0.13s0,0,0,0
						c-0.38,0.07-0.53,0.45-0.81,0.65c-0.195,0.177-0.403,0.341-0.62,0.49c-0.335,0.155-0.64,0.369-0.9,0.63
						c-0.21,0-0.32,0.27-0.55,0.26c0,0-0.08,0-0.13,0.061l-0.26,0.109c-0.061,0-0.141,0-0.171,0c-0.189,0.221-0.439,0.15-0.67,0.17
						c-0.229,0.02-0.409-0.08-0.56,0.15c0,0-0.23,0-0.3,0c-0.115-0.078-0.253-0.113-0.391-0.1c-0.279,0-0.56,0-0.84,0
						c-0.065,0.003-0.13-0.019-0.18-0.061C81.37,29.89,81.25,30,81.12,30z M83.62,22.79c-0.156-0.085-0.345-0.085-0.5,0
						c-0.151,0.088-0.325,0.129-0.5,0.12c-0.271,0-0.58-0.11-0.801,0.16c0,0-0.069,0-0.109,0c-0.09,0.015-0.181,0.015-0.271,0
						C81.04,23,80.7,23.24,80.32,23.28c-0.031,0.007-0.06,0.024-0.079,0.05c-0.101,0.12-0.24,0.11-0.381,0.12
						c-0.14,0.01-0.22,0-0.33,0c-0.319,0-0.609,0.2-1,0.16c-0.068-0.006-0.137,0.016-0.189,0.06c-0.273,0.199-0.428,0.522-0.41,0.86
						c0,0.08,0,0.2,0,0.229c0,0.03-0.12,0.32-0.14,0.49c-0.021,0.17,0,0.1,0,0.11c-0.181,0.11-0.141,0.28-0.11,0.43
						c0.08,0.38-0.2,0.67-0.229,1c0,0,0,0-0.07,0.05c-0.032,0.037-0.054,0.082-0.061,0.13c0.036,0.219-0.025,0.442-0.17,0.61
						c0,0.4,0,0.81,0,1.22c0,0.12,0.13,0.23,0.21,0.38h2.16c0.117-0.023,0.237,0.015,0.32,0.101c0.123,0.104,0.266,0.182,0.42,0.229
						c0.035,0.018,0.075,0.018,0.11,0c0.239-0.25,0.54-0.479,0.529-0.889c0-0.05,0-0.11,0.08-0.17c0.11-0.15,0.197-0.315,0.261-0.49
						c0.06-0.22,0.26-0.4,0.21-0.66c-0.007-0.016-0.007-0.034,0-0.05c0.159-0.06,0.14-0.2,0.14-0.32
						c0.001-0.179,0.077-0.35,0.21-0.47c0.11-0.13,0.26-0.26,0.27-0.4c0.011-0.14,0.271-0.33,0.23-0.55c0.13-0.11,0.11-0.3,0.2-0.41
						c0.13-0.194,0.237-0.402,0.319-0.62c0.021-0.05,0.048-0.097,0.08-0.14c0-0.05,0.091-0.1,0.08-0.14c0-0.21,0.141-0.28,0.23-0.41
						s0.09,0,0.09-0.06c0.037-0.234,0.111-0.46,0.22-0.67c0.04-0.077,0.073-0.158,0.101-0.24V22.79z M72.16,25.73
						c-0.115,0.151-0.185,0.331-0.2,0.52c-0.043,0.224-0.066,0.452-0.07,0.68c0,0.25,0,0.5,0,0.75c0,0.06,0,0.17-0.05,0.19
						s-0.12,0.17-0.12,0.28c0.045,0.275-0.005,0.557-0.14,0.8c0,0,0,0.1,0,0.15c0.027,0.252-0.021,0.507-0.141,0.729
						c-0.09,0.121,0,0.351,0,0.53c0,0.181,0,0.29,0,0.351c0,0.06-0.09,0.379-0.12,0.58c-0.029,0.199,0,0.279-0.1,0.359
						c-0.074,0.064-0.111,0.162-0.1,0.26c0,0.207,0,0.417,0,0.631c0,0.319-0.261,0.569-0.2,0.899l0,0
						c-0.15,0.101-0.12,0.261-0.13,0.399c-0.011,0.141,0,0.25,0,0.291c-0.21,0.14-0.11,0.34-0.12,0.52
						c-0.022,0.119,0.057,0.234,0.176,0.256c0.015,0.004,0.029,0.004,0.044,0.004c0.306,0.002,0.608,0.049,0.9,0.141
						c0.219,0.088,0.433,0.188,0.64,0.3c0.12,0.05,0.2,0.21,0.311,0.22c0.215,0.038,0.41,0.151,0.55,0.32
						c0.229,0.29,0.6,0.42,0.819,0.72c0.1,0.056,0.221,0.056,0.32,0c0.07-0.069,0.13-0.13,0.21-0.12
						c0.092,0.016,0.18,0.045,0.26,0.09l0.181-0.109l1.279-2.29c-0.14,0-0.25-0.101-0.359,0c-0.039,0.044-0.093,0.071-0.15,0.079
						c-0.141,0.013-0.271,0.081-0.359,0.191c-0.075,0.103-0.186,0.174-0.311,0.199c-0.253-0.004-0.49,0.119-0.63,0.33
						c-0.19,0.24-0.21,0.221-0.5,0.07c0,0,0,0-0.08,0c-0.271-0.018-0.525-0.141-0.71-0.34c-0.06-0.07-0.14-0.131-0.2-0.19
						c-0.06-0.06-0.35-0.239-0.41-0.41c-0.078-0.168-0.19-0.317-0.33-0.44c-0.13-0.129-0.27-0.239-0.25-0.449
						c0,0-0.06-0.08-0.1-0.131c-0.04-0.049-0.07-0.069-0.07-0.109c-0.022-0.104-0.083-0.197-0.17-0.26
						c-0.077-0.076-0.135-0.168-0.17-0.27c0-0.111,0-0.181,0.11-0.261c0.021-0.055,0.021-0.115,0-0.17
						c-0.007-0.164,0.055-0.323,0.17-0.44c0.1-0.119,0.24-0.06,0.33-0.18c0.09-0.119,0-0.17,0.07-0.26c0.069-0.09,0.26,0,0.34-0.18
						c0.063-0.094,0.16-0.162,0.27-0.19c0.2,0,0.32-0.261,0.53-0.22c0.088-0.121,0.23-0.188,0.38-0.18c0,0,0,0,0.06-0.051
						c0.145-0.105,0.215-0.285,0.181-0.46c0-0.17,0-0.39-0.061-0.489c-0.105-0.141-0.159-0.315-0.149-0.491
						c0.016-0.056,0.016-0.114,0-0.17c-0.123-0.147-0.167-0.344-0.12-0.53c0-0.18-0.09-0.4,0.14-0.54c0,0,0-0.07,0-0.11
						c0-0.24,0-0.48,0-0.72c0-0.24-0.06-0.42,0.141-0.58c0.005-0.03,0.005-0.06,0-0.09c0-0.25,0-0.51,0-0.78
						c-0.221,0-0.41-0.07-0.551,0.13c-0.045,0.036-0.102,0.054-0.159,0.05c-0.312,0.027-0.606,0.146-0.851,0.34L72.16,25.73z"/>
					<path fill="#FFFFFF" d="M52.18,34.08l0.19-0.129v-0.07c-0.126-0.059-0.196-0.194-0.17-0.33c0-0.11,0-0.24-0.131-0.291
						C51.94,33.21,52,33.1,52,33c0-0.1,0.05-0.26-0.13-0.289c0,0-0.051,0,0-0.07c0-0.189-0.12-0.27-0.21-0.381
						c-0.091-0.109-0.2-0.159-0.17-0.329c0.029-0.171-0.061-0.06-0.091-0.101c-0.029-0.039-0.069,0-0.08-0.07
						c-0.05-0.183-0.154-0.347-0.3-0.469c-0.031-0.023-0.056-0.055-0.069-0.09c0-0.131,0-0.261-0.16-0.301c0,0,0-0.09,0-0.141
						c0.006-0.046,0.006-0.093,0-0.139c0-0.061-0.141-0.101-0.141-0.16c-0.015-0.23-0.015-0.461,0-0.69c0-0.101,0.2-0.09,0.17-0.239
						c-0.029-0.15,0-0.171,0.12-0.23c0.12-0.061,0.061-0.2,0.08-0.331h0.351c0.052,0.017,0.099,0.044,0.14,0.08
						c0.071,0.105,0.215,0.132,0.319,0.061c0.024-0.016,0.045-0.037,0.061-0.061c0.152-0.12,0.367-0.12,0.521,0
						c0,0,0.08,0.05,0.1,0.09c0.089,0.147,0.265,0.217,0.43,0.17c0.09,0,0.181,0,0.21,0.12c0.03,0.12,0,0.05,0.061,0.05
						c0.06,0,0.28,0,0.34,0.16c0,0,0.07,0,0.11,0c0.27-0.061,0.42,0.109,0.569,0.29c0,0,0,0.06,0.061,0.06
						c0.33,0,0.439,0.28,0.64,0.44c0.269,0.241,0.522,0.499,0.76,0.771c0.023,0.006,0.048,0.006,0.07,0c0.18,0,0.26,0.08,0.36,0.18
						c0.079,0.121,0.215,0.192,0.359,0.189c0.07,0,0.16,0.11,0.23,0.189c0.26,0.261,0.52,0.521,0.77,0.791c0,0,0,0.06,0.061,0.06
						c0.34,0,0.45,0.28,0.649,0.44c0.2,0.16,0.54,0.55,0.82,0.81c0.062,0.044,0.099,0.114,0.1,0.19c-0.02,0.229-0.02,0.46,0,0.689
						c0.016,0.221-0.087,0.434-0.27,0.561c-0.15,0.14-0.3,0.3-0.45,0.449c-0.149,0.15,0,0.051,0,0.051s-0.24,0-0.3,0.08
						c-0.061,0.08-0.11,0.16-0.22,0.15c-0.11-0.011-0.17,0-0.181,0.109l0,0c-0.1,0-0.239,0-0.3,0.09c-0.06,0.09-0.1,0.15-0.22,0.141
						c-0.12-0.011-0.16,0-0.18,0.109c-0.021,0.109,0,0,0,0s-0.24,0-0.301,0.08c-0.06,0.08-0.1,0.16-0.22,0.15s-0.16,0-0.18,0.109
						c-0.021,0.11,0,0.061-0.061,0.061c-0.33,0-0.399,0.31-0.63,0.42c-0.075,0.035-0.135,0.095-0.17,0.17
						c-0.06,0.15-0.25,0.199-0.22,0.41c0.03,0.209-0.141,0.189-0.23,0.27s-0.17,0.141-0.25,0.21c-0.08,0.07,0,0.091,0,0.14
						c0,0.051,0,0.19-0.109,0.211c-0.11,0.02-0.07,0.07-0.061,0.09c0.061,0.209-0.13,0.289-0.22,0.4
						c-0.09,0.109-0.16,0.129-0.14,0.26c0.02,0.129,0,0.109-0.101,0.16c-0.146,0.113-0.279,0.24-0.399,0.379c0,0,0,0,0,0.08
						s0,0.24-0.141,0.28c0,0,0,0.091,0,0.14c0,0.051,0,0.181-0.12,0.201c-0.029,0.024-0.048,0.061-0.05,0.1
						c0,0.109,0,0.24-0.14,0.279c-0.141,0.041,0,0.09,0,0.141c0,0.05,0,0.18-0.12,0.21s0,0,0,0.09s0,0.25-0.15,0.28
						c0,0,0,0.09,0,0.14V43c0,0.08,0,0.15,0.11,0.19s0.1,0.101,0.16,0.17l0.46-0.44l0.83-0.85c0.06-0.061,0.149-0.109,0.189-0.189
						s0.16-0.16,0.3-0.18c0.141-0.021,0.141-0.101,0.2-0.17C55.5,41.27,55.77,41,56.03,40.73c0.261-0.27,0.511-0.55,0.78-0.82
						c0.271-0.27,0.55-0.539,0.82-0.81c0,0,0.07-0.101,0.09-0.101c0.18,0,0.271-0.08,0.36-0.189s0.09-0.07,0.08-0.1
						c0-0.23,0.159-0.311,0.27-0.43c0.11-0.121,0.32-0.271,0.28-0.531h0.33c0.02,0.381,0.02,0.761,0,1.141
						c0,0.1-0.17,0.18-0.25,0.279c-0.08,0.101-0.311,0.201-0.271,0.431l0,0c-0.229,0.101-0.12,0.3-0.17,0.46
						c-0.036,0.125-0.118,0.232-0.229,0.3c-0.088,0.028-0.137,0.122-0.11,0.21c0.041,0.201-0.052,0.407-0.23,0.51
						c-0.083,0.046-0.134,0.135-0.13,0.23c0,0.061-0.069,0.1-0.1,0.16c-0.033,0.041-0.057,0.089-0.07,0.14c0,0.101,0,0.2-0.13,0.229
						c-0.13,0.031,0,0.091-0.05,0.131c-0.05,0.039,0,0.21-0.13,0.23c-0.13,0.02,0,0.09,0,0.129c0,0.041,0,0.201-0.13,0.23
						s0,0.109,0,0.16c0,0.05,0,0.13,0,0.14c-0.21,0.08-0.16,0.261-0.141,0.399c0.021,0.141-0.149,0.261-0.239,0.33
						c-0.079,0.068-0.124,0.167-0.12,0.271c0,0.13,0,0.28-0.141,0.351c0,0,0,0.109,0,0.16c-0.023,0.057-0.054,0.109-0.09,0.16
						c0,0-0.069,0.069-0.08,0.109c-0.01,0.04,0,0.24-0.149,0.29c-0.15,0.05,0,0.09,0,0.13s0,0.13,0,0.141
						c-0.29,0.159-0.12,0.43-0.141,0.639c-0.02,0.211,0.101,0.15,0.16,0.24c-0.22,0.09-0.17,0.301-0.16,0.48
						c0.011,0.18,0,0.109,0,0.12c0.221,0.101,0.141,0.3,0.16,0.47c0.021,0.17,0,0.24,0.13,0.29s0,0.101,0,0.16s0,0.239,0,0.36
						c0,0.119,0,0.129,0,0.14c0.2,0.069,0.141,0.229,0.15,0.37c0.01,0.14,0,0.17,0.12,0.21s0.05,0.14,0.06,0.21s0,0.279,0.15,0.34
						c0,0,0,0.09,0,0.141c0,0.049,0,0.18,0.12,0.199l0,0c0,0.221,0.22,0.34,0.22,0.561c-0.01,0.18-0.01,0.359,0,0.539
						c0,0.121,0.07,0.23,0.09,0.34c0,0.311,0,0.611,0.08,0.921v0.079c-0.21,0-0.12,0.221-0.17,0.361h-0.18c0,0-0.13,0-0.141,0.069
						c-0.01,0.069-0.109,0.101-0.189,0.11s-0.13,0-0.141,0c-0.08,0.23-0.27,0.15-0.43,0.16c-0.13,0.01-0.26,0.01-0.39,0
						c-0.11,0-0.24,0.049-0.32-0.121s-0.25-0.059-0.34,0l-0.101,0.111c-0.06-0.16-0.149-0.25-0.31-0.201
						c-0.045,0.014-0.086,0.037-0.12,0.07c-0.149,0.15-0.21,0.15-0.36,0c-0.051-0.041-0.113-0.066-0.18-0.07h-0.54
						c-0.08,0-0.149,0-0.189-0.1s-0.11-0.07-0.17-0.08c-0.061-0.01-0.15,0-0.19-0.1c-0.044-0.047-0.105-0.072-0.17-0.07h-0.35
						c0.06-0.38-0.28-0.48-0.431-0.699c-0.149-0.221-0.21-0.121-0.25-0.211c-0.05-0.123-0.18-0.193-0.31-0.17c0,0-0.07,0-0.11-0.08
						s-0.07-0.09-0.1-0.08c-0.21,0.061-0.311-0.119-0.391-0.22s-0.18-0.11-0.29-0.149C50.25,50.5,50.08,50.36,50.08,50.27
						s-0.19-0.29-0.29-0.431c-0.101-0.139-0.061,0-0.09-0.069c-0.14-0.114-0.211-0.292-0.19-0.47c0,0,0-0.131,0-0.141
						c-0.22-0.08-0.15-0.27-0.15-0.43s0-0.529,0-0.8c0-0.07,0-0.181,0-0.2c0.23-0.109,0.12-0.311,0.12-0.471
						c0-0.159-0.1-0.109-0.18-0.189c0.24-0.1,0.19-0.311,0.19-0.49s0-0.379,0-0.57c0-0.189,0.05-0.27-0.141-0.319
						c0,0,0-0.101,0-0.159c0-0.061,0-0.281,0-0.421s0-0.26-0.14-0.319c0,0,0-0.141,0-0.221s0-0.26-0.141-0.311
						c-0.14-0.049,0-0.109,0-0.159s0-0.28,0-0.42s0-0.261-0.14-0.32c0,0,0-0.271,0-0.29s0.12-0.22,0.13-0.35
						c-0.005-0.08-0.005-0.16,0-0.24c0.019-0.063,0.049-0.12,0.09-0.17c0.03-0.041,0.058-0.084,0.08-0.13c0-0.11,0-0.22,0.141-0.261
						c0.14-0.039,0-0.09,0-0.129c0-0.041,0-0.181,0.109-0.211c0.11-0.029,0.07-0.07,0.061-0.09c0-0.17,0.09-0.23,0.17-0.34
						s0.109-0.119,0.189-0.1c0.25,0.05,0.391-0.12,0.54-0.28c0.143-0.103,0.213-0.278,0.181-0.45c0-0.14,0.09-0.16,0.159-0.24
						C50.85,40,51,39.75,51.24,39.77c0.06,0,0.26-0.271,0.27-0.34c0.01-0.07-0.07-0.341,0.15-0.431c0,0,0-0.069,0-0.109
						s0-0.131,0-0.141c0.22-0.1,0.14-0.289,0.159-0.459c0.02-0.051,0.046-0.099,0.08-0.141c0,0,0.08-0.08,0.091-0.13
						c0.01-0.05,0-0.22,0.14-0.261c0.14-0.039,0-0.079,0-0.129c0-0.051,0-0.24,0-0.36s0-0.13,0-0.14
						c0.25-0.121,0.14-0.34,0.16-0.521c0.02-0.18,0-0.25,0.14-0.29c0.14-0.039,0-0.09,0-0.13s0-0.239,0-0.36c0-0.119,0-0.14,0-0.149
						c0.25-0.12,0.13-0.341,0.15-0.521c0.02-0.18,0-0.22,0.12-0.27c0.03-0.02,0.049-0.054,0.05-0.09c0.02-0.23,0.02-0.461,0-0.69
						C52.37,34.23,52.27,34.18,52.18,34.08z"/>
					<path fill="#FFFFFF" d="M58.36,25.89c-0.072-0.166-0.254-0.255-0.43-0.21c-0.11,0-0.22,0-0.26-0.13
						c-0.04-0.13-0.11-0.06-0.16,0c-0.24,0.06-0.38-0.1-0.52-0.23c-0.141-0.13-0.221-0.18-0.391,0c-0.096,0.089-0.244,0.089-0.34,0
						c-0.13-0.15-0.23-0.31-0.47-0.31c-0.09,0-0.17-0.15-0.261-0.229c-0.04-0.046-0.092-0.08-0.149-0.1c-0.101,0-0.21,0-0.23-0.13
						c-0.02-0.13,0,0-0.069-0.05c-0.183-0.046-0.347-0.147-0.471-0.29c-0.048-0.045-0.114-0.067-0.18-0.06
						c-0.297,0.059-0.6-0.073-0.76-0.33c-0.074-0.149-0.234-0.237-0.4-0.22c-0.069,0-0.17-0.12-0.25-0.2s-0.2-0.2-0.2-0.53
						c0-0.11,0-0.22,0-0.32c0-0.1,0-0.12,0-0.14c0.29-0.18,0.08-0.45,0.131-0.68c0.006-0.016,0.006-0.034,0-0.05
						c-0.21-0.07-0.141-0.25-0.15-0.39c0-0.34,0-0.68,0-1c0-0.07,0-0.18,0-0.2c-0.2-0.07-0.16-0.23-0.15-0.37
						c0.011-0.14-0.189-0.24-0.25-0.38c-0.06-0.14-0.1-0.07-0.109-0.11c-0.011-0.04,0-0.24-0.15-0.28c-0.149-0.04,0-0.11,0-0.17
						c-0.023-0.057-0.054-0.11-0.09-0.16c0-0.05-0.08-0.09-0.09-0.13s0-0.23-0.15-0.25c0,0,0-0.05,0-0.08
						c0-0.23-0.18-0.29-0.27-0.43s-0.09-0.08-0.09-0.12c-0.011-0.196-0.011-0.393,0-0.59c0.319,0,0.449-0.18,0.609-0.38l0.17,0.21
						c0.11-0.11,0.2-0.19,0.29-0.29s0.271-0.15,0.33,0c0.061,0.15,0.15,0.11,0.25,0.11h1c0.11,0,0.21,0,0.28,0.12s0.149,0,0.24,0.05
						c0.09,0.05,0.239,0,0.3,0.12c0.06,0.12,0.1,0.06,0.149,0.06h0.48c0.11,0,0.19,0,0.27,0.12C55.9,17.26,56.1,17.2,56.25,17
						c0.077,0.149,0.246,0.227,0.41,0.19c0.1,0,0.21,0,0.229,0.12c0.021,0.12,0.05,0.05,0.07,0c0.189,0,0.28,0.11,0.38,0.2
						c0.1,0.09,0.18,0.18,0.34,0.18s0.16,0.11,0.23,0.18l1,1L59,19c0,0,0.09,0.09,0.09,0.14c0,0.05,0,0.21,0.15,0.25
						c0.149,0.04,0,0.09,0,0.13s0,0.18,0.109,0.21c0.11,0.03,0.061,0.08,0.07,0.12s0,0.21,0.14,0.26c0.141,0.05,0,0.11,0,0.16
						c0,0.25,0.12,0.38,0.271,0.52c0.149,0.14,0.1,0.07,0.09,0.1c0,0.22,0.149,0.31,0.25,0.41c0.078,0.055,0.123,0.145,0.12,0.24
						c0,0.11,0,0.22,0,0.33c0,0.11,0,0.13,0,0.14c0.29,0.16,0.09,0.43,0.149,0.64c0.008,0.026,0.008,0.054,0,0.08
						c-0.189,0.24-0.189,0.28,0.061,0.48c-0.24,0.09-0.181,0.29-0.19,0.46c0.025,0.146,0.025,0.294,0,0.44
						c-0.05,0.12-0.22,0.18-0.29,0.29c-0.069,0.11-0.279,0.21-0.24,0.43c0,0.05-0.1,0.12-0.159,0.17
						c-0.061,0.05-0.2,0.32-0.431,0.28l0,0c-0.09,0.229-0.29,0.15-0.449,0.18c-0.16,0.03-0.23,0.17-0.33,0.28
						C58.382,25.786,58.365,25.837,58.36,25.89z"/>
				</g>
			</g>
			<g>
				<g>
					<path fill="#FFFFFF" d="M129.27,6.53c0-0.16,0-0.25,0.08-0.28l2.62,0.08h1.48c0.31,0,0.6,0,0.88,0c0,0,0.06,0.12,0.06,0.28
						c0,0.16,0,0.25-0.06,0.27c-0.48,0.11-0.811,0.18-1,0.24c-0.19,0.06-0.37,0.34-0.301,0.76c0.07,0.42,0.23,0.94,0.421,1.61
						l1.149,4.28l0.57,2c0,0,0,0,0.08,0c0.24-0.64,0.49-1.33,0.75-2.08l0.859-2.45c0.311-0.92,0.58-1.72,0.801-2.4
						c0.22-0.68,0.439-1.4,0.569-1.84c0.332,0.046,0.669,0.046,1,0c0.11,0.42,0.3,1,0.59,1.9l0.881,2.61
						c0.666,1.9,1.196,3.374,1.59,4.42c0.59,1.57,0.06,0,0.1,0c0.34-1,0.73-2.28,1.16-3.75c0.24-0.8,0.44-1.5,0.61-2.12
						s0.33-1.23,0.409-1.61c0.171-0.73,0-1.16-0.409-1.27c-0.41-0.11-0.7-0.15-1.16-0.22c-0.05,0-0.07-0.14-0.061-0.29
						c0.011-0.15,0-0.23,0.061-0.26l2.279,0.06c0.511,0,1,0,1.45,0h0.8c0,0,0.061,0.12,0.061,0.28s0,0.25-0.061,0.27
						c-0.292,0.049-0.579,0.123-0.859,0.22c-0.484,0.25-0.846,0.687-1,1.21c-0.2,0.55-0.45,1.3-0.771,2.24
						c-0.319,0.94-0.6,1.79-0.939,2.87c-0.667,2.04-1.197,3.756-1.59,5.15h-1c-0.101-0.39-0.29-1-0.57-1.82l-0.8-2.75
						c-0.69-2-1.24-3.56-1.65-4.63c-0.025-0.009-0.054-0.009-0.08,0c-0.26,0.72-0.51,1.44-0.76,2.16c-0.33,0.89-0.62,1.72-0.88,2.49
						s-0.61,1.72-0.851,2.41c-0.239,0.69-0.479,1.43-0.63,1.9c-0.332-0.042-0.668-0.042-1,0c-0.31-1.3-0.77-3.07-1.39-5.29
						c-0.29-1.08-0.55-2-0.78-2.87l-0.63-2.06c-0.25-0.73-0.58-1.16-1-1.27c-0.328-0.096-0.662-0.169-1-0.22
						C129.304,6.692,129.276,6.612,129.27,6.53z"/>
					<path fill="#FFFFFF" d="M148,17.48c0.392-0.401,0.686-0.887,0.859-1.42c0.23-0.56,0.53-1.29,0.881-2.18l1-2.55
						c0.666-1.793,1.146-3.093,1.439-3.9c0.146-0.362,0.256-0.737,0.33-1.12h0.9h0.39l0.14,0.47c0.047,0.187,0.106,0.371,0.181,0.55
						l1.51,4.3l1,2.74c0.34,0.91,0.59,1.55,0.75,1.93c0.152,0.454,0.405,0.868,0.74,1.21c0.423,0.227,0.891,0.356,1.37,0.38
						c0,0,0.06,0.11,0,0.27c-0.006,0.104-0.033,0.207-0.08,0.3h-0.471h-0.58c-0.51,0-1,0-1.34,0s-0.93,0-1.49,0h-1.079
						c-0.043-0.094-0.063-0.197-0.061-0.3c0-0.14,0-0.23,0-0.27c0.366-0.042,0.728-0.116,1.08-0.22
						c0.189-0.06,0.295-0.262,0.234-0.452c-0.004-0.013-0.009-0.026-0.015-0.038c-0.12-0.4-0.3-1-0.55-1.67
						c-0.25-0.67-0.45-1.229-0.63-1.7c-0.016-0.086-0.093-0.146-0.18-0.14h-3.471c-0.046,0.003-0.09,0.024-0.119,0.06
						c-0.034,0.035-0.061,0.076-0.08,0.12l-0.66,1.8c-0.176,0.443-0.31,0.902-0.4,1.37c0,0.36,0.19,0.59,0.63,0.71
						c0.31,0.076,0.623,0.13,0.94,0.16c0.03,0.087,0.03,0.183,0,0.27c0.003,0.103-0.018,0.206-0.061,0.3l-1.699-0.06H148.6
						c-0.43,0-0.87,0-1.33,0h-0.24H146.5c-0.053-0.09-0.074-0.196-0.061-0.3c-0.012-0.094,0.01-0.19,0.061-0.27
						C147.021,17.833,147.534,17.713,148,17.48z M152.67,8.35h-0.061c-0.069,0.21-0.17,0.52-0.319,0.92l-1.15,3.32
						c0,0.08,0,0.12,0.07,0.14c0.069,0.02,0.29,0,0.59,0h1.75h0.55c0,0,0,0,0.061-0.06c0.01-0.033,0.01-0.067,0-0.1
						c-0.551-1.69-1-3.1-1.45-4.24L152.67,8.35z"/>
					<path fill="#FFFFFF" d="M159.25,6.55c0-0.16,0-0.25,0.08-0.28l1.72,0.06h0.729c0.48,0,0.78,0,0.881,0l0.08,0.16
						c0.032,0.067,0.072,0.131,0.119,0.19c0.154,0.248,0.325,0.485,0.511,0.71l1.8,2.24l2.08,2.55l3.08,3.73
						c0.024,0.014,0.055,0.014,0.08,0v-4.4c0-0.78,0-1.44,0-2c0-0.56,0-1.11-0.061-1.43c0.016-0.465-0.291-0.879-0.74-1
						c-0.431-0.124-0.873-0.205-1.319-0.24c-0.051-0.08-0.072-0.176-0.061-0.27c0.005-0.096,0.025-0.19,0.061-0.28l1.77,0.06
						L173,6.27c0,0,0.06,0.12,0.06,0.28c0.012,0.094-0.009,0.19-0.06,0.27c-0.292,0.045-0.579,0.112-0.86,0.2
						c-0.431,0.169-0.702,0.598-0.67,1.06c0,0.35,0,0.79-0.06,1.31l-0.061,2.75v2.33c0,0.47,0,0.92,0,1.34c0,0.93,0,1.82,0,2.69
						c-0.449-0.04-0.9-0.04-1.35,0c-0.24-0.34-0.73-0.99-1.471-1.95l-2.279-2.92l-3.86-4.85l0,0l0,0c0,1.08,0,2.47,0,4.2v2.12
						c0,0.67,0,1.13,0,1.39c0,0.67,0.311,1.06,0.8,1.18l0.511,0.12l0.67,0.08c0,0,0,0.13,0,0.27c0.005,0.106-0.023,0.21-0.08,0.3
						l-1.67-0.06H161l-1.53,0.06c-0.021-0.099-0.021-0.201,0-0.3c-0.022-0.089-0.022-0.182,0-0.27c0.337-0.037,0.671-0.097,1-0.18
						c0.489-0.165,0.801-0.646,0.75-1.16c0-0.49,0.07-1.49,0.1-3c0.03-1.51,0.051-3.18,0.08-5.34c0.005-0.077,0.005-0.153,0-0.23
						c-0.019-0.095-0.045-0.189-0.08-0.28c-0.092-0.192-0.242-0.35-0.43-0.45c-0.485-0.257-1.021-0.404-1.57-0.43
						C159.32,6.8,159.25,6.7,159.25,6.55z"/>
					<path fill="#FFFFFF" d="M178.22,13.26c-0.043-0.076-0.076-0.156-0.1-0.24c-0.01-0.07,0.021-0.14,0.08-0.18
						c0.254,0.046,0.512,0.066,0.77,0.06c0.474,0.013,0.942-0.086,1.37-0.29c0.851-0.544,1.317-1.526,1.2-2.53
						c0.045-0.812-0.216-1.611-0.73-2.24c-0.646-0.613-1.523-0.919-2.41-0.84H178.2H178c-0.138-0.001-0.273,0.026-0.4,0.08
						c-0.095,0.057-0.151,0.16-0.149,0.27v1.3c0,0.79,0,1.91,0,3.35v2.83c0,0.85,0,1.48,0,1.9s0.29,0.9,0.72,1
						c0.174,0.046,0.351,0.08,0.53,0.1l0.47,0.06h0.18c0,0,0,0.13,0,0.29c0.006,0.097-0.015,0.194-0.06,0.28l-2-0.06H175.9
						l-1.85,0.06c-0.052-0.083-0.073-0.183-0.06-0.28c-0.023-0.089-0.023-0.182,0-0.27l0.59-0.08
						c0.151-0.016,0.302-0.042,0.449-0.08c0.381-0.1,0.58-0.48,0.61-1.14c0.03-0.66,0.061-2.13,0.061-4.39V9.49
						c0-0.73,0-1.22,0-1.47c0-0.6-0.271-0.95-0.71-1c-0.331-0.071-0.665-0.125-1-0.16c0,0-0.051-0.14,0-0.29
						c0.003-0.092,0.03-0.182,0.079-0.26l2.32,0.06h3.18c0.428,0.001,0.854,0.048,1.271,0.14c0.484,0.099,0.939,0.308,1.33,0.61
						c0.354,0.267,0.644,0.608,0.85,1c0.255,0.505,0.382,1.064,0.37,1.63c0.02,0.78-0.208,1.547-0.649,2.19
						c-0.362,0.524-0.855,0.945-1.431,1.22c-0.637,0.327-1.344,0.495-2.06,0.49c-0.284,0.013-0.567-0.021-0.84-0.1
						C178.322,13.472,178.256,13.372,178.22,13.26z"/>
					<path fill="#FFFFFF" d="M186.87,17c-1.141-1.294-1.741-2.976-1.681-4.7c-0.02-1.361,0.405-2.692,1.21-3.79
						c1.208-1.671,3.181-2.616,5.24-2.51c1.706-0.087,3.361,0.596,4.51,1.86c1.026,1.177,1.566,2.7,1.511,4.26
						c0.05,1.452-0.367,2.882-1.19,4.08c-1.169,1.681-3.114,2.649-5.16,2.57C189.643,18.852,188.023,18.206,186.87,17z
						 M194.15,17.24c0.596-0.501,1.039-1.16,1.28-1.9c0.264-0.81,0.389-1.658,0.37-2.51c0.017-1.026-0.17-2.046-0.55-3
						c-0.338-0.896-0.933-1.672-1.71-2.23c-0.737-0.54-1.626-0.834-2.54-0.84c-0.614-0.008-1.22,0.14-1.76,0.43
						c-0.722,0.432-1.28,1.089-1.591,1.87c-0.353,0.873-0.526,1.808-0.51,2.75c-0.009,1.051,0.198,2.093,0.61,3.06
						c0.373,0.956,1.029,1.776,1.88,2.35c0.736,0.452,1.586,0.685,2.45,0.67c0.751,0.029,1.486-0.216,2.069-0.69V17.24z"/>
					<path fill="#FFFFFF" d="M138.86,36.701c0,0.159,0,0.25-0.1,0.26l-2-0.061h-1.88l-2,0.061c-0.049-0.089-0.07-0.189-0.061-0.291
						c-0.003-0.096,0.019-0.192,0.061-0.279c0.468-0.032,0.933-0.1,1.39-0.2c0.48-0.087,0.73-0.557,0.75-1.409V33.19
						c0-0.63,0-1.38,0-2.25s0-1.649,0-2.57V25.8c0-0.11,0-0.16-0.13-0.16c-0.53,0-1.37,0-2.53,0c-0.354,0.022-0.67,0.232-0.83,0.55
						c-0.141,0.245-0.264,0.499-0.369,0.76L130.84,28c0,0-0.15,0-0.32,0s-0.279-0.08-0.29-0.13c0.203-1.07,0.333-2.152,0.391-3.24
						c0,0,0,0,0.1-0.06c0.038-0.018,0.082-0.018,0.12,0c0.5,0.218,1.045,0.318,1.59,0.29h7.26c0.646,0.035,1.294-0.064,1.9-0.29
						c0.1,0,0.17,0,0.2,0.1c-0.133,0.495-0.22,1-0.261,1.51l-0.199,1.8c0,0.06-0.13,0.08-0.311,0.08c-0.18,0-0.29,0-0.31-0.06
						c-0.019-0.593-0.126-1.18-0.32-1.74c-0.098-0.338-0.408-0.57-0.76-0.57c-1.23,0-2.15,0-2.75,0
						c-0.065,0.019-0.107,0.083-0.101,0.15v7.85c0,0.75,0,1.24,0,1.47c0,0.59,0.28,0.94,0.671,1
						c0.437,0.109,0.881,0.183,1.329,0.221C138.833,36.478,138.861,36.588,138.86,36.701z"/>
					<path fill="#FFFFFF" d="M143,25c0.001-0.096,0.028-0.189,0.08-0.27h1.8c0.29,0,0.56,0,0.81,0h3.86c0.44,0,0.84,0,1.22,0
						s0.78,0,1,0c0.221,0,0.08,0.08,0.08,0.09c-0.097,0.422-0.167,0.85-0.21,1.28c-0.06,0.47-0.1,0.94-0.14,1.41
						c0,0.05-0.15,0.08-0.32,0.08s-0.26,0-0.29,0c0-0.26-0.06-0.5-0.1-0.71l-0.12-0.49c-0.121-0.449-0.535-0.756-1-0.74h-2.47h-0.53
						c-0.061,0-0.12,0.06-0.18,0.16c-0.031,0.066-0.049,0.137-0.051,0.21c0,0.47,0,1.19,0,2.16v2c0,0.09,0,0.14,0.09,0.14
						c0.461,0,0.971,0,1.53,0c0.66,0,1.15,0,1.48,0c0.326-0.029,0.595-0.269,0.66-0.59c0.097-0.253,0.17-0.514,0.22-0.78
						c0.108-0.021,0.221-0.021,0.33,0c0.113-0.009,0.228,0.022,0.319,0.09c-0.047,0.268-0.08,0.539-0.1,0.81c0,0.38,0,0.72,0,1
						s0,0.649,0,1s0,0.5,0,0.8c0,0.061-0.17,0.08-0.34,0.08s-0.28,0-0.33-0.061c-0.022-0.271-0.076-0.539-0.16-0.799
						c-0.063-0.319-0.335-0.555-0.66-0.57c-0.279,0-0.75-0.051-1.42-0.061h-1.53l-0.06,0.061c-0.008,0.033-0.008,0.066,0,0.1v1.939
						v2c-0.039,0.327,0.151,0.637,0.46,0.75c0.428,0.062,0.858,0.095,1.29,0.101h1.61c0.558,0.021,1.094-0.22,1.449-0.649
						c0.417-0.525,0.754-1.107,1-1.73c0.104-0.002,0.206,0.019,0.301,0.061c0.104,0.025,0.197,0.08,0.27,0.16
						c-0.142,0.931-0.418,1.837-0.82,2.689c-0.026,0.048-0.06,0.092-0.1,0.13c-0.056,0.041-0.115,0.075-0.18,0.101
						c-0.309,0.064-0.625,0.092-0.94,0.08l-3.67-0.061h-1.43h-0.92l-2.181,0.061c0,0-0.06-0.121-0.06-0.271
						c-0.033-0.097-0.033-0.202,0-0.299l0.84-0.08c0.219-0.029,0.436-0.069,0.65-0.121c0.39-0.1,0.62-0.449,0.67-1.059
						c0-0.17,0-0.73,0-1.681v-5.61c0-0.78,0-1.25,0-1.41c0-0.57-0.22-0.91-0.59-1c-0.33-0.084-0.664-0.151-1-0.2
						C143,25.27,143,25.17,143,25z"/>
					<path fill="#FFFFFF" d="M154.3,36c0.391-0.399,0.688-0.881,0.87-1.41c0.229-0.569,0.53-1.289,0.88-2.18l1-2.55
						c0.68-1.79,1.16-3.1,1.43-3.91c0.153-0.36,0.268-0.736,0.34-1.12h0.9h0.39l0.141,0.48c0.048,0.184,0.107,0.364,0.18,0.54
						l1.51,4.3l1,2.75c0.34,0.9,0.59,1.54,0.74,1.92c0.159,0.456,0.415,0.872,0.75,1.221c0.426,0.217,0.893,0.343,1.37,0.369
						c0,0,0.05,0.121,0,0.28c-0.012,0.101-0.039,0.198-0.08,0.29h-0.47h-0.59h-1.33h-1.49h-1.08c-0.042-0.091-0.063-0.189-0.06-0.29
						c0-0.149,0-0.239,0-0.28c0.365-0.044,0.726-0.117,1.079-0.22c0.186-0.058,0.288-0.253,0.231-0.438
						c-0.006-0.018-0.013-0.035-0.021-0.051c-0.109-0.4-0.3-1-0.55-1.66S161,32.8,160.82,32.33c-0.019-0.083-0.094-0.142-0.18-0.14
						h-3.47c-0.047,0.003-0.09,0.024-0.12,0.06c-0.037,0.033-0.064,0.074-0.08,0.121l-0.67,1.799
						c-0.18,0.445-0.311,0.908-0.39,1.381c0,0.35,0.18,0.59,0.63,0.699c0.309,0.078,0.623,0.131,0.939,0.16c0,0,0,0.131,0,0.28
						c0.003,0.101-0.018,0.199-0.06,0.29l-1.7-0.061H155h-1.33h-0.24h-0.53c-0.051-0.087-0.072-0.189-0.06-0.289
						c-0.014-0.098,0.008-0.197,0.06-0.28C153.387,36.341,153.865,36.222,154.3,36z M159,26.85h-0.061
						c-0.06,0.21-0.17,0.52-0.31,0.93l-1.16,3.309c0,0.08,0,0.131,0.08,0.141s0.29,0,0.59,0h1.75h0.55c0,0,0,0,0.051-0.061
						c0.02-0.029,0.02-0.069,0-0.1c-0.551-1.68-1-3.1-1.45-4.24L159,26.85z"/>
					<path fill="#FFFFFF" d="M171.9,36c0.566,0.381,1.24,0.566,1.92,0.531c0.521,0.013,1.028-0.153,1.44-0.471
						c0.448-0.403,0.691-0.988,0.66-1.59c0.01-0.585-0.213-1.15-0.62-1.57c-0.611-0.535-1.282-0.998-2-1.38
						c-0.761-0.397-1.455-0.911-2.06-1.521c-0.531-0.588-0.82-1.356-0.811-2.149c-0.033-0.955,0.39-1.869,1.14-2.46
						c0.781-0.598,1.748-0.903,2.73-0.86c0.563,0.004,1.124,0.051,1.68,0.14l0.67,0.12c0.209,0.034,0.419,0.057,0.63,0.07
						c-0.069,0.3-0.13,0.72-0.199,1.24c-0.07,0.52-0.101,0.94-0.141,1.47c0,0.05-0.109,0.09-0.27,0.1c-0.16,0.01-0.271,0-0.29-0.08
						c-0.11-1.08-0.36-1.76-0.771-2c-0.475-0.298-1.03-0.441-1.59-0.41c-0.582-0.028-1.146,0.211-1.529,0.65
						c-0.34,0.368-0.529,0.85-0.53,1.35c-0.013,0.461,0.109,0.916,0.35,1.31c0.271,0.371,0.61,0.687,1,0.929
						c0.3,0.19,0.71,0.44,1.25,0.721l0.311,0.18l0.159,0.08c0.059,0.017,0.112,0.043,0.16,0.08l0.551,0.311
						c0.506,0.309,0.955,0.7,1.329,1.16c0.367,0.504,0.561,1.115,0.551,1.739c0.017,0.972-0.401,1.899-1.141,2.53
						c-0.889,0.765-2.038,1.158-3.21,1.1c-0.563-0.002-1.124-0.072-1.67-0.21c-0.398-0.09-0.787-0.221-1.16-0.39
						c-0.067-0.154-0.121-0.316-0.16-0.48c-0.053-0.22-0.103-0.5-0.149-0.84c-0.12-0.68-0.2-1.22-0.24-1.63
						c0-0.05,0.11-0.101,0.28-0.149c0.107-0.034,0.223-0.034,0.33,0C170.697,34.544,171.188,35.379,171.9,36z"/>
					<path fill="#FFFFFF" d="M179.1,25.32c0,0,0-0.13,0-0.27c0-0.14,0-0.24,0.061-0.27h1.75h1.63h1.59
						c0.017,0.096,0.017,0.194,0,0.29c0,0.14,0,0.23-0.061,0.25l-0.939,0.18c-0.36,0.11-0.54,0.41-0.55,0.9c0,0.3,0,0.76,0,1.38
						v2.27c0,0.109,0,0.17,0.09,0.199h0.649h2.69c2,0,3,0,3.08,0c0.061,0.006,0.114-0.038,0.12-0.099c0-0.007,0-0.015,0-0.021V28
						c0-0.93,0-1.54,0-1.84c0.011-0.275-0.143-0.531-0.391-0.65c-0.38-0.104-0.768-0.177-1.159-0.22c0,0-0.07-0.13-0.061-0.27
						c-0.01-0.103,0.019-0.207,0.08-0.29h1.69c0.27,0,0.529,0,0.76,0h2.43c0.043,0.083,0.063,0.176,0.061,0.27
						c0,0.14,0,0.24-0.061,0.27c-0.45,0.07-0.79,0.14-1,0.2c-0.21,0.061-0.51,0.46-0.55,1.061c-0.04,0.6,0,1.85,0,4.18v2.649
						c0,1,0,1.591,0,1.88c0.06,0.49,0.24,0.78,0.55,0.881c0.408,0.129,0.832,0.203,1.26,0.219c0,0,0,0.141,0,0.301s0,0.24-0.1,0.27
						l-1.88-0.06H190h-1.431h-1.06c-0.051-0.081-0.072-0.176-0.06-0.271c-0.011-0.104,0.01-0.208,0.06-0.299
						c0.378-0.041,0.752-0.107,1.12-0.201c0.3-0.086,0.47-0.387,0.51-0.899v-0.69v-3.14c0-0.091,0-0.14-0.12-0.14s-0.59,0-1.29,0
						H183h-0.4c0,0,0,0,0,0.06v0.06v3.141v0.609c0,0.61,0.24,1,0.601,1.07l0.479,0.12l0.7,0.12c0.039,0.1,0.039,0.211,0,0.311
						c0,0.149-0.061,0.229-0.101,0.26l-1.67-0.061h-1.72l-1.77,0.061c-0.052-0.088-0.073-0.189-0.061-0.291
						c-0.019-0.092-0.019-0.188,0-0.279c0.38,0,0.74-0.109,1.061-0.18c0.319-0.07,0.64-0.601,0.689-1.43v-4c0-0.941,0-1.861,0-2.75
						c0-0.89,0-1.4,0-1.59c0-0.49-0.22-0.78-0.55-0.86l-0.49-0.12L179.1,25.32z"/>
					<path fill="#FFFFFF" d="M196,35.47c-1.148-1.294-1.754-2.98-1.69-4.711c-0.019-1.35,0.402-2.669,1.2-3.759
						c1.208-1.664,3.177-2.601,5.23-2.49c1.708-0.084,3.365,0.598,4.52,1.86c1.021,1.179,1.561,2.701,1.51,4.26
						c0.048,1.453-0.373,2.883-1.2,4.08c-1.168,1.681-3.113,2.649-5.159,2.57C198.748,37.34,197.141,36.681,196,35.47z
						 M203.28,35.701c0.596-0.501,1.036-1.16,1.271-1.9c0.265-0.811,0.39-1.658,0.37-2.51c0.017-1.027-0.17-2.047-0.55-3
						c-0.335-0.897-0.926-1.676-1.7-2.24c-0.756-0.519-1.653-0.791-2.57-0.78c-0.617-0.015-1.228,0.134-1.77,0.43
						c-0.718,0.432-1.275,1.084-1.59,1.86c-0.354,0.873-0.527,1.809-0.511,2.75c-0.011,1.051,0.196,2.094,0.61,3.061
						c0.37,0.957,1.026,1.777,1.88,2.35c0.738,0.456,1.593,0.689,2.46,0.67c0.754,0.027,1.492-0.217,2.08-0.689H203.28z"/>
					<path fill="#FFFFFF" d="M212.67,31.759c-0.044-0.073-0.075-0.154-0.09-0.239c0-0.09,0-0.149,0.069-0.17
						c0.254,0.046,0.513,0.065,0.771,0.06c0.474,0.01,0.943-0.093,1.37-0.3c0.853-0.542,1.319-1.526,1.2-2.53
						c0.049-0.813-0.212-1.613-0.73-2.24c-0.64-0.625-1.518-0.946-2.41-0.88h-0.2h-0.229c-0.135-0.004-0.269,0.023-0.391,0.08
						c-0.1,0.053-0.161,0.157-0.159,0.27v1.3c0,0.8,0,1.92,0,3.351v2.83c0,0.85,0,1.479,0,1.899s0.29,0.899,0.729,1
						c0.17,0.052,0.344,0.085,0.521,0.101l0.479,0.06h0.17c0,0,0.05,0.14,0,0.3c0.005,0.094-0.016,0.188-0.06,0.27l-2-0.06h-1.41
						l-1.85,0.06c-0.025-0.088-0.025-0.182,0-0.27c0-0.16,0-0.25,0-0.279l0.579-0.08c0.156-0.013,0.31-0.039,0.461-0.08
						c0.369-0.101,0.579-0.48,0.6-1.131c0.02-0.649,0.06-2.14,0.06-4.399V28c0-0.73,0-1.22,0-1.47c0-0.6-0.27-0.95-0.699-1
						c-0.431-0.05-0.641-0.12-1-0.16c-0.035-0.094-0.035-0.196,0-0.29c0-0.13,0-0.22,0.069-0.25h2.32h3.18
						c0.428,0.001,0.854,0.048,1.271,0.14c0.485,0.103,0.943,0.311,1.34,0.61c0.347,0.271,0.633,0.611,0.84,1
						c0.254,0.505,0.381,1.064,0.37,1.63c0.018,0.782-0.205,1.549-0.64,2.2c-0.367,0.521-0.863,0.939-1.44,1.211
						c-0.637,0.328-1.344,0.496-2.06,0.489c-0.283,0.009-0.566-0.021-0.841-0.09C212.779,31.949,212.714,31.859,212.67,31.759z"/>
				</g>
				<g>
					<path fill="#FFFFFF" d="M136.76,45.85c0,0.3-0.17,0.45-0.52,0.45h-2.44v6.18c0,0.38-0.16,0.561-0.5,0.561
						s-0.48-0.181-0.48-0.561V46.3h-2.439c-0.34,0-0.5-0.15-0.5-0.45s0.16-0.41,0.5-0.41h5.86
						C136.59,45.44,136.76,45.57,136.76,45.85z"/>
					<path fill="#FFFFFF" d="M145.92,52.61c0,0.3-0.16,0.45-0.5,0.45c-0.18,0-0.32-0.13-0.44-0.38l-0.859-1.921h-3.5l-0.851,1.931
						c-0.063,0.223-0.269,0.374-0.5,0.37c-0.3,0-0.439-0.17-0.439-0.5c-0.001-0.106,0.02-0.211,0.06-0.311l3-6.629
						c0.065-0.217,0.264-0.367,0.49-0.371c0.222,0.012,0.413,0.158,0.479,0.371l3,6.739C145.894,52.439,145.913,52.524,145.92,52.61
						z M143.75,49.871l-1.23-2.791c-0.04-0.1-0.09-0.149-0.149-0.149c-0.061,0-0.12,0.06-0.17,0.159l-1.2,2.781H143.75z"/>
					<path fill="#FFFFFF" d="M150.22,52.5c0,0.371-0.17,0.561-0.5,0.561s-0.49-0.189-0.49-0.561V45.8c0-0.37,0.17-0.551,0.49-0.551
						s0.5,0.181,0.5,0.551V52.5z"/>
					<path fill="#FFFFFF" d="M160.4,50.791c-0.041,0.189-0.119,0.369-0.229,0.529c-0.587,1.104-1.75,1.779-3,1.74
						c-0.947,0.038-1.861-0.352-2.49-1.061c-0.682-0.793-1.039-1.814-1-2.859c-0.033-1.021,0.324-2.016,1-2.78
						c0.604-0.72,1.5-1.13,2.44-1.12c0.577-0.004,1.147,0.123,1.67,0.37c0.397,0.18,0.741,0.459,1,0.81
						c0.094,0.136,0.158,0.289,0.189,0.451c0,0.469-0.22,0.699-0.64,0.699c-0.222-0.008-0.417-0.145-0.5-0.35
						c-0.134-0.275-0.316-0.522-0.54-0.73c-0.356-0.274-0.8-0.412-1.25-0.39c-0.686,0-1.323,0.351-1.69,0.931
						c-0.439,0.613-0.668,1.354-0.649,2.109c-0.032,0.752,0.186,1.494,0.62,2.109c0.397,0.596,1.074,0.943,1.79,0.92
						c0.478,0.004,0.944-0.146,1.33-0.43c0.354-0.257,0.637-0.602,0.819-1c0.15-0.31,0.33-0.47,0.561-0.47
						c0.119,0.001,0.233,0.048,0.319,0.13C160.304,50.468,160.403,50.622,160.4,50.791z"/>
					<path fill="#FFFFFF" d="M169,52.5c0,0.371-0.17,0.561-0.521,0.561c-0.35,0-0.5-0.189-0.5-0.561v-3.14h-4.06v3.14
						c0,0.371-0.17,0.561-0.51,0.561c-0.341,0-0.5-0.189-0.5-0.561V45.8c0-0.37,0.17-0.551,0.51-0.551s0.5,0.181,0.5,0.551v2.68
						h4.06V45.8c0-0.37,0.17-0.551,0.49-0.551S169,45.43,169,45.8V52.5z"/>
					<path fill="#FFFFFF" d="M177.6,50.52c0.059,0.765-0.258,1.511-0.85,2c-0.62,0.413-1.356,0.617-2.101,0.58
						c-0.734,0.036-1.461-0.167-2.069-0.58c-0.606-0.479-0.934-1.229-0.87-2v-4.86c0-0.27,0.18-0.41,0.53-0.41
						c0.35,0,0.5,0.141,0.5,0.41v4.631c0.001,1.061,0.861,1.918,1.922,1.917c1.059-0.001,1.916-0.859,1.918-1.917V45.66
						c0-0.27,0.17-0.41,0.5-0.41s0.52,0.141,0.52,0.41V50.52z"/>
					<path fill="#FFFFFF" d="M186.51,52.531c0.036,0.256-0.143,0.494-0.399,0.531c-0.047,0.006-0.094,0.006-0.141-0.002
						c-0.261,0.006-0.504-0.127-0.64-0.35l-4-5.76v5.58c0,0.35-0.17,0.529-0.5,0.529s-0.471-0.18-0.471-0.529V45.77
						c-0.035-0.251,0.14-0.484,0.392-0.521c0.043-0.006,0.086-0.006,0.129,0c0.209-0.018,0.413,0.072,0.54,0.24l4.1,5.85V45.77
						c0-0.351,0.17-0.521,0.49-0.521s0.49,0.17,0.49,0.521L186.51,52.531z"/>
					<path fill="#FFFFFF" d="M195.56,46.86c0,0.399-0.14,0.601-0.43,0.601c-0.191-0.008-0.369-0.104-0.48-0.26
						c-0.13-0.144-0.247-0.297-0.35-0.461c-0.402-0.465-1.009-0.701-1.62-0.63c-0.729-0.036-1.428,0.304-1.85,0.899
						c-0.468,0.732-0.695,1.594-0.65,2.461c-0.017,0.688,0.214,1.357,0.65,1.89c0.432,0.537,1.091,0.841,1.779,0.82
						c0.468,0.015,0.93-0.097,1.341-0.32c0.309-0.132,0.518-0.425,0.54-0.76v-1.21c0.022-0.187-0.11-0.355-0.296-0.379
						c-0.025-0.004-0.05-0.004-0.074-0.002h-1.29c-0.207,0.036-0.403-0.104-0.438-0.31c-0.007-0.04-0.008-0.08-0.002-0.12
						c-0.029-0.201,0.11-0.39,0.313-0.42c0.035-0.005,0.072-0.005,0.107,0h2c0.19,0,0.372,0.08,0.5,0.221
						c0.132,0.137,0.206,0.319,0.21,0.51v2c-0.026,0.506-0.33,0.956-0.79,1.17c-0.647,0.368-1.385,0.549-2.13,0.52
						c-0.972,0.055-1.913-0.344-2.55-1.08c-0.627-0.725-0.956-1.661-0.92-2.619c-0.049-1.046,0.27-2.075,0.899-2.91
						c0.651-0.789,1.639-1.224,2.66-1.17c0.703-0.005,1.395,0.182,2,0.539C195.28,46.14,195.56,46.5,195.56,46.86z"/>
					<path fill="#FFFFFF" d="M210.71,45.85c0,0.3-0.17,0.45-0.51,0.45h-2.44v6.18c0,0.38-0.17,0.561-0.5,0.561
						s-0.49-0.181-0.49-0.561V46.3h-2.439c-0.33,0-0.5-0.15-0.5-0.45s0.17-0.41,0.5-0.41h5.87
						C210.54,45.44,210.71,45.57,210.71,45.85z"/>
					<path fill="#FFFFFF" d="M219.88,52.61c0,0.3-0.17,0.45-0.5,0.45c-0.18,0-0.33-0.13-0.45-0.38l-0.86-1.921h-3.489l-0.851,1.931
						c-0.063,0.223-0.269,0.374-0.5,0.37c-0.3,0-0.45-0.17-0.45-0.5c-0.001-0.107,0.022-0.214,0.07-0.311l3-6.629
						c0.064-0.214,0.258-0.363,0.48-0.371c0.224,0.01,0.419,0.157,0.489,0.371l3,6.739C219.854,52.439,219.874,52.524,219.88,52.61z
						 M217.71,49.871l-1.23-2.791c-0.046-0.1-0.097-0.149-0.149-0.149c-0.061,0-0.12,0.06-0.181,0.159l-1.21,2.781H217.71z"/>
					<path fill="#FFFFFF" d="M224.17,52.5c0,0.371-0.16,0.561-0.49,0.561s-0.49-0.189-0.49-0.561V45.8c0-0.37,0.16-0.551,0.49-0.551
						s0.49,0.181,0.49,0.551V52.5z"/>
					<path fill="#FFFFFF" d="M236.5,45.68c0.008,0.066,0.008,0.134,0,0.2l-1.86,6.68c-0.09,0.33-0.26,0.5-0.51,0.5
						s-0.39-0.17-0.49-0.5L232.1,47l-1.54,5.561c-0.09,0.33-0.25,0.5-0.479,0.5c-0.23,0-0.431-0.17-0.521-0.5l-1.859-6.68
						c-0.007-0.066-0.007-0.134,0-0.2c0-0.29,0.199-0.431,0.609-0.431c0.147-0.021,0.287,0.068,0.33,0.211l1.49,5.359l1.37-4.939
						c0.12-0.42,0.319-0.631,0.609-0.631s0.48,0.211,0.61,0.631l1.36,4.939l1.5-5.359c0-0.141,0.14-0.211,0.319-0.211
						C236.3,45.25,236.5,45.39,236.5,45.68z"/>
					<path fill="#FFFFFF" d="M245.88,52.61c0,0.3-0.17,0.45-0.5,0.45c-0.18,0-0.33-0.13-0.44-0.38l-0.87-1.921h-3.489l-0.851,1.931
						c-0.063,0.223-0.269,0.374-0.5,0.37c-0.3,0-0.45-0.17-0.45-0.5c0.003-0.107,0.027-0.213,0.07-0.311l3-6.629
						c0.064-0.214,0.258-0.363,0.48-0.371c0.224,0.01,0.419,0.157,0.489,0.371l3,6.739C245.854,52.439,245.874,52.524,245.88,52.61z
						 M243.71,49.871l-1.23-2.791c-0.04-0.1-0.09-0.149-0.149-0.149c-0.061,0-0.12,0.06-0.17,0.159l-1.221,2.781H243.71z"/>
					<path fill="#FFFFFF" d="M254.44,52.531c0.037,0.256-0.142,0.494-0.399,0.531c-0.046,0.006-0.094,0.006-0.141-0.002
						c-0.257,0.004-0.497-0.129-0.63-0.35l-4-5.76v5.58c0,0.35-0.17,0.529-0.5,0.529s-0.47-0.18-0.47-0.529V45.77
						c-0.036-0.251,0.138-0.485,0.389-0.521c0.047-0.007,0.095-0.007,0.142,0.001c0.208-0.014,0.411,0.076,0.54,0.24l4.1,5.85V45.77
						c0-0.351,0.16-0.521,0.48-0.521c0.319,0,0.489,0.17,0.489,0.521V52.531z"/>
				</g>
			</g>
		</g>
	</g>
</g>
</svg>
