<svg id="圖層_1" data-name="圖層 1" xmlns="http://www.w3.org/2000/svg" viewBox="0 0 298.25 158.52"><defs><style>.cls-1,.cls-7{fill:none;}.cls-1,.cls-5,.cls-7{stroke:#3e454f;stroke-linecap:round;stroke-linejoin:round;}.cls-1{stroke-width:4px;}.cls-2,.cls-5{fill:#ffdc5f;}.cls-3{fill:#3e454f;}.cls-4{fill:#fff;}.cls-5{stroke-width:2px;}.cls-6{fill:#f4a91e;}.cls-7{stroke-width:3.72px;}</style></defs><title>工作區域 7</title><path class="cls-1" d="M43.81,25.07s0,11.41-8.63,11.41c8.63,0,8.63,11.41,8.63,11.41s0-11.41,8.63-11.41C43.81,36.48,43.81,25.07,43.81,25.07Z"/><path class="cls-2" d="M43.81,25.07s0,11.41-8.63,11.41c8.63,0,8.63,11.41,8.63,11.41s0-11.41,8.63-11.41C43.81,36.48,43.81,25.07,43.81,25.07Z"/><path class="cls-1" d="M71.94,49.79a47.91,47.91,0,0,0,2-10.44l3.4.44A53.22,53.22,0,0,1,75.5,51Zm11.92-2.52a35.41,35.41,0,0,0-1.8-5.4V68.79H77.34V31.47h4.72V39l2.16-.92a44.72,44.72,0,0,1,3.12,7.56Zm13.76,6.48A22.16,22.16,0,0,1,86.46,69a20.59,20.59,0,0,0-3.36-3.68c6.08-3,8.64-7.2,9.72-11.6h-8V49.23h8.6c.12-1.28.12-2.48.12-3.68V41.91H86.7v-4.4h6.88v-6h4.8v6h8.67V49.23h2.52v4.52Zm4.15.16c2.6,3.88,6.28,9.16,8,12.32l-4.32,2.44a148.07,148.07,0,0,0-7.63-12.76Zm-3.39-8.32c0,1.2,0,2.4-.12,3.64h4.16V41.91h-4Z"/><path class="cls-1" d="M124.18,50.63a34.09,34.09,0,0,1-3.32,10c.6.36,1.32.8,2.24,1.32,2.76,1.56,6.56,1.8,11.12,1.8a130.62,130.62,0,0,0,16.23-1.08,19.36,19.36,0,0,0-1.4,5c-3.28.24-10.35.48-15,.48-5.24,0-8.64-.44-11.56-2-1.68-.88-3.08-2.08-3.88-2.08s-2.44,2.6-3.48,4.76l-3.16-4.6a16.86,16.86,0,0,1,3.8-3.36,22.9,22.9,0,0,0,3.36-7.2h-5.6c1-2.36,2.2-5.56,3.28-8.68h-4V40.79h10c-1,2.84-2.12,6-3.2,8.8h1.08l.72-.12Zm-6.8-10.92c-.68-1.84-2.08-4.76-3-6.92l4.12-1.52c1,2.16,2.32,4.88,3.08,6.6Zm16.52-.8H124V35h9.88v-3.4h4.64V35H149v4H138.54v2.16h9.11V51.83h-7.47A59.53,59.53,0,0,1,148.89,58L146,61.19a45.46,45.46,0,0,0-7.43-5.76v7H133.9v-7.2a24.3,24.3,0,0,1-7.84,6.56,18.4,18.4,0,0,0-3-3.6,22.25,22.25,0,0,0,8.76-6.36h-6.68V41.07h8.76Zm-4.36,9.32h4.36V44.71h-4.36Zm9-3.52v3.52H143V44.71Z"/><path class="cls-1" d="M182.17,59.83c2.68,2,6.24,4.56,8.08,6.24l-3,3a100.28,100.28,0,0,0-8.63-7.16l2.27-2h-2.47c-1.48,4.4-4.88,7.28-12.84,9a11.21,11.21,0,0,0-2.32-3.68c6-1.08,8.8-2.76,10.24-5.32h-8.88V56h2.76V45.19l-.2.16a13.41,13.41,0,0,0-2.28-2.84v.92h-3.44v5.72c1.12-.32,2.2-.68,3.32-1l.68,4.28c-1.32.44-2.64.88-4,1.28v9.48c0,2.28-.36,3.52-1.6,4.32s-2.92,1-5.4,1a21.39,21.39,0,0,0-1.24-4.68c1.32,0,2.6,0,3.08,0s.64-.16.64-.68V55.11l-3.64,1.12-1.08-4.56c1.36-.32,3-.76,4.72-1.24v-7h-4.12V39h4.12V31.47h4.52V39h3.44v2.72a24.61,24.61,0,0,0,7.24-10.24l4.36.72c-.32.76-.68,1.6-1.08,2.4h5.08l.64-.16,2.8,1.84a38.3,38.3,0,0,1-3,4.88h6.55V56h2.4v3.8Zm-11-9.36A17.74,17.74,0,0,0,175.9,45h-4.72Zm8.39,2.36c-.07,1.12-.19,2.2-.31,3.2h4.19V51.19l-1.35,1.64a35.31,35.31,0,0,0-4.88-3.56,22.09,22.09,0,0,1-3.64,3.8,15.6,15.6,0,0,0-2.4-1.8V56h3.48c.16-1,.28-2.08.36-3.2Zm-6.23-14.52a27.5,27.5,0,0,1-2.08,2.88h5.12a32.3,32.3,0,0,0,1.76-2.88ZM183.45,45h-3.64c-.27.6-.59,1.2-.91,1.8a37.16,37.16,0,0,1,4.55,2.88Z"/><path class="cls-1" d="M229.33,63.55v4h-35V32.71h34.19v4H212.74l2.92.84c-.44,1.2-.92,2.4-1.48,3.56h4.32a24,24,0,0,0-1.2-2.88L221.49,37a24.82,24.82,0,0,1,1.81,4.12H228v3.6H222v2.12h4.79V50H222v2.12h4.79v3.28H222v2.2h6.23v3.6H213.58v1.36h-4.12V48.67a23.29,23.29,0,0,1-1.6,1.8A18.57,18.57,0,0,0,206.1,48l-2,2.36A26.3,26.3,0,0,0,199,46.51v17ZM199,36.67v9.56l2.24-2.6a27.93,27.93,0,0,1,4.52,2.88,28.2,28.2,0,0,0,6-9.84h-8.32a23.88,23.88,0,0,1,5.2,3.4l-2.68,3a23.57,23.57,0,0,0-5.16-3.76l2.4-2.68Zm1,22.76c1.48-2,3.6-5.32,5.36-8.4l2.68,2.8c-1.4,2.76-3.2,5.88-4.84,8.6Zm17.84-14.76h-4.2v2.12h4.2Zm0,5.36h-4.2v2.12h4.2Zm0,5.4h-4.2v2.2h4.2Z"/><path class="cls-3" d="M71.94,49.79a47.91,47.91,0,0,0,2-10.44l3.4.44A53.22,53.22,0,0,1,75.5,51Zm11.92-2.52a35.41,35.41,0,0,0-1.8-5.4V68.79H77.34V31.47h4.72V39l2.16-.92a44.72,44.72,0,0,1,3.12,7.56Zm13.76,6.48A22.16,22.16,0,0,1,86.46,69a20.59,20.59,0,0,0-3.36-3.68c6.08-3,8.64-7.2,9.72-11.6h-8V49.23h8.6c.12-1.28.12-2.48.12-3.68V41.91H86.7v-4.4h6.88v-6h4.8v6h8.67V49.23h2.52v4.52Zm4.15.16c2.6,3.88,6.28,9.16,8,12.32l-4.32,2.44a148.07,148.07,0,0,0-7.63-12.76Zm-3.39-8.32c0,1.2,0,2.4-.12,3.64h4.16V41.91h-4Z"/><path class="cls-3" d="M124.18,50.63a34.09,34.09,0,0,1-3.32,10c.6.36,1.32.8,2.24,1.32,2.76,1.56,6.56,1.8,11.12,1.8a130.62,130.62,0,0,0,16.23-1.08,19.36,19.36,0,0,0-1.4,5c-3.28.24-10.35.48-15,.48-5.24,0-8.64-.44-11.56-2-1.68-.88-3.08-2.08-3.88-2.08s-2.44,2.6-3.48,4.76l-3.16-4.6a16.86,16.86,0,0,1,3.8-3.36,22.9,22.9,0,0,0,3.36-7.2h-5.6c1-2.36,2.2-5.56,3.28-8.68h-4V40.79h10c-1,2.84-2.12,6-3.2,8.8h1.08l.72-.12Zm-6.8-10.92c-.68-1.84-2.08-4.76-3-6.92l4.12-1.52c1,2.16,2.32,4.88,3.08,6.6Zm16.52-.8H124V35h9.88v-3.4h4.64V35H149v4H138.54v2.16h9.11V51.83h-7.47A59.53,59.53,0,0,1,148.89,58L146,61.19a45.46,45.46,0,0,0-7.43-5.76v7H133.9v-7.2a24.3,24.3,0,0,1-7.84,6.56,18.4,18.4,0,0,0-3-3.6,22.25,22.25,0,0,0,8.76-6.36h-6.68V41.07h8.76Zm-4.36,9.32h4.36V44.71h-4.36Zm9-3.52v3.52H143V44.71Z"/><path class="cls-3" d="M182.17,59.83c2.68,2,6.24,4.56,8.08,6.24l-3,3a100.28,100.28,0,0,0-8.63-7.16l2.27-2h-2.47c-1.48,4.4-4.88,7.28-12.84,9a11.21,11.21,0,0,0-2.32-3.68c6-1.08,8.8-2.76,10.24-5.32h-8.88V56h2.76V45.19l-.2.16a13.41,13.41,0,0,0-2.28-2.84v.92h-3.44v5.72c1.12-.32,2.2-.68,3.32-1l.68,4.28c-1.32.44-2.64.88-4,1.28v9.48c0,2.28-.36,3.52-1.6,4.32s-2.92,1-5.4,1a21.39,21.39,0,0,0-1.24-4.68c1.32,0,2.6,0,3.08,0s.64-.16.64-.68V55.11l-3.64,1.12-1.08-4.56c1.36-.32,3-.76,4.72-1.24v-7h-4.12V39h4.12V31.47h4.52V39h3.44v2.72a24.61,24.61,0,0,0,7.24-10.24l4.36.72c-.32.76-.68,1.6-1.08,2.4h5.08l.64-.16,2.8,1.84a38.3,38.3,0,0,1-3,4.88h6.55V56h2.4v3.8Zm-11-9.36A17.74,17.74,0,0,0,175.9,45h-4.72Zm8.39,2.36c-.07,1.12-.19,2.2-.31,3.2h4.19V51.19l-1.35,1.64a35.31,35.31,0,0,0-4.88-3.56,22.09,22.09,0,0,1-3.64,3.8,15.6,15.6,0,0,0-2.4-1.8V56h3.48c.16-1,.28-2.08.36-3.2Zm-6.23-14.52a27.5,27.5,0,0,1-2.08,2.88h5.12a32.3,32.3,0,0,0,1.76-2.88ZM183.45,45h-3.64c-.27.6-.59,1.2-.91,1.8a37.16,37.16,0,0,1,4.55,2.88Z"/><path class="cls-3" d="M229.33,63.55v4h-35V32.71h34.19v4H212.74l2.92.84c-.44,1.2-.92,2.4-1.48,3.56h4.32a24,24,0,0,0-1.2-2.88L221.49,37a24.82,24.82,0,0,1,1.81,4.12H228v3.6H222v2.12h4.79V50H222v2.12h4.79v3.28H222v2.2h6.23v3.6H213.58v1.36h-4.12V48.67a23.29,23.29,0,0,1-1.6,1.8A18.57,18.57,0,0,0,206.1,48l-2,2.36A26.3,26.3,0,0,0,199,46.51v17ZM199,36.67v9.56l2.24-2.6a27.93,27.93,0,0,1,4.52,2.88,28.2,28.2,0,0,0,6-9.84h-8.32a23.88,23.88,0,0,1,5.2,3.4l-2.68,3a23.57,23.57,0,0,0-5.16-3.76l2.4-2.68Zm1,22.76c1.48-2,3.6-5.32,5.36-8.4l2.68,2.8c-1.4,2.76-3.2,5.88-4.84,8.6Zm17.84-14.76h-4.2v2.12h4.2Zm0,5.36h-4.2v2.12h4.2Zm0,5.4h-4.2v2.2h4.2Z"/><path class="cls-1" d="M69.94,47.79a47.91,47.91,0,0,0,2-10.44l3.4.44A53.22,53.22,0,0,1,73.5,49Zm11.92-2.52a35.41,35.41,0,0,0-1.8-5.4V66.79H75.34V29.47h4.72V37l2.16-.92a44.72,44.72,0,0,1,3.12,7.56Zm13.76,6.48A22.16,22.16,0,0,1,84.46,67a20.59,20.59,0,0,0-3.36-3.68c6.08-3,8.64-7.2,9.72-11.6h-8V47.23h8.6c.12-1.28.12-2.48.12-3.68V39.91H84.7v-4.4h6.88v-6h4.8v6h8.67V47.23h2.52v4.52Zm4.15.16c2.6,3.88,6.28,9.16,8,12.32l-4.32,2.44a148.07,148.07,0,0,0-7.63-12.76Zm-3.39-8.32c0,1.2,0,2.4-.12,3.64h4.16V39.91h-4Z"/><path class="cls-1" d="M122.18,48.63a34.09,34.09,0,0,1-3.32,10c.6.36,1.32.8,2.24,1.32,2.76,1.56,6.56,1.8,11.12,1.8a130.62,130.62,0,0,0,16.23-1.08,19.36,19.36,0,0,0-1.4,5c-3.28.24-10.35.48-15,.48-5.24,0-8.64-.44-11.56-2-1.68-.88-3.08-2.08-3.88-2.08s-2.44,2.6-3.48,4.76l-3.16-4.6a16.86,16.86,0,0,1,3.8-3.36,22.9,22.9,0,0,0,3.36-7.2h-5.6c1-2.36,2.2-5.56,3.28-8.68h-4V38.79h10c-1,2.84-2.12,6-3.2,8.8h1.08l.72-.12Zm-6.8-10.92c-.68-1.84-2.08-4.76-3-6.92l4.12-1.52c1,2.16,2.32,4.88,3.08,6.6Zm16.52-.8H122V33h9.88v-3.4h4.64V33H147v4H136.54v2.16h9.11V49.83h-7.47A59.53,59.53,0,0,1,146.89,56L144,59.19a45.46,45.46,0,0,0-7.43-5.76v7H131.9v-7.2a24.3,24.3,0,0,1-7.84,6.56,18.4,18.4,0,0,0-3-3.6,22.25,22.25,0,0,0,8.76-6.36h-6.68V39.07h8.76Zm-4.36,9.32h4.36V42.71h-4.36Zm9-3.52v3.52H141V42.71Z"/><path class="cls-1" d="M180.17,57.83c2.68,2,6.24,4.56,8.08,6.24l-3,3a100.28,100.28,0,0,0-8.63-7.16l2.27-2h-2.47c-1.48,4.4-4.88,7.28-12.84,9a11.21,11.21,0,0,0-2.32-3.68c6-1.08,8.8-2.76,10.24-5.32h-8.88V54h2.76V43.19l-.2.16a13.41,13.41,0,0,0-2.28-2.84v.92h-3.44v5.72c1.12-.32,2.2-.68,3.32-1l.68,4.28c-1.32.44-2.64.88-4,1.28v9.48c0,2.28-.36,3.52-1.6,4.32s-2.92,1-5.4,1a21.39,21.39,0,0,0-1.24-4.68c1.32,0,2.6,0,3.08,0s.64-.16.64-.68V53.11l-3.64,1.12-1.08-4.56c1.36-.32,3-.76,4.72-1.24v-7h-4.12V37h4.12V29.47h4.52V37h3.44v2.72a24.61,24.61,0,0,0,7.24-10.24l4.36.72c-.32.76-.68,1.6-1.08,2.4h5.08l.64-.16,2.8,1.84a38.3,38.3,0,0,1-3,4.88h6.55V54h2.4v3.8Zm-11-9.36A17.74,17.74,0,0,0,173.9,43h-4.72Zm8.39,2.36c-.07,1.12-.19,2.2-.31,3.2h4.19V49.19l-1.35,1.64a35.31,35.31,0,0,0-4.88-3.56,22.09,22.09,0,0,1-3.64,3.8,15.6,15.6,0,0,0-2.4-1.8V54h3.48c.16-1,.28-2.08.36-3.2Zm-6.23-14.52a27.5,27.5,0,0,1-2.08,2.88h5.12a32.3,32.3,0,0,0,1.76-2.88ZM181.45,43h-3.64c-.27.6-.59,1.2-.91,1.8a37.16,37.16,0,0,1,4.55,2.88Z"/><path class="cls-1" d="M227.33,61.55v4h-35V30.71h34.19v4H210.74l2.92.84c-.44,1.2-.92,2.4-1.48,3.56h4.32a24,24,0,0,0-1.2-2.88L219.49,35a24.82,24.82,0,0,1,1.81,4.12H226v3.6H220v2.12h4.79V48H220v2.12h4.79v3.28H220v2.2h6.23v3.6H211.58v1.36h-4.12V46.67a23.29,23.29,0,0,1-1.6,1.8A18.57,18.57,0,0,0,204.1,46l-2,2.36A26.3,26.3,0,0,0,197,44.51v17ZM197,34.67v9.56l2.24-2.6a27.93,27.93,0,0,1,4.52,2.88,28.2,28.2,0,0,0,6-9.84h-8.32a23.88,23.88,0,0,1,5.2,3.4l-2.68,3a23.57,23.57,0,0,0-5.16-3.76l2.4-2.68Zm1,22.76c1.48-2,3.6-5.32,5.36-8.4l2.68,2.8c-1.4,2.76-3.2,5.88-4.84,8.6Zm17.84-14.76h-4.2v2.12h4.2Zm0,5.36h-4.2v2.12h4.2Zm0,5.4h-4.2v2.2h4.2Z"/><path class="cls-2" d="M69.94,47.79a47.91,47.91,0,0,0,2-10.44l3.4.44A53.22,53.22,0,0,1,73.5,49Zm11.92-2.52a35.41,35.41,0,0,0-1.8-5.4V66.79H75.34V29.47h4.72V37l2.16-.92a44.72,44.72,0,0,1,3.12,7.56Zm13.76,6.48A22.16,22.16,0,0,1,84.46,67a20.59,20.59,0,0,0-3.36-3.68c6.08-3,8.64-7.2,9.72-11.6h-8V47.23h8.6c.12-1.28.12-2.48.12-3.68V39.91H84.7v-4.4h6.88v-6h4.8v6h8.67V47.23h2.52v4.52Zm4.15.16c2.6,3.88,6.28,9.16,8,12.32l-4.32,2.44a148.07,148.07,0,0,0-7.63-12.76Zm-3.39-8.32c0,1.2,0,2.4-.12,3.64h4.16V39.91h-4Z"/><path class="cls-2" d="M122.18,48.63a34.09,34.09,0,0,1-3.32,10c.6.36,1.32.8,2.24,1.32,2.76,1.56,6.56,1.8,11.12,1.8a130.62,130.62,0,0,0,16.23-1.08,19.36,19.36,0,0,0-1.4,5c-3.28.24-10.35.48-15,.48-5.24,0-8.64-.44-11.56-2-1.68-.88-3.08-2.08-3.88-2.08s-2.44,2.6-3.48,4.76l-3.16-4.6a16.86,16.86,0,0,1,3.8-3.36,22.9,22.9,0,0,0,3.36-7.2h-5.6c1-2.36,2.2-5.56,3.28-8.68h-4V38.79h10c-1,2.84-2.12,6-3.2,8.8h1.08l.72-.12Zm-6.8-10.92c-.68-1.84-2.08-4.76-3-6.92l4.12-1.52c1,2.16,2.32,4.88,3.08,6.6Zm16.52-.8H122V33h9.88v-3.4h4.64V33H147v4H136.54v2.16h9.11V49.83h-7.47A59.53,59.53,0,0,1,146.89,56L144,59.19a45.46,45.46,0,0,0-7.43-5.76v7H131.9v-7.2a24.3,24.3,0,0,1-7.84,6.56,18.4,18.4,0,0,0-3-3.6,22.25,22.25,0,0,0,8.76-6.36h-6.68V39.07h8.76Zm-4.36,9.32h4.36V42.71h-4.36Zm9-3.52v3.52H141V42.71Z"/><path class="cls-2" d="M180.17,57.83c2.68,2,6.24,4.56,8.08,6.24l-3,3a100.28,100.28,0,0,0-8.63-7.16l2.27-2h-2.47c-1.48,4.4-4.88,7.28-12.84,9a11.21,11.21,0,0,0-2.32-3.68c6-1.08,8.8-2.76,10.24-5.32h-8.88V54h2.76V43.19l-.2.16a13.41,13.41,0,0,0-2.28-2.84v.92h-3.44v5.72c1.12-.32,2.2-.68,3.32-1l.68,4.28c-1.32.44-2.64.88-4,1.28v9.48c0,2.28-.36,3.52-1.6,4.32s-2.92,1-5.4,1a21.39,21.39,0,0,0-1.24-4.68c1.32,0,2.6,0,3.08,0s.64-.16.64-.68V53.11l-3.64,1.12-1.08-4.56c1.36-.32,3-.76,4.72-1.24v-7h-4.12V37h4.12V29.47h4.52V37h3.44v2.72a24.61,24.61,0,0,0,7.24-10.24l4.36.72c-.32.76-.68,1.6-1.08,2.4h5.08l.64-.16,2.8,1.84a38.3,38.3,0,0,1-3,4.88h6.55V54h2.4v3.8Zm-11-9.36A17.74,17.74,0,0,0,173.9,43h-4.72Zm8.39,2.36c-.07,1.12-.19,2.2-.31,3.2h4.19V49.19l-1.35,1.64a35.31,35.31,0,0,0-4.88-3.56,22.09,22.09,0,0,1-3.64,3.8,15.6,15.6,0,0,0-2.4-1.8V54h3.48c.16-1,.28-2.08.36-3.2Zm-6.23-14.52a27.5,27.5,0,0,1-2.08,2.88h5.12a32.3,32.3,0,0,0,1.76-2.88ZM181.45,43h-3.64c-.27.6-.59,1.2-.91,1.8a37.16,37.16,0,0,1,4.55,2.88Z"/><path class="cls-2" d="M227.33,61.55v4h-35V30.71h34.19v4H210.74l2.92.84c-.44,1.2-.92,2.4-1.48,3.56h4.32a24,24,0,0,0-1.2-2.88L219.49,35a24.82,24.82,0,0,1,1.81,4.12H226v3.6H220v2.12h4.79V48H220v2.12h4.79v3.28H220v2.2h6.23v3.6H211.58v1.36h-4.12V46.67a23.29,23.29,0,0,1-1.6,1.8A18.57,18.57,0,0,0,204.1,46l-2,2.36A26.3,26.3,0,0,0,197,44.51v17ZM197,34.67v9.56l2.24-2.6a27.93,27.93,0,0,1,4.52,2.88,28.2,28.2,0,0,0,6-9.84h-8.32a23.88,23.88,0,0,1,5.2,3.4l-2.68,3a23.57,23.57,0,0,0-5.16-3.76l2.4-2.68Zm1,22.76c1.48-2,3.6-5.32,5.36-8.4l2.68,2.8c-1.4,2.76-3.2,5.88-4.84,8.6Zm17.84-14.76h-4.2v2.12h4.2Zm0,5.36h-4.2v2.12h4.2Zm0,5.4h-4.2v2.2h4.2Z"/><path class="cls-1" d="M37.43,90.39V123H32.2v-3.16H11V123H6V90.39ZM32.2,114.87V95.23H11v19.64Z"/><path class="cls-1" d="M43.52,88.23H57.16v4.32h-5A61.63,61.63,0,0,1,50,100.63h6.4V119h-6.6v3H45.92V109.51c-.52.76-1.08,1.52-1.64,2.2A26.6,26.6,0,0,0,42.64,106c2.48-3.32,4.12-8.2,5.16-13.48H43.52Zm9,16.56H49.84v10h2.72Zm27.51,11.6H73.48v7.44H68.92v-7.44H57.32v-4.12H61a24.1,24.1,0,0,0-2.72-2,17.14,17.14,0,0,0,4.92-4.08H58.92V90h5.8a25.29,25.29,0,0,0,.68-3.48L71,87c-.44,1-.92,2.08-1.4,3h9.23v16.16H68.44a18,18,0,0,1-5.56,6.12h6V107h4.56v5.28h6.63ZM63.2,96.31h3.4v-2.6H63.2Zm2.2,6.12a14.49,14.49,0,0,0,.8-2.68h-3v2.68Zm8.92-2.68H70.6a23.21,23.21,0,0,1-.6,2.68h4.32Zm0-6H70.88v2.6h3.44Z"/><path class="cls-1" d="M88.48,113.35a44,44,0,0,1-1.76,9.76,18.64,18.64,0,0,0-3.56-1.24,33.44,33.44,0,0,0,1.64-9.12ZM83.2,98.07a5,5,0,0,0,2.32-2.16,46.74,46.74,0,0,0,4.76-9.64L94.64,88a53.46,53.46,0,0,1-5.4,9.44l2.8-.2A45,45,0,0,0,94.92,92l4,2.52a66.89,66.89,0,0,1-8.32,11.64l4.2-.6a28.51,28.51,0,0,0-1.12-2.68l3.2-1.2a32.2,32.2,0,0,1,2.88,8L96.24,111a15.53,15.53,0,0,0-.4-2c-8.48,1.52-10,1.84-10.84,2.36a34.51,34.51,0,0,0-1.52-4.2c1.08-.28,2-1.16,3.24-2.64a34.88,34.88,0,0,0,2.6-3.24c-3.12.36-4,.6-4.64.92A38.54,38.54,0,0,0,83.2,98.07Zm9.44,14.4a71.52,71.52,0,0,1,1,8l-3.44.88a67.9,67.9,0,0,0-.84-8Zm27-12.24a40.45,40.45,0,0,1-5.32,15,18.14,18.14,0,0,0,6.12,4.4,17.21,17.21,0,0,0-3.16,4,19.63,19.63,0,0,1-5.79-4.56,26.06,26.06,0,0,1-5.72,4.8,17.07,17.07,0,0,0-3-3.56,20,20,0,0,0,5.88-5.08,40.26,40.26,0,0,1-3.12-6.88c-.8,6.08-2.24,11.24-4.92,15.28a23.28,23.28,0,0,0-4.08-3,16.23,16.23,0,0,0,1.68-2.8l-2.76,1a52.25,52.25,0,0,0-1.84-6.44l3.16-1c.68,1.8,1.4,4,1.84,5.68,2.68-6.12,3.24-14.64,3.28-24.44H98.6V88.15h13.6l.68-.2,3.31.44c-.4,3.44-1.11,7.48-1.79,11h1.48l.75-.16Zm-13.15-7.6c0,2.32-.12,4.56-.2,6.72H110c.44-2.12.84-4.6,1.16-6.72Zm1.72,11a29.77,29.77,0,0,0,3.12,7.6,33.77,33.77,0,0,0,3-7.6Z"/><path class="cls-1" d="M131.72,115.07a26,26,0,0,1-5.36,8.84,28.43,28.43,0,0,0-3.76-2.6,17.94,17.94,0,0,0,4.64-7.28Zm7.08-1.36H125V88H138.8Zm-4.52-21.92h-5v3.64h5Zm0,7.16h-5v3.72h5Zm0,7.24h-5v3.72h5Zm2,7.72a26.34,26.34,0,0,1,4.08,6.52l-4,1.92a26.36,26.36,0,0,0-3.84-6.8Zm15.44-14.52v6.32h7.07v18h-4.6v-1.48h-8.83v1.64h-4.4V105.71H147V86.51h4.68v8.56h8.67v4.32Zm2.47,10.52h-8.83v8h8.83Z"/><path class="cls-1" d="M171,101.11a105.48,105.48,0,0,1-2.92,16.6l-4.8-1.92a78.23,78.23,0,0,0,3.08-15.56Zm7.52-3.24v18.56c0,1.88.32,2.2,2.24,2.2h5.72c2,0,2.36-1.28,2.64-7.52a14.42,14.42,0,0,0,4.48,2c-.56,7.6-1.84,10-6.76,10h-6.64c-5.2,0-6.64-1.6-6.64-6.64V97.87Zm-.36-10.76c3.6,2.28,8.68,5.8,11.08,8.28l-3.52,3.72c-2.16-2.44-7.08-6.24-10.8-8.76ZM195.56,99a74.86,74.86,0,0,1,5.15,14.88l-4.83,2a68.33,68.33,0,0,0-4.76-15.08Z"/><path class="cls-1" d="M219.2,112.75h-9.6l-2.08,7.6h-6L211,90.75h7l9.52,29.6h-6.2Zm-1.28-4.6-.88-3.24c-.92-3.08-1.72-6.48-2.6-9.68h-.16c-.76,3.24-1.64,6.6-2.52,9.68l-.88,3.24Z"/><path class="cls-1" d="M231,90.75h9.72c6.56,0,11.6,2.28,11.6,9.28,0,6.76-5.08,9.8-11.44,9.8h-4v10.52H231Zm9.48,14.4c4.08,0,6-1.72,6-5.12s-2.16-4.6-6.24-4.6h-3.36v9.72Z"/><path class="cls-1" d="M257.64,90.75h9.72c6.56,0,11.6,2.28,11.6,9.28,0,6.76-5.08,9.8-11.44,9.8h-4v10.52h-5.92Zm9.48,14.4c4.08,0,6-1.72,6-5.12s-2.16-4.6-6.24-4.6h-3.36v9.72Z"/><path class="cls-1" d="M286.52,116.79a4.17,4.17,0,0,1,8.32,0,4.17,4.17,0,0,1-8.32,0Zm.68-20.4-.16-6h7.32l-.2,6-1.4,13.68h-4.12Z"/><path class="cls-3" d="M37.43,90.39V123H32.2v-3.16H11V123H6V90.39ZM32.2,114.87V95.23H11v19.64Z"/><path class="cls-3" d="M43.52,88.23H57.16v4.32h-5A61.63,61.63,0,0,1,50,100.63h6.4V119h-6.6v3H45.92V109.51c-.52.76-1.08,1.52-1.64,2.2A26.6,26.6,0,0,0,42.64,106c2.48-3.32,4.12-8.2,5.16-13.48H43.52Zm9,16.56H49.84v10h2.72Zm27.51,11.6H73.48v7.44H68.92v-7.44H57.32v-4.12H61a24.1,24.1,0,0,0-2.72-2,17.14,17.14,0,0,0,4.92-4.08H58.92V90h5.8a25.29,25.29,0,0,0,.68-3.48L71,87c-.44,1-.92,2.08-1.4,3h9.23v16.16H68.44a18,18,0,0,1-5.56,6.12h6V107h4.56v5.28h6.63ZM63.2,96.31h3.4v-2.6H63.2Zm2.2,6.12a14.49,14.49,0,0,0,.8-2.68h-3v2.68Zm8.92-2.68H70.6a23.21,23.21,0,0,1-.6,2.68h4.32Zm0-6H70.88v2.6h3.44Z"/><path class="cls-3" d="M88.48,113.35a44,44,0,0,1-1.76,9.76,18.64,18.64,0,0,0-3.56-1.24,33.44,33.44,0,0,0,1.64-9.12ZM83.2,98.07a5,5,0,0,0,2.32-2.16,46.74,46.74,0,0,0,4.76-9.64L94.64,88a53.46,53.46,0,0,1-5.4,9.44l2.8-.2A45,45,0,0,0,94.92,92l4,2.52a66.89,66.89,0,0,1-8.32,11.64l4.2-.6a28.51,28.51,0,0,0-1.12-2.68l3.2-1.2a32.2,32.2,0,0,1,2.88,8L96.24,111a15.53,15.53,0,0,0-.4-2c-8.48,1.52-10,1.84-10.84,2.36a34.51,34.51,0,0,0-1.52-4.2c1.08-.28,2-1.16,3.24-2.64a34.88,34.88,0,0,0,2.6-3.24c-3.12.36-4,.6-4.64.92A38.54,38.54,0,0,0,83.2,98.07Zm9.44,14.4a71.52,71.52,0,0,1,1,8l-3.44.88a67.9,67.9,0,0,0-.84-8Zm27-12.24a40.45,40.45,0,0,1-5.32,15,18.14,18.14,0,0,0,6.12,4.4,17.21,17.21,0,0,0-3.16,4,19.63,19.63,0,0,1-5.79-4.56,26.06,26.06,0,0,1-5.72,4.8,17.07,17.07,0,0,0-3-3.56,20,20,0,0,0,5.88-5.08,40.26,40.26,0,0,1-3.12-6.88c-.8,6.08-2.24,11.24-4.92,15.28a23.28,23.28,0,0,0-4.08-3,16.23,16.23,0,0,0,1.68-2.8l-2.76,1a52.25,52.25,0,0,0-1.84-6.44l3.16-1c.68,1.8,1.4,4,1.84,5.68,2.68-6.12,3.24-14.64,3.28-24.44H98.6V88.15h13.6l.68-.2,3.31.44c-.4,3.44-1.11,7.48-1.79,11h1.48l.75-.16Zm-13.15-7.6c0,2.32-.12,4.56-.2,6.72H110c.44-2.12.84-4.6,1.16-6.72Zm1.72,11a29.77,29.77,0,0,0,3.12,7.6,33.77,33.77,0,0,0,3-7.6Z"/><path class="cls-3" d="M131.72,115.07a26,26,0,0,1-5.36,8.84,28.43,28.43,0,0,0-3.76-2.6,17.94,17.94,0,0,0,4.64-7.28Zm7.08-1.36H125V88H138.8Zm-4.52-21.92h-5v3.64h5Zm0,7.16h-5v3.72h5Zm0,7.24h-5v3.72h5Zm2,7.72a26.34,26.34,0,0,1,4.08,6.52l-4,1.92a26.36,26.36,0,0,0-3.84-6.8Zm15.44-14.52v6.32h7.07v18h-4.6v-1.48h-8.83v1.64h-4.4V105.71H147V86.51h4.68v8.56h8.67v4.32Zm2.47,10.52h-8.83v8h8.83Z"/><path class="cls-3" d="M171,101.11a105.48,105.48,0,0,1-2.92,16.6l-4.8-1.92a78.23,78.23,0,0,0,3.08-15.56Zm7.52-3.24v18.56c0,1.88.32,2.2,2.24,2.2h5.72c2,0,2.36-1.28,2.64-7.52a14.42,14.42,0,0,0,4.48,2c-.56,7.6-1.84,10-6.76,10h-6.64c-5.2,0-6.64-1.6-6.64-6.64V97.87Zm-.36-10.76c3.6,2.28,8.68,5.8,11.08,8.28l-3.52,3.72c-2.16-2.44-7.08-6.24-10.8-8.76ZM195.56,99a74.86,74.86,0,0,1,5.15,14.88l-4.83,2a68.33,68.33,0,0,0-4.76-15.08Z"/><path class="cls-3" d="M219.2,112.75h-9.6l-2.08,7.6h-6L211,90.75h7l9.52,29.6h-6.2Zm-1.28-4.6-.88-3.24c-.92-3.08-1.72-6.48-2.6-9.68h-.16c-.76,3.24-1.64,6.6-2.52,9.68l-.88,3.24Z"/><path class="cls-3" d="M231,90.75h9.72c6.56,0,11.6,2.28,11.6,9.28,0,6.76-5.08,9.8-11.44,9.8h-4v10.52H231Zm9.48,14.4c4.08,0,6-1.72,6-5.12s-2.16-4.6-6.24-4.6h-3.36v9.72Z"/><path class="cls-3" d="M257.64,90.75h9.72c6.56,0,11.6,2.28,11.6,9.28,0,6.76-5.08,9.8-11.44,9.8h-4v10.52h-5.92Zm9.48,14.4c4.08,0,6-1.72,6-5.12s-2.16-4.6-6.24-4.6h-3.36v9.72Z"/><path class="cls-3" d="M286.52,116.79a4.17,4.17,0,0,1,8.32,0,4.17,4.17,0,0,1-8.32,0Zm.68-20.4-.16-6h7.32l-.2,6-1.4,13.68h-4.12Z"/><path class="cls-1" d="M35.43,88.39V121H30.2v-3.16H9V121H4V88.39ZM30.2,112.87V93.23H9v19.64Z"/><path class="cls-1" d="M41.52,86.23H55.16v4.32h-5A61.63,61.63,0,0,1,48,98.63h6.4V117h-6.6v3H43.92V107.51c-.52.76-1.08,1.52-1.64,2.2A26.6,26.6,0,0,0,40.64,104c2.48-3.32,4.12-8.2,5.16-13.48H41.52Zm9,16.56H47.84v10h2.72Zm27.51,11.6H71.48v7.44H66.92v-7.44H55.32v-4.12H59a24.1,24.1,0,0,0-2.72-2,17.14,17.14,0,0,0,4.92-4.08H56.92V88h5.8a25.29,25.29,0,0,0,.68-3.48L69,85c-.44,1-.92,2.08-1.4,3h9.23v16.16H66.44a18,18,0,0,1-5.56,6.12h6V105h4.56v5.28h6.63ZM61.2,94.31h3.4v-2.6H61.2Zm2.2,6.12a14.49,14.49,0,0,0,.8-2.68h-3v2.68Zm8.92-2.68H68.6a23.21,23.21,0,0,1-.6,2.68h4.32Zm0-6H68.88v2.6h3.44Z"/><path class="cls-1" d="M86.48,111.35a44,44,0,0,1-1.76,9.76,18.64,18.64,0,0,0-3.56-1.24,33.44,33.44,0,0,0,1.64-9.12ZM81.2,96.07a5,5,0,0,0,2.32-2.16,46.74,46.74,0,0,0,4.76-9.64L92.64,86a53.46,53.46,0,0,1-5.4,9.44l2.8-.2A45,45,0,0,0,92.92,90l4,2.52a66.89,66.89,0,0,1-8.32,11.64l4.2-.6a28.51,28.51,0,0,0-1.12-2.68l3.2-1.2a32.2,32.2,0,0,1,2.88,8L94.24,109a15.53,15.53,0,0,0-.4-2c-8.48,1.52-10,1.84-10.84,2.36a34.51,34.51,0,0,0-1.52-4.2c1.08-.28,2-1.16,3.24-2.64a34.88,34.88,0,0,0,2.6-3.24c-3.12.36-4,.6-4.64.92A38.54,38.54,0,0,0,81.2,96.07Zm9.44,14.4a71.52,71.52,0,0,1,1,8l-3.44.88a67.9,67.9,0,0,0-.84-8Zm27-12.24a40.45,40.45,0,0,1-5.32,15,18.14,18.14,0,0,0,6.12,4.4,17.21,17.21,0,0,0-3.16,4,19.63,19.63,0,0,1-5.79-4.56,26.06,26.06,0,0,1-5.72,4.8,17.07,17.07,0,0,0-3-3.56,20,20,0,0,0,5.88-5.08,40.26,40.26,0,0,1-3.12-6.88c-.8,6.08-2.24,11.24-4.92,15.28a23.28,23.28,0,0,0-4.08-3,16.23,16.23,0,0,0,1.68-2.8l-2.76,1a52.25,52.25,0,0,0-1.84-6.44l3.16-1c.68,1.8,1.4,4,1.84,5.68,2.68-6.12,3.24-14.64,3.28-24.44H96.6V86.15h13.6l.68-.2,3.31.44c-.4,3.44-1.11,7.48-1.79,11h1.48l.75-.16Zm-13.15-7.6c0,2.32-.12,4.56-.2,6.72H108c.44-2.12.84-4.6,1.16-6.72Zm1.72,11a29.77,29.77,0,0,0,3.12,7.6,33.77,33.77,0,0,0,3-7.6Z"/><path class="cls-1" d="M129.72,113.07a26,26,0,0,1-5.36,8.84,28.43,28.43,0,0,0-3.76-2.6,17.94,17.94,0,0,0,4.64-7.28Zm7.08-1.36H123V86H136.8Zm-4.52-21.92h-5v3.64h5Zm0,7.16h-5v3.72h5Zm0,7.24h-5v3.72h5Zm2,7.72a26.34,26.34,0,0,1,4.08,6.52l-4,1.92a26.36,26.36,0,0,0-3.84-6.8Zm15.44-14.52v6.32h7.07v18h-4.6v-1.48h-8.83v1.64h-4.4V103.71H145V84.51h4.68v8.56h8.67v4.32Zm2.47,10.52h-8.83v8h8.83Z"/><path class="cls-1" d="M169,99.11a105.48,105.48,0,0,1-2.92,16.6l-4.8-1.92a78.23,78.23,0,0,0,3.08-15.56Zm7.52-3.24v18.56c0,1.88.32,2.2,2.24,2.2h5.72c2,0,2.36-1.28,2.64-7.52a14.42,14.42,0,0,0,4.48,2c-.56,7.6-1.84,10-6.76,10h-6.64c-5.2,0-6.64-1.6-6.64-6.64V95.87Zm-.36-10.76c3.6,2.28,8.68,5.8,11.08,8.28l-3.52,3.72c-2.16-2.44-7.08-6.24-10.8-8.76ZM193.56,97a74.86,74.86,0,0,1,5.15,14.88l-4.83,2a68.33,68.33,0,0,0-4.76-15.08Z"/><path class="cls-1" d="M217.2,110.75h-9.6l-2.08,7.6h-6L209,88.75h7l9.52,29.6h-6.2Zm-1.28-4.6-.88-3.24c-.92-3.08-1.72-6.48-2.6-9.68h-.16c-.76,3.24-1.64,6.6-2.52,9.68l-.88,3.24Z"/><path class="cls-1" d="M229,88.75h9.72c6.56,0,11.6,2.28,11.6,9.28,0,6.76-5.08,9.8-11.44,9.8h-4v10.52H229Zm9.48,14.4c4.08,0,6-1.72,6-5.12s-2.16-4.6-6.24-4.6h-3.36v9.72Z"/><path class="cls-1" d="M255.64,88.75h9.72C271.92,88.75,277,91,277,98c0,6.76-5.08,9.8-11.44,9.8h-4v10.52h-5.92Zm9.48,14.4c4.08,0,6-1.72,6-5.12s-2.16-4.6-6.24-4.6h-3.36v9.72Z"/><path class="cls-1" d="M284.52,114.79a4.17,4.17,0,0,1,8.32,0,4.17,4.17,0,0,1-8.32,0Zm.68-20.4-.16-6h7.32l-.2,6-1.4,13.68h-4.12Z"/><path class="cls-4" d="M35.43,88.39V121H30.2v-3.16H9V121H4V88.39ZM30.2,112.87V93.23H9v19.64Z"/><path class="cls-4" d="M41.52,86.23H55.16v4.32h-5A61.63,61.63,0,0,1,48,98.63h6.4V117h-6.6v3H43.92V107.51c-.52.76-1.08,1.52-1.64,2.2A26.6,26.6,0,0,0,40.64,104c2.48-3.32,4.12-8.2,5.16-13.48H41.52Zm9,16.56H47.84v10h2.72Zm27.51,11.6H71.48v7.44H66.92v-7.44H55.32v-4.12H59a24.1,24.1,0,0,0-2.72-2,17.14,17.14,0,0,0,4.92-4.08H56.92V88h5.8a25.29,25.29,0,0,0,.68-3.48L69,85c-.44,1-.92,2.08-1.4,3h9.23v16.16H66.44a18,18,0,0,1-5.56,6.12h6V105h4.56v5.28h6.63ZM61.2,94.31h3.4v-2.6H61.2Zm2.2,6.12a14.49,14.49,0,0,0,.8-2.68h-3v2.68Zm8.92-2.68H68.6a23.21,23.21,0,0,1-.6,2.68h4.32Zm0-6H68.88v2.6h3.44Z"/><path class="cls-4" d="M86.48,111.35a44,44,0,0,1-1.76,9.76,18.64,18.64,0,0,0-3.56-1.24,33.44,33.44,0,0,0,1.64-9.12ZM81.2,96.07a5,5,0,0,0,2.32-2.16,46.74,46.74,0,0,0,4.76-9.64L92.64,86a53.46,53.46,0,0,1-5.4,9.44l2.8-.2A45,45,0,0,0,92.92,90l4,2.52a66.89,66.89,0,0,1-8.32,11.64l4.2-.6a28.51,28.51,0,0,0-1.12-2.68l3.2-1.2a32.2,32.2,0,0,1,2.88,8L94.24,109a15.53,15.53,0,0,0-.4-2c-8.48,1.52-10,1.84-10.84,2.36a34.51,34.51,0,0,0-1.52-4.2c1.08-.28,2-1.16,3.24-2.64a34.88,34.88,0,0,0,2.6-3.24c-3.12.36-4,.6-4.64.92A38.54,38.54,0,0,0,81.2,96.07Zm9.44,14.4a71.52,71.52,0,0,1,1,8l-3.44.88a67.9,67.9,0,0,0-.84-8Zm27-12.24a40.45,40.45,0,0,1-5.32,15,18.14,18.14,0,0,0,6.12,4.4,17.21,17.21,0,0,0-3.16,4,19.63,19.63,0,0,1-5.79-4.56,26.06,26.06,0,0,1-5.72,4.8,17.07,17.07,0,0,0-3-3.56,20,20,0,0,0,5.88-5.08,40.26,40.26,0,0,1-3.12-6.88c-.8,6.08-2.24,11.24-4.92,15.28a23.28,23.28,0,0,0-4.08-3,16.23,16.23,0,0,0,1.68-2.8l-2.76,1a52.25,52.25,0,0,0-1.84-6.44l3.16-1c.68,1.8,1.4,4,1.84,5.68,2.68-6.12,3.24-14.64,3.28-24.44H96.6V86.15h13.6l.68-.2,3.31.44c-.4,3.44-1.11,7.48-1.79,11h1.48l.75-.16Zm-13.15-7.6c0,2.32-.12,4.56-.2,6.72H108c.44-2.12.84-4.6,1.16-6.72Zm1.72,11a29.77,29.77,0,0,0,3.12,7.6,33.77,33.77,0,0,0,3-7.6Z"/><path class="cls-4" d="M129.72,113.07a26,26,0,0,1-5.36,8.84,28.43,28.43,0,0,0-3.76-2.6,17.94,17.94,0,0,0,4.64-7.28Zm7.08-1.36H123V86H136.8Zm-4.52-21.92h-5v3.64h5Zm0,7.16h-5v3.72h5Zm0,7.24h-5v3.72h5Zm2,7.72a26.34,26.34,0,0,1,4.08,6.52l-4,1.92a26.36,26.36,0,0,0-3.84-6.8Zm15.44-14.52v6.32h7.07v18h-4.6v-1.48h-8.83v1.64h-4.4V103.71H145V84.51h4.68v8.56h8.67v4.32Zm2.47,10.52h-8.83v8h8.83Z"/><path class="cls-4" d="M169,99.11a105.48,105.48,0,0,1-2.92,16.6l-4.8-1.92a78.23,78.23,0,0,0,3.08-15.56Zm7.52-3.24v18.56c0,1.88.32,2.2,2.24,2.2h5.72c2,0,2.36-1.28,2.64-7.52a14.42,14.42,0,0,0,4.48,2c-.56,7.6-1.84,10-6.76,10h-6.64c-5.2,0-6.64-1.6-6.64-6.64V95.87Zm-.36-10.76c3.6,2.28,8.68,5.8,11.08,8.28l-3.52,3.72c-2.16-2.44-7.08-6.24-10.8-8.76ZM193.56,97a74.86,74.86,0,0,1,5.15,14.88l-4.83,2a68.33,68.33,0,0,0-4.76-15.08Z"/><path class="cls-4" d="M217.2,110.75h-9.6l-2.08,7.6h-6L209,88.75h7l9.52,29.6h-6.2Zm-1.28-4.6-.88-3.24c-.92-3.08-1.72-6.48-2.6-9.68h-.16c-.76,3.24-1.64,6.6-2.52,9.68l-.88,3.24Z"/><path class="cls-4" d="M229,88.75h9.72c6.56,0,11.6,2.28,11.6,9.28,0,6.76-5.08,9.8-11.44,9.8h-4v10.52H229Zm9.48,14.4c4.08,0,6-1.72,6-5.12s-2.16-4.6-6.24-4.6h-3.36v9.72Z"/><path class="cls-4" d="M255.64,88.75h9.72C271.92,88.75,277,91,277,98c0,6.76-5.08,9.8-11.44,9.8h-4v10.52h-5.92Zm9.48,14.4c4.08,0,6-1.72,6-5.12s-2.16-4.6-6.24-4.6h-3.36v9.72Z"/><path class="cls-4" d="M284.52,114.79a4.17,4.17,0,0,1,8.32,0,4.17,4.17,0,0,1-8.32,0Zm.68-20.4-.16-6h7.32l-.2,6-1.4,13.68h-4.12Z"/><rect class="cls-2" x="113.47" y="154.52" width="71.42" height="4"/><path class="cls-5" d="M255.54,14.47A19.25,19.25,0,1,1,231.4,1.89,19.25,19.25,0,0,1,255.54,14.47Z"/><path class="cls-6" d="M226.79,24.44c.37-1.06.72-2.19,1.05-3.38q3.9,1.07,5,1.33c-.07-.3-.28-1.23-.65-2.79l-4-.93q.57-1.64,1.05-3.36l2.09.55-1.62-6.68c1,.28,1.95.52,2.83.75l2.85.68.16,1.08c.05.32.12.73.21,1.25s.23,1.3.44,2.37l.72,3.9c1.34-1.57,2.57-2.93,3.66-4.08s1.9-2,2.4-2.63c1,.28,1.93.52,2.7.71l2.71.65-5,5,2.48.59c-.42,1.07-.8,2.18-1.16,3.34l-4-1.08c-.08.07-.75.77-2,2.12l1.51.36,3.72.87c-.38,1-.76,2.09-1.15,3.36q-3.5-1-5.46-1.45l-.42,1.36q-.24.78-.54,1.86l-.67,2.46c-1-.27-1.92-.51-2.7-.7s-1.73-.43-2.73-.65q.78-2.41,1.68-5.68l-1.19-.28Z"/><path class="cls-7" d="M283.47,19.89S283.47,37,270.55,37c12.92,0,12.92,17.09,12.92,17.09S283.47,37,296.39,37C283.47,37,283.47,19.89,283.47,19.89Z"/><path class="cls-2" d="M283.47,19.89S283.47,37,270.55,37c12.92,0,12.92,17.09,12.92,17.09S283.47,37,296.39,37C283.47,37,283.47,19.89,283.47,19.89Z"/><path class="cls-7" d="M262.61,53.25s0,6.79-5.14,6.79c5.14,0,5.14,6.78,5.14,6.78s0-6.78,5.13-6.78C262.61,60,262.61,53.25,262.61,53.25Z"/><path class="cls-2" d="M262.61,53.25s0,6.79-5.14,6.79c5.14,0,5.14,6.78,5.14,6.78s0-6.78,5.13-6.78C262.61,60,262.61,53.25,262.61,53.25Z"/></svg>