<svg id="圖層_1" data-name="圖層 1" xmlns="http://www.w3.org/2000/svg" viewBox="0 0 27.27 28.62"><defs><style>.cls-1{fill:#ffdc5f;}.cls-2{fill:#f5aa1e;}.cls-3{fill:#3e454f;}</style></defs><title>工作區域 2</title><path class="cls-1" d="M24.89,19.09A11.62,11.62,0,1,1,16.51,5,11.62,11.62,0,0,1,24.89,19.09Z"/><path class="cls-2" d="M24.5,20.62,2,14.86a1.58,1.58,0,1,1,.78-3.07l22.51,5.76a1.58,1.58,0,0,1-.78,3.07Z"/><path class="cls-2" d="M13.57,22.83a1.58,1.58,0,1,1-1.14-1.92A1.59,1.59,0,0,1,13.57,22.83Z"/><path class="cls-3" d="M26,17A12.43,12.43,0,0,0,16.71,4.18h0a1.32,1.32,0,0,1,.65-2.55h0a1.31,1.31,0,0,1,1,1,.81.81,0,0,0,.59.63.74.74,0,0,0,.33,0,.8.8,0,0,0,.64-.92A2.87,2.87,0,0,0,19.18.94,3,3,0,0,0,17.75.09a2.91,2.91,0,0,0-3.53,2.1,2.79,2.79,0,0,0,.06,1.62A12.42,12.42,0,0,0,2.39,11a2.2,2.2,0,0,0-1.22.33A2.31,2.31,0,0,0,.08,12.74a2.36,2.36,0,0,0,.25,1.8,2.43,2.43,0,0,0,.92.88,12.41,12.41,0,0,0,23.63,6,2.43,2.43,0,0,0,1.22-.33,2.38,2.38,0,0,0,.83-3.26A2.37,2.37,0,0,0,26,17ZM11.27,22.25a.79.79,0,1,1,.57,1A.8.8,0,0,1,11.27,22.25Zm.46,4.61.52-2.05A2.39,2.39,0,0,0,14.34,23a2.37,2.37,0,1,0-3.62,1.39l-.53,2A10.87,10.87,0,0,1,2.81,15.89l20.47,5.24A10.86,10.86,0,0,1,11.73,26.86Zm13-7L2.18,14.1a.79.79,0,0,1,.39-1.54l3.07.79A.8.8,0,0,0,6,11.81l-2-.52A10.86,10.86,0,0,1,16.31,5.72h0a10.86,10.86,0,0,1,8.13,10.8L5.73,11.73a.79.79,0,0,0-.39,1.54l19.74,5.05a.79.79,0,1,1-.39,1.53Z"/></svg>