<svg id="圖層_1" data-name="圖層 1" xmlns="http://www.w3.org/2000/svg" viewBox="0 0 344.06 140.15"><defs><style>.cls-1{fill:#ffdc5f;}.cls-2,.cls-3,.cls-5,.cls-8{fill:none;}.cls-2,.cls-5,.cls-8{stroke:#3e454f;}.cls-2,.cls-3{stroke-linecap:round;stroke-linejoin:round;}.cls-2,.cls-8{stroke-width:5px;}.cls-3{stroke:#fa005f;stroke-width:2px;}.cls-4{fill:#fa005f;}.cls-5{stroke-width:4px;}.cls-6{fill:#fff;}.cls-7{fill:#23c8c8;}.cls-8{stroke-miterlimit:10;}.cls-9{fill:#3e454f;}</style></defs><title>工作區域 2</title><path class="cls-1" d="M107.21,36.06,113,6.7,122.9,6q10.86-.72,9.15,7.89A10,10,0,0,1,130,18.42a11.61,11.61,0,0,1-4.7,3.21l4,13-6.51.44-3.25-12.15-3.68.25-2.48,12.53Zm11.17-25.81-1.81,9.16,3.5-.24a9.68,9.68,0,0,0,2.65-.48,4.87,4.87,0,0,0,1.69-1,4.63,4.63,0,0,0,.94-1.47,11.29,11.29,0,0,0,.57-2,9.74,9.74,0,0,0,.2-1.94,2.44,2.44,0,0,0-.43-1.42c-.61-.72-2-1-4.11-.86Z"/><path class="cls-1" d="M132.53,34.37l4.14-20.91,6.15-.41L138.68,34Zm5-25.16.83-4.2,6.15-.42-.84,4.21Z"/><path class="cls-1" d="M151.45,27.16a1.31,1.31,0,0,0,.51,1.47,3.33,3.33,0,0,0,2.09.39,3.7,3.7,0,0,0,2.46-.86,4,4,0,0,0,1-1.45l6.15-.41a7.17,7.17,0,0,1-3.35,4.62,12.74,12.74,0,0,1-3.16,1.55,14.83,14.83,0,0,1-3.9.75,11.57,11.57,0,0,1-4.75-.49,5.1,5.1,0,0,1-2.67-2,3.55,3.55,0,0,1-.53-1.84,11.06,11.06,0,0,1,.22-2.33l1.37-6.89a11.82,11.82,0,0,1,.7-2.36,6.32,6.32,0,0,1,1.28-2A10.59,10.59,0,0,1,152.38,13a15,15,0,0,1,5.07-1.16,13,13,0,0,1,3.74.24,7,7,0,0,1,2.65,1.16,4.5,4.5,0,0,1,1.46,4.67l-6.15.41a1.7,1.7,0,0,0-.45-1.82,3,3,0,0,0-2.08-.45,4.56,4.56,0,0,0-2.32.74,2.86,2.86,0,0,0-1.17,1.85Z"/><path class="cls-1" d="M165.33,32.17l5.8-29.36,6.15-.42-2.07,10.48h.12A11.39,11.39,0,0,1,178,11.08a9.56,9.56,0,0,1,3.59-.88,9.28,9.28,0,0,1,2.24.12,4.55,4.55,0,0,1,1.87.75,3.14,3.14,0,0,1,1.14,1.49,4.36,4.36,0,0,1,.07,2.33l-3.17,16-6.15.42,2.86-14.48a1.79,1.79,0,0,0-.42-1.76,2.8,2.8,0,0,0-2.11-.51,4,4,0,0,0-2.55.9,4.07,4.07,0,0,0-1.09,2.19l-2.78,14.06Z"/><path class="cls-1" d="M200.42,29.81l.42-2.14h-.12a14,14,0,0,1-2.79,1.93,9.19,9.19,0,0,1-3.59.86,11,11,0,0,1-2.15-.08,5.22,5.22,0,0,1-2-.71,2.86,2.86,0,0,1-1.32-1.55,5,5,0,0,1-.08-2.79,12.06,12.06,0,0,1,1-3.14,6.52,6.52,0,0,1,2-2.35,9.77,9.77,0,0,1,3.21-1.5,24,24,0,0,1,4.85-.75l.66-.05q.36,0,.66,0a4.31,4.31,0,0,0,.71,0l.9,0,.43-2.18a2,2,0,0,0-.31-1.73q-.53-.66-2.28-.54a5.33,5.33,0,0,0-2.3.69,3.66,3.66,0,0,0-1.61,1.65l-6,.4a8.37,8.37,0,0,1,3.67-4.72,13.51,13.51,0,0,1,3.15-1.5,15.7,15.7,0,0,1,3.9-.72,14.42,14.42,0,0,1,3.53.16,7.21,7.21,0,0,1,2.71,1A4.27,4.27,0,0,1,209.29,12a5,5,0,0,1,.16,2.83L206.57,29.4Zm1.78-9a15.7,15.7,0,0,0-1.67,0,9.7,9.7,0,0,0-3.53.87,3.26,3.26,0,0,0-1.88,2.43,2,2,0,0,0,.46,1.88,2.8,2.8,0,0,0,2.21.58,4.81,4.81,0,0,0,2.58-.86,3.24,3.24,0,0,0,1.26-2Z"/><path class="cls-1" d="M211.09,29.1l4.13-20.91,6.15-.41L220.93,10a29.15,29.15,0,0,1,4-2.06,15,15,0,0,1,4.59-1l-.88,4.46a6.05,6.05,0,0,0-1.82-.12,11.33,11.33,0,0,0-2.12.36,8.36,8.36,0,0,0-2.18.9,6.73,6.73,0,0,0-1.84,1.51,4.66,4.66,0,0,0-1,2.18l-2.45,12.42Z"/><path class="cls-1" d="M236.51,6.76,237.76.41,243.91,0l-1.26,6.35,3.8-.25-.65,3.29-3.8.26-2.29,11.59a2.29,2.29,0,0,0,0,1.14.9.9,0,0,0,.57.57,3,3,0,0,0,1.12.17c.46,0,1,0,1.71-.08l-.78,4-2.53.17a10.62,10.62,0,0,1-3.44-.21,4.88,4.88,0,0,1-2-1,3,3,0,0,1-.92-1.5,3.73,3.73,0,0,1-.06-1.69l2.51-12.7-3.07.21.65-3.3Z"/><path class="cls-2" d="M76.1,96.49l4.9-.42a.75.75,0,0,0,.66-.48L86.1,84.14a.75.75,0,0,0-.81-1l-5,.42a.78.78,0,0,0-.66.49L75.3,95.51A.74.74,0,0,0,76.1,96.49Z"/><path class="cls-2" d="M74.06,94.44,79,94a.78.78,0,0,0,.66-.49L84.05,82.1a.75.75,0,0,0-.8-1l-5,.42a.78.78,0,0,0-.67.49L73.25,93.46A.75.75,0,0,0,74.06,94.44Z"/><path class="cls-3" d="M74.06,94.44,79,94a.78.78,0,0,0,.66-.49L84.05,82.1a.75.75,0,0,0-.8-1l-5,.42a.78.78,0,0,0-.67.49L73.25,93.46A.75.75,0,0,0,74.06,94.44Z"/><path class="cls-4" d="M74.06,94.44,79,94a.78.78,0,0,0,.66-.49L84.05,82.1a.75.75,0,0,0-.8-1l-5,.42a.78.78,0,0,0-.67.49L73.25,93.46A.75.75,0,0,0,74.06,94.44Z"/><path class="cls-2" d="M113.28,65.22l-3.6.31a.77.77,0,0,1-.85-.63l-.19-1.36a.77.77,0,0,0-.85-.63l-6.07.52a.74.74,0,0,0-.71.83l.18,1.22a.75.75,0,0,1-.71.83l-1.09.09a.75.75,0,0,1-.81-1l.27-.7a.74.74,0,0,0-.8-1l-6,.51a.77.77,0,0,0-.67.48l-5,12.62a.74.74,0,0,0,.8,1l.36,0a.76.76,0,0,1,.84.83l-2,16a.76.76,0,0,0,.84.83l6.51-.56.12-.91,16.21-1.37a.78.78,0,0,0,.7-.65l.42-3.29a.75.75,0,0,0-.84-.82l-3.23.27a.76.76,0,0,1-.84-.82l.23-1.85.8-6.28.12-.94.8-6.28.2-1.54a.77.77,0,0,1,.71-.65L113,70a.77.77,0,0,0,.71-.64l.42-3.29A.77.77,0,0,0,113.28,65.22ZM98.75,88.79a.77.77,0,0,1-.71.65l-2.63.22a.75.75,0,0,1-.85-.82l2-16-.92.08.39-1a.78.78,0,0,1,.67-.49l3.31-.28a.76.76,0,0,1,.84.82Z"/><path class="cls-2" d="M111.23,63.18l-3.6.3a.76.76,0,0,1-.84-.63l-.2-1.35a.78.78,0,0,0-.84-.64l-6.08.52a.75.75,0,0,0-.7.83l.17,1.22a.74.74,0,0,1-.7.83l-1.1.1a.75.75,0,0,1-.8-1l.27-.69a.76.76,0,0,0-.81-1l-6,.51a.77.77,0,0,0-.66.48l-5,12.62a.76.76,0,0,0,.81,1l.35,0a.77.77,0,0,1,.85.82l-2.05,16a.76.76,0,0,0,.84.82l6.52-.55.11-.91L108,91.11a.77.77,0,0,0,.71-.65l.42-3.29a.77.77,0,0,0-.85-.82l-3.22.27a.75.75,0,0,1-.85-.82l.24-1.84.8-6.29.12-.93.8-6.28.2-1.55a.75.75,0,0,1,.7-.64l3.88-.33a.76.76,0,0,0,.71-.65l.42-3.29A.76.76,0,0,0,111.23,63.18ZM96.7,86.75a.76.76,0,0,1-.7.64l-2.64.23a.76.76,0,0,1-.84-.82l2-16-.92.07.4-1a.75.75,0,0,1,.66-.48L98,69a.75.75,0,0,1,.84.82Z"/><path class="cls-3" d="M111.23,63.18l-3.6.3a.76.76,0,0,1-.84-.63l-.2-1.35a.78.78,0,0,0-.84-.64l-6.08.52a.75.75,0,0,0-.7.83l.17,1.22a.74.74,0,0,1-.7.83l-1.1.1a.75.75,0,0,1-.8-1l.27-.69a.76.76,0,0,0-.81-1l-6,.51a.77.77,0,0,0-.66.48l-5,12.62a.76.76,0,0,0,.81,1l.35,0a.77.77,0,0,1,.85.82l-2.05,16a.76.76,0,0,0,.84.82l6.52-.55.11-.91L108,91.11a.77.77,0,0,0,.71-.65l.42-3.29a.77.77,0,0,0-.85-.82l-3.22.27a.75.75,0,0,1-.85-.82l.24-1.84.8-6.29.12-.93.8-6.28.2-1.55a.75.75,0,0,1,.7-.64l3.88-.33a.76.76,0,0,0,.71-.65l.42-3.29A.76.76,0,0,0,111.23,63.18ZM96.7,86.75a.76.76,0,0,1-.7.64l-2.64.23a.76.76,0,0,1-.84-.82l2-16-.92.07.4-1a.75.75,0,0,1,.66-.48L98,69a.75.75,0,0,1,.84.82Z"/><path class="cls-4" d="M111.23,63.18l-3.6.3a.76.76,0,0,1-.84-.63l-.2-1.35a.78.78,0,0,0-.84-.64l-6.08.52a.75.75,0,0,0-.7.83l.17,1.22a.74.74,0,0,1-.7.83l-1.1.1a.75.75,0,0,1-.8-1l.27-.69a.76.76,0,0,0-.81-1l-6,.51a.77.77,0,0,0-.66.48l-5,12.62a.76.76,0,0,0,.81,1l.35,0a.77.77,0,0,1,.85.82l-2.05,16a.76.76,0,0,0,.84.82l6.52-.55.11-.91L108,91.11a.77.77,0,0,0,.71-.65l.42-3.29a.77.77,0,0,0-.85-.82l-3.22.27a.75.75,0,0,1-.85-.82l.24-1.84.8-6.29.12-.93.8-6.28.2-1.55a.75.75,0,0,1,.7-.64l3.88-.33a.76.76,0,0,0,.71-.65l.42-3.29A.76.76,0,0,0,111.23,63.18ZM96.7,86.75a.76.76,0,0,1-.7.64l-2.64.23a.76.76,0,0,1-.84-.82l2-16-.92.07.4-1a.75.75,0,0,1,.66-.48L98,69a.75.75,0,0,1,.84.82Z"/><path class="cls-2" d="M87.45,71.2l-1.71-5.74a.76.76,0,0,0-.82-.53l-5.35.45a.75.75,0,0,0-.69.93l.54,1.86,1.15,3.71a1.17,1.17,0,0,0,1.25.78l5-.53A.74.74,0,0,0,87.45,71.2Z"/><path class="cls-2" d="M85.41,69.15,83.7,63.41a.78.78,0,0,0-.82-.53l-5.36.45a.75.75,0,0,0-.68.93l.53,1.87,1.16,3.7a1.16,1.16,0,0,0,1.25.78l4.94-.52A.75.75,0,0,0,85.41,69.15Z"/><path class="cls-3" d="M85.41,69.15,83.7,63.41a.78.78,0,0,0-.82-.53l-5.36.45a.75.75,0,0,0-.68.93l.53,1.87,1.16,3.7a1.16,1.16,0,0,0,1.25.78l4.94-.52A.75.75,0,0,0,85.41,69.15Z"/><path class="cls-4" d="M85.41,69.15,83.7,63.41a.78.78,0,0,0-.82-.53l-5.36.45a.75.75,0,0,0-.68.93l.53,1.87,1.16,3.7a1.16,1.16,0,0,0,1.25.78l4.94-.52A.75.75,0,0,0,85.41,69.15Z"/><path class="cls-2" d="M79.68,81.68,85,81.23a.76.76,0,0,0,.68-.94l-1.55-5.45a1.17,1.17,0,0,0-1.24-.8l-1.69.14-3.35.29a.74.74,0,0,0-.68.93l1.67,5.74A.78.78,0,0,0,79.68,81.68Z"/><path class="cls-2" d="M77.63,79.63,83,79.18a.74.74,0,0,0,.68-.94L82.1,72.8A1.16,1.16,0,0,0,80.87,72l-1.69.15-3.35.28a.75.75,0,0,0-.69.93l1.67,5.74A.78.78,0,0,0,77.63,79.63Z"/><path class="cls-3" d="M77.63,79.63,83,79.18a.74.74,0,0,0,.68-.94L82.1,72.8A1.16,1.16,0,0,0,80.87,72l-1.69.15-3.35.28a.75.75,0,0,0-.69.93l1.67,5.74A.78.78,0,0,0,77.63,79.63Z"/><path class="cls-4" d="M77.63,79.63,83,79.18a.74.74,0,0,0,.68-.94L82.1,72.8A1.16,1.16,0,0,0,80.87,72l-1.69.15-3.35.28a.75.75,0,0,0-.69.93l1.67,5.74A.78.78,0,0,0,77.63,79.63Z"/><polygon class="cls-2" points="100.02 78.81 103.63 80.33 107.49 78.18 108.1 73.39 104.67 71.31 100.63 74.02 100.02 78.81"/><polygon class="cls-2" points="97.97 76.77 101.59 78.28 105.44 76.14 106.06 71.35 102.62 69.27 98.58 71.98 97.97 76.77"/><polygon class="cls-3" points="97.97 76.77 101.59 78.28 105.44 76.14 106.06 71.35 102.62 69.27 98.58 71.98 97.97 76.77"/><polygon class="cls-4" points="97.97 76.77 101.59 78.28 105.44 76.14 106.06 71.35 102.62 69.27 98.58 71.98 97.97 76.77"/><path class="cls-2" d="M28.86,108.6l-4.19,4.68a.82.82,0,0,1-1.21,0l-4.31-5a.8.8,0,0,0-1.15-.06,50.63,50.63,0,0,1-9.06,6.66.82.82,0,0,1-1.17-.39l-1.69-4.78a.7.7,0,0,1,.25-.79q2.08-1.68,3.88-3.27a41,41,0,0,0,3.17-3.15.69.69,0,0,0,0-.94L8.68,96a.72.72,0,0,1-.15-.63L12.7,78.55a.76.76,0,0,0-.83-.91l-.82.07a.76.76,0,0,1-.85-.82l.68-5.34a.76.76,0,0,1,.7-.65l2.55-.22a.76.76,0,0,0,.69-.56l1.1-4.26a.77.77,0,0,1,.8-.57l6.68.34a.74.74,0,0,1,.71.93l-.68,2.34a.76.76,0,0,0,.83.93l8.85-.76a.76.76,0,0,1,.85.83l-.76,5.93-1.14.1c-.2,1.23-.4,2.42-.62,3.58A102.83,102.83,0,0,1,29,89.87a44,44,0,0,1-4.58,10.47.7.7,0,0,0,0,.75l4.49,6.63A.71.71,0,0,1,28.86,108.6ZM22.59,76.73l-.86.07a.78.78,0,0,0-.69.55L17.45,90.1a.72.72,0,0,0,.09.57l1,1.54a.81.81,0,0,0,1.41-.13,46.49,46.49,0,0,0,1.92-6,78,78,0,0,0,1.59-8.51A.77.77,0,0,0,22.59,76.73Zm8.35,14.33.71-5.57a.76.76,0,0,1,.7-.64l8.92-.76a.77.77,0,0,0,.71-.65l.14-1.15a.79.79,0,0,1,.11-.29l6.14-9.59a.74.74,0,0,0-.74-1.11l-11.8,1a.76.76,0,0,1-.84-.82l.72-5.65a.75.75,0,0,1,.7-.64l22.81-1.94a.77.77,0,0,1,.84.6l1.06,5.28a.72.72,0,0,1-.1.51L53.39,81.89A.74.74,0,0,0,54.13,83l4.73-.4a.75.75,0,0,1,.85.82L59,89a.77.77,0,0,1-.71.64l-6.1.52a.77.77,0,0,0-.71.65L48.9,111a.76.76,0,0,1-.7.64l-13.27,1.13a.78.78,0,0,1-.81-.5l-1.74-4.83a.74.74,0,0,1,.67-1l5.42-.46a.78.78,0,0,0,.71-.65L40.89,92a.77.77,0,0,0-.85-.82l-8.26.7A.75.75,0,0,1,30.94,91.06Z"/><path class="cls-2" d="M26.82,106.55l-4.2,4.68a.81.81,0,0,1-1.2,0l-4.32-5a.8.8,0,0,0-1.15,0,50.13,50.13,0,0,1-9.06,6.65.81.81,0,0,1-1.17-.39L4,107.61a.73.73,0,0,1,.24-.8c1.39-1.12,2.69-2.21,3.88-3.27a41.06,41.06,0,0,0,3.18-3.14.73.73,0,0,0,0-1L6.64,93.9a.69.69,0,0,1-.15-.63L10.66,76.5a.76.76,0,0,0-.84-.91L9,75.66a.75.75,0,0,1-.85-.82l.68-5.34a.76.76,0,0,1,.71-.64l2.54-.22a.75.75,0,0,0,.69-.56l1.1-4.27a.77.77,0,0,1,.8-.56l6.69.34a.74.74,0,0,1,.71.93l-.68,2.33a.75.75,0,0,0,.82.93L31.07,67a.75.75,0,0,1,.84.82l-.76,5.93-1.13.1c-.2,1.23-.41,2.43-.63,3.59A100.57,100.57,0,0,1,27,87.82a43.94,43.94,0,0,1-4.57,10.47.68.68,0,0,0,0,.76l4.48,6.63A.69.69,0,0,1,26.82,106.55ZM20.54,74.68l-.86.08a.77.77,0,0,0-.69.55L15.4,88.05a.71.71,0,0,0,.09.57l1,1.54a.8.8,0,0,0,1.4-.13,46.47,46.47,0,0,0,1.93-6,82.58,82.58,0,0,0,1.59-8.51A.78.78,0,0,0,20.54,74.68ZM28.89,89l.71-5.57a.76.76,0,0,1,.71-.65L39.22,82a.76.76,0,0,0,.71-.64l.15-1.15a.76.76,0,0,1,.1-.3l6.14-9.58a.75.75,0,0,0-.74-1.12l-11.79,1a.75.75,0,0,1-.85-.82l.72-5.64a.76.76,0,0,1,.71-.65L57.18,61.2a.77.77,0,0,1,.83.6l1.06,5.28a.7.7,0,0,1-.09.51L51.35,79.84A.74.74,0,0,0,52.09,81l4.73-.4a.76.76,0,0,1,.84.82L57,86.94a.76.76,0,0,1-.7.65l-6.11.52a.76.76,0,0,0-.7.64L46.86,109a.77.77,0,0,1-.71.65l-13.27,1.12a.78.78,0,0,1-.81-.49l-1.73-4.84a.73.73,0,0,1,.67-1l5.42-.46a.76.76,0,0,0,.7-.65L38.84,90a.75.75,0,0,0-.85-.82l-8.25.7A.76.76,0,0,1,28.89,89Z"/><path class="cls-3" d="M26.82,106.55l-4.2,4.68a.81.81,0,0,1-1.2,0l-4.32-5a.8.8,0,0,0-1.15,0,50.13,50.13,0,0,1-9.06,6.65.81.81,0,0,1-1.17-.39L4,107.61a.73.73,0,0,1,.24-.8c1.39-1.12,2.69-2.21,3.88-3.27a41.06,41.06,0,0,0,3.18-3.14.73.73,0,0,0,0-1L6.64,93.9a.69.69,0,0,1-.15-.63L10.66,76.5a.76.76,0,0,0-.84-.91L9,75.66a.75.75,0,0,1-.85-.82l.68-5.34a.76.76,0,0,1,.71-.64l2.54-.22a.75.75,0,0,0,.69-.56l1.1-4.27a.77.77,0,0,1,.8-.56l6.69.34a.74.74,0,0,1,.71.93l-.68,2.33a.75.75,0,0,0,.82.93L31.07,67a.75.75,0,0,1,.84.82l-.76,5.93-1.13.1c-.2,1.23-.41,2.43-.63,3.59A100.57,100.57,0,0,1,27,87.82a43.94,43.94,0,0,1-4.57,10.47.68.68,0,0,0,0,.76l4.48,6.63A.69.69,0,0,1,26.82,106.55ZM20.54,74.68l-.86.08a.77.77,0,0,0-.69.55L15.4,88.05a.71.71,0,0,0,.09.57l1,1.54a.8.8,0,0,0,1.4-.13,46.47,46.47,0,0,0,1.93-6,82.58,82.58,0,0,0,1.59-8.51A.78.78,0,0,0,20.54,74.68ZM28.89,89l.71-5.57a.76.76,0,0,1,.71-.65L39.22,82a.76.76,0,0,0,.71-.64l.15-1.15a.76.76,0,0,1,.1-.3l6.14-9.58a.75.75,0,0,0-.74-1.12l-11.79,1a.75.75,0,0,1-.85-.82l.72-5.64a.76.76,0,0,1,.71-.65L57.18,61.2a.77.77,0,0,1,.83.6l1.06,5.28a.7.7,0,0,1-.09.51L51.35,79.84A.74.74,0,0,0,52.09,81l4.73-.4a.76.76,0,0,1,.84.82L57,86.94a.76.76,0,0,1-.7.65l-6.11.52a.76.76,0,0,0-.7.64L46.86,109a.77.77,0,0,1-.71.65l-13.27,1.12a.78.78,0,0,1-.81-.49l-1.73-4.84a.73.73,0,0,1,.67-1l5.42-.46a.76.76,0,0,0,.7-.65L38.84,90a.75.75,0,0,0-.85-.82l-8.25.7A.76.76,0,0,1,28.89,89Z"/><path class="cls-4" d="M26.82,106.55l-4.2,4.68a.81.81,0,0,1-1.2,0l-4.32-5a.8.8,0,0,0-1.15,0,50.13,50.13,0,0,1-9.06,6.65.81.81,0,0,1-1.17-.39L4,107.61a.73.73,0,0,1,.24-.8c1.39-1.12,2.69-2.21,3.88-3.27a41.06,41.06,0,0,0,3.18-3.14.73.73,0,0,0,0-1L6.64,93.9a.69.69,0,0,1-.15-.63L10.66,76.5a.76.76,0,0,0-.84-.91L9,75.66a.75.75,0,0,1-.85-.82l.68-5.34a.76.76,0,0,1,.71-.64l2.54-.22a.75.75,0,0,0,.69-.56l1.1-4.27a.77.77,0,0,1,.8-.56l6.69.34a.74.74,0,0,1,.71.93l-.68,2.33a.75.75,0,0,0,.82.93L31.07,67a.75.75,0,0,1,.84.82l-.76,5.93-1.13.1c-.2,1.23-.41,2.43-.63,3.59A100.57,100.57,0,0,1,27,87.82a43.94,43.94,0,0,1-4.57,10.47.68.68,0,0,0,0,.76l4.48,6.63A.69.69,0,0,1,26.82,106.55ZM20.54,74.68l-.86.08a.77.77,0,0,0-.69.55L15.4,88.05a.71.71,0,0,0,.09.57l1,1.54a.8.8,0,0,0,1.4-.13,46.47,46.47,0,0,0,1.93-6,82.58,82.58,0,0,0,1.59-8.51A.78.78,0,0,0,20.54,74.68ZM28.89,89l.71-5.57a.76.76,0,0,1,.71-.65L39.22,82a.76.76,0,0,0,.71-.64l.15-1.15a.76.76,0,0,1,.1-.3l6.14-9.58a.75.75,0,0,0-.74-1.12l-11.79,1a.75.75,0,0,1-.85-.82l.72-5.64a.76.76,0,0,1,.71-.65L57.18,61.2a.77.77,0,0,1,.83.6l1.06,5.28a.7.7,0,0,1-.09.51L51.35,79.84A.74.74,0,0,0,52.09,81l4.73-.4a.76.76,0,0,1,.84.82L57,86.94a.76.76,0,0,1-.7.65l-6.11.52a.76.76,0,0,0-.7.64L46.86,109a.77.77,0,0,1-.71.65l-13.27,1.12a.78.78,0,0,1-.81-.49l-1.73-4.84a.73.73,0,0,1,.67-1l5.42-.46a.76.76,0,0,0,.7-.65L38.84,90a.75.75,0,0,0-.85-.82l-8.25.7A.76.76,0,0,1,28.89,89Z"/><path class="cls-2" d="M141.47,57.55l-4.35,34.12a.76.76,0,0,1-.71.64l-9.36.8a.76.76,0,0,0-.67.5L123,103a.78.78,0,0,1-.67.5l-5.93.5a.75.75,0,0,1-.81-1l3-8.17a.75.75,0,0,0-.81-1h0a.75.75,0,0,1-.84-.82l4.75-37.25a.75.75,0,0,1,.7-.65l5.77-.49a.76.76,0,0,1,.85.82l-.3,2.38a.78.78,0,0,0,1.42.5l2.74-3.82a.77.77,0,0,1,.58-.33l5.46-.46a.78.78,0,0,1,.75.37l1.79,3A.67.67,0,0,1,141.47,57.55ZM133.56,62l-.42-.67a.81.81,0,0,0-.74-.36l-3.64.31a.77.77,0,0,0-.71.65l-.42,3.29a.76.76,0,0,0,.85.82l4.15-.35a.76.76,0,0,0,.7-.65l.33-2.58A.68.68,0,0,0,133.56,62ZM131.5,72l-4.15.35a.76.76,0,0,0-.7.65l-.31,2.45a.75.75,0,0,0,.84.82l4.15-.35a.77.77,0,0,0,.71-.65l.31-2.45A.76.76,0,0,0,131.5,72ZM130.18,82.4l-4.15.35a.77.77,0,0,0-.71.64L125,85.93a.76.76,0,0,0,.84.82L130,86.4a.79.79,0,0,0,.71-.65l.32-2.53A.75.75,0,0,0,130.18,82.4Zm25.55-27.57,2.56-.22,9.91-.84,2.77-.24a.77.77,0,0,1,.85.82l-.66,5.12a.75.75,0,0,1-.7.64l-6,.51a.76.76,0,0,0-.7.65l0,.33a.76.76,0,0,0,.84.82l2.67-.23a.81.81,0,0,1,.74.35l1.79,2.82a.69.69,0,0,1,.11.46l-.62,4.92,1.08-.09-.85,6.61-1.08.09-1.13,8.9a.77.77,0,0,1-.71.65l-1.22.1a.76.76,0,0,0-.71.72l-.31,11a.75.75,0,0,1-.71.71l-2.11.18a.76.76,0,0,1-.85-.75L161.24,81l-2.48,19.46a.77.77,0,0,1-.71.65l-5.61.48a.76.76,0,0,1-.84-.83l1.51-11.87a.76.76,0,0,0-.85-.82l-.3,0a.77.77,0,0,0-.71.64l-1.59,12.49a.76.76,0,0,1-.71.65l-5.61.48a.76.76,0,0,1-.84-.82l1.63-12.78-.6,0-2.66,12a.76.76,0,0,1-.69.58l-2.06.18a.75.75,0,0,1-.83-.89l2.56-11.58-1,.08.73-5.79a.77.77,0,0,1,.71-.65l4-.34a.77.77,0,0,0,.71-.64l.19-1.55a.76.76,0,0,0-.84-.82l-3.66.31a.75.75,0,0,1-.84-.82l.65-5.11a.76.76,0,0,1,.7-.65l4.32-.36a.79.79,0,0,0,.71-.65l.13-1.09a.76.76,0,0,0-.84-.82l-3.17.27a.76.76,0,0,1-.84-.82l.61-4.81a.76.76,0,0,1,.7-.65l3.83-.32a.77.77,0,0,0,.71-.65l0-.33a.76.76,0,0,0-.84-.82l-3.5.3a.76.76,0,0,1-.84-.82l.65-5.12a.76.76,0,0,1,.7-.64l2.4-.21Zm-.1,6.47-.31,0a.76.76,0,0,0-.7.65l0,.25a.77.77,0,0,0,.85.82l.3,0a.76.76,0,0,0,.71-.65l0-.25A.75.75,0,0,0,155.63,61.3Zm-1,8.2-.3,0a.76.76,0,0,0-.71.65l-.14,1.08a.75.75,0,0,0,.85.82l.3,0a.77.77,0,0,0,.71-.65l.14-1.09A.76.76,0,0,0,154.58,69.5Zm-1.16,9.12-.31,0a.76.76,0,0,0-.7.64l-.21,1.62a.75.75,0,0,0,.85.82l.3,0a.77.77,0,0,0,.71-.65l.2-1.62A.76.76,0,0,0,153.42,78.62Zm10.46-7.35.14-1.14-.84-1.36-.38,0-.33,2.58ZM161.24,81l1.41-.12L163,77.8l-1.41.12Z"/><path class="cls-2" d="M139.42,55.51l-4.35,34.11a.75.75,0,0,1-.7.65l-9.37.79a.78.78,0,0,0-.67.5l-3.4,9.4a.76.76,0,0,1-.66.5l-5.94.5a.75.75,0,0,1-.81-1l3-8.16a.75.75,0,0,0-.8-1h0a.76.76,0,0,1-.85-.83l4.75-37.25a.76.76,0,0,1,.71-.64l5.77-.49a.75.75,0,0,1,.84.82l-.3,2.38a.78.78,0,0,0,1.42.5l2.74-3.83a.81.81,0,0,1,.58-.32l5.47-.47a.8.8,0,0,1,.74.37l1.8,2.95A.74.74,0,0,1,139.42,55.51ZM131.51,60l-.41-.67a.79.79,0,0,0-.75-.36l-3.64.31a.76.76,0,0,0-.7.64l-.42,3.29a.76.76,0,0,0,.84.83l4.15-.36a.77.77,0,0,0,.71-.64l.33-2.58A.69.69,0,0,0,131.51,60Zm-2,9.94-4.15.35a.77.77,0,0,0-.71.65l-.31,2.46a.76.76,0,0,0,.84.82l4.15-.36a.76.76,0,0,0,.71-.64l.31-2.46A.76.76,0,0,0,129.46,69.94Zm-1.33,10.41L124,80.7a.75.75,0,0,0-.7.65L123,83.88a.76.76,0,0,0,.85.82l4.15-.35a.76.76,0,0,0,.7-.65l.33-2.53A.77.77,0,0,0,128.13,80.35Zm25.55-27.57,2.56-.22,9.91-.84,2.77-.23a.75.75,0,0,1,.85.82l-.65,5.11a.77.77,0,0,1-.71.65l-6,.51a.77.77,0,0,0-.71.64l0,.33a.75.75,0,0,0,.84.82l2.67-.22a.78.78,0,0,1,.74.35l1.8,2.81a.7.7,0,0,1,.11.47l-.63,4.91,1.08-.09-.84,6.61-1.08.09-1.14,8.91a.76.76,0,0,1-.7.64l-1.23.11a.76.76,0,0,0-.71.71l-.3,11a.77.77,0,0,1-.72.72l-2.11.18a.77.77,0,0,1-.85-.76L159.19,79l-2.48,19.47a.76.76,0,0,1-.71.64l-5.61.48a.76.76,0,0,1-.84-.82l1.51-11.87a.75.75,0,0,0-.84-.82l-.31,0a.75.75,0,0,0-.7.65l-1.6,12.49a.77.77,0,0,1-.7.65l-5.61.47a.76.76,0,0,1-.85-.82l1.63-12.77-.59,0-2.67,12a.77.77,0,0,1-.69.59l-2.06.17a.75.75,0,0,1-.83-.88l2.56-11.59-1,.08.74-5.79a.76.76,0,0,1,.7-.64l4-.34a.76.76,0,0,0,.71-.65l.2-1.54a.76.76,0,0,0-.85-.82l-3.65.31a.76.76,0,0,1-.85-.82l.65-5.12a.77.77,0,0,1,.71-.64l4.31-.37a.76.76,0,0,0,.71-.65l.14-1.08a.76.76,0,0,0-.85-.83l-3.17.27a.75.75,0,0,1-.84-.82l.61-4.81a.77.77,0,0,1,.71-.64l3.83-.33a.76.76,0,0,0,.7-.65l0-.32a.75.75,0,0,0-.84-.82l-3.49.29a.76.76,0,0,1-.85-.82l.65-5.11a.77.77,0,0,1,.71-.65l2.4-.2Zm-.1,6.47-.3,0a.76.76,0,0,0-.71.64l0,.26a.76.76,0,0,0,.84.82l.31,0a.75.75,0,0,0,.7-.65l0-.25A.76.76,0,0,0,153.58,59.25Zm-1,8.21-.31,0a.77.77,0,0,0-.71.65l-.13,1.09a.76.76,0,0,0,.84.82l.31,0a.76.76,0,0,0,.7-.64l.14-1.09A.75.75,0,0,0,152.54,67.46Zm-1.17,9.11-.3,0a.77.77,0,0,0-.71.65l-.2,1.62a.76.76,0,0,0,.84.82l.31,0A.76.76,0,0,0,152,79l.21-1.61A.76.76,0,0,0,151.37,76.57Zm10.46-7.35.14-1.14-.84-1.35-.38,0-.33,2.58ZM159.19,79l1.41-.12.4-3.11-1.41.12Z"/><path class="cls-3" d="M139.42,55.51l-4.35,34.11a.75.75,0,0,1-.7.65l-9.37.79a.78.78,0,0,0-.67.5l-3.4,9.4a.76.76,0,0,1-.66.5l-5.94.5a.75.75,0,0,1-.81-1l3-8.16a.75.75,0,0,0-.8-1h0a.76.76,0,0,1-.85-.83l4.75-37.25a.76.76,0,0,1,.71-.64l5.77-.49a.75.75,0,0,1,.84.82l-.3,2.38a.78.78,0,0,0,1.42.5l2.74-3.83a.81.81,0,0,1,.58-.32l5.47-.47a.8.8,0,0,1,.74.37l1.8,2.95A.74.74,0,0,1,139.42,55.51ZM131.51,60l-.41-.67a.79.79,0,0,0-.75-.36l-3.64.31a.76.76,0,0,0-.7.64l-.42,3.29a.76.76,0,0,0,.84.83l4.15-.36a.77.77,0,0,0,.71-.64l.33-2.58A.69.69,0,0,0,131.51,60Zm-2,9.94-4.15.35a.77.77,0,0,0-.71.65l-.31,2.46a.76.76,0,0,0,.84.82l4.15-.36a.76.76,0,0,0,.71-.64l.31-2.46A.76.76,0,0,0,129.46,69.94Zm-1.33,10.41L124,80.7a.75.75,0,0,0-.7.65L123,83.88a.76.76,0,0,0,.85.82l4.15-.35a.76.76,0,0,0,.7-.65l.33-2.53A.77.77,0,0,0,128.13,80.35Zm25.55-27.57,2.56-.22,9.91-.84,2.77-.23a.75.75,0,0,1,.85.82l-.65,5.11a.77.77,0,0,1-.71.65l-6,.51a.77.77,0,0,0-.71.64l0,.33a.75.75,0,0,0,.84.82l2.67-.22a.78.78,0,0,1,.74.35l1.8,2.81a.7.7,0,0,1,.11.47l-.63,4.91,1.08-.09-.84,6.61-1.08.09-1.14,8.91a.76.76,0,0,1-.7.64l-1.23.11a.76.76,0,0,0-.71.71l-.3,11a.77.77,0,0,1-.72.72l-2.11.18a.77.77,0,0,1-.85-.76L159.19,79l-2.48,19.47a.76.76,0,0,1-.71.64l-5.61.48a.76.76,0,0,1-.84-.82l1.51-11.87a.75.75,0,0,0-.84-.82l-.31,0a.75.75,0,0,0-.7.65l-1.6,12.49a.77.77,0,0,1-.7.65l-5.61.47a.76.76,0,0,1-.85-.82l1.63-12.77-.59,0-2.67,12a.77.77,0,0,1-.69.59l-2.06.17a.75.75,0,0,1-.83-.88l2.56-11.59-1,.08.74-5.79a.76.76,0,0,1,.7-.64l4-.34a.76.76,0,0,0,.71-.65l.2-1.54a.76.76,0,0,0-.85-.82l-3.65.31a.76.76,0,0,1-.85-.82l.65-5.12a.77.77,0,0,1,.71-.64l4.31-.37a.76.76,0,0,0,.71-.65l.14-1.08a.76.76,0,0,0-.85-.83l-3.17.27a.75.75,0,0,1-.84-.82l.61-4.81a.77.77,0,0,1,.71-.64l3.83-.33a.76.76,0,0,0,.7-.65l0-.32a.75.75,0,0,0-.84-.82l-3.49.29a.76.76,0,0,1-.85-.82l.65-5.11a.77.77,0,0,1,.71-.65l2.4-.2Zm-.1,6.47-.3,0a.76.76,0,0,0-.71.64l0,.26a.76.76,0,0,0,.84.82l.31,0a.75.75,0,0,0,.7-.65l0-.25A.76.76,0,0,0,153.58,59.25Zm-1,8.21-.31,0a.77.77,0,0,0-.71.65l-.13,1.09a.76.76,0,0,0,.84.82l.31,0a.76.76,0,0,0,.7-.64l.14-1.09A.75.75,0,0,0,152.54,67.46Zm-1.17,9.11-.3,0a.77.77,0,0,0-.71.65l-.2,1.62a.76.76,0,0,0,.84.82l.31,0A.76.76,0,0,0,152,79l.21-1.61A.76.76,0,0,0,151.37,76.57Zm10.46-7.35.14-1.14-.84-1.35-.38,0-.33,2.58ZM159.19,79l1.41-.12.4-3.11-1.41.12Z"/><path class="cls-4" d="M139.42,55.51l-4.35,34.11a.75.75,0,0,1-.7.65l-9.37.79a.78.78,0,0,0-.67.5l-3.4,9.4a.76.76,0,0,1-.66.5l-5.94.5a.75.75,0,0,1-.81-1l3-8.16a.75.75,0,0,0-.8-1h0a.76.76,0,0,1-.85-.83l4.75-37.25a.76.76,0,0,1,.71-.64l5.77-.49a.75.75,0,0,1,.84.82l-.3,2.38a.78.78,0,0,0,1.42.5l2.74-3.83a.81.81,0,0,1,.58-.32l5.47-.47a.8.8,0,0,1,.74.37l1.8,2.95A.74.74,0,0,1,139.42,55.51ZM131.51,60l-.41-.67a.79.79,0,0,0-.75-.36l-3.64.31a.76.76,0,0,0-.7.64l-.42,3.29a.76.76,0,0,0,.84.83l4.15-.36a.77.77,0,0,0,.71-.64l.33-2.58A.69.69,0,0,0,131.51,60Zm-2,9.94-4.15.35a.77.77,0,0,0-.71.65l-.31,2.46a.76.76,0,0,0,.84.82l4.15-.36a.76.76,0,0,0,.71-.64l.31-2.46A.76.76,0,0,0,129.46,69.94Zm-1.33,10.41L124,80.7a.75.75,0,0,0-.7.65L123,83.88a.76.76,0,0,0,.85.82l4.15-.35a.76.76,0,0,0,.7-.65l.33-2.53A.77.77,0,0,0,128.13,80.35Zm25.55-27.57,2.56-.22,9.91-.84,2.77-.23a.75.75,0,0,1,.85.82l-.65,5.11a.77.77,0,0,1-.71.65l-6,.51a.77.77,0,0,0-.71.64l0,.33a.75.75,0,0,0,.84.82l2.67-.22a.78.78,0,0,1,.74.35l1.8,2.81a.7.7,0,0,1,.11.47l-.63,4.91,1.08-.09-.84,6.61-1.08.09-1.14,8.91a.76.76,0,0,1-.7.64l-1.23.11a.76.76,0,0,0-.71.71l-.3,11a.77.77,0,0,1-.72.72l-2.11.18a.77.77,0,0,1-.85-.76L159.19,79l-2.48,19.47a.76.76,0,0,1-.71.64l-5.61.48a.76.76,0,0,1-.84-.82l1.51-11.87a.75.75,0,0,0-.84-.82l-.31,0a.75.75,0,0,0-.7.65l-1.6,12.49a.77.77,0,0,1-.7.65l-5.61.47a.76.76,0,0,1-.85-.82l1.63-12.77-.59,0-2.67,12a.77.77,0,0,1-.69.59l-2.06.17a.75.75,0,0,1-.83-.88l2.56-11.59-1,.08.74-5.79a.76.76,0,0,1,.7-.64l4-.34a.76.76,0,0,0,.71-.65l.2-1.54a.76.76,0,0,0-.85-.82l-3.65.31a.76.76,0,0,1-.85-.82l.65-5.12a.77.77,0,0,1,.71-.64l4.31-.37a.76.76,0,0,0,.71-.65l.14-1.08a.76.76,0,0,0-.85-.83l-3.17.27a.75.75,0,0,1-.84-.82l.61-4.81a.77.77,0,0,1,.71-.64l3.83-.33a.76.76,0,0,0,.7-.65l0-.32a.75.75,0,0,0-.84-.82l-3.49.29a.76.76,0,0,1-.85-.82l.65-5.11a.77.77,0,0,1,.71-.65l2.4-.2Zm-.1,6.47-.3,0a.76.76,0,0,0-.71.64l0,.26a.76.76,0,0,0,.84.82l.31,0a.75.75,0,0,0,.7-.65l0-.25A.76.76,0,0,0,153.58,59.25Zm-1,8.21-.31,0a.77.77,0,0,0-.71.65l-.13,1.09a.76.76,0,0,0,.84.82l.31,0a.76.76,0,0,0,.7-.64l.14-1.09A.75.75,0,0,0,152.54,67.46Zm-1.17,9.11-.3,0a.77.77,0,0,0-.71.65l-.2,1.62a.76.76,0,0,0,.84.82l.31,0A.76.76,0,0,0,152,79l.21-1.61A.76.76,0,0,0,151.37,76.57Zm10.46-7.35.14-1.14-.84-1.35-.38,0-.33,2.58ZM159.19,79l1.41-.12.4-3.11-1.41.12Z"/><path class="cls-2" d="M154.4,56.08l-5.34.47a.76.76,0,0,1-.84-.81l.48-5.62a1.14,1.14,0,0,1,1.06-1l1.69-.14,3.34-.29a.74.74,0,0,1,.85.79l-.53,5.94A.78.78,0,0,1,154.4,56.08Z"/><path class="cls-2" d="M152.35,54,147,54.5a.76.76,0,0,1-.85-.81l.48-5.62a1.14,1.14,0,0,1,1.06-1l1.69-.15,3.35-.29a.77.77,0,0,1,.85.8l-.54,5.93A.76.76,0,0,1,152.35,54Z"/><path class="cls-3" d="M152.35,54,147,54.5a.76.76,0,0,1-.85-.81l.48-5.62a1.14,1.14,0,0,1,1.06-1l1.69-.15,3.35-.29a.77.77,0,0,1,.85.8l-.54,5.93A.76.76,0,0,1,152.35,54Z"/><path class="cls-4" d="M152.35,54,147,54.5a.76.76,0,0,1-.85-.81l.48-5.62a1.14,1.14,0,0,1,1.06-1l1.69-.15,3.35-.29a.77.77,0,0,1,.85.8l-.54,5.93A.76.76,0,0,1,152.35,54Z"/><path class="cls-2" d="M123.9,90.49l-.56,4.61a.73.73,0,0,0,.37.71l11,6.39a.79.79,0,0,0,1.19-.54l.56-4.7a.72.72,0,0,0-.37-.71l-11-6.3A.78.78,0,0,0,123.9,90.49Z"/><path class="cls-2" d="M121.85,88.45l-.55,4.6a.7.7,0,0,0,.36.71l11,6.4a.79.79,0,0,0,1.19-.55l.57-4.69a.74.74,0,0,0-.37-.72l-11-6.3A.79.79,0,0,0,121.85,88.45Z"/><path class="cls-3" d="M121.85,88.45l-.55,4.6a.7.7,0,0,0,.36.71l11,6.4a.79.79,0,0,0,1.19-.55l.57-4.69a.74.74,0,0,0-.37-.72l-11-6.3A.79.79,0,0,0,121.85,88.45Z"/><path class="cls-4" d="M121.85,88.45l-.55,4.6a.7.7,0,0,0,.36.71l11,6.4a.79.79,0,0,0,1.19-.55l.57-4.69a.74.74,0,0,0-.37-.72l-11-6.3A.79.79,0,0,0,121.85,88.45Z"/><path class="cls-2" d="M122,61.81l-2.91.24a.26.26,0,0,1-.3-.29l.25-2a.26.26,0,0,1,.25-.23l3.15-.27,4.54-.39,1.68-.14a.27.27,0,0,1,.29.29l-.25,2a.27.27,0,0,1-.25.23l-2.15.18Z"/><path class="cls-2" d="M120,59.76l-2.92.25a.28.28,0,0,1-.3-.29l.25-2a.28.28,0,0,1,.25-.23l3.15-.27,4.55-.38,1.67-.14a.27.27,0,0,1,.3.29l-.25,2a.27.27,0,0,1-.25.23l-2.16.19Z"/><path class="cls-3" d="M120,59.76l-2.92.25a.28.28,0,0,1-.3-.29l.25-2a.28.28,0,0,1,.25-.23l3.15-.27,4.55-.38,1.67-.14a.27.27,0,0,1,.3.29l-.25,2a.27.27,0,0,1-.25.23l-2.16.19Z"/><path class="cls-4" d="M120,59.76l-2.92.25a.28.28,0,0,1-.3-.29l.25-2a.28.28,0,0,1,.25-.23l3.15-.27,4.55-.38,1.67-.14a.27.27,0,0,1,.3.29l-.25,2a.27.27,0,0,1-.25.23l-2.16.19Z"/><path class="cls-2" d="M235.64,76.1l-2.92.25a.28.28,0,0,1-.3-.29l.25-2a.28.28,0,0,1,.25-.23l3.15-.27,4.55-.38,1.67-.14a.26.26,0,0,1,.3.29l-.25,2a.27.27,0,0,1-.25.23l-2.16.19Z"/><path class="cls-2" d="M233.59,74.05l-2.91.25a.26.26,0,0,1-.3-.29l.25-2a.26.26,0,0,1,.25-.22l3.15-.27,4.54-.39,1.67-.14a.27.27,0,0,1,.3.29l-.25,2a.27.27,0,0,1-.25.23l-2.15.18Z"/><path class="cls-3" d="M233.59,74.05l-2.91.25a.26.26,0,0,1-.3-.29l.25-2a.26.26,0,0,1,.25-.22l3.15-.27,4.54-.39,1.67-.14a.27.27,0,0,1,.3.29l-.25,2a.27.27,0,0,1-.25.23l-2.15.18Z"/><path class="cls-4" d="M233.59,74.05l-2.91.25a.26.26,0,0,1-.3-.29l.25-2a.26.26,0,0,1,.25-.22l3.15-.27,4.54-.39,1.67-.14a.27.27,0,0,1,.3.29l-.25,2a.27.27,0,0,1-.25.23l-2.15.18Z"/><path class="cls-2" d="M179.06,99.9,176.63,94A.9.9,0,0,1,177,92.9,60.82,60.82,0,0,0,189,82.35a56.78,56.78,0,0,0,8.54-13.13.91.91,0,0,0-.91-1.29l-15.47,1.33a.91.91,0,0,1-1-1l.7-5.57a.91.91,0,0,1,.82-.8L198.9,60.4a.91.91,0,0,0,.82-.79l1-7.6a.91.91,0,0,1,.82-.79l10.38-.89a.92.92,0,0,1,1,1L212,58.17a.91.91,0,0,0,1,1l17-1.46a.91.91,0,0,1,1,1l-.7,5.58a.91.91,0,0,1-.82.79l-18,1.54a.91.91,0,0,0-.76.56,65.16,65.16,0,0,1-4.88,9.57A.91.91,0,0,0,207,78.11l7.18-3a.92.92,0,0,1,1.09.3L226,90a.91.91,0,0,1-.07,1.16l-5.2,5.51a.9.9,0,0,1-1.26,0l-16.16-14.5a.9.9,0,0,0-1.32.13,62.36,62.36,0,0,1-9.89,10.18,74.15,74.15,0,0,1-11.74,7.81A.92.92,0,0,1,179.06,99.9Z"/><path class="cls-2" d="M177,97.85,174.59,92a.9.9,0,0,1,.34-1.1A60.44,60.44,0,0,0,187,80.3a56.57,56.57,0,0,0,8.54-13.13.9.9,0,0,0-.9-1.28l-15.48,1.33a.92.92,0,0,1-1-1l.7-5.58a.92.92,0,0,1,.83-.79l17.17-1.48a.91.91,0,0,0,.83-.79l.95-7.59a.9.9,0,0,1,.82-.79l10.38-.89a.9.9,0,0,1,1,1L210,56.13a.92.92,0,0,0,1,1l17-1.46a.9.9,0,0,1,1,1l-.7,5.58a.89.89,0,0,1-.82.79l-18,1.54a.89.89,0,0,0-.75.56,67.83,67.83,0,0,1-4.88,9.58.9.9,0,0,0,1.12,1.31l7.18-3a.89.89,0,0,1,1.08.3L223.93,88a.91.91,0,0,1-.07,1.16l-5.2,5.52a.92.92,0,0,1-1.27,0L201.24,80.2a.91.91,0,0,0-1.32.12A61.62,61.62,0,0,1,190,90.5a73.16,73.16,0,0,1-11.73,7.81A.92.92,0,0,1,177,97.85Z"/><path class="cls-3" d="M177,97.85,174.59,92a.9.9,0,0,1,.34-1.1A60.44,60.44,0,0,0,187,80.3a56.57,56.57,0,0,0,8.54-13.13.9.9,0,0,0-.9-1.28l-15.48,1.33a.92.92,0,0,1-1-1l.7-5.58a.92.92,0,0,1,.83-.79l17.17-1.48a.91.91,0,0,0,.83-.79l.95-7.59a.9.9,0,0,1,.82-.79l10.38-.89a.9.9,0,0,1,1,1L210,56.13a.92.92,0,0,0,1,1l17-1.46a.9.9,0,0,1,1,1l-.7,5.58a.89.89,0,0,1-.82.79l-18,1.54a.89.89,0,0,0-.75.56,67.83,67.83,0,0,1-4.88,9.58.9.9,0,0,0,1.12,1.31l7.18-3a.89.89,0,0,1,1.08.3L223.93,88a.91.91,0,0,1-.07,1.16l-5.2,5.52a.92.92,0,0,1-1.27,0L201.24,80.2a.91.91,0,0,0-1.32.12A61.62,61.62,0,0,1,190,90.5a73.16,73.16,0,0,1-11.73,7.81A.92.92,0,0,1,177,97.85Z"/><path class="cls-4" d="M177,97.85,174.59,92a.9.9,0,0,1,.34-1.1A60.44,60.44,0,0,0,187,80.3a56.57,56.57,0,0,0,8.54-13.13.9.9,0,0,0-.9-1.28l-15.48,1.33a.92.92,0,0,1-1-1l.7-5.58a.92.92,0,0,1,.83-.79l17.17-1.48a.91.91,0,0,0,.83-.79l.95-7.59a.9.9,0,0,1,.82-.79l10.38-.89a.9.9,0,0,1,1,1L210,56.13a.92.92,0,0,0,1,1l17-1.46a.9.9,0,0,1,1,1l-.7,5.58a.89.89,0,0,1-.82.79l-18,1.54a.89.89,0,0,0-.75.56,67.83,67.83,0,0,1-4.88,9.58.9.9,0,0,0,1.12,1.31l7.18-3a.89.89,0,0,1,1.08.3L223.93,88a.91.91,0,0,1-.07,1.16l-5.2,5.52a.92.92,0,0,1-1.27,0L201.24,80.2a.91.91,0,0,0-1.32.12A61.62,61.62,0,0,1,190,90.5a73.16,73.16,0,0,1-11.73,7.81A.92.92,0,0,1,177,97.85Z"/><path class="cls-2" d="M249,86.48l12.52-1.07a.92.92,0,0,0,.74-.5l.77-1.54a.88.88,0,0,1,.73-.5l9.11-.79a.74.74,0,0,1,.72,1.07l-.05.1a.74.74,0,0,0,.73,1.06l5.29-.45a.9.9,0,0,1,1,1l-.43,3.5a.92.92,0,0,1-.83.79l-49.18,4.22a.91.91,0,0,1-1-1l.44-3.5a.91.91,0,0,1,.82-.79l5.87-.5a.92.92,0,0,0,.81-1.13l-.06-.23a.91.91,0,0,1,.8-1.13l9.09-.78a.91.91,0,0,1,1,.69l.2.8A.9.9,0,0,0,249,86.48Zm33.76-24.92-.48,3.88a.92.92,0,0,1-.83.79l-47.77,4.1a.92.92,0,0,1-1-1l.49-3.87a.89.89,0,0,1,.82-.79l47.77-4.1A.9.9,0,0,1,282.78,61.56Zm-10-15.36-.09.74.95-.08a.92.92,0,0,1,1,1l-.18,1.42a.9.9,0,0,1-.82.79l-1.34.12-.09.74,1.27-.11a.91.91,0,0,1,1,1l-.17,1.35a.91.91,0,0,1-.82.79l-1.66.14-.1.74,2.43-.2a.92.92,0,0,0,.82-.8l1.27-10.11A.89.89,0,0,1,277,43l5.82-.5a.9.9,0,0,1,1,1l-1.93,15.38a.91.91,0,0,1-.82.79l-45.27,3.88a.91.91,0,0,1-1-1l1.93-15.37a.91.91,0,0,1,.82-.79l5.82-.5a.92.92,0,0,1,1,1l-1.18,9.35a.91.91,0,0,0,1,1l2-.18.1-.74-1.28.11a.9.9,0,0,1-1-1l.17-1.35a.91.91,0,0,1,.82-.79l1.66-.14.09-.74-1,.08a.9.9,0,0,1-1-1L245,50a.91.91,0,0,1,.82-.79l1.39-.12.09-.74-1.16.1a.91.91,0,0,1-1-1l.14-1.12a.91.91,0,0,1,.83-.79l1.55-.14.1-.81,5.65-.49-.1.82,1.27-.11a.91.91,0,0,1,1,1L255.42,47a.9.9,0,0,1-.82.79l-1.66.14-.1.75.95-.08a.9.9,0,0,1,1,1L254.59,51a.91.91,0,0,1-.82.79l-1.34.11-.09.74,1.27-.11a.91.91,0,0,1,1,1l-.17,1.35a.91.91,0,0,1-.82.79l-1.66.14-.09.75,2.36-.21a.91.91,0,0,0,.83-.79L256.49,44a.92.92,0,0,1,.83-.79l6.14-.53a.9.9,0,0,1,1,1l-1.36,10.83a.92.92,0,0,0,1,1l2-.17.1-.74-1.28.11a.92.92,0,0,1-1-1l.17-1.35a.92.92,0,0,1,.83-.79l1.66-.14.09-.75-.95.09a.92.92,0,0,1-1-1l.18-1.42a.92.92,0,0,1,.83-.8l1.33-.11.09-.74-1.16.1a.91.91,0,0,1-1-1l.14-1.13a.91.91,0,0,1,.82-.79l1.55-.13.11-.82,5.65-.48-.1.81,1.27-.1a.9.9,0,0,1,1,1l-.14,1.13a.92.92,0,0,1-.83.79Zm6.35,25.69-1,8.07a.91.91,0,0,1-.83.79l-43,3.69a.9.9,0,0,1-1-1L234.75,72a.92.92,0,0,1,.83-.8l8.63-.74a.91.91,0,0,1,1,1h0a.91.91,0,0,0,1.68.59l.94-1.55a.92.92,0,0,1,.7-.44l27.59-2.36a.92.92,0,0,1,.84.41l2,3.16A.86.86,0,0,1,279.12,71.89Zm-10.86,3.84-.69-1.07a.9.9,0,0,0-.84-.41L245.2,76.09a.74.74,0,0,0-.67.65l0,.21a.73.73,0,0,0,.79.82l22.95-2Z"/><path class="cls-2" d="M247,84.44l12.53-1.08a.92.92,0,0,0,.73-.5l.77-1.54a.92.92,0,0,1,.74-.5l9.1-.78a.74.74,0,0,1,.73,1.06l-.05.1a.74.74,0,0,0,.72,1.07l5.29-.46a.91.91,0,0,1,1,1l-.44,3.5a.9.9,0,0,1-.82.79l-49.19,4.22a.91.91,0,0,1-1-1l.44-3.5a.92.92,0,0,1,.83-.8l5.87-.5a.91.91,0,0,0,.8-1.12l-.06-.24a.91.91,0,0,1,.81-1.12l9.09-.78a.91.91,0,0,1,1,.68l.19.8A.93.93,0,0,0,247,84.44Zm33.77-24.92-.49,3.87a.91.91,0,0,1-.82.79l-47.78,4.1a.9.9,0,0,1-1-1l.48-3.87a.92.92,0,0,1,.83-.79l47.77-4.1A.92.92,0,0,1,280.74,59.52Zm-10-15.36-.1.74.95-.08a.9.9,0,0,1,1,1l-.18,1.43a.91.91,0,0,1-.82.79l-1.33.11-.1.74,1.28-.1a.9.9,0,0,1,1,1l-.17,1.35a.89.89,0,0,1-.82.79l-1.66.15-.09.74,2.42-.21a.91.91,0,0,0,.82-.79l1.27-10.12a.92.92,0,0,1,.83-.79l5.81-.5a.92.92,0,0,1,1,1l-1.93,15.37a.92.92,0,0,1-.83.79L233.74,61.5a.92.92,0,0,1-1-1l1.93-15.37a.91.91,0,0,1,.83-.79l5.81-.5a.9.9,0,0,1,1,1l-1.17,9.35a.9.9,0,0,0,1,1l2-.17.09-.75-1.27.11a.91.91,0,0,1-1-1l.17-1.34a.91.91,0,0,1,.82-.8l1.66-.14.1-.74-1,.09a.92.92,0,0,1-1-1l.18-1.42a.91.91,0,0,1,.83-.79l1.38-.12.1-.75-1.17.1a.9.9,0,0,1-1-1l.14-1.13a.91.91,0,0,1,.82-.79l1.55-.13.1-.82,5.66-.48-.11.81,1.28-.11a.9.9,0,0,1,1,1l-.14,1.12a.91.91,0,0,1-.82.8l-1.66.14-.09.74.94-.08a.91.91,0,0,1,1,1L252.54,49a.91.91,0,0,1-.82.79l-1.33.12-.1.74,1.28-.11a.91.91,0,0,1,1,1l-.17,1.34a.92.92,0,0,1-.83.8l-1.66.14-.09.74,2.37-.2a.91.91,0,0,0,.82-.79l1.46-11.61a.91.91,0,0,1,.82-.79l6.14-.52a.91.91,0,0,1,1,1L261,52.47a.91.91,0,0,0,1,1l2-.17.09-.74-1.27.11a.91.91,0,0,1-1-1l.17-1.35a.91.91,0,0,1,.82-.79l1.66-.14.09-.74-.94.08a.91.91,0,0,1-1-1l.18-1.42a.89.89,0,0,1,.82-.79l1.33-.12.1-.74-1.17.1a.91.91,0,0,1-1-1l.14-1.12a.91.91,0,0,1,.83-.79l1.55-.14.1-.81,5.65-.49-.1.82,1.27-.11a.91.91,0,0,1,1,1l-.14,1.12a.9.9,0,0,1-.82.79Zm6.34,25.69-1,8.07a.91.91,0,0,1-.82.79l-43,3.69a.91.91,0,0,1-1-1l1.44-11.44a.89.89,0,0,1,.82-.79l8.64-.74a.91.91,0,0,1,1,1v0a.9.9,0,0,0,1.67.58l1-1.55a.87.87,0,0,1,.69-.43l27.59-2.37a.91.91,0,0,1,.84.41l2.05,3.16A.92.92,0,0,1,277.07,69.85Zm-10.85,3.83-.7-1.07a.9.9,0,0,0-.84-.41l-21.52,1.85a.73.73,0,0,0-.67.64l0,.21a.74.74,0,0,0,.8.83l22.95-2Z"/><path class="cls-3" d="M247,84.44l12.53-1.08a.92.92,0,0,0,.73-.5l.77-1.54a.92.92,0,0,1,.74-.5l9.1-.78a.74.74,0,0,1,.73,1.06l-.05.1a.74.74,0,0,0,.72,1.07l5.29-.46a.91.91,0,0,1,1,1l-.44,3.5a.9.9,0,0,1-.82.79l-49.19,4.22a.91.91,0,0,1-1-1l.44-3.5a.92.92,0,0,1,.83-.8l5.87-.5a.91.91,0,0,0,.8-1.12l-.06-.24a.91.91,0,0,1,.81-1.12l9.09-.78a.91.91,0,0,1,1,.68l.19.8A.93.93,0,0,0,247,84.44Zm33.77-24.92-.49,3.87a.91.91,0,0,1-.82.79l-47.78,4.1a.9.9,0,0,1-1-1l.48-3.87a.92.92,0,0,1,.83-.79l47.77-4.1A.92.92,0,0,1,280.74,59.52Zm-10-15.36-.1.74.95-.08a.9.9,0,0,1,1,1l-.18,1.43a.91.91,0,0,1-.82.79l-1.33.11-.1.74,1.28-.1a.9.9,0,0,1,1,1l-.17,1.35a.89.89,0,0,1-.82.79l-1.66.15-.09.74,2.42-.21a.91.91,0,0,0,.82-.79l1.27-10.12a.92.92,0,0,1,.83-.79l5.81-.5a.92.92,0,0,1,1,1l-1.93,15.37a.92.92,0,0,1-.83.79L233.74,61.5a.92.92,0,0,1-1-1l1.93-15.37a.91.91,0,0,1,.83-.79l5.81-.5a.9.9,0,0,1,1,1l-1.17,9.35a.9.9,0,0,0,1,1l2-.17.09-.75-1.27.11a.91.91,0,0,1-1-1l.17-1.34a.91.91,0,0,1,.82-.8l1.66-.14.1-.74-1,.09a.92.92,0,0,1-1-1l.18-1.42a.91.91,0,0,1,.83-.79l1.38-.12.1-.75-1.17.1a.9.9,0,0,1-1-1l.14-1.13a.91.91,0,0,1,.82-.79l1.55-.13.1-.82,5.66-.48-.11.81,1.28-.11a.9.9,0,0,1,1,1l-.14,1.12a.91.91,0,0,1-.82.8l-1.66.14-.09.74.94-.08a.91.91,0,0,1,1,1L252.54,49a.91.91,0,0,1-.82.79l-1.33.12-.1.74,1.28-.11a.91.91,0,0,1,1,1l-.17,1.34a.92.92,0,0,1-.83.8l-1.66.14-.09.74,2.37-.2a.91.91,0,0,0,.82-.79l1.46-11.61a.91.91,0,0,1,.82-.79l6.14-.52a.91.91,0,0,1,1,1L261,52.47a.91.91,0,0,0,1,1l2-.17.09-.74-1.27.11a.91.91,0,0,1-1-1l.17-1.35a.91.91,0,0,1,.82-.79l1.66-.14.09-.74-.94.08a.91.91,0,0,1-1-1l.18-1.42a.89.89,0,0,1,.82-.79l1.33-.12.1-.74-1.17.1a.91.91,0,0,1-1-1l.14-1.12a.91.91,0,0,1,.83-.79l1.55-.14.1-.81,5.65-.49-.1.82,1.27-.11a.91.91,0,0,1,1,1l-.14,1.12a.9.9,0,0,1-.82.79Zm6.34,25.69-1,8.07a.91.91,0,0,1-.82.79l-43,3.69a.91.91,0,0,1-1-1l1.44-11.44a.89.89,0,0,1,.82-.79l8.64-.74a.91.91,0,0,1,1,1v0a.9.9,0,0,0,1.67.58l1-1.55a.87.87,0,0,1,.69-.43l27.59-2.37a.91.91,0,0,1,.84.41l2.05,3.16A.92.92,0,0,1,277.07,69.85Zm-10.85,3.83-.7-1.07a.9.9,0,0,0-.84-.41l-21.52,1.85a.73.73,0,0,0-.67.64l0,.21a.74.74,0,0,0,.8.83l22.95-2Z"/><path class="cls-4" d="M247,84.44l12.53-1.08a.92.92,0,0,0,.73-.5l.77-1.54a.92.92,0,0,1,.74-.5l9.1-.78a.74.74,0,0,1,.73,1.06l-.05.1a.74.74,0,0,0,.72,1.07l5.29-.46a.91.91,0,0,1,1,1l-.44,3.5a.9.9,0,0,1-.82.79l-49.19,4.22a.91.91,0,0,1-1-1l.44-3.5a.92.92,0,0,1,.83-.8l5.87-.5a.91.91,0,0,0,.8-1.12l-.06-.24a.91.91,0,0,1,.81-1.12l9.09-.78a.91.91,0,0,1,1,.68l.19.8A.93.93,0,0,0,247,84.44Zm33.77-24.92-.49,3.87a.91.91,0,0,1-.82.79l-47.78,4.1a.9.9,0,0,1-1-1l.48-3.87a.92.92,0,0,1,.83-.79l47.77-4.1A.92.92,0,0,1,280.74,59.52Zm-10-15.36-.1.74.95-.08a.9.9,0,0,1,1,1l-.18,1.43a.91.91,0,0,1-.82.79l-1.33.11-.1.74,1.28-.1a.9.9,0,0,1,1,1l-.17,1.35a.89.89,0,0,1-.82.79l-1.66.15-.09.74,2.42-.21a.91.91,0,0,0,.82-.79l1.27-10.12a.92.92,0,0,1,.83-.79l5.81-.5a.92.92,0,0,1,1,1l-1.93,15.37a.92.92,0,0,1-.83.79L233.74,61.5a.92.92,0,0,1-1-1l1.93-15.37a.91.91,0,0,1,.83-.79l5.81-.5a.9.9,0,0,1,1,1l-1.17,9.35a.9.9,0,0,0,1,1l2-.17.09-.75-1.27.11a.91.91,0,0,1-1-1l.17-1.34a.91.91,0,0,1,.82-.8l1.66-.14.1-.74-1,.09a.92.92,0,0,1-1-1l.18-1.42a.91.91,0,0,1,.83-.79l1.38-.12.1-.75-1.17.1a.9.9,0,0,1-1-1l.14-1.13a.91.91,0,0,1,.82-.79l1.55-.13.1-.82,5.66-.48-.11.81,1.28-.11a.9.9,0,0,1,1,1l-.14,1.12a.91.91,0,0,1-.82.8l-1.66.14-.09.74.94-.08a.91.91,0,0,1,1,1L252.54,49a.91.91,0,0,1-.82.79l-1.33.12-.1.74,1.28-.11a.91.91,0,0,1,1,1l-.17,1.34a.92.92,0,0,1-.83.8l-1.66.14-.09.74,2.37-.2a.91.91,0,0,0,.82-.79l1.46-11.61a.91.91,0,0,1,.82-.79l6.14-.52a.91.91,0,0,1,1,1L261,52.47a.91.91,0,0,0,1,1l2-.17.09-.74-1.27.11a.91.91,0,0,1-1-1l.17-1.35a.91.91,0,0,1,.82-.79l1.66-.14.09-.74-.94.08a.91.91,0,0,1-1-1l.18-1.42a.89.89,0,0,1,.82-.79l1.33-.12.1-.74-1.17.1a.91.91,0,0,1-1-1l.14-1.12a.91.91,0,0,1,.83-.79l1.55-.14.1-.81,5.65-.49-.1.82,1.27-.11a.91.91,0,0,1,1,1l-.14,1.12a.9.9,0,0,1-.82.79Zm6.34,25.69-1,8.07a.91.91,0,0,1-.82.79l-43,3.69a.91.91,0,0,1-1-1l1.44-11.44a.89.89,0,0,1,.82-.79l8.64-.74a.91.91,0,0,1,1,1v0a.9.9,0,0,0,1.67.58l1-1.55a.87.87,0,0,1,.69-.43l27.59-2.37a.91.91,0,0,1,.84.41l2.05,3.16A.92.92,0,0,1,277.07,69.85Zm-10.85,3.83-.7-1.07a.9.9,0,0,0-.84-.41l-21.52,1.85a.73.73,0,0,0-.67.64l0,.21a.74.74,0,0,0,.8.83l22.95-2Z"/><path class="cls-2" d="M295.92,93.27l.76-6.08a.91.91,0,0,0-1.22-1l-9.77,3.63a.9.9,0,0,1-1.21-1l4.83-38.52a.9.9,0,0,1,.82-.79l6.8-.58a.9.9,0,0,1,1,1l-3.47,27.68a.91.91,0,0,0,1.22,1l1.69-.62a.93.93,0,0,0,.58-.74l3.85-30.63a.89.89,0,0,1,.82-.79l6.47-.56a.9.9,0,0,1,1,1l-5.85,46.61a.91.91,0,0,1-.82.79l-6.47.55A.9.9,0,0,1,295.92,93.27Zm29.27-45.89,13.59-1.17a.91.91,0,0,1,1,1l-.66,5.28a.46.46,0,0,1-.4.39l-.53,0a.44.44,0,0,0-.38.34,65.09,65.09,0,0,1-3.73,11.14,73.74,73.74,0,0,1-5.56,10.33.9.9,0,0,0,0,1l6.23,9.86a.9.9,0,0,1-.16,1.16L329.75,91a.9.9,0,0,1-1.32-.12l-5.5-7.19a.91.91,0,0,0-1.38-.06,50.44,50.44,0,0,1-6.3,5.72,29.94,29.94,0,0,1-6.66,3.88.91.91,0,0,1-1.18-.5l-1.79-4.27a.9.9,0,0,1,.36-1.12,36.53,36.53,0,0,0,5.7-4.47A55.74,55.74,0,0,0,317,77a.92.92,0,0,0,0-1.12l-7-9.2a.91.91,0,0,1,.29-1.35l8-4.27a.92.92,0,0,1,1.2.32l2.75,4.37a.91.91,0,0,0,1.59-.1q1.16-2.49,2.1-5.06a56.58,56.58,0,0,0,1.73-5.55.9.9,0,0,0-1-1.12l-4.95.42a.91.91,0,0,0-.78.59l-1.65,4.52a.9.9,0,0,1-.77.6l-8.16.7a.91.91,0,0,1-.93-1.22l5.37-14.35a.9.9,0,0,1,.77-.59l8.11-.69a.91.91,0,0,1,.93,1.22l-.38,1A.91.91,0,0,0,325.19,47.38Z"/><path class="cls-2" d="M293.87,91.22l.76-6.08a.91.91,0,0,0-1.21-1l-9.77,3.64a.92.92,0,0,1-1.22-1l4.84-38.52a.91.91,0,0,1,.82-.79l6.79-.58a.91.91,0,0,1,1,1l-3.48,27.67a.92.92,0,0,0,1.22,1l1.69-.63a.92.92,0,0,0,.59-.74l3.84-30.63a.91.91,0,0,1,.82-.79l6.47-.55a.91.91,0,0,1,1,1l-5.85,46.61a.91.91,0,0,1-.83.79l-6.46.56A.91.91,0,0,1,293.87,91.22Zm29.27-45.89,13.6-1.17a.9.9,0,0,1,1,1l-.66,5.28a.44.44,0,0,1-.4.39l-.52,0a.43.43,0,0,0-.39.33A64.24,64.24,0,0,1,332,62.37a71.72,71.72,0,0,1-5.56,10.33.92.92,0,0,0,0,1l6.24,9.86a.93.93,0,0,1-.17,1.17L327.71,89a.91.91,0,0,1-1.33-.13l-5.49-7.18a.91.91,0,0,0-1.39-.06,49.72,49.72,0,0,1-6.3,5.71,29.94,29.94,0,0,1-6.66,3.88.9.9,0,0,1-1.17-.5l-1.8-4.27a.91.91,0,0,1,.36-1.12,37.06,37.06,0,0,0,5.71-4.47A54.87,54.87,0,0,0,315,75a.92.92,0,0,0,0-1.12l-7-9.2a.9.9,0,0,1,.3-1.35l8-4.26a.89.89,0,0,1,1.19.31l2.75,4.37a.91.91,0,0,0,1.59-.09q1.17-2.5,2.11-5.07A57.18,57.18,0,0,0,325.61,53a.91.91,0,0,0-1-1.13l-4.95.43a.9.9,0,0,0-.77.59l-1.65,4.52a.91.91,0,0,1-.78.59l-8.15.7a.9.9,0,0,1-.93-1.22l5.36-14.35a.93.93,0,0,1,.78-.58l8.1-.7a.9.9,0,0,1,.93,1.22l-.38,1A.91.91,0,0,0,323.14,45.33Z"/><path class="cls-3" d="M293.87,91.22l.76-6.08a.91.91,0,0,0-1.21-1l-9.77,3.64a.92.92,0,0,1-1.22-1l4.84-38.52a.91.91,0,0,1,.82-.79l6.79-.58a.91.91,0,0,1,1,1l-3.48,27.67a.92.92,0,0,0,1.22,1l1.69-.63a.92.92,0,0,0,.59-.74l3.84-30.63a.91.91,0,0,1,.82-.79l6.47-.55a.91.91,0,0,1,1,1l-5.85,46.61a.91.91,0,0,1-.83.79l-6.46.56A.91.91,0,0,1,293.87,91.22Zm29.27-45.89,13.6-1.17a.9.9,0,0,1,1,1l-.66,5.28a.44.44,0,0,1-.4.39l-.52,0a.43.43,0,0,0-.39.33A64.24,64.24,0,0,1,332,62.37a71.72,71.72,0,0,1-5.56,10.33.92.92,0,0,0,0,1l6.24,9.86a.93.93,0,0,1-.17,1.17L327.71,89a.91.91,0,0,1-1.33-.13l-5.49-7.18a.91.91,0,0,0-1.39-.06,49.72,49.72,0,0,1-6.3,5.71,29.94,29.94,0,0,1-6.66,3.88.9.9,0,0,1-1.17-.5l-1.8-4.27a.91.91,0,0,1,.36-1.12,37.06,37.06,0,0,0,5.71-4.47A54.87,54.87,0,0,0,315,75a.92.92,0,0,0,0-1.12l-7-9.2a.9.9,0,0,1,.3-1.35l8-4.26a.89.89,0,0,1,1.19.31l2.75,4.37a.91.91,0,0,0,1.59-.09q1.17-2.5,2.11-5.07A57.18,57.18,0,0,0,325.61,53a.91.91,0,0,0-1-1.13l-4.95.43a.9.9,0,0,0-.77.59l-1.65,4.52a.91.91,0,0,1-.78.59l-8.15.7a.9.9,0,0,1-.93-1.22l5.36-14.35a.93.93,0,0,1,.78-.58l8.1-.7a.9.9,0,0,1,.93,1.22l-.38,1A.91.91,0,0,0,323.14,45.33Z"/><path class="cls-4" d="M293.87,91.22l.76-6.08a.91.91,0,0,0-1.21-1l-9.77,3.64a.92.92,0,0,1-1.22-1l4.84-38.52a.91.91,0,0,1,.82-.79l6.79-.58a.91.91,0,0,1,1,1l-3.48,27.67a.92.92,0,0,0,1.22,1l1.69-.63a.92.92,0,0,0,.59-.74l3.84-30.63a.91.91,0,0,1,.82-.79l6.47-.55a.91.91,0,0,1,1,1l-5.85,46.61a.91.91,0,0,1-.83.79l-6.46.56A.91.91,0,0,1,293.87,91.22Zm29.27-45.89,13.6-1.17a.9.9,0,0,1,1,1l-.66,5.28a.44.44,0,0,1-.4.39l-.52,0a.43.43,0,0,0-.39.33A64.24,64.24,0,0,1,332,62.37a71.72,71.72,0,0,1-5.56,10.33.92.92,0,0,0,0,1l6.24,9.86a.93.93,0,0,1-.17,1.17L327.71,89a.91.91,0,0,1-1.33-.13l-5.49-7.18a.91.91,0,0,0-1.39-.06,49.72,49.72,0,0,1-6.3,5.71,29.94,29.94,0,0,1-6.66,3.88.9.9,0,0,1-1.17-.5l-1.8-4.27a.91.91,0,0,1,.36-1.12,37.06,37.06,0,0,0,5.71-4.47A54.87,54.87,0,0,0,315,75a.92.92,0,0,0,0-1.12l-7-9.2a.9.9,0,0,1,.3-1.35l8-4.26a.89.89,0,0,1,1.19.31l2.75,4.37a.91.91,0,0,0,1.59-.09q1.17-2.5,2.11-5.07A57.18,57.18,0,0,0,325.61,53a.91.91,0,0,0-1-1.13l-4.95.43a.9.9,0,0,0-.77.59l-1.65,4.52a.91.91,0,0,1-.78.59l-8.15.7a.9.9,0,0,1-.93-1.22l5.36-14.35a.93.93,0,0,1,.78-.58l8.1-.7a.9.9,0,0,1,.93,1.22l-.38,1A.91.91,0,0,0,323.14,45.33Z"/><path class="cls-2" d="M115.18,54.92,81.87,57.74a.78.78,0,0,0-.58.34l-2.17,3.16a.78.78,0,0,1-1.43-.48L77.91,59a.76.76,0,0,0-.84-.82l-9,.77a.76.76,0,0,0-.71.64L64.07,85.18l-2.34.2-2.3.2.28-2.16a.75.75,0,0,0-.85-.82l-4.73.4a.74.74,0,0,1-.74-1.11L61,69.64a.72.72,0,0,0,.1-.51l-1.06-5.28a.77.77,0,0,0-.84-.6L36.41,65.19a.75.75,0,0,0-.7.64L35,71.48a.76.76,0,0,0,.84.82l11.8-1a.74.74,0,0,1,.74,1.11L42.23,82a.79.79,0,0,0-.11.29L42,83.44a.77.77,0,0,1-.71.65l-8.92.76a.76.76,0,0,0-.7.64l-.71,5.57a.75.75,0,0,0,.84.82l8.26-.7a.77.77,0,0,1,.85.82l-1.71,13.4a.78.78,0,0,1-.71.65l-5.42.46a.74.74,0,0,0-.67,1l1.74,4.83a.78.78,0,0,0,.81.5l13.27-1.13a.76.76,0,0,0,.7-.64l2.55-20,.67,0,8.29-.71L63.46,90l-1.9,14.87a.77.77,0,0,0,.85.82L106.13,102a.78.78,0,0,0,.57-.31l3.82-5.16a.74.74,0,0,0-.71-1.15l-36,3a.76.76,0,0,1-.85-.82l4.22-33.08a.75.75,0,0,1,.7-.64l36.86-3.13a.76.76,0,0,0,.7-.65l.56-4.35A.76.76,0,0,0,115.18,54.92Z"/><path class="cls-2" d="M113.14,52.87,79.83,55.7a.79.79,0,0,0-.59.33L77.07,59.2a.78.78,0,0,1-1.43-.49l.23-1.78a.75.75,0,0,0-.85-.82l-9,.76a.77.77,0,0,0-.71.65L62,83.14l-2.34.2-2.3.19.27-2.16a.76.76,0,0,0-.84-.82l-4.73.4a.74.74,0,0,1-.74-1.11L59,67.59a.7.7,0,0,0,.09-.51L58,61.8a.77.77,0,0,0-.83-.6L34.37,63.14a.76.76,0,0,0-.71.65l-.72,5.64a.75.75,0,0,0,.85.82l11.79-1a.75.75,0,0,1,.74,1.12L40.18,80a.76.76,0,0,0-.1.3l-.15,1.15a.76.76,0,0,1-.71.64l-8.91.76a.76.76,0,0,0-.71.65L28.89,89a.76.76,0,0,0,.85.82l8.25-.7a.75.75,0,0,1,.85.82l-1.71,13.39a.76.76,0,0,1-.7.65l-5.42.46a.73.73,0,0,0-.67,1l1.73,4.84a.78.78,0,0,0,.81.49l13.27-1.12a.77.77,0,0,0,.71-.65l2.55-20,.66-.06,8.29-.7,3-.26-1.89,14.86a.75.75,0,0,0,.84.82l43.73-3.71a.78.78,0,0,0,.57-.31l3.81-5.16a.74.74,0,0,0-.71-1.15l-36,3a.76.76,0,0,1-.85-.82l4.22-33.07a.76.76,0,0,1,.71-.65l36.85-3.13a.77.77,0,0,0,.71-.64l.55-4.36A.76.76,0,0,0,113.14,52.87Z"/><path class="cls-3" d="M113.14,52.87,79.83,55.7a.79.79,0,0,0-.59.33L77.07,59.2a.78.78,0,0,1-1.43-.49l.23-1.78a.75.75,0,0,0-.85-.82l-9,.76a.77.77,0,0,0-.71.65L62,83.14l-2.34.2-2.3.19.27-2.16a.76.76,0,0,0-.84-.82l-4.73.4a.74.74,0,0,1-.74-1.11L59,67.59a.7.7,0,0,0,.09-.51L58,61.8a.77.77,0,0,0-.83-.6L34.37,63.14a.76.76,0,0,0-.71.65l-.72,5.64a.75.75,0,0,0,.85.82l11.79-1a.75.75,0,0,1,.74,1.12L40.18,80a.76.76,0,0,0-.1.3l-.15,1.15a.76.76,0,0,1-.71.64l-8.91.76a.76.76,0,0,0-.71.65L28.89,89a.76.76,0,0,0,.85.82l8.25-.7a.75.75,0,0,1,.85.82l-1.71,13.39a.76.76,0,0,1-.7.65l-5.42.46a.73.73,0,0,0-.67,1l1.73,4.84a.78.78,0,0,0,.81.49l13.27-1.12a.77.77,0,0,0,.71-.65l2.55-20,.66-.06,8.29-.7,3-.26-1.89,14.86a.75.75,0,0,0,.84.82l43.73-3.71a.78.78,0,0,0,.57-.31l3.81-5.16a.74.74,0,0,0-.71-1.15l-36,3a.76.76,0,0,1-.85-.82l4.22-33.07a.76.76,0,0,1,.71-.65l36.85-3.13a.77.77,0,0,0,.71-.64l.55-4.36A.76.76,0,0,0,113.14,52.87Z"/><path class="cls-4" d="M113.14,52.87,79.83,55.7a.79.79,0,0,0-.59.33L77.07,59.2a.78.78,0,0,1-1.43-.49l.23-1.78a.75.75,0,0,0-.85-.82l-9,.76a.77.77,0,0,0-.71.65L62,83.14l-2.34.2-2.3.19.27-2.16a.76.76,0,0,0-.84-.82l-4.73.4a.74.74,0,0,1-.74-1.11L59,67.59a.7.7,0,0,0,.09-.51L58,61.8a.77.77,0,0,0-.83-.6L34.37,63.14a.76.76,0,0,0-.71.65l-.72,5.64a.75.75,0,0,0,.85.82l11.79-1a.75.75,0,0,1,.74,1.12L40.18,80a.76.76,0,0,0-.1.3l-.15,1.15a.76.76,0,0,1-.71.64l-8.91.76a.76.76,0,0,0-.71.65L28.89,89a.76.76,0,0,0,.85.82l8.25-.7a.75.75,0,0,1,.85.82l-1.71,13.39a.76.76,0,0,1-.7.65l-5.42.46a.73.73,0,0,0-.67,1l1.73,4.84a.78.78,0,0,0,.81.49l13.27-1.12a.77.77,0,0,0,.71-.65l2.55-20,.66-.06,8.29-.7,3-.26-1.89,14.86a.75.75,0,0,0,.84.82l43.73-3.71a.78.78,0,0,0,.57-.31l3.81-5.16a.74.74,0,0,0-.71-1.15l-36,3a.76.76,0,0,1-.85-.82l4.22-33.07a.76.76,0,0,1,.71-.65l36.85-3.13a.77.77,0,0,0,.71-.64l.55-4.36A.76.76,0,0,0,113.14,52.87Z"/><path class="cls-5" d="M70.06,88.44,75,88a.78.78,0,0,0,.66-.49L80.05,76.1a.75.75,0,0,0-.8-1l-5,.42a.78.78,0,0,0-.67.49L69.25,87.46A.75.75,0,0,0,70.06,88.44Z"/><path class="cls-5" d="M107.23,57.18l-3.6.3a.76.76,0,0,1-.84-.63l-.2-1.35a.78.78,0,0,0-.84-.64l-6.08.52a.75.75,0,0,0-.7.83l.17,1.22a.74.74,0,0,1-.7.83l-1.1.1a.75.75,0,0,1-.8-1l.27-.69a.76.76,0,0,0-.81-1l-6,.51a.77.77,0,0,0-.66.48l-5,12.62a.76.76,0,0,0,.81,1l.35,0a.77.77,0,0,1,.85.82l-2.05,16a.76.76,0,0,0,.84.82l6.52-.55.11-.91L104,85.11a.77.77,0,0,0,.71-.65l.42-3.29a.77.77,0,0,0-.85-.82l-3.22.27a.75.75,0,0,1-.85-.82l.24-1.84.8-6.29.12-.93.8-6.28.2-1.55a.75.75,0,0,1,.7-.64l3.88-.33a.76.76,0,0,0,.71-.65l.42-3.29A.76.76,0,0,0,107.23,57.18ZM92.7,80.75a.76.76,0,0,1-.7.64l-2.64.23a.76.76,0,0,1-.84-.82l2-16-.92.07.4-1a.75.75,0,0,1,.66-.48L94,63a.75.75,0,0,1,.84.82Z"/><path class="cls-5" d="M109.14,46.87,75.83,49.7a.79.79,0,0,0-.59.33L73.07,53.2a.78.78,0,0,1-1.43-.49l.23-1.78a.75.75,0,0,0-.85-.82l-9,.76a.77.77,0,0,0-.71.65l-5.77,45.3a.75.75,0,0,0,.84.82l43.73-3.71a.78.78,0,0,0,.57-.31l3.81-5.16a.74.74,0,0,0-.71-1.15l-36,3a.76.76,0,0,1-.85-.82l4.22-33.07a.76.76,0,0,1,.71-.65l36.85-3.13a.77.77,0,0,0,.71-.64l.55-4.36A.76.76,0,0,0,109.14,46.87Z"/><path class="cls-5" d="M81.41,63.15,79.7,57.41a.78.78,0,0,0-.82-.53l-5.36.45a.75.75,0,0,0-.68.93l.53,1.87,1.16,3.7a1.16,1.16,0,0,0,1.25.78l4.94-.52A.75.75,0,0,0,81.41,63.15Z"/><path class="cls-5" d="M73.63,73.63,79,73.18a.74.74,0,0,0,.68-.94L78.1,66.8A1.16,1.16,0,0,0,76.87,66l-1.69.15-3.35.28a.75.75,0,0,0-.69.93l1.67,5.74A.78.78,0,0,0,73.63,73.63Z"/><path class="cls-5" d="M89.21,66.66a.67.67,0,0,1,.48-.27l15.43-1.3a.62.62,0,0,1,.7.67l-.46,3.57a.63.63,0,0,1-.58.53L87.34,71.33a.46.46,0,0,1-.46-.67Z"/><path class="cls-5" d="M92,73.63a.66.66,0,0,1,.48-.27l15.44-1.3a.62.62,0,0,1,.69.67l-.46,3.57a.62.62,0,0,1-.58.53L90.09,78.3a.46.46,0,0,1-.46-.67Z"/><polygon class="cls-5" points="93.97 70.77 97.59 72.28 101.44 70.14 102.06 65.35 98.62 63.27 94.58 65.98 93.97 70.77"/><path class="cls-5" d="M22.82,100.55l-4.2,4.68a.81.81,0,0,1-1.2,0l-4.32-5a.8.8,0,0,0-1.15,0,50.13,50.13,0,0,1-9.06,6.65.81.81,0,0,1-1.17-.39L0,101.61a.73.73,0,0,1,.24-.8C1.67,99.69,3,98.6,4.16,97.54A41.06,41.06,0,0,0,7.34,94.4a.73.73,0,0,0,0-1L2.64,87.9a.69.69,0,0,1-.15-.63L6.66,70.5a.76.76,0,0,0-.84-.91L5,69.66a.75.75,0,0,1-.85-.82l.68-5.34a.76.76,0,0,1,.71-.64l2.54-.22a.75.75,0,0,0,.69-.56l1.1-4.27a.77.77,0,0,1,.8-.56l6.69.34a.74.74,0,0,1,.71.93l-.68,2.33a.75.75,0,0,0,.82.93L27.07,61a.75.75,0,0,1,.84.82l-.76,5.93-1.13.1c-.2,1.23-.41,2.43-.63,3.59A100.57,100.57,0,0,1,23,81.82a43.94,43.94,0,0,1-4.57,10.47.68.68,0,0,0,0,.76l4.48,6.63A.69.69,0,0,1,22.82,100.55ZM16.54,68.68l-.86.08a.77.77,0,0,0-.69.55L11.4,82.05a.71.71,0,0,0,.09.57l1,1.54a.8.8,0,0,0,1.4-.13,46.47,46.47,0,0,0,1.93-6,82.58,82.58,0,0,0,1.59-8.51A.78.78,0,0,0,16.54,68.68ZM24.89,83l.71-5.57a.76.76,0,0,1,.71-.65L35.22,76a.76.76,0,0,0,.71-.64l.15-1.15a.76.76,0,0,1,.1-.3l6.14-9.58a.75.75,0,0,0-.74-1.12l-11.79,1a.75.75,0,0,1-.85-.82l.72-5.64a.76.76,0,0,1,.71-.65L53.18,55.2a.77.77,0,0,1,.83.6l1.06,5.28a.7.7,0,0,1-.09.51L47.35,73.84A.74.74,0,0,0,48.09,75l4.73-.4a.76.76,0,0,1,.84.82L53,80.94a.76.76,0,0,1-.7.65l-6.11.52a.76.76,0,0,0-.7.64L42.86,103a.77.77,0,0,1-.71.65l-13.27,1.12a.78.78,0,0,1-.81-.49l-1.73-4.84a.73.73,0,0,1,.67-1L32.43,98a.76.76,0,0,0,.7-.65L34.84,84a.75.75,0,0,0-.85-.82l-8.25.7A.76.76,0,0,1,24.89,83Z"/><path class="cls-5" d="M46.07,82.92l-5.63.48a.51.51,0,0,1-.57-.56l.48-3.8a.51.51,0,0,1,.48-.44l6.08-.52,8.78-.74,3.22-.28a.52.52,0,0,1,.58.56L59,81.42a.51.51,0,0,1-.48.44l-4.16.36Z"/><path class="cls-5" d="M3.56,67.14l-2.92.25a.27.27,0,0,1-.3-.29l.25-2a.28.28,0,0,1,.25-.23L4,64.64l4.55-.39,1.67-.14a.26.26,0,0,1,.3.29l-.25,2a.29.29,0,0,1-.25.23l-2.16.18Z"/><path class="cls-5" d="M135.42,49.51l-4.35,34.11a.75.75,0,0,1-.7.65l-9.37.79a.78.78,0,0,0-.67.5l-3.4,9.4a.76.76,0,0,1-.66.5l-5.94.5a.75.75,0,0,1-.81-1l3-8.16a.75.75,0,0,0-.8-1h0a.76.76,0,0,1-.85-.83l4.75-37.25a.76.76,0,0,1,.71-.64l5.77-.49a.75.75,0,0,1,.84.82l-.3,2.38a.78.78,0,0,0,1.42.5l2.74-3.83a.81.81,0,0,1,.58-.32l5.47-.47a.8.8,0,0,1,.74.37l1.8,2.95A.74.74,0,0,1,135.42,49.51ZM127.51,54l-.41-.67a.79.79,0,0,0-.75-.36l-3.64.31a.76.76,0,0,0-.7.64l-.42,3.29a.76.76,0,0,0,.84.83l4.15-.36a.77.77,0,0,0,.71-.64l.33-2.58A.69.69,0,0,0,127.51,54Zm-2.05,9.94-4.15.35a.77.77,0,0,0-.71.65l-.31,2.46a.76.76,0,0,0,.84.82l4.15-.36a.76.76,0,0,0,.71-.64l.31-2.46A.76.76,0,0,0,125.46,63.94Zm-1.33,10.41L120,74.7a.75.75,0,0,0-.7.65L119,77.88a.76.76,0,0,0,.85.82l4.15-.35a.76.76,0,0,0,.7-.65l.33-2.53A.77.77,0,0,0,124.13,74.35Zm25.55-27.57,2.56-.22,9.91-.84,2.77-.23a.75.75,0,0,1,.85.82l-.65,5.11a.77.77,0,0,1-.71.65l-6,.51a.77.77,0,0,0-.71.64l0,.33a.75.75,0,0,0,.84.82l2.67-.22a.78.78,0,0,1,.74.35l1.8,2.81a.7.7,0,0,1,.11.47l-.63,4.91,1.08-.09-.84,6.61-1.08.09-1.14,8.91a.76.76,0,0,1-.7.64l-1.23.11a.76.76,0,0,0-.71.71l-.3,11a.77.77,0,0,1-.72.72l-2.11.18a.77.77,0,0,1-.85-.76L155.19,73l-2.48,19.47a.76.76,0,0,1-.71.64l-4.63.4a.76.76,0,0,1-.84-.82L148,80.81a.75.75,0,0,0-.84-.82l-2.29.1a.75.75,0,0,0-.7.65l-1.6,12.49a.77.77,0,0,1-.7.65l-4.61.47a.76.76,0,0,1-.85-.82l1.63-12.77-.59,0-2.67,12a.77.77,0,0,1-.69.59l-2.06.17a.75.75,0,0,1-.83-.88l2.56-11.59-1,.08.74-5.79a.76.76,0,0,1,.7-.64l4-.34a.76.76,0,0,0,.71-.65l.2-1.54a.76.76,0,0,0-.85-.82l-3.65.31a.76.76,0,0,1-.85-.82l.65-5.12a.77.77,0,0,1,.71-.64l4.31-.37a.76.76,0,0,0,.71-.65l.14-1.08a.76.76,0,0,0-.85-.83l-3.17.27a.75.75,0,0,1-.84-.82l.61-4.81a.77.77,0,0,1,.71-.64l3.83-.33a.76.76,0,0,0,.7-.65l0-.32a.75.75,0,0,0-.84-.82l-3.49.29a.76.76,0,0,1-.85-.82l.65-5.11a.77.77,0,0,1,.71-.65l2.4-.2Zm.88,6.39-2.28.11a.76.76,0,0,0-.71.64l0,.26a.76.76,0,0,0,.84.82l2.29-.11a.76.76,0,0,0,.7-.65l0-.25A.76.76,0,0,0,150.56,53.17Zm-1.05,8.21-2.28.1a.77.77,0,0,0-.71.65l-.13,1.09a.76.76,0,0,0,.84.82l2.28-.11a.76.76,0,0,0,.71-.65l.14-1.08A.75.75,0,0,0,149.51,61.38Zm-1.16,9.11-2.28.11a.77.77,0,0,0-.71.65l-.2,1.62a.76.76,0,0,0,.84.82l2.28-.11a.76.76,0,0,0,.71-.65l.21-1.62A.76.76,0,0,0,148.35,70.49Zm9.48-7.27.14-1.14-.84-1.35-.38,0-.33,2.58ZM155.19,73l1.41-.12.4-3.11-1.41.12Z"/><path class="cls-5" d="M148.35,48,143,48.5a.76.76,0,0,1-.85-.81l.48-5.62a1.14,1.14,0,0,1,1.06-1l1.69-.15,3.35-.29a.77.77,0,0,1,.85.8l-.54,5.93A.76.76,0,0,1,148.35,48Z"/><path class="cls-5" d="M157.94,48.88l-5.34.47a.75.75,0,0,1-.85-.8l.49-5.62a1.13,1.13,0,0,1,1-1l1.69-.14,3.35-.3a.76.76,0,0,1,.85.8l-.54,5.93A.75.75,0,0,1,157.94,48.88Z"/><path class="cls-5" d="M117.85,82.45l-.55,4.6a.7.7,0,0,0,.36.71l11,6.4a.79.79,0,0,0,1.19-.55l.57-4.69a.74.74,0,0,0-.37-.72l-11-6.3A.79.79,0,0,0,117.85,82.45Z"/><path class="cls-5" d="M116,53.76l-2.92.25a.28.28,0,0,1-.3-.29l.25-2a.28.28,0,0,1,.25-.23l3.15-.27,4.55-.38,1.67-.14a.27.27,0,0,1,.3.29l-.25,2a.27.27,0,0,1-.25.23l-2.16.19Z"/><path class="cls-5" d="M229.59,68.05l-2.91.25a.26.26,0,0,1-.3-.29l.25-2a.26.26,0,0,1,.25-.22l3.15-.27,4.54-.39,1.67-.14a.27.27,0,0,1,.3.29l-.25,2a.27.27,0,0,1-.25.23l-2.15.18Z"/><path class="cls-5" d="M160.28,70.27l-1.84.15a.17.17,0,0,1-.19-.18l.16-1.24a.17.17,0,0,1,.15-.15l2-.16,2.87-.25,1.06-.09a.16.16,0,0,1,.18.19l-.15,1.24a.16.16,0,0,1-.16.14L163,70Z"/><path class="cls-5" d="M173,91.85,170.59,86a.9.9,0,0,1,.34-1.1A60.44,60.44,0,0,0,183,74.3a56.57,56.57,0,0,0,8.54-13.13.9.9,0,0,0-.9-1.28l-15.48,1.33a.92.92,0,0,1-1-1l.7-5.58a.92.92,0,0,1,.83-.79l17.17-1.48a.91.91,0,0,0,.83-.79l.95-7.59a.9.9,0,0,1,.82-.79l10.38-.89a.9.9,0,0,1,1,1L206,50.13a.92.92,0,0,0,1,1l17-1.46a.9.9,0,0,1,1,1l-.7,5.58a.89.89,0,0,1-.82.79l-18,1.54a.89.89,0,0,0-.75.56,67.83,67.83,0,0,1-4.88,9.58.9.9,0,0,0,1.12,1.31l7.18-3a.89.89,0,0,1,1.08.3L219.93,82a.91.91,0,0,1-.07,1.16l-5.2,5.52a.92.92,0,0,1-1.27,0L197.24,74.2a.91.91,0,0,0-1.32.12A61.62,61.62,0,0,1,186,84.5a73.16,73.16,0,0,1-11.73,7.81A.92.92,0,0,1,173,91.85Z"/><path class="cls-5" d="M243,78.44l12.53-1.08a.92.92,0,0,0,.73-.5l.77-1.54a.92.92,0,0,1,.74-.5l9.1-.78a.74.74,0,0,1,.73,1.06l-.05.1a.74.74,0,0,0,.72,1.07l5.29-.46a.91.91,0,0,1,1,1l-.44,3.5a.9.9,0,0,1-.82.79l-49.19,4.22a.91.91,0,0,1-1-1l.44-3.5a.92.92,0,0,1,.83-.8l5.87-.5a.91.91,0,0,0,.8-1.12l-.06-.24a.91.91,0,0,1,.81-1.12l9.09-.78a.91.91,0,0,1,1,.68l.19.8A.93.93,0,0,0,243,78.44Zm33.77-24.92-.49,3.87a.91.91,0,0,1-.82.79l-47.78,4.1a.9.9,0,0,1-1-1l.48-3.87a.92.92,0,0,1,.83-.79l47.77-4.1A.92.92,0,0,1,276.74,53.52Zm-11-15.36-.1.74,1.95-.08a.9.9,0,0,1,1,1l-.18,1.43a.91.91,0,0,1-.82.79l-2.33.11-.1.74,2.28-.1a.9.9,0,0,1,1,1l-.17,1.35a.89.89,0,0,1-.82.79l-2.66.15-.09.74,4.42-.21a.91.91,0,0,0,.82-.79l1.27-10.12a.92.92,0,0,1,.83-.79l4.81-.5a.92.92,0,0,1,1,1l-1.93,15.37a.92.92,0,0,1-.83.79L229.74,55.5a.92.92,0,0,1-1-1l1.93-15.37a.91.91,0,0,1,.83-.79l4.81-.5a.9.9,0,0,1,1,1l-1.17,9.35a.9.9,0,0,0,1,1l4-.32.09-.74-2.26.25a.91.91,0,0,1-1-1l.17-1.34a.91.91,0,0,1,.82-.8l2.65-.28.09-.74-2,.23a.92.92,0,0,1-1-1l.18-1.42a.91.91,0,0,1,.83-.79l2.37-.27.1-.74-2.16.24a.9.9,0,0,1-1-1l.14-1.13a.91.91,0,0,1,.82-.79l2.54-.28.1-.81,3.67-.34-.11.81,2.28-.11a.9.9,0,0,1,1,1l-.14,1.12a.91.91,0,0,1-.82.8l-2.66.14-.09.74,1.94-.08a.91.91,0,0,1,1,1L248.54,43a.91.91,0,0,1-.82.79l-2.33.12-.1.74,2.28-.11a.91.91,0,0,1,1,1l-.17,1.34a.92.92,0,0,1-.83.8l-2.66.14-.09.74,4.37-.2a.91.91,0,0,0,.82-.79l1.46-11.61a.91.91,0,0,1,.82-.79l4.14-.52a.91.91,0,0,1,1,1L256,46.47a.91.91,0,0,0,1,1l4-.23.09-.74-2.29.17a.91.91,0,0,1-1-1l.17-1.35a.91.91,0,0,1,.82-.79l2.69-.2.09-.74-2,.14a.91.91,0,0,1-1-1l.18-1.42a.89.89,0,0,1,.82-.79l2.36-.18.09-.74-2.19.16a.91.91,0,0,1-1-1l.14-1.12a.91.91,0,0,1,.83-.79l2.57-.2.11-.81,3.62-.43-.1.82,2.27-.11a.91.91,0,0,1,1,1l-.14,1.12a.9.9,0,0,1-.82.79Zm7.34,25.69-1,8.07a.91.91,0,0,1-.82.79l-43,3.69a.91.91,0,0,1-1-1l1.44-11.44a.89.89,0,0,1,.82-.79l8.64-.74a.91.91,0,0,1,1,1v0a.9.9,0,0,0,1.67.58l1-1.55a.87.87,0,0,1,.69-.43l27.59-2.37a.91.91,0,0,1,.84.41l2.05,3.16A.92.92,0,0,1,273.07,63.85Zm-10.85,3.83-.7-1.07a.9.9,0,0,0-.84-.41l-21.52,1.85a.73.73,0,0,0-.67.64l0,.21a.74.74,0,0,0,.8.83l22.95-2Z"/><path class="cls-5" d="M289.87,85.22l.76-6.08a.91.91,0,0,0-1.21-1l-9.77,3.64a.92.92,0,0,1-1.22-1l4.84-38.52a.91.91,0,0,1,.82-.79l6.79-.58a.91.91,0,0,1,1,1l-3.48,27.67a.92.92,0,0,0,1.22,1l1.69-.63a.92.92,0,0,0,.59-.74l3.84-30.63a.91.91,0,0,1,.82-.79l6.47-.55a.91.91,0,0,1,1,1l-5.85,46.61a.91.91,0,0,1-.83.79l-6.46.56A.91.91,0,0,1,289.87,85.22Zm29.27-45.89,13.6-1.17a.9.9,0,0,1,1,1l-.66,5.28a.44.44,0,0,1-.4.39l-.52,0a.43.43,0,0,0-.39.33A64.24,64.24,0,0,1,328,56.37a71.72,71.72,0,0,1-5.56,10.33.92.92,0,0,0,0,1l6.24,9.86a.93.93,0,0,1-.17,1.17L323.71,83a.91.91,0,0,1-1.33-.13l-5.49-7.18a.91.91,0,0,0-1.39-.06,49.72,49.72,0,0,1-6.3,5.71,29.94,29.94,0,0,1-6.66,3.88.9.9,0,0,1-1.17-.5l-1.8-4.27a.91.91,0,0,1,.36-1.12,37.06,37.06,0,0,0,5.71-4.47A54.87,54.87,0,0,0,311,69a.92.92,0,0,0,0-1.12l-7-9.2a.9.9,0,0,1,.3-1.35l8-4.26a.89.89,0,0,1,1.19.31l2.75,4.37a.91.91,0,0,0,1.59-.09q1.17-2.5,2.11-5.07A57.18,57.18,0,0,0,321.61,47a.91.91,0,0,0-1-1.13l-4.95.43a.9.9,0,0,0-.77.59l-1.65,4.52a.91.91,0,0,1-.78.59l-8.15.7a.9.9,0,0,1-.93-1.22l5.36-14.35a.93.93,0,0,1,.78-.58l8.1-.7a.9.9,0,0,1,.93,1.22l-.38,1A.91.91,0,0,0,319.14,39.33Z"/><path class="cls-5" d="M214.38,54.12l-5.63.48a.52.52,0,0,1-.58-.56l.49-3.8a.52.52,0,0,1,.48-.44l6.08-.52,8.77-.74,3.23-.27a.52.52,0,0,1,.58.56l-.49,3.8a.52.52,0,0,1-.48.44l-4.16.35Z"/><path class="cls-5" d="M328.58,46.05l-2.92.25a.27.27,0,0,1-.29-.29l.25-2a.27.27,0,0,1,.25-.23l3.15-.26,4.54-.39,1.67-.14a.26.26,0,0,1,.3.29l-.25,2a.28.28,0,0,1-.25.23l-2.15.18Z"/><path class="cls-5" d="M262.54,71.5l-5.63.48a.52.52,0,0,1-.58-.56l.49-3.8a.51.51,0,0,1,.48-.44l6.08-.52,8.77-.74,3.23-.28a.52.52,0,0,1,.58.56l-.49,3.8a.51.51,0,0,1-.48.44l-4.16.36Z"/><path class="cls-6" d="M70.06,88.44,75,88a.78.78,0,0,0,.66-.49L80.05,76.1a.75.75,0,0,0-.8-1l-5,.42a.78.78,0,0,0-.67.49L69.25,87.46A.75.75,0,0,0,70.06,88.44Z"/><path class="cls-6" d="M107.23,57.18l-3.6.3a.76.76,0,0,1-.84-.63l-.2-1.35a.78.78,0,0,0-.84-.64l-6.08.52a.75.75,0,0,0-.7.83l.17,1.22a.74.74,0,0,1-.7.83l-1.1.1a.75.75,0,0,1-.8-1l.27-.69a.76.76,0,0,0-.81-1l-6,.51a.77.77,0,0,0-.66.48l-5,12.62a.76.76,0,0,0,.81,1l.35,0a.77.77,0,0,1,.85.82l-2.05,16a.76.76,0,0,0,.84.82l6.52-.55.11-.91L104,85.11a.77.77,0,0,0,.71-.65l.42-3.29a.77.77,0,0,0-.85-.82l-3.22.27a.75.75,0,0,1-.85-.82l.24-1.84.8-6.29.12-.93.8-6.28.2-1.55a.75.75,0,0,1,.7-.64l3.88-.33a.76.76,0,0,0,.71-.65l.42-3.29A.76.76,0,0,0,107.23,57.18ZM92.7,80.75a.76.76,0,0,1-.7.64l-2.64.23a.76.76,0,0,1-.84-.82l2-16-.92.07.4-1a.75.75,0,0,1,.66-.48L94,63a.75.75,0,0,1,.84.82Z"/><path class="cls-6" d="M109.14,46.87,75.83,49.7a.79.79,0,0,0-.59.33L73.07,53.2a.78.78,0,0,1-1.43-.49l.23-1.78a.75.75,0,0,0-.85-.82l-9,.76a.77.77,0,0,0-.71.65l-5.77,45.3a.75.75,0,0,0,.84.82l43.73-3.71a.78.78,0,0,0,.57-.31l3.81-5.16a.74.74,0,0,0-.71-1.15l-36,3a.76.76,0,0,1-.85-.82l4.22-33.07a.76.76,0,0,1,.71-.65l36.85-3.13a.77.77,0,0,0,.71-.64l.55-4.36A.76.76,0,0,0,109.14,46.87Z"/><path class="cls-6" d="M81.41,63.15,79.7,57.41a.78.78,0,0,0-.82-.53l-5.36.45a.75.75,0,0,0-.68.93l.53,1.87,1.16,3.7a1.16,1.16,0,0,0,1.25.78l4.94-.52A.75.75,0,0,0,81.41,63.15Z"/><path class="cls-6" d="M73.63,73.63,79,73.18a.74.74,0,0,0,.68-.94L78.1,66.8A1.16,1.16,0,0,0,76.87,66l-1.69.15-3.35.28a.75.75,0,0,0-.69.93l1.67,5.74A.78.78,0,0,0,73.63,73.63Z"/><path class="cls-1" d="M89.21,66.66a.67.67,0,0,1,.48-.27l15.43-1.3a.62.62,0,0,1,.7.67l-.46,3.57a.63.63,0,0,1-.58.53L87.34,71.33a.46.46,0,0,1-.46-.67Z"/><path class="cls-7" d="M92,73.63a.66.66,0,0,1,.48-.27l15.44-1.3a.62.62,0,0,1,.69.67l-.46,3.57a.62.62,0,0,1-.58.53L90.09,78.3a.46.46,0,0,1-.46-.67Z"/><polygon class="cls-6" points="93.97 70.77 97.59 72.28 101.44 70.14 102.06 65.35 98.62 63.27 94.58 65.98 93.97 70.77"/><path class="cls-6" d="M22.82,100.55l-4.2,4.68a.81.81,0,0,1-1.2,0l-4.32-5a.8.8,0,0,0-1.15,0,50.13,50.13,0,0,1-9.06,6.65.81.81,0,0,1-1.17-.39L0,101.61a.73.73,0,0,1,.24-.8C1.67,99.69,3,98.6,4.16,97.54A41.06,41.06,0,0,0,7.34,94.4a.73.73,0,0,0,0-1L2.64,87.9a.69.69,0,0,1-.15-.63L6.66,70.5a.76.76,0,0,0-.84-.91L5,69.66a.75.75,0,0,1-.85-.82l.68-5.34a.76.76,0,0,1,.71-.64l2.54-.22a.75.75,0,0,0,.69-.56l1.1-4.27a.77.77,0,0,1,.8-.56l6.69.34a.74.74,0,0,1,.71.93l-.68,2.33a.75.75,0,0,0,.82.93L27.07,61a.75.75,0,0,1,.84.82l-.76,5.93-1.13.1c-.2,1.23-.41,2.43-.63,3.59A100.57,100.57,0,0,1,23,81.82a43.94,43.94,0,0,1-4.57,10.47.68.68,0,0,0,0,.76l4.48,6.63A.69.69,0,0,1,22.82,100.55ZM16.54,68.68l-.86.08a.77.77,0,0,0-.69.55L11.4,82.05a.71.71,0,0,0,.09.57l1,1.54a.8.8,0,0,0,1.4-.13,46.47,46.47,0,0,0,1.93-6,82.58,82.58,0,0,0,1.59-8.51A.78.78,0,0,0,16.54,68.68ZM24.89,83l.71-5.57a.76.76,0,0,1,.71-.65L35.22,76a.76.76,0,0,0,.71-.64l.15-1.15a.76.76,0,0,1,.1-.3l6.14-9.58a.75.75,0,0,0-.74-1.12l-11.79,1a.75.75,0,0,1-.85-.82l.72-5.64a.76.76,0,0,1,.71-.65L53.18,55.2a.77.77,0,0,1,.83.6l1.06,5.28a.7.7,0,0,1-.09.51L47.35,73.84A.74.74,0,0,0,48.09,75l4.73-.4a.76.76,0,0,1,.84.82L53,80.94a.76.76,0,0,1-.7.65l-6.11.52a.76.76,0,0,0-.7.64L42.86,103a.77.77,0,0,1-.71.65l-13.27,1.12a.78.78,0,0,1-.81-.49l-1.73-4.84a.73.73,0,0,1,.67-1L32.43,98a.76.76,0,0,0,.7-.65L34.84,84a.75.75,0,0,0-.85-.82l-8.25.7A.76.76,0,0,1,24.89,83Z"/><path class="cls-1" d="M46.07,82.92l-5.63.48a.51.51,0,0,1-.57-.56l.48-3.8a.51.51,0,0,1,.48-.44l6.08-.52,8.78-.74,3.22-.28a.52.52,0,0,1,.58.56L59,81.42a.51.51,0,0,1-.48.44l-4.16.36Z"/><path class="cls-4" d="M3.56,67.14l-2.92.25a.27.27,0,0,1-.3-.29l.25-2a.28.28,0,0,1,.25-.23L4,64.64l4.55-.39,1.67-.14a.26.26,0,0,1,.3.29l-.25,2a.29.29,0,0,1-.25.23l-2.16.18Z"/><path class="cls-6" d="M135.42,49.51l-4.35,34.11a.75.75,0,0,1-.7.65l-9.37.79a.78.78,0,0,0-.67.5l-3.4,9.4a.76.76,0,0,1-.66.5l-5.94.5a.75.75,0,0,1-.81-1l3-8.16a.75.75,0,0,0-.8-1h0a.76.76,0,0,1-.85-.83l4.75-37.25a.76.76,0,0,1,.71-.64l5.77-.49a.75.75,0,0,1,.84.82l-.3,2.38a.78.78,0,0,0,1.42.5l2.74-3.83a.81.81,0,0,1,.58-.32l5.47-.47a.8.8,0,0,1,.74.37l1.8,2.95A.74.74,0,0,1,135.42,49.51ZM127.51,54l-.41-.67a.79.79,0,0,0-.75-.36l-3.64.31a.76.76,0,0,0-.7.64l-.42,3.29a.76.76,0,0,0,.84.83l4.15-.36a.77.77,0,0,0,.71-.64l.33-2.58A.69.69,0,0,0,127.51,54Zm-2.05,9.94-4.15.35a.77.77,0,0,0-.71.65l-.31,2.46a.76.76,0,0,0,.84.82l4.15-.36a.76.76,0,0,0,.71-.64l.31-2.46A.76.76,0,0,0,125.46,63.94Zm-1.33,10.41L120,74.7a.75.75,0,0,0-.7.65L119,77.88a.76.76,0,0,0,.85.82l4.15-.35a.76.76,0,0,0,.7-.65l.33-2.53A.77.77,0,0,0,124.13,74.35Zm25.55-27.57,2.56-.22,9.91-.84,2.77-.23a.75.75,0,0,1,.85.82l-.65,5.11a.77.77,0,0,1-.71.65l-6,.51a.77.77,0,0,0-.71.64l0,.33a.75.75,0,0,0,.84.82l2.67-.22a.78.78,0,0,1,.74.35l1.8,2.81a.7.7,0,0,1,.11.47l-.63,4.91,1.08-.09-.84,6.61-1.08.09-1.14,8.91a.76.76,0,0,1-.7.64l-1.23.11a.76.76,0,0,0-.71.71l-.3,11a.77.77,0,0,1-.72.72l-2.11.18a.77.77,0,0,1-.85-.76L155.19,73l-2.48,19.47a.76.76,0,0,1-.71.64l-4.63.4a.76.76,0,0,1-.84-.82L148,80.81a.75.75,0,0,0-.84-.82l-2.29.1a.75.75,0,0,0-.7.65l-1.6,12.49a.77.77,0,0,1-.7.65l-4.61.47a.76.76,0,0,1-.85-.82l1.63-12.77-.59,0-2.67,12a.77.77,0,0,1-.69.59l-2.06.17a.75.75,0,0,1-.83-.88l2.56-11.59-1,.08.74-5.79a.76.76,0,0,1,.7-.64l4-.34a.76.76,0,0,0,.71-.65l.2-1.54a.76.76,0,0,0-.85-.82l-3.65.31a.76.76,0,0,1-.85-.82l.65-5.12a.77.77,0,0,1,.71-.64l4.31-.37a.76.76,0,0,0,.71-.65l.14-1.08a.76.76,0,0,0-.85-.83l-3.17.27a.75.75,0,0,1-.84-.82l.61-4.81a.77.77,0,0,1,.71-.64l3.83-.33a.76.76,0,0,0,.7-.65l0-.32a.75.75,0,0,0-.84-.82l-3.49.29a.76.76,0,0,1-.85-.82l.65-5.11a.77.77,0,0,1,.71-.65l2.4-.2Zm.88,6.39-2.28.11a.76.76,0,0,0-.71.64l0,.26a.76.76,0,0,0,.84.82l2.29-.11a.76.76,0,0,0,.7-.65l0-.25A.76.76,0,0,0,150.56,53.17Zm-1.05,8.21-2.28.1a.77.77,0,0,0-.71.65l-.13,1.09a.76.76,0,0,0,.84.82l2.28-.11a.76.76,0,0,0,.71-.65l.14-1.08A.75.75,0,0,0,149.51,61.38Zm-1.16,9.11-2.28.11a.77.77,0,0,0-.71.65l-.2,1.62a.76.76,0,0,0,.84.82l2.28-.11a.76.76,0,0,0,.71-.65l.21-1.62A.76.76,0,0,0,148.35,70.49Zm9.48-7.27.14-1.14-.84-1.35-.38,0-.33,2.58ZM155.19,73l1.41-.12.4-3.11-1.41.12Z"/><path class="cls-6" d="M148.35,48,143,48.5a.76.76,0,0,1-.85-.81l.48-5.62a1.14,1.14,0,0,1,1.06-1l1.69-.15,3.35-.29a.77.77,0,0,1,.85.8l-.54,5.93A.76.76,0,0,1,148.35,48Z"/><path class="cls-7" d="M157.94,48.88l-5.34.47a.75.75,0,0,1-.85-.8l.49-5.62a1.13,1.13,0,0,1,1-1l1.69-.14,3.35-.3a.76.76,0,0,1,.85.8l-.54,5.93A.75.75,0,0,1,157.94,48.88Z"/><path class="cls-6" d="M117.85,82.45l-.55,4.6a.7.7,0,0,0,.36.71l11,6.4a.79.79,0,0,0,1.19-.55l.57-4.69a.74.74,0,0,0-.37-.72l-11-6.3A.79.79,0,0,0,117.85,82.45Z"/><path class="cls-6" d="M116,53.76l-2.92.25a.28.28,0,0,1-.3-.29l.25-2a.28.28,0,0,1,.25-.23l3.15-.27,4.55-.38,1.67-.14a.27.27,0,0,1,.3.29l-.25,2a.27.27,0,0,1-.25.23l-2.16.19Z"/><path class="cls-6" d="M229.59,68.05l-2.91.25a.26.26,0,0,1-.3-.29l.25-2a.26.26,0,0,1,.25-.22l3.15-.27,4.54-.39,1.67-.14a.27.27,0,0,1,.3.29l-.25,2a.27.27,0,0,1-.25.23l-2.15.18Z"/><path class="cls-1" d="M160.28,70.27l-1.84.15a.17.17,0,0,1-.19-.18l.16-1.24a.17.17,0,0,1,.15-.15l2-.16,2.87-.25,1.06-.09a.16.16,0,0,1,.18.19l-.15,1.24a.16.16,0,0,1-.16.14L163,70Z"/><path class="cls-6" d="M173,91.85,170.59,86a.9.9,0,0,1,.34-1.1A60.44,60.44,0,0,0,183,74.3a56.57,56.57,0,0,0,8.54-13.13.9.9,0,0,0-.9-1.28l-15.48,1.33a.92.92,0,0,1-1-1l.7-5.58a.92.92,0,0,1,.83-.79l17.17-1.48a.91.91,0,0,0,.83-.79l.95-7.59a.9.9,0,0,1,.82-.79l10.38-.89a.9.9,0,0,1,1,1L206,50.13a.92.92,0,0,0,1,1l17-1.46a.9.9,0,0,1,1,1l-.7,5.58a.89.89,0,0,1-.82.79l-18,1.54a.89.89,0,0,0-.75.56,67.83,67.83,0,0,1-4.88,9.58.9.9,0,0,0,1.12,1.31l7.18-3a.89.89,0,0,1,1.08.3L219.93,82a.91.91,0,0,1-.07,1.16l-5.2,5.52a.92.92,0,0,1-1.27,0L197.24,74.2a.91.91,0,0,0-1.32.12A61.62,61.62,0,0,1,186,84.5a73.16,73.16,0,0,1-11.73,7.81A.92.92,0,0,1,173,91.85Z"/><path class="cls-6" d="M243,78.44l12.53-1.08a.92.92,0,0,0,.73-.5l.77-1.54a.92.92,0,0,1,.74-.5l9.1-.78a.74.74,0,0,1,.73,1.06l-.05.1a.74.74,0,0,0,.72,1.07l5.29-.46a.91.91,0,0,1,1,1l-.44,3.5a.9.9,0,0,1-.82.79l-49.19,4.22a.91.91,0,0,1-1-1l.44-3.5a.92.92,0,0,1,.83-.8l5.87-.5a.91.91,0,0,0,.8-1.12l-.06-.24a.91.91,0,0,1,.81-1.12l9.09-.78a.91.91,0,0,1,1,.68l.19.8A.93.93,0,0,0,243,78.44Zm33.77-24.92-.49,3.87a.91.91,0,0,1-.82.79l-47.78,4.1a.9.9,0,0,1-1-1l.48-3.87a.92.92,0,0,1,.83-.79l47.77-4.1A.92.92,0,0,1,276.74,53.52Zm-11-15.36-.1.74,1.95-.08a.9.9,0,0,1,1,1l-.18,1.43a.91.91,0,0,1-.82.79l-2.33.11-.1.74,2.28-.1a.9.9,0,0,1,1,1l-.17,1.35a.89.89,0,0,1-.82.79l-2.66.15-.09.74,4.42-.21a.91.91,0,0,0,.82-.79l1.27-10.12a.92.92,0,0,1,.83-.79l4.81-.5a.92.92,0,0,1,1,1l-1.93,15.37a.92.92,0,0,1-.83.79L229.74,55.5a.92.92,0,0,1-1-1l1.93-15.37a.91.91,0,0,1,.83-.79l4.81-.5a.9.9,0,0,1,1,1l-1.17,9.35a.9.9,0,0,0,1,1l4-.32.09-.74-2.26.25a.91.91,0,0,1-1-1l.17-1.34a.91.91,0,0,1,.82-.8l2.65-.28.09-.74-2,.23a.92.92,0,0,1-1-1l.18-1.42a.91.91,0,0,1,.83-.79l2.37-.27.1-.74-2.16.24a.9.9,0,0,1-1-1l.14-1.13a.91.91,0,0,1,.82-.79l2.54-.28.1-.81,3.67-.34-.11.81,2.28-.11a.9.9,0,0,1,1,1l-.14,1.12a.91.91,0,0,1-.82.8l-2.66.14-.09.74,1.94-.08a.91.91,0,0,1,1,1L248.54,43a.91.91,0,0,1-.82.79l-2.33.12-.1.74,2.28-.11a.91.91,0,0,1,1,1l-.17,1.34a.92.92,0,0,1-.83.8l-2.66.14-.09.74,4.37-.2a.91.91,0,0,0,.82-.79l1.46-11.61a.91.91,0,0,1,.82-.79l4.14-.52a.91.91,0,0,1,1,1L256,46.47a.91.91,0,0,0,1,1l4-.23.09-.74-2.29.17a.91.91,0,0,1-1-1l.17-1.35a.91.91,0,0,1,.82-.79l2.69-.2.09-.74-2,.14a.91.91,0,0,1-1-1l.18-1.42a.89.89,0,0,1,.82-.79l2.36-.18.09-.74-2.19.16a.91.91,0,0,1-1-1l.14-1.12a.91.91,0,0,1,.83-.79l2.57-.2.11-.81,3.62-.43-.1.82,2.27-.11a.91.91,0,0,1,1,1l-.14,1.12a.9.9,0,0,1-.82.79Zm7.34,25.69-1,8.07a.91.91,0,0,1-.82.79l-43,3.69a.91.91,0,0,1-1-1l1.44-11.44a.89.89,0,0,1,.82-.79l8.64-.74a.91.91,0,0,1,1,1v0a.9.9,0,0,0,1.67.58l1-1.55a.87.87,0,0,1,.69-.43l27.59-2.37a.91.91,0,0,1,.84.41l2.05,3.16A.92.92,0,0,1,273.07,63.85Zm-10.85,3.83-.7-1.07a.9.9,0,0,0-.84-.41l-21.52,1.85a.73.73,0,0,0-.67.64l0,.21a.74.74,0,0,0,.8.83l22.95-2Z"/><path class="cls-6" d="M289.87,85.22l.76-6.08a.91.91,0,0,0-1.21-1l-9.77,3.64a.92.92,0,0,1-1.22-1l4.84-38.52a.91.91,0,0,1,.82-.79l6.79-.58a.91.91,0,0,1,1,1l-3.48,27.67a.92.92,0,0,0,1.22,1l1.69-.63a.92.92,0,0,0,.59-.74l3.84-30.63a.91.91,0,0,1,.82-.79l6.47-.55a.91.91,0,0,1,1,1l-5.85,46.61a.91.91,0,0,1-.83.79l-6.46.56A.91.91,0,0,1,289.87,85.22Zm29.27-45.89,13.6-1.17a.9.9,0,0,1,1,1l-.66,5.28a.44.44,0,0,1-.4.39l-.52,0a.43.43,0,0,0-.39.33A64.24,64.24,0,0,1,328,56.37a71.72,71.72,0,0,1-5.56,10.33.92.92,0,0,0,0,1l6.24,9.86a.93.93,0,0,1-.17,1.17L323.71,83a.91.91,0,0,1-1.33-.13l-5.49-7.18a.91.91,0,0,0-1.39-.06,49.72,49.72,0,0,1-6.3,5.71,29.94,29.94,0,0,1-6.66,3.88.9.9,0,0,1-1.17-.5l-1.8-4.27a.91.91,0,0,1,.36-1.12,37.06,37.06,0,0,0,5.71-4.47A54.87,54.87,0,0,0,311,69a.92.92,0,0,0,0-1.12l-7-9.2a.9.9,0,0,1,.3-1.35l8-4.26a.89.89,0,0,1,1.19.31l2.75,4.37a.91.91,0,0,0,1.59-.09q1.17-2.5,2.11-5.07A57.18,57.18,0,0,0,321.61,47a.91.91,0,0,0-1-1.13l-4.95.43a.9.9,0,0,0-.77.59l-1.65,4.52a.91.91,0,0,1-.78.59l-8.15.7a.9.9,0,0,1-.93-1.22l5.36-14.35a.93.93,0,0,1,.78-.58l8.1-.7a.9.9,0,0,1,.93,1.22l-.38,1A.91.91,0,0,0,319.14,39.33Z"/><path class="cls-1" d="M214.38,54.12l-5.63.48a.52.52,0,0,1-.58-.56l.49-3.8a.52.52,0,0,1,.48-.44l6.08-.52,8.77-.74,3.23-.27a.52.52,0,0,1,.58.56l-.49,3.8a.52.52,0,0,1-.48.44l-4.16.35Z"/><path class="cls-7" d="M328.58,46.05l-2.92.25a.27.27,0,0,1-.29-.29l.25-2a.27.27,0,0,1,.25-.23l3.15-.26,4.54-.39,1.67-.14a.26.26,0,0,1,.3.29l-.25,2a.28.28,0,0,1-.25.23l-2.15.18Z"/><path class="cls-4" d="M262.54,71.5l-5.63.48a.52.52,0,0,1-.58-.56l.49-3.8a.51.51,0,0,1,.48-.44l6.08-.52,8.77-.74,3.23-.28a.52.52,0,0,1,.58.56l-.49,3.8a.51.51,0,0,1-.48.44l-4.16.36Z"/><path class="cls-6" d="M44.15,114.69a2.54,2.54,0,0,1,1.93-1.1l279-18.65a2.52,2.52,0,0,1,2.69,2.84l-2.1,14.74a2.53,2.53,0,0,1-2.34,2.15l-287,19.2a1.86,1.86,0,0,1-1.77-2.79Z"/><path class="cls-6" d="M31.38,134.13l-3.79.26a.36.36,0,0,1-.38-.4l.38-2.67a.35.35,0,0,1,.33-.3l4.09-.28,5.91-.41,2.17-.15a.35.35,0,0,1,.37.41l-.37,2.66a.37.37,0,0,1-.33.3l-2.8.19Z"/><path class="cls-6" d="M25.89,128.92l-3.79.26a.35.35,0,0,1-.38-.4l.38-2.66a.35.35,0,0,1,.33-.3l4.09-.28,16.66-.93,2.17-.14a.35.35,0,0,1,.38.4l-.38,2.66a.36.36,0,0,1-.33.3l-2.8.19Z"/><path class="cls-6" d="M31,122.65l-3.79.26a.36.36,0,0,1-.38-.4l.38-2.66a.36.36,0,0,1,.33-.3l4.1-.28,16.65-.92,2.17-.15a.35.35,0,0,1,.38.4l-.38,2.66a.35.35,0,0,1-.33.3l-2.8.19Z"/><path class="cls-8" d="M46.11,116.64a2.55,2.55,0,0,1,1.92-1.1l279-18.65a2.52,2.52,0,0,1,2.68,2.85l-2.1,14.74a2.52,2.52,0,0,1-2.33,2.15l-287,19.2A1.87,1.87,0,0,1,36.53,133Z"/><path class="cls-8" d="M46.11,116.64a2.55,2.55,0,0,1,1.92-1.1l279-18.65a2.52,2.52,0,0,1,2.68,2.85l-2.1,14.74a2.52,2.52,0,0,1-2.33,2.15l-287,19.2A1.87,1.87,0,0,1,36.53,133Z"/><path class="cls-8" d="M33.34,136.08l-3.79.26a.35.35,0,0,1-.38-.4l.38-2.66a.35.35,0,0,1,.32-.3l4.1-.28,5.9-.41,2.17-.15a.35.35,0,0,1,.38.4L42,135.2a.36.36,0,0,1-.33.31l-2.8.19Z"/><path class="cls-8" d="M27.85,130.88l-3.79.26a.36.36,0,0,1-.38-.4l.38-2.66a.35.35,0,0,1,.33-.31l4.09-.28,16.65-.92,2.17-.15a.36.36,0,0,1,.38.4l-.38,2.66a.36.36,0,0,1-.33.31l-2.8.19Z"/><path class="cls-8" d="M32.91,124.61l-3.79.26a.36.36,0,0,1-.38-.4l.38-2.66a.35.35,0,0,1,.33-.31l4.09-.28,16.65-.92,2.17-.15a.35.35,0,0,1,.38.4l-.38,2.66a.35.35,0,0,1-.32.31l-2.81.19Z"/><path class="cls-8" d="M44.15,114.69a2.54,2.54,0,0,1,1.93-1.1l279-18.65a2.52,2.52,0,0,1,2.69,2.84l-2.1,14.74a2.53,2.53,0,0,1-2.34,2.15l-287,19.2a1.86,1.86,0,0,1-1.77-2.79Z"/><path class="cls-8" d="M44.15,114.69a2.54,2.54,0,0,1,1.93-1.1l279-18.65a2.52,2.52,0,0,1,2.69,2.84l-2.1,14.74a2.53,2.53,0,0,1-2.34,2.15l-287,19.2a1.86,1.86,0,0,1-1.77-2.79Z"/><path class="cls-8" d="M31.38,134.13l-3.79.26a.36.36,0,0,1-.38-.4l.38-2.67a.35.35,0,0,1,.33-.3l4.09-.28,5.91-.41,2.17-.15a.35.35,0,0,1,.37.41l-.37,2.66a.37.37,0,0,1-.33.3l-2.8.19Z"/><path class="cls-8" d="M25.89,128.92l-3.79.26a.35.35,0,0,1-.38-.4l.38-2.66a.35.35,0,0,1,.33-.3l4.09-.28,16.66-.93,2.17-.14a.35.35,0,0,1,.38.4l-.38,2.66a.36.36,0,0,1-.33.3l-2.8.19Z"/><path class="cls-8" d="M31,122.65l-3.79.26a.36.36,0,0,1-.38-.4l.38-2.66a.36.36,0,0,1,.33-.3l4.1-.28,16.65-.92,2.17-.15a.35.35,0,0,1,.38.4l-.38,2.66a.35.35,0,0,1-.33.3l-2.8.19Z"/><path class="cls-1" d="M44.15,114.69a2.54,2.54,0,0,1,1.93-1.1l279-18.65a2.52,2.52,0,0,1,2.69,2.84l-2.1,14.74a2.53,2.53,0,0,1-2.34,2.15l-287,19.2a1.86,1.86,0,0,1-1.77-2.79Z"/><path class="cls-1" d="M44.15,114.69a2.54,2.54,0,0,1,1.93-1.1l279-18.65a2.52,2.52,0,0,1,2.69,2.84l-2.1,14.74a2.53,2.53,0,0,1-2.34,2.15l-287,19.2a1.86,1.86,0,0,1-1.77-2.79Z"/><path class="cls-1" d="M31.38,134.13l-3.79.26a.36.36,0,0,1-.38-.4l.38-2.67a.35.35,0,0,1,.33-.3l4.09-.28,5.91-.41,2.17-.15a.35.35,0,0,1,.37.41l-.37,2.66a.37.37,0,0,1-.33.3l-2.8.19Z"/><path class="cls-1" d="M25.89,128.92l-3.79.26a.35.35,0,0,1-.38-.4l.38-2.66a.35.35,0,0,1,.33-.3l4.09-.28,16.66-.93,2.17-.14a.35.35,0,0,1,.38.4l-.38,2.66a.36.36,0,0,1-.33.3l-2.8.19Z"/><path class="cls-1" d="M31,122.65l-3.79.26a.36.36,0,0,1-.38-.4l.38-2.66a.36.36,0,0,1,.33-.3l4.1-.28,16.65-.92,2.17-.15a.35.35,0,0,1,.38.4l-.38,2.66a.35.35,0,0,1-.33.3l-2.8.19Z"/><path class="cls-9" d="M66.07,124.63l-4.34.29-1.81,3.56-2,.13,6.74-12.51,2.28-.15,1.54,12-2.09.13Zm-.15-1.48-.15-1.61c-.14-1.31-.22-2.64-.32-4h-.07c-.65,1.42-1.33,2.79-2,4.15l-.85,1.67Z"/><path class="cls-9" d="M73.56,115.52l3.78-.25c2.78-.19,4.57.61,4,3.37s-2.81,4-5.52,4.22l-1.89.12-1,4.64-2,.13Zm2.38,5.81c2-.14,3.11-1,3.45-2.56s-.58-2.08-2.56-2l-1.63.11-1,4.51Z"/><path class="cls-9" d="M85.38,114.74l3.78-.25c2.79-.19,4.57.61,4,3.37s-2.82,4-5.53,4.22l-1.88.13-1,4.63-2,.13Zm2.38,5.81c2-.14,3.11-1,3.45-2.56s-.58-2.08-2.56-1.94l-1.63.1-1,4.51Z"/><path class="cls-9" d="M109.25,124.59,109,126l-15.3,1,.3-1.41,2.3-.15,2-9.48,4-.26c.14-.36.29-.74.42-1.14l-6,.39L97,113.6l6.15-.41c.17-.47.31-1,.43-1.35l1.71,0-.47,1.21,6.54-.43L111,114l-6.8.45c-.15.41-.31.78-.48,1.15l5.28-.35-2,9.48Zm-11.47.76,7.63-.51.26-1.23-7.63.51Zm.51-2.4,7.63-.5.26-1.2-7.64.5Zm8.37-4-7.63.51-.24,1.11,7.63-.5Zm-7.14-1.82-.25,1.16,7.64-.5.24-1.16Z"/><path class="cls-9" d="M124.92,124.1c.61,0,.75-.23,1.12-1.55a2.88,2.88,0,0,0,1.2.38c-.55,1.81-1,2.28-2.41,2.37l-2.71.18c-1.78.12-2.15-.2-1.88-1.48l.23-1-2.21.15c-1,1.7-2.51,2.6-6.39,3.25a3.23,3.23,0,0,0-.43-1.13c3.27-.45,4.52-1,5.23-2l-1.9.13,1.16-5.48,9.57-.63-1.17,5.47-2.34.16-.22,1.05c-.08.38,0,.4.78.36Zm-10.13-5.47-1.39.1.51-2.4,1.75-.11.6-4h0a31.7,31.7,0,0,0,3.25-1.44l.73.59a21.29,21.29,0,0,1-2.64,1.15l-.08.54,2-.14-.19.88-1.95.13-.08.63,2-.13-.19.88-1.92.13-.1.64,2.63-.17a3.44,3.44,0,0,0-.49-.46,13.73,13.73,0,0,0,1.62-.92,6.89,6.89,0,0,0-.8-.49l.75-.61a8.21,8.21,0,0,1,.86.52c.34-.29.62-.57.88-.83l.86.17a9.69,9.69,0,0,1-1.12,1.09,5,5,0,0,1,.73.68l-.79.65a6.07,6.07,0,0,0-.72-.7c-.45.32-.92.61-1.37.87l5.15-.34.19-.65-2,.13.19-.88,2-.13.18-.64-2,.13.19-.88,2-.13.17-.64L124,112l.21-1,3.7-.24c-.37,1.5-.85,3.37-1.24,4.67l1.64-.11-.51,2.4-1.44.09.29-1.38-11.56.76Zm1.65,3.75L123,122l.16-.72-6.52.43Zm.33-1.55,6.51-.43.15-.7-6.51.43Zm.32-1.51,6.51-.43.15-.7-6.51.43Zm5.41-6.19a5.67,5.67,0,0,0-.65-.63,10.38,10.38,0,0,1-1.48.91,4,4,0,0,0-.58-.6,9,9,0,0,0,1.42-.78c-.25-.16-.5-.29-.74-.43l.72-.58c.28.13.55.29.83.45a7.22,7.22,0,0,0,.85-.78l.85.19a8.7,8.7,0,0,1-1.07,1,5,5,0,0,1,.61.57Z"/><path class="cls-9" d="M137.45,114.35a18.66,18.66,0,0,1-2.56,6.14,15.38,15.38,0,0,1,1.64,1.88l-1.33,1.36a11.91,11.91,0,0,0-1.41-1.77,18.84,18.84,0,0,1-3.68,3.24,3.76,3.76,0,0,0-.89-1,15.69,15.69,0,0,0,3.64-3.2c-.73-.73-1.5-1.44-2.17-2,.54-1.05,1.16-2.47,1.75-3.93l-1.18.14.14-1.47,1.63-.17c.45-1.26.89-2.52,1.22-3.64l1.53,0c-.35,1.09-.77,2.28-1.21,3.49l1.71-.19.25-1.15,1.46-.1-.23,1.07,1-.12-.31,1.39Zm-3.46.45c-.5,1.26-1,2.47-1.5,3.52.45.38.93.81,1.39,1.24a16.16,16.16,0,0,0,2.09-5Zm12,2.51-3.58.24-1.09,5.14a1.81,1.81,0,0,1-1.11,1.55,9.48,9.48,0,0,1-2.84.45,5.05,5.05,0,0,0-.23-1.45c.93,0,1.88-.09,2.13-.12s.39-.09.44-.34l1.09-5.12-3.75.24.32-1.48,3.75-.24.37-1.77a20.71,20.71,0,0,0,2.81-2.74l-5.29.35.3-1.41,6.37-.42.38-.11.92.68a28.39,28.39,0,0,1-4,3.86l-.3,1.45,3.58-.24Z"/><path class="cls-9" d="M151.52,117.58l-1,4.5a1.74,1.74,0,0,1-.84,1.37,4.38,4.38,0,0,1-2,.42,5.1,5.1,0,0,0-.11-1.35c.5,0,1-.06,1.13-.08s.27-.06.31-.26l.85-4c-.61.24-1.19.48-1.71.66l-.08-1.46c.61-.2,1.32-.44,2.11-.72l.71-3.35-1.78.12.31-1.45,1.78-.11.68-3.23,1.48-.1-.69,3.23,1.5-.1-.31,1.45-1.49.1-.6,2.82,1.47-.54-.06,1.35Zm4.77,2.53a29.75,29.75,0,0,1-3.75,3.28,8.64,8.64,0,0,0-.92-.89,20.55,20.55,0,0,0,3.42-2.76Zm2.34-.84-.86,4.07-1.5.1.87-4.07-4.28.28.27-1.26,4.28-.28.24-1.14-4,.27.81-3.81,4.32-.29-.8,3.78.82,0,.8-3.78,4.46-.29-.81,3.8-4.12.28L158.9,118l4.46-.3-.27,1.27Zm-1.34-4.94-1.85.12L155.1,116l1.85-.12Zm5.24-2.09-6.32.42L157,109l6.33-.42Zm-.88-2.46-3.53.23-.3,1.44,3.52-.23Zm-1.43,9.5a12.11,12.11,0,0,1,2.49,2.46l-1.22,1a11.94,11.94,0,0,0-2.43-2.56Zm.05-3.58,1.94-.12.34-1.6-1.94.13Z"/><path class="cls-9" d="M173.21,107.78a36.31,36.31,0,0,1-2.41,3.59l-2.39,11.22-1.59.11,1.86-8.78a23.31,23.31,0,0,1-1.73,1.72,7.07,7.07,0,0,0-.55-1.54,26.89,26.89,0,0,0,5.4-6.68Zm4.35,3.34-.45,2.11,4.61-.3-.3,1.41-4.61.31-.47,2.21,4.85-.32-.31,1.44-4.85.32-.82,3.86-1.61.11,2.34-11-.95.06a25,25,0,0,1-3,3.49,6.11,6.11,0,0,0-1-1,25.49,25.49,0,0,0,5-6.56l1.43.3c-.42.73-.87,1.48-1.34,2.2l6.82-.45-.32,1.48Z"/><path class="cls-9" d="M195.82,108.84a13.59,13.59,0,0,1-1.71,4.58l-.86-.35a13.11,13.11,0,0,0,1.61-4.3Zm1-3.14,1.41-.09L195,120.86l-1.4.09Zm4.74,12.18a15.68,15.68,0,0,0-1.09-1.78l-.95,4.46-1.39.09.94-4.42a16.35,16.35,0,0,1-2.63,3.4,5.43,5.43,0,0,0-.39-1.32,15.57,15.57,0,0,0,2.9-3.63l-1.43.09.94-4.39-.66.27a8.45,8.45,0,0,0-.09-2.33l1-.35a7.67,7.67,0,0,1,.17,2l1.56-.1.32-1.51-1.95.12.27-1.24,1.95-.13.37-1.75,1.39-.09-.37,1.75,2-.13-.26,1.24-2,.13-.32,1.52,1.92-.13-1,4.74-1.91.13,0,.08c.49.51,1.5,1.77,1.74,2.11Zm-2.69-4.39,1-.07.49-2.31-1,.07Zm5.73,4.27a15.4,15.4,0,0,1-3,2.74,5.5,5.5,0,0,0-.87-.87,10.15,10.15,0,0,0,2.56-2.19ZM202.36,111l-1,.06-.49,2.31,1-.06Zm1.79-.59,4.89-.33L207.57,117l-4.89.32Zm3.14-3.75a6.2,6.2,0,0,1-3.19,3.67,2,2,0,0,0-.58-1,4.67,4.67,0,0,0,2.42-2.63l-1.34.08.24-1.16,5.46-.36s-.07.33-.12.52c-.5,2-.76,2.92-1.14,3.3a1.39,1.39,0,0,1-.9.45,6.9,6.9,0,0,1-1.25.14,3,3,0,0,0,0-1.23,7.17,7.17,0,0,0,.82,0,.58.58,0,0,0,.38-.16,5.17,5.17,0,0,0,.59-1.76Zm-3.12,9.51,2.32-.15.2-1-2.32.15Zm.41-1.92,2.32-.16.2-.94-2.32.15Zm.4-1.92,2.33-.15.2-1-2.33.16Zm1.51,4.87a8.87,8.87,0,0,1,1.25,2.23l-1.39.72a10.15,10.15,0,0,0-1.16-2.34Z"/><path class="cls-9" d="M221.41,104.13c-.16.64-.36,1.5-.65,2.49-.2,2.06-.58,8.63,4.8,10.82a6.81,6.81,0,0,0-1.44,1.38c-3.59-1.58-4.66-5.11-4.93-8a19.49,19.49,0,0,1-8.3,9,3.29,3.29,0,0,0-1-1.15c7.68-4,9.14-11.71,9.76-14.38Z"/><path class="cls-9" d="M239.66,116.29c1.55-.1,1.9-.6,2.63-2.91a3.9,3.9,0,0,0,1.34.52c-.85,2.7-1.63,3.62-4.2,3.79l-5.63.37c-2.69.17-3.39-.34-2.9-2.63l1-4.86-2.73,1-.12-1.37,3.18-1.11,1-4.6,1.55-.11-.88,4.14,3.3-1.15.91-4.29,1.58-.1-.81,3.81,3.79-1.32.51-.35,1.11.29-.12.27a72.1,72.1,0,0,1-2.23,7.28l-1.23-.28c.52-1.41,1.15-3.68,1.66-5.71l-3.81,1.33-1.33,6.28-1.58.11,1.23-5.8-3.3,1.15-1.14,5.37c-.26,1.2,0,1.41,1.63,1.3Z"/><path class="cls-9" d="M252.75,115.54a1.59,1.59,0,0,1-.89,1.31,7.74,7.74,0,0,1-2.34.37,3.5,3.5,0,0,0-.23-1.2c.71,0,1.4-.06,1.62-.09s.31-.09.35-.29l.47-2.21c-1.16.72-2.29,1.4-3.28,2l-.21-1.07a9.35,9.35,0,0,1-1.86,3.19,3.79,3.79,0,0,0-.88-1,9.42,9.42,0,0,0,2-4.53l.83-3.91,6.11-.4Zm1.62-12.43a18.25,18.25,0,0,1,1.34,3.57l-1.48.65a6.13,6.13,0,0,0-.26-1c-4.53.7-5.2.84-5.67,1a10.68,10.68,0,0,0-.2-1.38,3.09,3.09,0,0,0,1-.72,24,24,0,0,0,2.72-3.12l1.51.36a32.35,32.35,0,0,1-2.87,3.06l3.08-.41c-.19-.5-.39-1-.58-1.44Zm-5.43,8.83a17.51,17.51,0,0,1-.59,2.11c1-.44,2.28-1.12,3.63-1.8l.13-.61-.9.78a17.77,17.77,0,0,0-2-1.62l1-.79a20.83,20.83,0,0,1,2,1.44l.5-2.34-3.16.21Zm10,3.26c.63,0,.83-.35,1.25-2a2.8,2.8,0,0,0,1.27.47c-.65,2.19-1.19,2.8-2.67,2.9l-2.75.18c-1.78.12-2.14-.3-1.81-1.85l1.15-5.42,1.56-.1-.39,1.83,4.53-.3-.29,1.38-4.53.3-.47,2.19c-.12.57,0,.66.74.61Zm-1.26-6.43c-1.73.12-2.07-.43-1.73-2l1.06-5,1.56-.1-.46,2.14,4.38-.29-.28,1.33-4.38.29-.32,1.53c-.13.6-.06.81.48.77l2.85-.19a9.48,9.48,0,0,0,1.48-.19,12.82,12.82,0,0,0-.12,1.3,7.41,7.41,0,0,1-1.6.22Z"/><path class="cls-9" d="M276.5,111.46a13,13,0,0,1-3.27,2.24,31,31,0,0,0,5.63.45,7.93,7.93,0,0,0-1.07,1.3,26.43,26.43,0,0,1-6.57-.88,41,41,0,0,1-7.52,1.88,4.59,4.59,0,0,0-.46-1.22,44.31,44.31,0,0,0,6.25-1.25,8.89,8.89,0,0,1-2.2-1.34,18.92,18.92,0,0,1-2.78,1.56,5,5,0,0,0-.65-1.11,13.12,13.12,0,0,0,5.07-3.37l1.3.33c-.2.24-.42.47-.66.71l9.4-.62-.25,1.17ZM266.28,108a15.82,15.82,0,0,1-1.17,2.81,5.17,5.17,0,0,0-.74-.44,11.61,11.61,0,0,0,1-2.51Zm2.88-.67a3.86,3.86,0,0,0,0-.59,24.38,24.38,0,0,0-3.74.82c0-.21-.08-.73-.12-1a3.25,3.25,0,0,0,1.14-.73c.24-.19.74-.62,1.28-1.15a7.51,7.51,0,0,0-1.78.35,6.43,6.43,0,0,0-.13-1,2,2,0,0,0,.79-.56,16.17,16.17,0,0,0,2-2.49l1.06.3a23.64,23.64,0,0,1-2.17,2.57l1.24-.15c.38-.4.75-.82,1.1-1.25l1,.41a37.55,37.55,0,0,1-3.52,3.43l1.79-.33a4.68,4.68,0,0,0-.17-.86l.95-.31a7.83,7.83,0,0,1,.31,2.25Zm-2.58,3a12.5,12.5,0,0,0,.21-2.34l1-.26a12.92,12.92,0,0,1-.14,2.3Zm1.89-.49a14.55,14.55,0,0,0-.06-2.06l.92-.3a16.37,16.37,0,0,1,.12,2Zm.11,2.18a8.79,8.79,0,0,0,2.9,1.31,12.57,12.57,0,0,0,3.1-1.71Zm1.28-2.19.64-3,4.39-.29-.63,3Zm5.27-4-4.55.3.19-.88,4.55-.3Zm1-3.05-5.24.35.19-.9,2.12-.14a6.32,6.32,0,0,0-.27-1.08l1.25-.44a5.54,5.54,0,0,1,.4,1.43l1.74-.12Zm-.66,1.52-4.54.3.18-.86,4.55-.3Zm-4.42,4.6,2.39-.15.27-1.25-2.39.16Zm5.49-1.57a24.52,24.52,0,0,1-1.09,2.61,6.74,6.74,0,0,0-.79-.45,17.19,17.19,0,0,0,.89-2.32Zm2.83-.65c0-.19,0-.42,0-.67a20.17,20.17,0,0,0-3.78.86,9.85,9.85,0,0,0-.12-1,3.37,3.37,0,0,0,1.14-.73c.22-.18.68-.59,1.19-1.1a7.17,7.17,0,0,0-1.75.35,8,8,0,0,0-.15-1,2.08,2.08,0,0,0,.8-.54,16,16,0,0,0,2-2.48l1,.31a19.82,19.82,0,0,1-2.16,2.54l1.2-.13c.39-.42.78-.84,1.14-1.27l.92.38a37.15,37.15,0,0,1-3.3,3.33l1.78-.3a7.68,7.68,0,0,0-.18-.93l1-.3a9,9,0,0,1,.31,2.36Zm-2.51,2.89a10.31,10.31,0,0,0,.2-2.34l1-.23a11.39,11.39,0,0,1-.14,2.31Zm1.93-.24a19.47,19.47,0,0,0-.08-2.37l.92-.26a14.49,14.49,0,0,1,.14,2.32Z"/><path class="cls-9" d="M286.81,107.5a27.13,27.13,0,0,1-2.3,4.38c.28.16.58.42,1.07.7,1,.62,2.56.62,4.55.49s4.95-.48,6.87-.82a8.38,8.38,0,0,0-.81,1.61c-1.32.17-4.45.48-6.43.61-2.22.14-3.64.06-4.73-.56-.6-.34-1.09-.86-1.46-.84s-1.2,1.13-1.87,2.17l-.76-1.36A12.4,12.4,0,0,1,283,112a20.66,20.66,0,0,0,1.8-3.3l-2.19.15c.64-1,1.41-2.39,2.13-3.72l-1.71.12.3-1.42,3.64-.24c-.61,1.22-1.39,2.62-2,3.79l.95-.06.25-.08Zm-1.55-4.43c-.05-.7-.23-1.85-.3-2.71l1.47-.51c.13.84.29,1.93.36,2.63Zm4.89.89-2.56.17.25-1.16,4.61-.3.22-1-3.57.23.23-1.13,3.58-.23.24-1.13,1.55-.1-.24,1.13,3.64-.24-.24,1.13-3.64.24-.23,1,4.72-.31-.25,1.17-2.68.17.56.11c-.39.54-.79,1.09-1.13,1.5l2.71-.17-.24,1.14-4.52.3-.19.93,3.88-.25-.24,1.11-3.88.26-.22,1,4.56-.3-.24,1.16-4.57.3-.32,1.53-1.54.1.32-1.53-4.43.29.25-1.16,4.43-.29.22-1-3.72.24.24-1.11,3.71-.25.2-.93-4.31.29.25-1.15,2.32-.15a5.22,5.22,0,0,0-.33-1.42Zm3.66,1.21c.29-.43.67-1,1-1.51l-3.72.24a3.94,3.94,0,0,1,.35,1.42l-.6.18,3.44-.23Z"/><path class="cls-9" d="M310.46,98.27c-.15.63-.35,1.49-.64,2.48-.21,2.06-.58,8.63,4.79,10.82a7,7,0,0,0-1.43,1.39c-3.59-1.59-4.66-5.12-4.93-8a19.49,19.49,0,0,1-8.3,9,3.12,3.12,0,0,0-1.05-1.14c7.69-4,9.15-11.72,9.77-14.39Z"/></svg>