<svg id="txt" xmlns="http://www.w3.org/2000/svg" viewBox="0 0 167.88 60"><defs><style>.cls-1{fill:#fff;stroke:#fff;stroke-linecap:round;stroke-linejoin:round;stroke-width:0.86px;}.cls-1,.cls-4,.cls-5{fill-rule:evenodd;}.cls-2,.cls-5{fill:#3e454f;}.cls-3{fill:#9a9497;}.cls-4{fill:#d80c18;}.cls-6{fill:none;}</style></defs><title>工作區域 2</title><path class="cls-1" d="M44.63,24.61a7.11,7.11,0,0,1-.49-.6,5.68,5.68,0,0,0-.38-.64.81.81,0,0,0-.39-.23c-.17,0-.32.18-.47.22s-.41.09-.48.4-.19.79-.32,1.17a6.86,6.86,0,0,1-.32.79,1.1,1.1,0,0,1-.49.59c-.17.11-.12.23-.18.4s-.24.18-.36.34-.06.15-.11.21-.24.12-.32.24-.1.32-.18.46-.15.12-.29.24-.19.45-.36.63-.24.08-.31.19,0,.16,0,.21-.1,0-.13.06-.1.05-.16.24-.2.17-.39.35-.15.31-.26.45a5.47,5.47,0,0,0-.5.58,2.06,2.06,0,0,1-.45.57.6.6,0,0,0-.2.22c0,.06,0,.14,0,.19s-.13,0-.19.07-.13.31-.27.42-.26.09-.3.25,0,.36-.32.45-.29.27-.5.45-.26.11-.34.21-.07.23-.13.35-.3.25-.48.37a3.56,3.56,0,0,0-.66.56c-.18.2-.29.14-.51.25a3.35,3.35,0,0,0-.88.84c-.11.13-.11.2-.3.26s-.27,0-.41.06a1.57,1.57,0,0,0-.64.47c-.16.19-.7.05-.9.2s-.1.16-.23.22a2.12,2.12,0,0,0-.41.12,3.92,3.92,0,0,0-.29.29.57.57,0,0,0-.52.08.93.93,0,0,1-.41.23c-.21.05-.49,0-.69.1s-.24.37-.54.36-.21,0-.41.12-.29.12-.42.17a1,1,0,0,1-.38,0l-.82,0a2.56,2.56,0,0,0-.88.1c-.19.1-.16.11-.37.11a.47.47,0,0,0-.37.16c-.14.15-.07.14-.26.15s-.63-.12-.84,0c0,0,0,.08-.09.11s-.43-.1-.66,0a1,1,0,0,1-.64,0,2.43,2.43,0,0,0-.71-.09c-.31,0-.61.15-.92.2a1.36,1.36,0,0,1-.87-.09.38.38,0,0,0-.27-.12A3.45,3.45,0,0,1,17.16,39c-.15-.09-.31,0-.46-.13s-.08-.1-.13-.14-.18-.06-.26-.12-.17-.24-.33-.29a1.36,1.36,0,0,0-.4,0c-.23,0-.53,0-.67-.18s.06-.12,0-.19-.18,0-.24,0-.29-.23-.46-.24-.47.16-.63,0c0,0,.05-.12,0-.17-.42-.74-.12-.69.26-1a10.15,10.15,0,0,0,1-.87.75.75,0,0,0,.3-.84c.47-.13.19-1,.06-1.27-.06-.12-.16-.2-.16-.34s.13-.37.3-.35.13-.1.15-.12l.13-.06a.41.41,0,0,1,.22,0l.36,0a.23.23,0,0,0,.18-.06c.06-.08.05-.17.18-.15s.12,0,.16,0,0-.06.05-.12c0-.36.52-.25.75-.31a1,1,0,0,0,.57-.4c.36-.42.77-.76,1.16-1.16,0,0,.19,0,.25-.07s.18-.47.3-.7a4.4,4.4,0,0,1,.66-.77c.09-.08.19,0,.27-.11s.07-.24.15-.34.26-.15.35-.25a1.36,1.36,0,0,0,.3-.52c.06-.25,0-.19.22-.34s.08-.15.16-.31.22-.15.35-.2.18-.1.28-.24a5.67,5.67,0,0,0,.59-1,1.81,1.81,0,0,1,.18-.4,7.74,7.74,0,0,0,1.07-1.64c.22-.41.23-.94.45-1.36a5.63,5.63,0,0,0,.51-1c.13-.4,0-.51-.11-.89a.87.87,0,0,1,.1-.47,1.69,1.69,0,0,0,.15-.37c0-.13-.1-.26-.08-.35s.05-.47-.25-.51a1.72,1.72,0,0,1-.55-.1c-1.1-.52-2.37-.11-3.47-.66a4.34,4.34,0,0,0-2.62-.61,3.83,3.83,0,0,1-.47,0c-.06,0-.14,0-.19,0s-.05-.09-.08-.12l-.13-.1a.4.4,0,0,0-.18-.1,2,2,0,0,0-.54,0,1.17,1.17,0,0,1-.46,0c-.1,0-.1-.09-.16-.14a4.94,4.94,0,0,0-1.51-1c-.24-.83-2.41-1.42-1.29-2.44a1.74,1.74,0,0,1,.26-.19,2.06,2.06,0,0,1,1.05-.4A6.52,6.52,0,0,1,16.3,13a4.79,4.79,0,0,1,.75.17,5.85,5.85,0,0,0,.56.28,4.91,4.91,0,0,1,1,.3c.38.19.76.52,1.21.49.22,0,.45-.15.66-.11a2,2,0,0,1,.22.08,2.8,2.8,0,0,1,.79.25.58.58,0,0,0,.29.12,3.15,3.15,0,0,1,.43,0,1.6,1.6,0,0,1,.32.21,1.27,1.27,0,0,0,.39.12c.38.09.75.17,1.14.23a8.17,8.17,0,0,0,1,.22c.58,0,.87.6,1.42.68a2.68,2.68,0,0,1,.8.13,2.12,2.12,0,0,0,.66.32c.63.07,1.22-.29,1.87-.06.1,0,.22,0,.31.05s.25.21.47.26.42,0,.63.08l1,.19c.37.09.8.39,1.21.47a14.58,14.58,0,0,1,2.29.5,22.71,22.71,0,0,0,2.73,1.07c.36.08.71.15,1.07.26s.6.3.92.41a2.64,2.64,0,0,1,.3.07c.11.06.17.2.29.24s.17-.05.25,0,.09.13.15.17a1,1,0,0,0,.49.15.67.67,0,0,1,.31.07c.1,0,.12.14.22.18s.27,0,.37,0a2.48,2.48,0,0,1,.9.35c.16.1.19.24.38.32.45.17,1,.24,1.43.38a1,1,0,0,1,.25.07c.13.07.19.22.24.25a3.44,3.44,0,0,0,.75.24c.25.07.25.23.43.35s.2,0,.26,0a.52.52,0,0,1,.27.15c.15.09.28.07.4.18s.14.2.26.26a2,2,0,0,0,.44.12,2.67,2.67,0,0,1,1,.47,6.28,6.28,0,0,0,1.41,1.11,1.06,1.06,0,0,1,.6.5c.12.19.19.55.42.64l.66.25c.21.08.06.44.46.41a.71.71,0,0,1,0,.14c.6.11.7.35,1,.86s.72.74,1,1.19a1.51,1.51,0,0,1,.12,1.44c-.18.27-.5,0-.76.13s-.24.26-.39.26-.25-.13-.37-.2a1.93,1.93,0,0,0-.41-.12,4.66,4.66,0,0,0-1.11-.12c-.26,0-.33.08-.48-.14s-.28-.2-.58-.18a1.5,1.5,0,0,1-.3,0c-.13-.05-.11-.15-.2-.2s-.37,0-.53-.12,0-.14-.1-.19-.14,0-.24-.05-.2-.29-.34-.44-.35-.12-.53-.18-.21-.33-.35-.51-.44-.13-.6-.26-.08-.26-.15-.35-.45-.12-.65-.26-.21-.42-.35-.61-.2-.1-.35-.14-.17-.06-.26-.23a9.23,9.23,0,0,0-.59-.94c-.16-.2-.42-.2-.63-.32A3.46,3.46,0,0,1,44.63,24.61Z"/><path class="cls-2" d="M83.18,29.53c-.29-.24-.38-.33-.41-.36-.67-1.12-.93-1.37-1.11-1.47a.4.4,0,0,0-.37,0,.37.37,0,0,0-.2.31,3.77,3.77,0,0,1-.3,1,3.79,3.79,0,0,0-.32,1.33c0,.38.15,1.25,1.52,1.25s1.63-.78,1.63-1.25A1.12,1.12,0,0,0,83.18,29.53Z"/><path class="cls-2" d="M80.85,33.25a.38.38,0,0,0-.49,0,4.55,4.55,0,0,0-1.53,1.93,13.85,13.85,0,0,1-.61,1.55c-.25.49-.5,1-.77,1.48a2.94,2.94,0,0,0-.56,1.45,2.8,2.8,0,0,0,.07.56,1.93,1.93,0,0,1,.06.4.38.38,0,0,0,.38.38,4.74,4.74,0,0,0,1.29-.11,1.85,1.85,0,0,0,1-1c.25-.55.43-1,.55-1.26,1.48-3.48,1.48-3.78,1.48-3.94C81.75,34.25,81.47,33.82,80.85,33.25Z"/><path class="cls-2" d="M69.75,38.1a27.75,27.75,0,0,0-3.9-4L72,31.28C80,27.51,83.69,24.15,83.36,21a1.94,1.94,0,0,0-2.24-1.81l-.54,0a14.34,14.34,0,0,0-4.41,1.28L71.59,22.6a13,13,0,0,1-3.82,1.17c-.21,0-.4,0-.56,0a1.55,1.55,0,0,1-.53-.07,4.82,4.82,0,0,0-2.67.84c-.5.62.19,1.11,0,1.74A18.74,18.74,0,0,1,62,31.81c-.82,1-2.31,1.89-2.56,3.29a.4.4,0,0,0,.14.37l.46.36a17.91,17.91,0,0,1-1,2,8.42,8.42,0,0,1-1.33,2,.41.41,0,0,0-.14.3c0,.24.11.65.79.81a4.9,4.9,0,0,0,1,.11.39.39,0,0,0,.18,0c.7-.3,1.33-1.24,1.92-2.88.42-1.19,1-1.82,1.59-1.89,1.45-.15,3,1,4.54,3.53a13.94,13.94,0,0,1,2.33,5.8.36.36,0,0,0,.15.27.4.4,0,0,0,.23.08h.07c2-.38,2.34-1.59,2.24-2.53C72.4,42,71.48,40.25,69.75,38.1Zm-4-6.42-1,.05h0c.85-3.61,5.15-6.85,12.79-9.63a6,6,0,0,1,1.28-.33l.32,0c.7,0,.83.28.86.58,0,.52-.4,1.55-2.85,3.44a43.06,43.06,0,0,1-5.57,3.51C68.79,30.81,66.84,31.62,65.76,31.68Z"/><path class="cls-2" d="M131.51,39.5a4.26,4.26,0,0,1-2.16-.57,2,2,0,0,1-.29-1.3,12,12,0,0,1,1.09-2.3,17.94,17.94,0,0,0,1.34-3,5.33,5.33,0,0,0,.43-1.17c0-.4-.72-.68-1-1a2.83,2.83,0,0,0-1.9-.86,10.21,10.21,0,0,0-3.57,1.11,23.22,23.22,0,0,0-3.27,1.72c-2.52,1.67-4,3.85-4,6a2.13,2.13,0,0,0,2.43,2.29,10,10,0,0,0,3.22-.71,30.7,30.7,0,0,0,3.13-1.43,3.42,3.42,0,0,0,.79,1.68,3.85,3.85,0,0,0,2.38,1.45,2.68,2.68,0,0,0,1.81-1,.89.89,0,0,0-.11-.75A.42.42,0,0,0,131.51,39.5Zm-3.66-4.79a8.28,8.28,0,0,1-2.59,2.64,6.47,6.47,0,0,1-3.28,1,2.28,2.28,0,0,1-1.13-.26.74.74,0,0,1-.43-.69c0-.44.32-1.28,1.85-2.78a12.54,12.54,0,0,1,5.26-3.46,2.82,2.82,0,0,1,1.72-.08c.39.16.41.4.57.77,0,0-.68.73-.74.81-.28.38-.47.8-.71,1.2S128,34.44,127.85,34.71Z"/><path class="cls-2" d="M156,29.62l-.05,0-1-.46a17.87,17.87,0,0,0,1.17-1.85,3,3,0,0,0,.35-1.57,1.59,1.59,0,0,0-.53-1,1.3,1.3,0,0,0-1-.48.38.38,0,0,0-.32.24c-.67,1.67-1.1,2.7-1.28,3.06a5.43,5.43,0,0,1-1.92,2.19,7,7,0,0,1-3,.86c-.15,0-.37,0-.65,0l-.7,0c-.41,0-.82.12-1.24.17a2.38,2.38,0,0,0-1.23.32c-.61.49,0,1.68.55,2a1.84,1.84,0,0,0,1.05.21,10.23,10.23,0,0,0,2.28-.85,4,4,0,0,1,1.36-.39h.06L148.43,34c-1.84,2.27-2.68,3.94-2.57,5.08.15,1.67,1.7,2.52,4.6,2.52.57,0,1.19,0,1.86-.1s3.9-.46,3.66-1.57c-.19-.86-1.74-.29-2.24-.24a15.36,15.36,0,0,1-3.2,0c-.91-.13-2-.42-2.09-1.13,0-.55.29-1.7,2.21-4.07s3-2.92,3.56-3a4.84,4.84,0,0,1,1.08.1c1.21.23,1.23.23,1.28.23h0a.38.38,0,0,0,.34-.38v-.26A1.72,1.72,0,0,0,156,29.62Z"/><path class="cls-2" d="M140.68,31.71a8,8,0,0,0-.81.05l-.37.06-.86.08-.25,0c-.48,0-.49-.19-.53-.27V30.09c0-.18-.34-.61-.53-.6l-.49,0h-.05c-.55.1-.86.43-1,1.35s-.39,2.85-.73,4.18a21.59,21.59,0,0,1-1.64,4.6c-.15.27-.5.68-.42,1,.18.62,1.58.66,2.13.28a3.93,3.93,0,0,0,.85-1.24c.21-.49.38-1.11.62-1.67.41-1,.45-1.46.8-2.44.26-.7.4-1.58,1.12-1.87a3.52,3.52,0,0,1,2.66.26,7.83,7.83,0,0,0,1,.47,1.74,1.74,0,0,0,1.49-.38.85.85,0,0,0,.22-.47C143.7,32.37,142.8,31.71,140.68,31.71Z"/><path class="cls-2" d="M115.94,29.9c-.16,0-.58-.26-3.75,1a24.63,24.63,0,0,0-2.79,1.23c.88-1.65,1.82-3.15,2.68-4.81.49-.93.85-1.65,1.29-2.58.11-.25.45-.72.27-1a2.56,2.56,0,0,0-1.88-.33,11.12,11.12,0,0,0-2,3c-1.14,2.13-1.73,3.14-1.79,3.23-.34.53-1,1.56-2.19,3.22-1.43,2-2.72,3.65-3.12,4.2s-1.26,1.63-1.74,2.32c-.22.31-1.06,1.32-.35,1.53a3.77,3.77,0,0,0,2.08-.12c.52-.31,1.21-1.69,1.56-2.17A13.45,13.45,0,0,1,109,34.17a18.29,18.29,0,0,1,5.88-1.91s0,.06,0,.09a3.08,3.08,0,0,1,0,.39c0,.45-.25,1.48-1.47,3.76-1.06,2-1.57,3.06-1.57,3.77a1.2,1.2,0,0,0,1.34,1.29,7.35,7.35,0,0,0,1.92-.83.35.35,0,0,0,.2-.24.37.37,0,0,0,0-.31,2.11,2.11,0,0,1-.35-1.13c0-.27-.09-.52,1.2-2.81a9.93,9.93,0,0,0,1.59-4,2.64,2.64,0,0,0-.82-2A1.37,1.37,0,0,0,115.94,29.9Z"/><path class="cls-2" d="M100.18,37.72a.42.42,0,0,0-.28-.1l-.49,0a.36.36,0,0,0-.23.08l-.12.11a2.23,2.23,0,0,0-1,.21l-.75.3a33.23,33.23,0,0,1-7.08.65,7.24,7.24,0,0,1-2.9-.51,2,2,0,0,1-1.4-1.87c0-1.19,1.09-2.43,3.25-3.67a10.86,10.86,0,0,1,5.19-1.73h.16c-1,1.24-1.06,1.54-1.06,1.75a1,1,0,0,0,.56.89,1.9,1.9,0,0,0,1,.28c.7,0,1.32-.57,1.9-1.74a5.58,5.58,0,0,0,.69-2.34c0-.6-.39-1.11-1.16-1.53a.36.36,0,0,0-.27,0A28.33,28.33,0,0,0,91.29,30c-5.13,2-7.63,4.29-7.63,6.88S85.8,40.63,90,40.63a28.3,28.3,0,0,0,5.27-.48,12.4,12.4,0,0,0,4.92-1.78.39.39,0,0,0,0-.6Z"/><path class="cls-3" d="M119.11,47.32h-.31V43.9h.31v1.36a.86.86,0,0,1,.4-.35,1.32,1.32,0,0,1,.55-.11,1.25,1.25,0,0,1,.53.1,1.08,1.08,0,0,1,.58.7,1.62,1.62,0,0,1,.08.49,2,2,0,0,1-.07.51A1.06,1.06,0,0,1,121,47a1.08,1.08,0,0,1-.38.28,1.47,1.47,0,0,1-.55.09l-.26,0a1.14,1.14,0,0,1-.26-.09,1.19,1.19,0,0,1-.23-.16.91.91,0,0,1-.18-.21h0Zm0-1.24a1.42,1.42,0,0,0,0,.42,1.06,1.06,0,0,0,.18.33.76.76,0,0,0,.28.22.93.93,0,0,0,.39.08,1,1,0,0,0,.36-.06,1.12,1.12,0,0,0,.29-.19,1.17,1.17,0,0,0,.19-.3,1.3,1.3,0,0,0,.07-.41,2.06,2.06,0,0,0,0-.44,1,1,0,0,0-.17-.35.76.76,0,0,0-.29-.24.87.87,0,0,0-1.08.22,1.14,1.14,0,0,0-.23.72Z"/><path class="cls-3" d="M121.89,48l.12,0h.13a.28.28,0,0,0,.21-.07,1,1,0,0,0,.23-.41.93.93,0,0,1,.09-.2l-1-2.47H122l.86,2.11.85-2.11H124l-1,2.43-.18.41a3,3,0,0,1-.18.32,1,1,0,0,1-.22.2.54.54,0,0,1-.27.07H122l-.13,0Z"/><path class="cls-3" d="M125.63,43.9h2.7v.28h-1.18v3.14h-.35V44.18h-1.17Z"/><path class="cls-3" d="M129.43,45.89l.21,0a.52.52,0,0,0,.2-.06.13.13,0,0,0,.09-.11.36.36,0,0,0,0-.14.46.46,0,0,0-.15-.36.76.76,0,0,0-.51-.14,1.39,1.39,0,0,0-.3,0,.58.58,0,0,0-.23.09.44.44,0,0,0-.16.17.54.54,0,0,0-.09.27h-.31a.85.85,0,0,1,.1-.38,1.14,1.14,0,0,1,.24-.25,1.16,1.16,0,0,1,.34-.14,1.84,1.84,0,0,1,.41,0,1.53,1.53,0,0,1,.38,0A1,1,0,0,1,130,45a.61.61,0,0,1,.21.24.8.8,0,0,1,.07.36V46.9c0,.11,0,.18.07.21s.13,0,.26,0v.23l-.11,0-.14,0-.14,0a.21.21,0,0,1-.12,0,.31.31,0,0,1-.07-.09.36.36,0,0,1,0-.11.49.49,0,0,1,0-.12,1.37,1.37,0,0,1-.45.3,1.42,1.42,0,0,1-.55.1,1.19,1.19,0,0,1-.33,0,.86.86,0,0,1-.29-.13.7.7,0,0,1-.2-.22.74.74,0,0,1-.07-.31c0-.42.31-.67.94-.74ZM130,46a1.86,1.86,0,0,1-.39.1l-.41,0a1.17,1.17,0,0,0-.55.14.43.43,0,0,0-.2.38.38.38,0,0,0,0,.19.44.44,0,0,0,.13.14.49.49,0,0,0,.18.08l.22,0a1.49,1.49,0,0,0,.36-.05.79.79,0,0,0,.31-.13.58.58,0,0,0,.22-.22.57.57,0,0,0,.08-.32Z"/><path class="cls-3" d="M131.1,44.32V43.9h.34v.42Zm0,3V44.86h.31v2.46Z"/><path class="cls-3" d="M132.39,46.55a.72.72,0,0,0,.27.45,1,1,0,0,0,.53.13.91.91,0,0,0,.3,0,.54.54,0,0,0,.2-.1.44.44,0,0,0,.12-.15.37.37,0,0,0-.08-.44,1.19,1.19,0,0,0-.32-.13l-.41-.09a1.64,1.64,0,0,1-.41-.11.7.7,0,0,1-.32-.2.49.49,0,0,1-.13-.37.61.61,0,0,1,.25-.51,1.07,1.07,0,0,1,.69-.19,1.23,1.23,0,0,1,.7.17.82.82,0,0,1,.33.6h-.31a.53.53,0,0,0-.24-.4.91.91,0,0,0-.49-.12.7.7,0,0,0-.44.12.35.35,0,0,0-.16.3.29.29,0,0,0,.13.26,1.11,1.11,0,0,0,.31.14l.42.1a1.93,1.93,0,0,1,.41.12.89.89,0,0,1,.32.21.53.53,0,0,1,.12.37.62.62,0,0,1-.08.31.69.69,0,0,1-.23.22,1.05,1.05,0,0,1-.34.14,2,2,0,0,1-.44,0,1.42,1.42,0,0,1-.42-.06.87.87,0,0,1-.31-.18.86.86,0,0,1-.2-.26.89.89,0,0,1-.08-.33Z"/><path class="cls-3" d="M134.79,47.32V43.9h.31v1.3a1.67,1.67,0,0,1,.38-.29.92.92,0,0,1,.48-.11,1.39,1.39,0,0,1,.46.07.73.73,0,0,1,.35.28.5.5,0,0,1,.12.27,2.64,2.64,0,0,1,0,.29v1.61h-.31V45.71a.7.7,0,0,0-.16-.49.72.72,0,0,0-.53-.17.77.77,0,0,0-.27,0,.84.84,0,0,0-.21.11.57.57,0,0,0-.16.15.54.54,0,0,0-.1.18.65.65,0,0,0-.06.23,1.69,1.69,0,0,0,0,.23v1.33Z"/><path class="cls-3" d="M137.68,44.32V43.9H138v.42Zm0,3V44.86H138v2.46Z"/><path class="cls-3" d="M139.11,47.32h-.31V44.86h.31v.34a1.67,1.67,0,0,1,.38-.29.9.9,0,0,1,.48-.11,1.43,1.43,0,0,1,.46.07.78.78,0,0,1,.35.28.59.59,0,0,1,.12.27,2.64,2.64,0,0,1,0,.29v1.61h-.32V45.71a.66.66,0,0,0-.16-.49.7.7,0,0,0-.53-.17.75.75,0,0,0-.26,0,.7.7,0,0,0-.21.11.46.46,0,0,0-.16.15.87.87,0,0,0-.11.18.64.64,0,0,0,0,.23,1.69,1.69,0,0,0,0,.23Z"/><path class="cls-3" d="M143.14,47.32V43.9h1.34A2.2,2.2,0,0,1,145,44a1.22,1.22,0,0,1,.38.18.8.8,0,0,1,.22.27,1,1,0,0,1,.06.35.75.75,0,0,1-.05.31.67.67,0,0,1-.13.22.62.62,0,0,1-.19.14l-.22.07h0a.83.83,0,0,1,.58.28.88.88,0,0,1,.18.57,1.06,1.06,0,0,1-.09.45.71.71,0,0,1-.25.29.89.89,0,0,1-.38.17,2.46,2.46,0,0,1-.49,0Zm.35-1.91h.89a1.92,1.92,0,0,0,.45,0,.7.7,0,0,0,.3-.13.39.39,0,0,0,.16-.2.61.61,0,0,0,.05-.28.68.68,0,0,0-.05-.27.45.45,0,0,0-.18-.18.92.92,0,0,0-.33-.1,3.23,3.23,0,0,0-.48,0h-.81Zm0,1.63h.89a3.78,3.78,0,0,0,.5,0,1.18,1.18,0,0,0,.36-.1.45.45,0,0,0,.2-.21.73.73,0,0,0,.07-.35.7.7,0,0,0-.07-.35.56.56,0,0,0-.23-.2,1,1,0,0,0-.34-.1,3.1,3.1,0,0,0-.45,0h-.93Z"/><path class="cls-3" d="M147.75,45.89l.21,0a.52.52,0,0,0,.2-.06.14.14,0,0,0,.1-.11.71.71,0,0,0,0-.14.46.46,0,0,0-.15-.36.76.76,0,0,0-.51-.14,1.29,1.29,0,0,0-.29,0,.63.63,0,0,0-.24.09.52.52,0,0,0-.16.17.66.66,0,0,0-.09.27h-.31a.74.74,0,0,1,.11-.38.82.82,0,0,1,.24-.25,1.05,1.05,0,0,1,.34-.14,1.73,1.73,0,0,1,.41,0,1.45,1.45,0,0,1,.37,0,.87.87,0,0,1,.31.12.61.61,0,0,1,.21.24.8.8,0,0,1,.07.36V46.9a.26.26,0,0,0,.07.21s.13,0,.26,0v.23l-.11,0-.13,0-.14,0a.28.28,0,0,1-.13,0,.31.31,0,0,1-.07-.09.36.36,0,0,1,0-.11.49.49,0,0,1,0-.12,1.37,1.37,0,0,1-.45.3,1.4,1.4,0,0,1-.54.1,1.27,1.27,0,0,1-.34,0,.86.86,0,0,1-.29-.13.67.67,0,0,1-.19-.22.62.62,0,0,1-.07-.31c0-.42.3-.67.93-.74Zm.52.14a1.86,1.86,0,0,1-.39.1l-.4,0a1.21,1.21,0,0,0-.56.14.43.43,0,0,0-.2.38.38.38,0,0,0,.05.19.44.44,0,0,0,.13.14.54.54,0,0,0,.19.08.76.76,0,0,0,.21,0,1.42,1.42,0,0,0,.36-.05A.79.79,0,0,0,148,47a.58.58,0,0,0,.22-.22.57.57,0,0,0,.08-.32Z"/><path class="cls-3" d="M149.7,47.32h-.31V44.86h.31v.34a1.92,1.92,0,0,1,.38-.29,1,1,0,0,1,.48-.11,1.35,1.35,0,0,1,.46.07.81.81,0,0,1,.36.28.57.57,0,0,1,.11.27,2.64,2.64,0,0,1,0,.29v1.61h-.31V45.71a.66.66,0,0,0-.16-.49.9.9,0,0,0-.79-.13.91.91,0,0,0-.22.11.75.75,0,0,0-.16.15.81.81,0,0,0-.1.18,1,1,0,0,0-.06.23c0,.07,0,.15,0,.23Z"/><path class="cls-3" d="M152.24,47.32V43.9h.3V46l1.31-1.17h.43l-1,.89,1.11,1.57h-.34l-1-1.37-.51.44v.93Z"/><path class="cls-4" d="M32.4,41l0-.05c-.1-.11-.15-.28-.24-.4a.57.57,0,0,0-.73-.18.72.72,0,0,0-.37.38,1.3,1.3,0,0,0-.15.43c0,.23.06.31.16.5s0,1-.26,1.07a.73.73,0,0,1-.33,0c-.17-.12-.08-.23-.1-.4s-.32-1-.46-.85a1.43,1.43,0,0,1-.69.27c-.24,0-.23,0-.4.15s-.39.31-.56.49-.28.4-.45.57a1,1,0,0,0-.41.65c-.25-.1-.34.14-.51-.15-.07-.13-.05-.13-.17-.21a2.86,2.86,0,0,1-.71-.8,2.08,2.08,0,0,0-.56-.69c-.21-.11-.44,0-.66-.18s-.2-.17-.43-.19a3.27,3.27,0,0,0-.7,0c-.57.09-.43,1.05-.58,1.42-.06.14-.14.19-.16.35a7.06,7.06,0,0,0-.11.91c0,.2.11.39.11.59s-.18.27-.15.42.29.23.35.42a.93.93,0,0,1,0,.44,1.58,1.58,0,0,0,0,.31c0,.14-.05.17-.09.28a1.75,1.75,0,0,0-.12.54,2.46,2.46,0,0,0,.2.84c.06.12.13.38.25.41s.26-.15.39-.13,0,.06,0,.1.15-.07.25-.11.15,0,.24-.08.17-.15.27-.21.35-.12.51-.24a4.45,4.45,0,0,0,.6-.55,3.65,3.65,0,0,1,.52-.52c.15-.09.42-.07.53-.21s0-.17,0-.24c.17-.28.79-.14,1-.08a2,2,0,0,1,.4.16c.1.06.24.22.35.24a1.39,1.39,0,0,1,.49.19c.16.08.3,0,.48,0s.3.22.53.31.81-.23,1.18-.18c0,0,.38-1.2.41-1.28a4,4,0,0,1,.33-.83,2.12,2.12,0,0,0,.34-.65,11.82,11.82,0,0,0,.18-1.68c0-.32.07-.65.11-1S32.51,41.14,32.4,41Zm-6,4.18a.08.08,0,0,0,0,0c0,.09,0,.18,0,.26s-.37,0-.51,0,0-.16-.05-.23-.13-.09-.19-.14c-.35-.32-.17-.63-.22-1a.55.55,0,0,0-.09-.28c-.08-.12-.18-.06-.25-.13s0-.06-.05-.12-.23-.5.05-.44c0-.1,0-.25.13-.24s.08.24.14.33.12,0,.16.11,0,.18,0,.24c0,.22.16.13.22.26s-.09.2-.05.3.25.21.3.25.32.09.46.2.26.33.17.46S26.45,45.14,26.41,45.2Zm4-.66s-.14,0-.18,0,0,.13-.06.19-.07.08-.12.07-.18-.13-.22-.2a1.22,1.22,0,0,1-.13-.45c-.05-.28.06-.26.26-.44a3.61,3.61,0,0,0,.33-.35c.06-.06.12-.2.22-.1s0,.21,0,.3a2.65,2.65,0,0,0-.07.63C30.48,44.39,30.52,44.52,30.4,44.54Z"/><path class="cls-5" d="M45.21,27.1a3.65,3.65,0,0,1,.77.8c.15.18.07.31.35.39.06,0,.16,0,.21.06s0,.13.05.19.3.09.4.19,0,.27.15.37.27.08.38.16.14.23.26.34.28.06.4.15.09.21.17.3a.84.84,0,0,0,.32.14,2.62,2.62,0,0,1,.88.4,2.5,2.5,0,0,0,.6.28,1.36,1.36,0,0,1,.5.31c.15.13.18.05.34.08s.32.35.57.4.26,0,.45.19a2.23,2.23,0,0,0,1.19.34,3.14,3.14,0,0,0,.75,0c.25,0,.44-.26.67-.28s.16.07.29,0,.25-.31.47-.36.17.05.29,0,.15-.07.25-.17.6-.32.78-.57a1.8,1.8,0,0,0,.29-.7,1.88,1.88,0,0,1,0-.41.73.73,0,0,0,.06-.32c0-.21-.3-.27-.34-.45s.07-.17,0-.29-.11-.1-.21-.17a.41.41,0,0,1-.19-.2c-.07-.22,0-.36-.14-.57a5.32,5.32,0,0,0-.37-.46c-.22-.25-.46-.5-.7-.74s-.61-.73-.95-1.12A8.14,8.14,0,0,0,53,24.4c-.17-.12-.31-.29-.48-.39s-.3,0-.44-.19-.15-.24-.43-.27a1.37,1.37,0,0,0-.47-.63c-.24-.16-.5-.27-.76-.43s-.17-.17-.29-.27-.53-.2-.77-.33-.55-.1-.77-.29-.06-.23-.14-.3-.49-.08-.68-.1c.05-.51-1-.51-1.33-.69a3.69,3.69,0,0,0-.77-.32,4.57,4.57,0,0,1-1-.31c-.15-.07-.23-.21-.38-.27a2,2,0,0,0-.54-.08l-1-.11c0-.23-.06-.22-.26-.32a1.11,1.11,0,0,0-.44-.16s-.45,0-.45,0c0-.46-1.56-.84-1.87-.94-.85-.29-1.76-.65-2.62-.85a3.31,3.31,0,0,1-.55,0c-.22-.08-.33-.31-.54-.41s-.44-.08-.66-.17A9.12,9.12,0,0,0,33.65,16c-.75-.1-1.39-.4-2.17-.5a16,16,0,0,1-2-.28c-.42-.11-.77-.43-1.2-.5a5.92,5.92,0,0,0-.84-.05c-.24,0-.28-.14-.49-.21s-.29-.05-.41-.13-.13-.13-.3-.16-.52,0-.78,0c-.43,0-.87-.09-1.3-.17s-1-.47-1.58-.53l-1.51-.17A6,6,0,0,1,20,12.87c-.51-.16-1.05-.16-1.54-.34a3.9,3.9,0,0,0-1.33-.47,1.67,1.67,0,0,1-.49-.08c-.11,0-.31-.28-.39-.29a4.61,4.61,0,0,0-2.66.49c-.37.18-.72.38-1.09.55a1.63,1.63,0,0,0-.46.18c-.2.16-.12.37-.15.6a2.45,2.45,0,0,1,0,.38c0,.1-.11.13-.07.24s.2.18.26.28a4.44,4.44,0,0,1,.28.53,2.42,2.42,0,0,0,.33.59c.1.09.25.06.36.13a.59.59,0,0,1,.2.33c.11.28.35.25.62.35s.14.26.25.4.08,0,.17.07a.36.36,0,0,1,.24.19c0,.1.06.22.2.26s.09,0,.16,0,.08.13.14.17a2.61,2.61,0,0,0,.42.16,3.11,3.11,0,0,1,.28.23.72.72,0,0,0,.22.08l.64.14a1.53,1.53,0,0,1,.42.11c.1.05.15.15.25.2s.28,0,.41.1.12.18.23.22a2.81,2.81,0,0,0,.59.12c.41.05.82,0,1.23.06a11.43,11.43,0,0,1,1.48.45c.41.08.83.1,1.24.16a8.13,8.13,0,0,1,.86.15,2.24,2.24,0,0,1,.52.16c.26.12.14.17.23.39s.1.06.15.14,0,.58-.1.8-.14.48-.23.71,0,.43-.13.6-.33.36-.46.59a6.84,6.84,0,0,1-.52.8c-.11.16-.23.33-.32.49s-.07.38-.18.54-.14.13-.18.23,0,.35-.05.52a1.14,1.14,0,0,1-.36.45c-.18.14-.42.19-.58.35s-.13.28-.22.43-.31.22-.38.39,0,.17-.05.23-.23,0-.29.14,0,.16-.07.25-.17.08-.23.14a.51.51,0,0,0-.12.36c0-.06-.25,0-.29.07s-.06.3-.11.4a.72.72,0,0,0-.41.24c-.11.14-.11.36-.2.5s-.17.13-.3.17a.59.59,0,0,0-.35.23c0,.06-.31.58-.32.58a.44.44,0,0,0-.35.07,1.83,1.83,0,0,0-.2.21.9.9,0,0,0-.54,0c-.11.06-.14.19-.26.24-.28.11-.66,0-1,.11-.07,0-.06.07-.15.09a1.64,1.64,0,0,1-.67-.21,8.88,8.88,0,0,1-1.16-.66.94.94,0,0,0-1.27,0,2.63,2.63,0,0,0-.67,1.06,11.59,11.59,0,0,0-.25,1.17c0,.14-.14.14-.2.26s0,.49,0,.67-.05.54-.06.81A4.29,4.29,0,0,0,11.14,36a6.48,6.48,0,0,0,.51,1.31,7.49,7.49,0,0,0,.91.87c.1.12.06.29.2.38s.22,0,.34.06.2.16.33.24.39,0,.55.11.1.24.25.25.16,0,.22,0,0,.15.13.2.19,0,.28.06l.5.13c.29.06.43.35.71.43s.75.16,1.13.28c.18,0,.12,0,.23.17s1,.2,1.34.25a16,16,0,0,1,1.94.32,2.73,2.73,0,0,0,.81.11,5,5,0,0,0,.85-.19,4.94,4.94,0,0,1,.49-.19c.16,0,.34,0,.5,0a.62.62,0,0,0,.17-.11l.11-.06a3.25,3.25,0,0,0,.45-.08c.14,0,.26-.13.39-.16a2.63,2.63,0,0,0,.49-.07c.18-.08.3-.24.5-.3a3.83,3.83,0,0,1,.68-.08l.3-.08c.08,0,.14-.12.23-.12s.07,0,.11,0a.71.71,0,0,0,.21,0,.54.54,0,0,1,.13-.07.34.34,0,0,1,.14,0,1,1,0,0,0,.29,0,1.84,1.84,0,0,0,.41-.06,8.52,8.52,0,0,0,.84-.2.9.9,0,0,0,.53-.33c.06-.08.09-.18.17-.24s.2,0,.35-.08.1-.09.2-.14.13,0,.22-.06.13,0,.26-.14.49,0,.67-.15.3-.33.46-.49.42-.17.69-.22a1.4,1.4,0,0,0,.65-.44c.08-.08.16-.23.27-.29s.18,0,.32-.07.16-.12.26-.19.17-.05.27-.09a3.08,3.08,0,0,0,.65-.49c.18-.13.51-.22.56-.46s.06-.17.27-.27.09-.18.17-.34a1.71,1.71,0,0,1,.47-.42c.16-.12.68-.33.74-.5a1.92,1.92,0,0,1,.27-.62c.13-.13.34-.15.45-.31s0-.22.08-.31a2,2,0,0,1,.25-.37c.14-.12.45-.1.54-.26s0-.26.09-.38.16-.19.21-.3a2.06,2.06,0,0,1,.12-.35,1.35,1.35,0,0,1,.48-.47.56.56,0,0,0,.18-.16,3.31,3.31,0,0,0,.26-.27c.08-.08.06-.15.11-.23s.2-.12.29-.21.07-.17.13-.24.3-.19.41-.37.08-.4.17-.58a1.14,1.14,0,0,1,.11-.14s.08,0,.11-.11,0-.1,0-.14.25-.16.39-.21a4,4,0,0,1,.23-.69c.08-.12.21-.16.3-.29s.06-.27.12-.4.14-.18.26-.25.35-.58.66-.62.35.21.48.3.33.38.53.52.21.23.34.34l.17.07C44.9,27,45.05,27,45.21,27.1Zm-.58-2.49a7.11,7.11,0,0,1-.49-.6,5.68,5.68,0,0,0-.38-.64.81.81,0,0,0-.39-.23c-.17,0-.32.18-.47.22s-.41.09-.48.4-.19.79-.32,1.17a6.86,6.86,0,0,1-.32.79,1.1,1.1,0,0,1-.49.59c-.17.11-.12.23-.18.4s-.24.18-.36.34-.06.15-.11.21-.24.12-.32.24-.1.32-.18.46-.15.12-.29.24-.19.45-.36.63-.24.08-.31.19,0,.16,0,.21-.1,0-.13.06-.1.05-.16.24-.2.17-.39.35-.15.31-.26.45a5.47,5.47,0,0,0-.5.58,2.06,2.06,0,0,1-.45.57.6.6,0,0,0-.2.22c0,.06,0,.14,0,.19s-.13,0-.19.07-.13.31-.27.42-.26.09-.3.25,0,.36-.32.45-.29.27-.5.45-.26.11-.34.21-.07.23-.13.35-.3.25-.48.37a3.56,3.56,0,0,0-.66.56c-.18.2-.29.14-.51.25a3.35,3.35,0,0,0-.88.84c-.11.13-.11.2-.3.26s-.27,0-.41.06a1.57,1.57,0,0,0-.64.47c-.16.19-.7.05-.9.2s-.1.16-.23.22a2.12,2.12,0,0,0-.41.12,3.92,3.92,0,0,0-.29.29.57.57,0,0,0-.52.08.93.93,0,0,1-.41.23c-.21.05-.49,0-.69.1s-.24.37-.54.36-.21,0-.41.12-.29.12-.42.17a1,1,0,0,1-.38,0l-.82,0a2.56,2.56,0,0,0-.88.1c-.19.1-.16.11-.37.11a.47.47,0,0,0-.37.16c-.14.15-.07.14-.26.15s-.63-.12-.84,0c0,0,0,.08-.09.11s-.43-.1-.66,0a1,1,0,0,1-.64,0,2.43,2.43,0,0,0-.71-.09c-.31,0-.61.15-.92.2a1.36,1.36,0,0,1-.87-.09.38.38,0,0,0-.27-.12A3.45,3.45,0,0,1,17.16,39c-.15-.09-.31,0-.46-.13s-.08-.1-.13-.14-.18-.06-.26-.12-.17-.24-.33-.29a1.36,1.36,0,0,0-.4,0c-.23,0-.53,0-.67-.18s.06-.12,0-.19-.18,0-.24,0-.29-.23-.46-.24-.47.16-.63,0c0,0,.05-.12,0-.17-.42-.74-.12-.69.26-1a10.15,10.15,0,0,0,1-.87.75.75,0,0,0,.3-.84c.47-.13.19-1,.06-1.27-.06-.12-.16-.2-.16-.34s.13-.37.3-.35.13-.1.15-.12l.13-.06a.41.41,0,0,1,.22,0l.36,0a.23.23,0,0,0,.18-.06c.06-.08.05-.17.18-.15s.12,0,.16,0,0-.06.05-.12c0-.36.52-.25.75-.31a1,1,0,0,0,.57-.4c.36-.42.77-.76,1.16-1.16,0,0,.19,0,.25-.07s.18-.47.3-.7a4.4,4.4,0,0,1,.66-.77c.09-.08.19,0,.27-.11s.07-.24.15-.34.26-.15.35-.25a1.36,1.36,0,0,0,.3-.52c.06-.25,0-.19.22-.34s.08-.15.16-.31.22-.15.35-.2.18-.1.28-.24a5.67,5.67,0,0,0,.59-1,1.81,1.81,0,0,1,.18-.4,7.74,7.74,0,0,0,1.07-1.64c.22-.41.23-.94.45-1.36a5.63,5.63,0,0,0,.51-1c.13-.4,0-.51-.11-.89a.87.87,0,0,1,.1-.47,1.69,1.69,0,0,0,.15-.37c0-.13-.1-.26-.08-.35s.05-.47-.25-.51a1.72,1.72,0,0,1-.55-.1c-1.1-.52-2.37-.11-3.47-.66a4.34,4.34,0,0,0-2.62-.61,3.83,3.83,0,0,1-.47,0c-.06,0-.14,0-.19,0s-.05-.09-.08-.12l-.13-.1a.4.4,0,0,0-.18-.1,2,2,0,0,0-.54,0,1.17,1.17,0,0,1-.46,0c-.1,0-.1-.09-.16-.14a4.94,4.94,0,0,0-1.51-1c-.24-.83-2.41-1.42-1.29-2.44a1.74,1.74,0,0,1,.26-.19,2.06,2.06,0,0,1,1.05-.4A6.52,6.52,0,0,1,16.3,13a4.79,4.79,0,0,1,.75.17,5.85,5.85,0,0,0,.56.28,4.91,4.91,0,0,1,1,.3c.38.19.76.52,1.21.49.22,0,.45-.15.66-.11a2,2,0,0,1,.22.08,2.8,2.8,0,0,1,.79.25.58.58,0,0,0,.29.12,3.15,3.15,0,0,1,.43,0,1.6,1.6,0,0,1,.32.21,1.27,1.27,0,0,0,.39.12c.38.09.75.17,1.14.23a8.17,8.17,0,0,0,1,.22c.58,0,.87.6,1.42.68a2.68,2.68,0,0,1,.8.13,2.12,2.12,0,0,0,.66.32c.63.07,1.22-.29,1.87-.06.1,0,.22,0,.31.05s.25.21.47.26.42,0,.63.08l1,.19c.37.09.8.39,1.21.47a14.58,14.58,0,0,1,2.29.5,22.71,22.71,0,0,0,2.73,1.07c.36.08.71.15,1.07.26s.6.3.92.41a2.64,2.64,0,0,1,.3.07c.11.06.17.2.29.24s.17-.05.25,0,.09.13.15.17a1,1,0,0,0,.49.15.67.67,0,0,1,.31.07c.1,0,.12.14.22.18s.27,0,.37,0a2.48,2.48,0,0,1,.9.35c.16.1.19.24.38.32.45.17,1,.24,1.43.38a1,1,0,0,1,.25.07c.13.07.19.22.24.25a3.44,3.44,0,0,0,.75.24c.25.07.25.23.43.35s.2,0,.26,0a.52.52,0,0,1,.27.15c.15.09.28.07.4.18s.14.2.26.26a2,2,0,0,0,.44.12,2.67,2.67,0,0,1,1,.47,6.28,6.28,0,0,0,1.41,1.11,1.06,1.06,0,0,1,.6.5c.12.19.19.55.42.64l.66.25c.21.08.06.44.46.41a.71.71,0,0,1,0,.14c.6.11.7.35,1,.86s.72.74,1,1.19a1.51,1.51,0,0,1,.12,1.44c-.18.27-.5,0-.76.13s-.24.26-.39.26-.25-.13-.37-.2a1.93,1.93,0,0,0-.41-.12,4.66,4.66,0,0,0-1.11-.12c-.26,0-.33.08-.48-.14s-.28-.2-.58-.18a1.5,1.5,0,0,1-.3,0c-.13-.05-.11-.15-.2-.2s-.37,0-.53-.12,0-.14-.1-.19-.14,0-.24-.05-.2-.29-.34-.44-.35-.12-.53-.18-.21-.33-.35-.51-.44-.13-.6-.26-.08-.26-.15-.35-.45-.12-.65-.26-.21-.42-.35-.61-.2-.1-.35-.14-.17-.06-.26-.23a9.23,9.23,0,0,0-.59-.94c-.16-.2-.42-.2-.63-.32A3.46,3.46,0,0,1,44.63,24.61Z"/><path class="cls-5" d="M27.94,24a.85.85,0,0,0-.5,0c-.11,0-.32,0-.37.12a1.71,1.71,0,0,1,0,.25l-.36.13c-.18.06-.2.63-.2.78s0,.3,0,.44a.39.39,0,0,0,.06.28c.07.08.18.06.27.06a1.11,1.11,0,0,0,.65-.11,1.18,1.18,0,0,0,.27-.32,1.16,1.16,0,0,1,.16-.21c.09-.11.2-.14.25-.28a1.41,1.41,0,0,0,0-.46.8.8,0,0,0-.1-.41C28.05,24.15,28,24,27.94,24Z"/><path class="cls-5" d="M34.71,25.2c0-.05,0-.07,0-.11a.13.13,0,0,0-.08,0c-.11,0-.21,0-.32,0l-.29,0a.3.3,0,0,0-.13,0,.29.29,0,0,0-.08.14,2.27,2.27,0,0,1-.19.34,1.53,1.53,0,0,1-.28.29l-.16.11c-.06,0-.1,0-.12.12a1.76,1.76,0,0,0,0,.23,1.51,1.51,0,0,0,0,.3,2,2,0,0,0,.11.26c0,.09,0,.21.17.23s.2,0,.3,0l.22,0s.07,0,.09,0,0-.12.06-.15a1.89,1.89,0,0,1,.23-.05.49.49,0,0,0,.23-.14c.05-.05.09-.12.14-.17a.61.61,0,0,1,.15-.13c.07,0,.13-.06.16-.13a2.42,2.42,0,0,0,0-.25c0-.13,0-.26,0-.38a.65.65,0,0,0-.16-.43C34.8,25.3,34.73,25.26,34.71,25.2Z"/><rect class="cls-6" width="167.88" height="60"/></svg>