<svg id="txt" xmlns="http://www.w3.org/2000/svg" viewBox="0 0 484.35 163.49"><defs><style>.cls-1,.cls-7{fill:none;}.cls-1,.cls-5,.cls-7{stroke:#3e454f;stroke-linecap:round;stroke-linejoin:round;}.cls-1{stroke-width:4px;}.cls-2{fill:#3e454f;}.cls-3{fill:#23c8c8;}.cls-4{fill:#fff;}.cls-5,.cls-8{fill:#ffdc5f;}.cls-5{stroke-width:2px;}.cls-6{fill:#f4a91e;}.cls-7{stroke-width:3.72px;}</style></defs><title>工作區域 2</title><path class="cls-1" d="M108.55,63.91A127.75,127.75,0,0,1,123,69.79l-2.24,4.08a132.41,132.41,0,0,0-16-7l1.8-3h-1.44c-1.92,4.92-6.2,8.08-16.88,9.84a12.18,12.18,0,0,0-2.36-4.28c8-1.08,11.8-2.88,13.68-5.56H87.63v-4h13.48c.12-.63.24-1.35.32-2.07H86.71V53.68h15.36V51.56H90.23v-4h11.84v-2H88v-4.2h7.6a22.84,22.84,0,0,0-2.24-3.52l4.24-1.68a17.67,17.67,0,0,1,3,4.68l-1.16.52h8.8a37.08,37.08,0,0,0,2.84-5.2l5.12,1.32c-.88,1.4-1.8,2.72-2.68,3.88h7.68v4.2H107v2h12.24v4H107v2.12h15.92V57.8H106.47c-.08.72-.2,1.4-.32,2.07h15.6v4Z"/><path class="cls-1" d="M147.11,52.36v4.16h12.76v4.27h-6.32l4,1.44c-1.4,2.24-3,4.64-4.2,6.36H162V73h-34.6V68.59h7.88a32.89,32.89,0,0,0-3.32-6.47l3.16-1.33h-5.8V56.52H142V52.36h-8.12v-2q-2.52,1.2-5.16,2.16a17.21,17.21,0,0,0-3.16-4.4C133.07,46,140.27,42,144.07,36l4.52,2c-.36.52-.72,1-1.12,1.6,3.92,3.52,10.4,6.84,16.4,8.52a23.09,23.09,0,0,0-3.28,4.16A52.84,52.84,0,0,1,155.15,50v2.36ZM136,60.79a27.36,27.36,0,0,1,3.48,6.36l-3.28,1.44H142v-7.8ZM151.63,48a46,46,0,0,1-6.92-5.2,35.54,35.54,0,0,1-6.48,5.2Zm-4.52,12.79v7.8h5l-2.68-1.12A36.66,36.66,0,0,0,153,60.79Z"/><path class="cls-1" d="M191.59,40.12c3.68,3.44,8.44,8.36,10.52,11.72l-4,2.92a35,35,0,0,0-2.08-3c-21.24,1-24.08,1.12-26.2,1.84A36.42,36.42,0,0,0,168.23,49a8.24,8.24,0,0,0,3.32-2.32A53.37,53.37,0,0,0,180,35.8l4.8,2A65.75,65.75,0,0,1,176.11,48l16.4-.52c-1.56-1.76-3.16-3.44-4.64-4.92ZM171.11,56.2h27V73.71H193v-2H176v2h-4.88ZM176,60.75v6.4h17v-6.4Z"/><path class="cls-1" d="M240.79,43.84A21.48,21.48,0,0,1,237,50.72a18.27,18.27,0,0,0,6.4,3.44,13.87,13.87,0,0,0-2.52,3.24,20.19,20.19,0,0,1-6.68-4,23.17,23.17,0,0,1-6.52,3.56,17.89,17.89,0,0,0-2.2-3.56,20.26,20.26,0,0,0,6-3,28.19,28.19,0,0,1-2.4-4,10.52,10.52,0,0,1-1.68,1.6c-.44-.52-1.24-1.44-2-2.2V56.16h-3.4V45.48h-4V56.76h-2.92V45.48h-3.88V52a23.09,23.09,0,0,0,1.12-5.4l2.32.48a28.27,28.27,0,0,1-1.68,6.76,16.68,16.68,0,0,0-1.76-1v4.24H208V42.68h2a18.5,18.5,0,0,0-2.08-4l3.28-1.4a18.31,18.31,0,0,1,2.44,4.28l-2.52,1.16h3.52v-6.2h4.12v6.2h3.36l-2-.84a35.79,35.79,0,0,0,2.24-4.68l3.84,1.32c-1.12,1.56-2.2,3.08-3,4.2h2.4v1.68a16.52,16.52,0,0,0,4.64-7.88l4,.84a26.2,26.2,0,0,1-1.08,3h9.8v3.56Zm-1.4,23.67c0,2.12-.48,3.2-2.12,3.84s-3.76.64-6.72.64A17.43,17.43,0,0,0,229,68.07c1.92.08,4.32.08,4.84.08s.88-.2.88-.68V63h-7.88V73.83h-4.72V63H215v9h-4.6V59h11.72V56.88h4.72V59h12.56Zm-19-21a32.61,32.61,0,0,1,1.52,6.64l-2.08.64a28.12,28.12,0,0,0-1.48-6.68Zm11.4-2.68a18.89,18.89,0,0,0,2.4,4,14.18,14.18,0,0,0,2.24-4Z"/><path class="cls-1" d="M282.19,40.16v4H246.87v-4h15.4c-.32-1-.64-2-1-2.8l4.92-1.2c.44,1.24,1.08,2.72,1.56,4Zm-.92,29.27c0,2.08-.52,2.92-2,3.52a21.57,21.57,0,0,1-6.36.48,15.32,15.32,0,0,0-1.4-3.36H260v1.68h-4.4V61.2H273v8.87h-.56c1.4,0,2.8,0,3.2,0,.56,0,.8-.16.8-.68V59.71H252.59v14H248V55.88h33.28Zm-3.84-15.19H252.19V45.68h25.24Zm-5-5.36H257v2.2h15.48Zm-3.6,15.63H260v2.28h8.8Z"/><path class="cls-1" d="M298.87,48.28h7.2v4.4h-7.2v1.4c2,1.6,5.92,5.12,7,6.08l-2.72,4c-1-1.24-2.68-3.16-4.24-4.87V73.71h-4.8V59.6a38.26,38.26,0,0,1-6,9.19,27.31,27.31,0,0,0-2.44-4.68,38.53,38.53,0,0,0,7.6-11.43h-6.72v-4.4h7.56V43.36c-2.24.44-4.48.8-6.6,1.08a14.49,14.49,0,0,0-1.4-3.72c5.8-.88,12.2-2.36,16.08-4.12l3.36,3.64a50,50,0,0,1-6.64,2.08Zm14.24,15.35h-4.76V41.28h4.76Zm8.48-26.51V67.87c0,2.84-.56,4.08-2.2,4.88s-4.28,1-8,1a18.06,18.06,0,0,0-1.64-5c2.6.12,5.2.12,6,.12s1.08-.24,1.08-1V37.12Z"/><path class="cls-1" d="M333.55,55.72c-1.64-1.16-5.08-3-7.44-4.32l2.56-3.52c2.2,1.08,5.76,2.8,7.52,3.88Zm-6.88,14.39a118,118,0,0,0,7.6-12.59l3.48,3.19c-2.12,4.2-4.64,8.76-7.08,12.64Zm8.6-25.31A82.78,82.78,0,0,0,328,40.4L330.67,37c2.24,1.12,5.72,2.88,7.44,4ZM353,52.6v5h8.16v16h-4.52V72.15h-12v1.64h-4.28V57.64h8.16v-5H337.83V48h10.64V43.36c-2.64.4-5.28.68-7.8.92a16.76,16.76,0,0,0-1.32-4.08c6.8-.68,14.28-2,18.68-3.76l3.68,3.76A51.13,51.13,0,0,1,353,42.56V48h10.16V52.6ZM356.63,62h-12v5.88h12Z"/><path class="cls-1" d="M381.07,46.16a49.62,49.62,0,0,1-4.84,8.2V73.71h-4.8v-14a34,34,0,0,1-3.76,3,36.84,36.84,0,0,0-2.24-4.55,31.2,31.2,0,0,0,10.24-12h-8.8V41.6h10.84c.64-1.76,1.2-3.48,1.64-5.2l5,1.2c-.4,1.36-.88,2.64-1.36,4h19.44v4.56ZM403,63.75h-9.48v5c0,2.4-.4,3.64-2.12,4.36s-4,.72-7.24.68a17.85,17.85,0,0,0-1.32-4.56c2,.12,4.36.12,5,.12s.88-.2.88-.72V63.75H378.55V59.32h10.16v-2.8a27.25,27.25,0,0,0,3.8-3H381.67V49.28h15.2l1-.28,3,2.44a49.82,49.82,0,0,1-7.36,6.36v1.52H403Z"/><path class="cls-2" d="M108.55,63.91A127.75,127.75,0,0,1,123,69.79l-2.24,4.08a132.41,132.41,0,0,0-16-7l1.8-3h-1.44c-1.92,4.92-6.2,8.08-16.88,9.84a12.18,12.18,0,0,0-2.36-4.28c8-1.08,11.8-2.88,13.68-5.56H87.63v-4h13.48c.12-.63.24-1.35.32-2.07H86.71V53.68h15.36V51.56H90.23v-4h11.84v-2H88v-4.2h7.6a22.84,22.84,0,0,0-2.24-3.52l4.24-1.68a17.67,17.67,0,0,1,3,4.68l-1.16.52h8.8a37.08,37.08,0,0,0,2.84-5.2l5.12,1.32c-.88,1.4-1.8,2.72-2.68,3.88h7.68v4.2H107v2h12.24v4H107v2.12h15.92V57.8H106.47c-.08.72-.2,1.4-.32,2.07h15.6v4Z"/><path class="cls-2" d="M147.11,52.36v4.16h12.76v4.27h-6.32l4,1.44c-1.4,2.24-3,4.64-4.2,6.36H162V73h-34.6V68.59h7.88a32.89,32.89,0,0,0-3.32-6.47l3.16-1.33h-5.8V56.52H142V52.36h-8.12v-2q-2.52,1.2-5.16,2.16a17.21,17.21,0,0,0-3.16-4.4C133.07,46,140.27,42,144.07,36l4.52,2c-.36.52-.72,1-1.12,1.6,3.92,3.52,10.4,6.84,16.4,8.52a23.09,23.09,0,0,0-3.28,4.16A52.84,52.84,0,0,1,155.15,50v2.36ZM136,60.79a27.36,27.36,0,0,1,3.48,6.36l-3.28,1.44H142v-7.8ZM151.63,48a46,46,0,0,1-6.92-5.2,35.54,35.54,0,0,1-6.48,5.2Zm-4.52,12.79v7.8h5l-2.68-1.12A36.66,36.66,0,0,0,153,60.79Z"/><path class="cls-2" d="M191.59,40.12c3.68,3.44,8.44,8.36,10.52,11.72l-4,2.92a35,35,0,0,0-2.08-3c-21.24,1-24.08,1.12-26.2,1.84A36.42,36.42,0,0,0,168.23,49a8.24,8.24,0,0,0,3.32-2.32A53.37,53.37,0,0,0,180,35.8l4.8,2A65.75,65.75,0,0,1,176.11,48l16.4-.52c-1.56-1.76-3.16-3.44-4.64-4.92ZM171.11,56.2h27V73.71H193v-2H176v2h-4.88ZM176,60.75v6.4h17v-6.4Z"/><path class="cls-2" d="M240.79,43.84A21.48,21.48,0,0,1,237,50.72a18.27,18.27,0,0,0,6.4,3.44,13.87,13.87,0,0,0-2.52,3.24,20.19,20.19,0,0,1-6.68-4,23.17,23.17,0,0,1-6.52,3.56,17.89,17.89,0,0,0-2.2-3.56,20.26,20.26,0,0,0,6-3,28.19,28.19,0,0,1-2.4-4,10.52,10.52,0,0,1-1.68,1.6c-.44-.52-1.24-1.44-2-2.2V56.16h-3.4V45.48h-4V56.76h-2.92V45.48h-3.88V52a23.09,23.09,0,0,0,1.12-5.4l2.32.48a28.27,28.27,0,0,1-1.68,6.76,16.68,16.68,0,0,0-1.76-1v4.24H208V42.68h2a18.5,18.5,0,0,0-2.08-4l3.28-1.4a18.31,18.31,0,0,1,2.44,4.28l-2.52,1.16h3.52v-6.2h4.12v6.2h3.36l-2-.84a35.79,35.79,0,0,0,2.24-4.68l3.84,1.32c-1.12,1.56-2.2,3.08-3,4.2h2.4v1.68a16.52,16.52,0,0,0,4.64-7.88l4,.84a26.2,26.2,0,0,1-1.08,3h9.8v3.56Zm-1.4,23.67c0,2.12-.48,3.2-2.12,3.84s-3.76.64-6.72.64A17.43,17.43,0,0,0,229,68.07c1.92.08,4.32.08,4.84.08s.88-.2.88-.68V63h-7.88V73.83h-4.72V63H215v9h-4.6V59h11.72V56.88h4.72V59h12.56Zm-19-21a32.61,32.61,0,0,1,1.52,6.64l-2.08.64a28.12,28.12,0,0,0-1.48-6.68Zm11.4-2.68a18.89,18.89,0,0,0,2.4,4,14.18,14.18,0,0,0,2.24-4Z"/><path class="cls-2" d="M282.19,40.16v4H246.87v-4h15.4c-.32-1-.64-2-1-2.8l4.92-1.2c.44,1.24,1.08,2.72,1.56,4Zm-.92,29.27c0,2.08-.52,2.92-2,3.52a21.57,21.57,0,0,1-6.36.48,15.32,15.32,0,0,0-1.4-3.36H260v1.68h-4.4V61.2H273v8.87h-.56c1.4,0,2.8,0,3.2,0,.56,0,.8-.16.8-.68V59.71H252.59v14H248V55.88h33.28Zm-3.84-15.19H252.19V45.68h25.24Zm-5-5.36H257v2.2h15.48Zm-3.6,15.63H260v2.28h8.8Z"/><path class="cls-2" d="M298.87,48.28h7.2v4.4h-7.2v1.4c2,1.6,5.92,5.12,7,6.08l-2.72,4c-1-1.24-2.68-3.16-4.24-4.87V73.71h-4.8V59.6a38.26,38.26,0,0,1-6,9.19,27.31,27.31,0,0,0-2.44-4.68,38.53,38.53,0,0,0,7.6-11.43h-6.72v-4.4h7.56V43.36c-2.24.44-4.48.8-6.6,1.08a14.49,14.49,0,0,0-1.4-3.72c5.8-.88,12.2-2.36,16.08-4.12l3.36,3.64a50,50,0,0,1-6.64,2.08Zm14.24,15.35h-4.76V41.28h4.76Zm8.48-26.51V67.87c0,2.84-.56,4.08-2.2,4.88s-4.28,1-8,1a18.06,18.06,0,0,0-1.64-5c2.6.12,5.2.12,6,.12s1.08-.24,1.08-1V37.12Z"/><path class="cls-2" d="M333.55,55.72c-1.64-1.16-5.08-3-7.44-4.32l2.56-3.52c2.2,1.08,5.76,2.8,7.52,3.88Zm-6.88,14.39a118,118,0,0,0,7.6-12.59l3.48,3.19c-2.12,4.2-4.64,8.76-7.08,12.64Zm8.6-25.31A82.78,82.78,0,0,0,328,40.4L330.67,37c2.24,1.12,5.72,2.88,7.44,4ZM353,52.6v5h8.16v16h-4.52V72.15h-12v1.64h-4.28V57.64h8.16v-5H337.83V48h10.64V43.36c-2.64.4-5.28.68-7.8.92a16.76,16.76,0,0,0-1.32-4.08c6.8-.68,14.28-2,18.68-3.76l3.68,3.76A51.13,51.13,0,0,1,353,42.56V48h10.16V52.6ZM356.63,62h-12v5.88h12Z"/><path class="cls-2" d="M381.07,46.16a49.62,49.62,0,0,1-4.84,8.2V73.71h-4.8v-14a34,34,0,0,1-3.76,3,36.84,36.84,0,0,0-2.24-4.55,31.2,31.2,0,0,0,10.24-12h-8.8V41.6h10.84c.64-1.76,1.2-3.48,1.64-5.2l5,1.2c-.4,1.36-.88,2.64-1.36,4h19.44v4.56ZM403,63.75h-9.48v5c0,2.4-.4,3.64-2.12,4.36s-4,.72-7.24.68a17.85,17.85,0,0,0-1.32-4.56c2,.12,4.36.12,5,.12s.88-.2.88-.72V63.75H378.55V59.32h10.16v-2.8a27.25,27.25,0,0,0,3.8-3H381.67V49.28h15.2l1-.28,3,2.44a49.82,49.82,0,0,1-7.36,6.36v1.52H403Z"/><path class="cls-1" d="M109.43,102.68c-.48.52-1,1-1.44,1.52a18.05,18.05,0,0,0-2.28-3.4,23,23,0,0,0,5.72-9.28l3.64,1a24.78,24.78,0,0,1-1.24,3.08h3a26.35,26.35,0,0,0-1.2-2.92l3.92-1.08a38.15,38.15,0,0,1,1.76,4h2.92v3h-4.16v1.52h3.36v.08a25.85,25.85,0,0,0,5-8.68l3.72,1c-.36,1-.8,2-1.28,3.08H134a26.28,26.28,0,0,0-1.16-2.84l3.92-1.08a42.19,42.19,0,0,1,1.76,3.92h3.6v3h-5v1.52h3.92v2.76h-3.92v1.52h3.92v2.8h-3.92v1.52h5.44v3h-16v-9c-.48.6-1,1.16-1.44,1.68a27.36,27.36,0,0,0-1.64-2.24v.72h-3.36v1.52h3.36v2.8h-3.36v1.52h4.52v3h-15.2Zm29.4,12.44a22.9,22.9,0,0,1-7.76,7.35A84.42,84.42,0,0,0,142.71,124a22,22,0,0,0-3,4.52,59.18,59.18,0,0,1-15-3.16,72.47,72.47,0,0,1-16.48,3.44,17.12,17.12,0,0,0-1.92-4.28,81.26,81.26,0,0,0,12.52-1.84,30.17,30.17,0,0,1-6-4.68l1.84-.83h-6.12v-3.84h26.16l.84-.2ZM116.31,98.6h-2.88v1.52h2.88Zm0,4.28h-2.88v1.52h2.88Zm0,4.32h-2.88v1.52h2.88Zm2.16,10a23.83,23.83,0,0,0,6.56,3.47,22.44,22.44,0,0,0,5.88-3.47Zm14.88-18.6h-2.8v1.52h2.8Zm0,4.28h-2.8v1.52h2.8Zm0,4.32h-2.8v1.52h2.8Z"/><path class="cls-1" d="M180.79,98.84a21.48,21.48,0,0,1-3.76,6.88,18.27,18.27,0,0,0,6.4,3.44,13.87,13.87,0,0,0-2.52,3.24,20.19,20.19,0,0,1-6.68-4,23.17,23.17,0,0,1-6.52,3.56,17.89,17.89,0,0,0-2.2-3.56,20.26,20.26,0,0,0,6-3,28.19,28.19,0,0,1-2.4-4,10.52,10.52,0,0,1-1.68,1.6c-.44-.52-1.24-1.44-2-2.2v10.32h-3.4V100.48h-4v11.28h-2.92V100.48h-3.88V107a23.09,23.09,0,0,0,1.12-5.4l2.32.48a28.27,28.27,0,0,1-1.68,6.76,16.68,16.68,0,0,0-1.76-1v4.24H148V97.68h2a18.5,18.5,0,0,0-2.08-4l3.28-1.4a18.31,18.31,0,0,1,2.44,4.28l-2.52,1.16h3.52v-6.2h4.12v6.2h3.36l-2-.84a35.79,35.79,0,0,0,2.24-4.68l3.84,1.32c-1.12,1.56-2.2,3.08-3,4.2h2.4v1.68a16.52,16.52,0,0,0,4.64-7.88l4,.84a26.2,26.2,0,0,1-1.08,3h9.8v3.56Zm-1.4,23.67c0,2.12-.48,3.2-2.12,3.84s-3.76.64-6.72.64a17.43,17.43,0,0,0-1.56-3.92c1.92.08,4.32.08,4.84.08s.88-.2.88-.68V118h-7.88v10.88h-4.72V118H155v9h-4.6V114h11.72v-2.11h4.72V114h12.56Zm-19-21a32.61,32.61,0,0,1,1.52,6.64l-2.08.64a28.12,28.12,0,0,0-1.48-6.68Zm11.4-2.68a18.89,18.89,0,0,0,2.4,4,14.18,14.18,0,0,0,2.24-4Z"/><path class="cls-1" d="M198.87,103.28h7.2v4.4h-7.2v1.4c2,1.6,5.92,5.12,7,6.08l-2.72,4c-1-1.24-2.68-3.16-4.24-4.87v14.39h-4.8V114.6a38.26,38.26,0,0,1-6,9.19,27.31,27.31,0,0,0-2.44-4.68,38.53,38.53,0,0,0,7.6-11.43h-6.72v-4.4h7.56V98.36c-2.24.44-4.48.8-6.6,1.08a14.49,14.49,0,0,0-1.4-3.72c5.8-.88,12.2-2.36,16.08-4.12l3.36,3.64a50,50,0,0,1-6.64,2.08Zm14.24,15.35h-4.76V96.28h4.76Zm8.48-26.51v30.75c0,2.84-.56,4.08-2.2,4.88s-4.28,1-8,1a18.06,18.06,0,0,0-1.64-5c2.6.12,5.2.12,6,.12s1.08-.24,1.08-1V92.12Z"/><path class="cls-1" d="M225.91,124.75a42.3,42.3,0,0,0,3.8-8.4l4.24,1.76a72.84,72.84,0,0,1-3.64,8.76Zm17.48-10.19H231.91V95h9.2a36,36,0,0,0,1-3.92l5.76.72c-.56,1.2-1.2,2.24-1.72,3.2h11v19.6H245.63a25,25,0,0,1,4.2,5.27l-3.92,2.28a27.52,27.52,0,0,0-4.76-6.32Zm5.64,9.23c1.92,0,2.24-.52,2.48-4.32a12.33,12.33,0,0,0,4.32,1.68c-.56,5.6-2,7-6.44,7h-7.6c-5.6,0-7.08-1.32-7.08-5.6V117h4.84v5.48c0,1.2.4,1.32,2.68,1.32Zm-12.52-23.35h15.8V98.6h-15.8Zm0,5.24h15.8v-1.84h-15.8Zm0,5.28h15.8v-1.88h-15.8Zm21.92,4.63a33.13,33.13,0,0,1,4.44,8.56l-4.56,1.92a34.31,34.31,0,0,0-4.08-8.72Z"/><path class="cls-1" d="M288.11,92.52l-.64.64c3.84,2.44,10.4,4.6,16,5.68a16.39,16.39,0,0,0-2.68,3.52,55.34,55.34,0,0,1-7-2.16v1H275.59v-1.12a68.78,68.78,0,0,1-7.2,2.32,17.16,17.16,0,0,0-2.52-3.36c7.44-1.8,14.76-4.72,18.44-8.36ZM287,120h15.36v3.24H287v1.32c0,2.16-.52,3.08-2.12,3.64s-3.76.6-6.8.56a13.78,13.78,0,0,0-1.52-3.64c1.92.08,4.28.08,4.84.08s.88-.2.88-.76v-1.2H266.91V120h15.32v-1.48H269.35v-3.19h12.88V114c-3.8.17-7.68.21-11.28.17a10.28,10.28,0,0,0-.8-2.88c8.84.08,19.4-.32,25-1.32l3.08,2.6a103.76,103.76,0,0,1-11.32,1.2v1.64h13.16v3.19H287Zm10.24-10.27H272v-7.2h25.2Zm-4.72-4.44h-16V107h16Zm-2.72-6.84a53.15,53.15,0,0,1-5.24-2.92,41.73,41.73,0,0,1-5.12,2.92Z"/><path class="cls-1" d="M318.47,122.35a25.83,25.83,0,0,0,8,.88c3,0,13.64,0,17.24-.16a16.29,16.29,0,0,0-1.8,4.72H326.47c-7.4,0-12.16-1-15.32-5.48a28.56,28.56,0,0,1-1.84,7,41.66,41.66,0,0,0-4-2c2-4,2.36-10.72,2.44-17.55l4.36.32c0,1.76-.12,3.52-.2,5.16a12.83,12.83,0,0,0,2.2,4.23v-12h-7.76v-4.16h6.76V99.56h-5.64V95.44h5.64V91.56h4.48v3.88h5.32v4.12h-5.32v3.72h6.28v4.16h-5.4v4.32h5.08v4.11h-5.08Zm13-1c-4.48,0-5.92-1.36-5.92-6.44V93H341v15.2H330.15V115c0,1.84.24,2.17,1.92,2.17h5.16c1.52,0,1.8-.92,2-5.16a13.47,13.47,0,0,0,4.16,1.84c-.52,5.67-1.8,7.59-5.8,7.59Zm-1.32-24.23v6.92h6.28V97.16Z"/><path class="cls-1" d="M379.11,115a56.18,56.18,0,0,0-5.16-4.63,16.78,16.78,0,0,1-2.68,3.44,22.24,22.24,0,0,0-3.12-2,35,35,0,0,0,15.28,11.15,21.84,21.84,0,0,0-3.52,4.36,38.54,38.54,0,0,1-13-10.11v11.63h-5v-11.4a38.59,38.59,0,0,1-12.84,9.88,29.35,29.35,0,0,0-3.36-4.08A35.45,35.45,0,0,0,362,110.32v-9.24H347.39V96.4H362V91.48h5V96.4H382v4.68H367v9c.2.32.4.6.6.92a17.82,17.82,0,0,0,5-9.64l4.64.84a35.55,35.55,0,0,1-1.32,4.28c2.28,1.76,5,3.88,6.52,5.24Zm-20.6-12.79a39.06,39.06,0,0,1-1.44,4.32c1.44,1.24,3,2.56,3.88,3.52l-3.2,3.32a32.38,32.38,0,0,0-2.68-2.8,21.24,21.24,0,0,1-4.6,5.47,29.26,29.26,0,0,0-3.68-3.11c3.52-2.52,6-6.72,7.08-11.6Z"/><path class="cls-2" d="M109.43,102.68c-.48.52-1,1-1.44,1.52a18.05,18.05,0,0,0-2.28-3.4,23,23,0,0,0,5.72-9.28l3.64,1a24.78,24.78,0,0,1-1.24,3.08h3a26.35,26.35,0,0,0-1.2-2.92l3.92-1.08a38.15,38.15,0,0,1,1.76,4h2.92v3h-4.16v1.52h3.36v.08a25.85,25.85,0,0,0,5-8.68l3.72,1c-.36,1-.8,2-1.28,3.08H134a26.28,26.28,0,0,0-1.16-2.84l3.92-1.08a42.19,42.19,0,0,1,1.76,3.92h3.6v3h-5v1.52h3.92v2.76h-3.92v1.52h3.92v2.8h-3.92v1.52h5.44v3h-16v-9c-.48.6-1,1.16-1.44,1.68a27.36,27.36,0,0,0-1.64-2.24v.72h-3.36v1.52h3.36v2.8h-3.36v1.52h4.52v3h-15.2Zm29.4,12.44a22.9,22.9,0,0,1-7.76,7.35A84.42,84.42,0,0,0,142.71,124a22,22,0,0,0-3,4.52,59.18,59.18,0,0,1-15-3.16,72.47,72.47,0,0,1-16.48,3.44,17.12,17.12,0,0,0-1.92-4.28,81.26,81.26,0,0,0,12.52-1.84,30.17,30.17,0,0,1-6-4.68l1.84-.83h-6.12v-3.84h26.16l.84-.2ZM116.31,98.6h-2.88v1.52h2.88Zm0,4.28h-2.88v1.52h2.88Zm0,4.32h-2.88v1.52h2.88Zm2.16,10a23.83,23.83,0,0,0,6.56,3.47,22.44,22.44,0,0,0,5.88-3.47Zm14.88-18.6h-2.8v1.52h2.8Zm0,4.28h-2.8v1.52h2.8Zm0,4.32h-2.8v1.52h2.8Z"/><path class="cls-2" d="M180.79,98.84a21.48,21.48,0,0,1-3.76,6.88,18.27,18.27,0,0,0,6.4,3.44,13.87,13.87,0,0,0-2.52,3.24,20.19,20.19,0,0,1-6.68-4,23.17,23.17,0,0,1-6.52,3.56,17.89,17.89,0,0,0-2.2-3.56,20.26,20.26,0,0,0,6-3,28.19,28.19,0,0,1-2.4-4,10.52,10.52,0,0,1-1.68,1.6c-.44-.52-1.24-1.44-2-2.2v10.32h-3.4V100.48h-4v11.28h-2.92V100.48h-3.88V107a23.09,23.09,0,0,0,1.12-5.4l2.32.48a28.27,28.27,0,0,1-1.68,6.76,16.68,16.68,0,0,0-1.76-1v4.24H148V97.68h2a18.5,18.5,0,0,0-2.08-4l3.28-1.4a18.31,18.31,0,0,1,2.44,4.28l-2.52,1.16h3.52v-6.2h4.12v6.2h3.36l-2-.84a35.79,35.79,0,0,0,2.24-4.68l3.84,1.32c-1.12,1.56-2.2,3.08-3,4.2h2.4v1.68a16.52,16.52,0,0,0,4.64-7.88l4,.84a26.2,26.2,0,0,1-1.08,3h9.8v3.56Zm-1.4,23.67c0,2.12-.48,3.2-2.12,3.84s-3.76.64-6.72.64a17.43,17.43,0,0,0-1.56-3.92c1.92.08,4.32.08,4.84.08s.88-.2.88-.68V118h-7.88v10.88h-4.72V118H155v9h-4.6V114h11.72v-2.11h4.72V114h12.56Zm-19-21a32.61,32.61,0,0,1,1.52,6.64l-2.08.64a28.12,28.12,0,0,0-1.48-6.68Zm11.4-2.68a18.89,18.89,0,0,0,2.4,4,14.18,14.18,0,0,0,2.24-4Z"/><path class="cls-2" d="M198.87,103.28h7.2v4.4h-7.2v1.4c2,1.6,5.92,5.12,7,6.08l-2.72,4c-1-1.24-2.68-3.16-4.24-4.87v14.39h-4.8V114.6a38.26,38.26,0,0,1-6,9.19,27.31,27.31,0,0,0-2.44-4.68,38.53,38.53,0,0,0,7.6-11.43h-6.72v-4.4h7.56V98.36c-2.24.44-4.48.8-6.6,1.08a14.49,14.49,0,0,0-1.4-3.72c5.8-.88,12.2-2.36,16.08-4.12l3.36,3.64a50,50,0,0,1-6.64,2.08Zm14.24,15.35h-4.76V96.28h4.76Zm8.48-26.51v30.75c0,2.84-.56,4.08-2.2,4.88s-4.28,1-8,1a18.06,18.06,0,0,0-1.64-5c2.6.12,5.2.12,6,.12s1.08-.24,1.08-1V92.12Z"/><path class="cls-2" d="M225.91,124.75a42.3,42.3,0,0,0,3.8-8.4l4.24,1.76a72.84,72.84,0,0,1-3.64,8.76Zm17.48-10.19H231.91V95h9.2a36,36,0,0,0,1-3.92l5.76.72c-.56,1.2-1.2,2.24-1.72,3.2h11v19.6H245.63a25,25,0,0,1,4.2,5.27l-3.92,2.28a27.52,27.52,0,0,0-4.76-6.32Zm5.64,9.23c1.92,0,2.24-.52,2.48-4.32a12.33,12.33,0,0,0,4.32,1.68c-.56,5.6-2,7-6.44,7h-7.6c-5.6,0-7.08-1.32-7.08-5.6V117h4.84v5.48c0,1.2.4,1.32,2.68,1.32Zm-12.52-23.35h15.8V98.6h-15.8Zm0,5.24h15.8v-1.84h-15.8Zm0,5.28h15.8v-1.88h-15.8Zm21.92,4.63a33.13,33.13,0,0,1,4.44,8.56l-4.56,1.92a34.31,34.31,0,0,0-4.08-8.72Z"/><path class="cls-2" d="M288.11,92.52l-.64.64c3.84,2.44,10.4,4.6,16,5.68a16.39,16.39,0,0,0-2.68,3.52,55.34,55.34,0,0,1-7-2.16v1H275.59v-1.12a68.78,68.78,0,0,1-7.2,2.32,17.16,17.16,0,0,0-2.52-3.36c7.44-1.8,14.76-4.72,18.44-8.36ZM287,120h15.36v3.24H287v1.32c0,2.16-.52,3.08-2.12,3.64s-3.76.6-6.8.56a13.78,13.78,0,0,0-1.52-3.64c1.92.08,4.28.08,4.84.08s.88-.2.88-.76v-1.2H266.91V120h15.32v-1.48H269.35v-3.19h12.88V114c-3.8.17-7.68.21-11.28.17a10.28,10.28,0,0,0-.8-2.88c8.84.08,19.4-.32,25-1.32l3.08,2.6a103.76,103.76,0,0,1-11.32,1.2v1.64h13.16v3.19H287Zm10.24-10.27H272v-7.2h25.2Zm-4.72-4.44h-16V107h16Zm-2.72-6.84a53.15,53.15,0,0,1-5.24-2.92,41.73,41.73,0,0,1-5.12,2.92Z"/><path class="cls-2" d="M318.47,122.35a25.83,25.83,0,0,0,8,.88c3,0,13.64,0,17.24-.16a16.29,16.29,0,0,0-1.8,4.72H326.47c-7.4,0-12.16-1-15.32-5.48a28.56,28.56,0,0,1-1.84,7,41.66,41.66,0,0,0-4-2c2-4,2.36-10.72,2.44-17.55l4.36.32c0,1.76-.12,3.52-.2,5.16a12.83,12.83,0,0,0,2.2,4.23v-12h-7.76v-4.16h6.76V99.56h-5.64V95.44h5.64V91.56h4.48v3.88h5.32v4.12h-5.32v3.72h6.28v4.16h-5.4v4.32h5.08v4.11h-5.08Zm13-1c-4.48,0-5.92-1.36-5.92-6.44V93H341v15.2H330.15V115c0,1.84.24,2.17,1.92,2.17h5.16c1.52,0,1.8-.92,2-5.16a13.47,13.47,0,0,0,4.16,1.84c-.52,5.67-1.8,7.59-5.8,7.59Zm-1.32-24.23v6.92h6.28V97.16Z"/><path class="cls-2" d="M379.11,115a56.18,56.18,0,0,0-5.16-4.63,16.78,16.78,0,0,1-2.68,3.44,22.24,22.24,0,0,0-3.12-2,35,35,0,0,0,15.28,11.15,21.84,21.84,0,0,0-3.52,4.36,38.54,38.54,0,0,1-13-10.11v11.63h-5v-11.4a38.59,38.59,0,0,1-12.84,9.88,29.35,29.35,0,0,0-3.36-4.08A35.45,35.45,0,0,0,362,110.32v-9.24H347.39V96.4H362V91.48h5V96.4H382v4.68H367v9c.2.32.4.6.6.92a17.82,17.82,0,0,0,5-9.64l4.64.84a35.55,35.55,0,0,1-1.32,4.28c2.28,1.76,5,3.88,6.52,5.24Zm-20.6-12.79a39.06,39.06,0,0,1-1.44,4.32c1.44,1.24,3,2.56,3.88,3.52l-3.2,3.32a32.38,32.38,0,0,0-2.68-2.8,21.24,21.24,0,0,1-4.6,5.47,29.26,29.26,0,0,0-3.68-3.11c3.52-2.52,6-6.72,7.08-11.6Z"/><path class="cls-1" d="M106.55,61.91A127.75,127.75,0,0,1,121,67.79l-2.24,4.08a132.41,132.41,0,0,0-16-7l1.8-3h-1.44c-1.92,4.92-6.2,8.08-16.88,9.84a12.18,12.18,0,0,0-2.36-4.28c8-1.08,11.8-2.88,13.68-5.56H85.63v-4H99.11c.12-.63.24-1.35.32-2.07H84.71V51.68h15.36V49.56H88.23v-4h11.84v-2H86v-4.2h7.6a22.84,22.84,0,0,0-2.24-3.52l4.24-1.68a17.67,17.67,0,0,1,3,4.68l-1.16.52h8.8a37.08,37.08,0,0,0,2.84-5.2l5.12,1.32c-.88,1.4-1.8,2.72-2.68,3.88h7.68v4.2H105v2h12.24v4H105v2.12h15.92V55.8H104.47c-.08.72-.2,1.4-.32,2.07h15.6v4Z"/><path class="cls-1" d="M145.11,50.36v4.16h12.76v4.27h-6.32l4,1.44c-1.4,2.24-3,4.64-4.2,6.36H160V71h-34.6V66.59h7.88a32.89,32.89,0,0,0-3.32-6.47l3.16-1.33h-5.8V54.52H140V50.36h-8.12v-2q-2.52,1.2-5.16,2.16a17.21,17.21,0,0,0-3.16-4.4C131.07,44,138.27,40,142.07,34l4.52,2c-.36.52-.72,1-1.12,1.6,3.92,3.52,10.4,6.84,16.4,8.52a23.09,23.09,0,0,0-3.28,4.16A52.84,52.84,0,0,1,153.15,48v2.36ZM134,58.79a27.36,27.36,0,0,1,3.48,6.36l-3.28,1.44H140v-7.8ZM149.63,46a46,46,0,0,1-6.92-5.2,35.54,35.54,0,0,1-6.48,5.2Zm-4.52,12.79v7.8h5l-2.68-1.12A36.66,36.66,0,0,0,151,58.79Z"/><path class="cls-1" d="M189.59,38.12c3.68,3.44,8.44,8.36,10.52,11.72l-4,2.92a35,35,0,0,0-2.08-3c-21.24,1-24.08,1.12-26.2,1.84A36.42,36.42,0,0,0,166.23,47a8.24,8.24,0,0,0,3.32-2.32A53.37,53.37,0,0,0,178,33.8l4.8,2A65.75,65.75,0,0,1,174.11,46l16.4-.52c-1.56-1.76-3.16-3.44-4.64-4.92ZM169.11,54.2h27V71.71H191v-2H174v2h-4.88ZM174,58.75v6.4h17v-6.4Z"/><path class="cls-1" d="M238.79,41.84A21.48,21.48,0,0,1,235,48.72a18.27,18.27,0,0,0,6.4,3.44,13.87,13.87,0,0,0-2.52,3.24,20.19,20.19,0,0,1-6.68-4,23.17,23.17,0,0,1-6.52,3.56,17.89,17.89,0,0,0-2.2-3.56,20.26,20.26,0,0,0,6-3,28.19,28.19,0,0,1-2.4-4,10.52,10.52,0,0,1-1.68,1.6c-.44-.52-1.24-1.44-2-2.2V54.16h-3.4V43.48h-4V54.76h-2.92V43.48h-3.88V50a23.09,23.09,0,0,0,1.12-5.4l2.32.48a28.27,28.27,0,0,1-1.68,6.76,16.68,16.68,0,0,0-1.76-1v4.24H206V40.68h2a18.5,18.5,0,0,0-2.08-4l3.28-1.4a18.31,18.31,0,0,1,2.44,4.28l-2.52,1.16h3.52v-6.2h4.12v6.2h3.36l-2-.84a35.79,35.79,0,0,0,2.24-4.68l3.84,1.32c-1.12,1.56-2.2,3.08-3,4.2h2.4v1.68a16.52,16.52,0,0,0,4.64-7.88l4,.84a26.2,26.2,0,0,1-1.08,3h9.8v3.56Zm-1.4,23.67c0,2.12-.48,3.2-2.12,3.84s-3.76.64-6.72.64A17.43,17.43,0,0,0,227,66.07c1.92.08,4.32.08,4.84.08s.88-.2.88-.68V61h-7.88V71.83h-4.72V61H213v9h-4.6V57h11.72V54.88h4.72V57h12.56Zm-19-21a32.61,32.61,0,0,1,1.52,6.64l-2.08.64a28.12,28.12,0,0,0-1.48-6.68Zm11.4-2.68a18.89,18.89,0,0,0,2.4,4,14.18,14.18,0,0,0,2.24-4Z"/><path class="cls-1" d="M280.19,38.16v4H244.87v-4h15.4c-.32-1-.64-2-1-2.8l4.92-1.2c.44,1.24,1.08,2.72,1.56,4Zm-.92,29.27c0,2.08-.52,2.92-2,3.52a21.57,21.57,0,0,1-6.36.48,15.32,15.32,0,0,0-1.4-3.36H258v1.68h-4.4V59.2H271v8.87h-.56c1.4,0,2.8,0,3.2,0,.56,0,.8-.16.8-.68V57.71H250.59v14H246V53.88h33.28Zm-3.84-15.19H250.19V43.68h25.24Zm-5-5.36H255v2.2h15.48Zm-3.6,15.63H258v2.28h8.8Z"/><path class="cls-1" d="M296.87,46.28h7.2v4.4h-7.2v1.4c2,1.6,5.92,5.12,7,6.08l-2.72,4c-1-1.24-2.68-3.16-4.24-4.87V71.71h-4.8V57.6a38.26,38.26,0,0,1-6,9.19,27.31,27.31,0,0,0-2.44-4.68,38.53,38.53,0,0,0,7.6-11.43h-6.72v-4.4h7.56V41.36c-2.24.44-4.48.8-6.6,1.08a14.49,14.49,0,0,0-1.4-3.72c5.8-.88,12.2-2.36,16.08-4.12l3.36,3.64a50,50,0,0,1-6.64,2.08Zm14.24,15.35h-4.76V39.28h4.76Zm8.48-26.51V65.87c0,2.84-.56,4.08-2.2,4.88s-4.28,1-8,1a18.06,18.06,0,0,0-1.64-5c2.6.12,5.2.12,6,.12s1.08-.24,1.08-1V35.12Z"/><path class="cls-1" d="M331.55,53.72c-1.64-1.16-5.08-3-7.44-4.32l2.56-3.52c2.2,1.08,5.76,2.8,7.52,3.88Zm-6.88,14.39a118,118,0,0,0,7.6-12.59l3.48,3.19c-2.12,4.2-4.64,8.76-7.08,12.64Zm8.6-25.31A82.78,82.78,0,0,0,326,38.4L328.67,35c2.24,1.12,5.72,2.88,7.44,4ZM351,50.6v5h8.16v16h-4.52V70.15h-12v1.64h-4.28V55.64h8.16v-5H335.83V46h10.64V41.36c-2.64.4-5.28.68-7.8.92a16.76,16.76,0,0,0-1.32-4.08c6.8-.68,14.28-2,18.68-3.76l3.68,3.76A51.13,51.13,0,0,1,351,40.56V46h10.16V50.6ZM354.63,60h-12v5.88h12Z"/><path class="cls-1" d="M379.07,44.16a49.62,49.62,0,0,1-4.84,8.2V71.71h-4.8v-14a34,34,0,0,1-3.76,3,36.84,36.84,0,0,0-2.24-4.55,31.2,31.2,0,0,0,10.24-12h-8.8V39.6h10.84c.64-1.76,1.2-3.48,1.64-5.2l5,1.2c-.4,1.36-.88,2.64-1.36,4h19.44v4.56ZM401,61.75h-9.48v5c0,2.4-.4,3.64-2.12,4.36s-4,.72-7.24.68a17.85,17.85,0,0,0-1.32-4.56c2,.12,4.36.12,5,.12s.88-.2.88-.72V61.75H376.55V57.32h10.16v-2.8a27.25,27.25,0,0,0,3.8-3H379.67V47.28h15.2l1-.28,3,2.44a49.82,49.82,0,0,1-7.36,6.36v1.52H401Z"/><path class="cls-3" d="M106.55,61.91A127.75,127.75,0,0,1,121,67.79l-2.24,4.08a132.41,132.41,0,0,0-16-7l1.8-3h-1.44c-1.92,4.92-6.2,8.08-16.88,9.84a12.18,12.18,0,0,0-2.36-4.28c8-1.08,11.8-2.88,13.68-5.56H85.63v-4H99.11c.12-.63.24-1.35.32-2.07H84.71V51.68h15.36V49.56H88.23v-4h11.84v-2H86v-4.2h7.6a22.84,22.84,0,0,0-2.24-3.52l4.24-1.68a17.67,17.67,0,0,1,3,4.68l-1.16.52h8.8a37.08,37.08,0,0,0,2.84-5.2l5.12,1.32c-.88,1.4-1.8,2.72-2.68,3.88h7.68v4.2H105v2h12.24v4H105v2.12h15.92V55.8H104.47c-.08.72-.2,1.4-.32,2.07h15.6v4Z"/><path class="cls-3" d="M145.11,50.36v4.16h12.76v4.27h-6.32l4,1.44c-1.4,2.24-3,4.64-4.2,6.36H160V71h-34.6V66.59h7.88a32.89,32.89,0,0,0-3.32-6.47l3.16-1.33h-5.8V54.52H140V50.36h-8.12v-2q-2.52,1.2-5.16,2.16a17.21,17.21,0,0,0-3.16-4.4C131.07,44,138.27,40,142.07,34l4.52,2c-.36.52-.72,1-1.12,1.6,3.92,3.52,10.4,6.84,16.4,8.52a23.09,23.09,0,0,0-3.28,4.16A52.84,52.84,0,0,1,153.15,48v2.36ZM134,58.79a27.36,27.36,0,0,1,3.48,6.36l-3.28,1.44H140v-7.8ZM149.63,46a46,46,0,0,1-6.92-5.2,35.54,35.54,0,0,1-6.48,5.2Zm-4.52,12.79v7.8h5l-2.68-1.12A36.66,36.66,0,0,0,151,58.79Z"/><path class="cls-3" d="M189.59,38.12c3.68,3.44,8.44,8.36,10.52,11.72l-4,2.92a35,35,0,0,0-2.08-3c-21.24,1-24.08,1.12-26.2,1.84A36.42,36.42,0,0,0,166.23,47a8.24,8.24,0,0,0,3.32-2.32A53.37,53.37,0,0,0,178,33.8l4.8,2A65.75,65.75,0,0,1,174.11,46l16.4-.52c-1.56-1.76-3.16-3.44-4.64-4.92ZM169.11,54.2h27V71.71H191v-2H174v2h-4.88ZM174,58.75v6.4h17v-6.4Z"/><path class="cls-3" d="M238.79,41.84A21.48,21.48,0,0,1,235,48.72a18.27,18.27,0,0,0,6.4,3.44,13.87,13.87,0,0,0-2.52,3.24,20.19,20.19,0,0,1-6.68-4,23.17,23.17,0,0,1-6.52,3.56,17.89,17.89,0,0,0-2.2-3.56,20.26,20.26,0,0,0,6-3,28.19,28.19,0,0,1-2.4-4,10.52,10.52,0,0,1-1.68,1.6c-.44-.52-1.24-1.44-2-2.2V54.16h-3.4V43.48h-4V54.76h-2.92V43.48h-3.88V50a23.09,23.09,0,0,0,1.12-5.4l2.32.48a28.27,28.27,0,0,1-1.68,6.76,16.68,16.68,0,0,0-1.76-1v4.24H206V40.68h2a18.5,18.5,0,0,0-2.08-4l3.28-1.4a18.31,18.31,0,0,1,2.44,4.28l-2.52,1.16h3.52v-6.2h4.12v6.2h3.36l-2-.84a35.79,35.79,0,0,0,2.24-4.68l3.84,1.32c-1.12,1.56-2.2,3.08-3,4.2h2.4v1.68a16.52,16.52,0,0,0,4.64-7.88l4,.84a26.2,26.2,0,0,1-1.08,3h9.8v3.56Zm-1.4,23.67c0,2.12-.48,3.2-2.12,3.84s-3.76.64-6.72.64A17.43,17.43,0,0,0,227,66.07c1.92.08,4.32.08,4.84.08s.88-.2.88-.68V61h-7.88V71.83h-4.72V61H213v9h-4.6V57h11.72V54.88h4.72V57h12.56Zm-19-21a32.61,32.61,0,0,1,1.52,6.64l-2.08.64a28.12,28.12,0,0,0-1.48-6.68Zm11.4-2.68a18.89,18.89,0,0,0,2.4,4,14.18,14.18,0,0,0,2.24-4Z"/><path class="cls-3" d="M280.19,38.16v4H244.87v-4h15.4c-.32-1-.64-2-1-2.8l4.92-1.2c.44,1.24,1.08,2.72,1.56,4Zm-.92,29.27c0,2.08-.52,2.92-2,3.52a21.57,21.57,0,0,1-6.36.48,15.32,15.32,0,0,0-1.4-3.36H258v1.68h-4.4V59.2H271v8.87h-.56c1.4,0,2.8,0,3.2,0,.56,0,.8-.16.8-.68V57.71H250.59v14H246V53.88h33.28Zm-3.84-15.19H250.19V43.68h25.24Zm-5-5.36H255v2.2h15.48Zm-3.6,15.63H258v2.28h8.8Z"/><path class="cls-3" d="M296.87,46.28h7.2v4.4h-7.2v1.4c2,1.6,5.92,5.12,7,6.08l-2.72,4c-1-1.24-2.68-3.16-4.24-4.87V71.71h-4.8V57.6a38.26,38.26,0,0,1-6,9.19,27.31,27.31,0,0,0-2.44-4.68,38.53,38.53,0,0,0,7.6-11.43h-6.72v-4.4h7.56V41.36c-2.24.44-4.48.8-6.6,1.08a14.49,14.49,0,0,0-1.4-3.72c5.8-.88,12.2-2.36,16.08-4.12l3.36,3.64a50,50,0,0,1-6.64,2.08Zm14.24,15.35h-4.76V39.28h4.76Zm8.48-26.51V65.87c0,2.84-.56,4.08-2.2,4.88s-4.28,1-8,1a18.06,18.06,0,0,0-1.64-5c2.6.12,5.2.12,6,.12s1.08-.24,1.08-1V35.12Z"/><path class="cls-3" d="M331.55,53.72c-1.64-1.16-5.08-3-7.44-4.32l2.56-3.52c2.2,1.08,5.76,2.8,7.52,3.88Zm-6.88,14.39a118,118,0,0,0,7.6-12.59l3.48,3.19c-2.12,4.2-4.64,8.76-7.08,12.64Zm8.6-25.31A82.78,82.78,0,0,0,326,38.4L328.67,35c2.24,1.12,5.72,2.88,7.44,4ZM351,50.6v5h8.16v16h-4.52V70.15h-12v1.64h-4.28V55.64h8.16v-5H335.83V46h10.64V41.36c-2.64.4-5.28.68-7.8.92a16.76,16.76,0,0,0-1.32-4.08c6.8-.68,14.28-2,18.68-3.76l3.68,3.76A51.13,51.13,0,0,1,351,40.56V46h10.16V50.6ZM354.63,60h-12v5.88h12Z"/><path class="cls-3" d="M379.07,44.16a49.62,49.62,0,0,1-4.84,8.2V71.71h-4.8v-14a34,34,0,0,1-3.76,3,36.84,36.84,0,0,0-2.24-4.55,31.2,31.2,0,0,0,10.24-12h-8.8V39.6h10.84c.64-1.76,1.2-3.48,1.64-5.2l5,1.2c-.4,1.36-.88,2.64-1.36,4h19.44v4.56ZM401,61.75h-9.48v5c0,2.4-.4,3.64-2.12,4.36s-4,.72-7.24.68a17.85,17.85,0,0,0-1.32-4.56c2,.12,4.36.12,5,.12s.88-.2.88-.72V61.75H376.55V57.32h10.16v-2.8a27.25,27.25,0,0,0,3.8-3H379.67V47.28h15.2l1-.28,3,2.44a49.82,49.82,0,0,1-7.36,6.36v1.52H401Z"/><path class="cls-1" d="M107.43,100.68c-.48.52-1,1-1.44,1.52a18.05,18.05,0,0,0-2.28-3.4,23,23,0,0,0,5.72-9.28l3.64,1a24.78,24.78,0,0,1-1.24,3.08h3a26.35,26.35,0,0,0-1.2-2.92l3.92-1.08a38.15,38.15,0,0,1,1.76,4h2.92v3h-4.16v1.52h3.36v.08a25.85,25.85,0,0,0,5-8.68l3.72,1c-.36,1-.8,2-1.28,3.08H132a26.28,26.28,0,0,0-1.16-2.84l3.92-1.08a42.19,42.19,0,0,1,1.76,3.92h3.6v3h-5v1.52h3.92v2.76h-3.92v1.52h3.92v2.8h-3.92v1.52h5.44v3h-16v-9c-.48.6-1,1.16-1.44,1.68a27.36,27.36,0,0,0-1.64-2.24v.72h-3.36v1.52h3.36v2.8h-3.36v1.52h4.52v3h-15.2Zm29.4,12.44a22.9,22.9,0,0,1-7.76,7.35A84.42,84.42,0,0,0,140.71,122a22,22,0,0,0-3,4.52,59.18,59.18,0,0,1-15-3.16,72.47,72.47,0,0,1-16.48,3.44,17.12,17.12,0,0,0-1.92-4.28,81.26,81.26,0,0,0,12.52-1.84,30.17,30.17,0,0,1-6-4.68l1.84-.83h-6.12v-3.84h26.16l.84-.2ZM114.31,96.6h-2.88v1.52h2.88Zm0,4.28h-2.88v1.52h2.88Zm0,4.32h-2.88v1.52h2.88Zm2.16,10a23.83,23.83,0,0,0,6.56,3.47,22.44,22.44,0,0,0,5.88-3.47Zm14.88-18.6h-2.8v1.52h2.8Zm0,4.28h-2.8v1.52h2.8Zm0,4.32h-2.8v1.52h2.8Z"/><path class="cls-1" d="M178.79,96.84a21.48,21.48,0,0,1-3.76,6.88,18.27,18.27,0,0,0,6.4,3.44,13.87,13.87,0,0,0-2.52,3.24,20.19,20.19,0,0,1-6.68-4,23.17,23.17,0,0,1-6.52,3.56,17.89,17.89,0,0,0-2.2-3.56,20.26,20.26,0,0,0,6-3,28.19,28.19,0,0,1-2.4-4,10.52,10.52,0,0,1-1.68,1.6c-.44-.52-1.24-1.44-2-2.2v10.32h-3.4V98.48h-4v11.28h-2.92V98.48h-3.88V105a23.09,23.09,0,0,0,1.12-5.4l2.32.48a28.27,28.27,0,0,1-1.68,6.76,16.68,16.68,0,0,0-1.76-1v4.24H146V95.68h2a18.5,18.5,0,0,0-2.08-4l3.28-1.4a18.31,18.31,0,0,1,2.44,4.28l-2.52,1.16h3.52v-6.2h4.12v6.2h3.36l-2-.84a35.79,35.79,0,0,0,2.24-4.68l3.84,1.32c-1.12,1.56-2.2,3.08-3,4.2h2.4v1.68a16.52,16.52,0,0,0,4.64-7.88l4,.84a26.2,26.2,0,0,1-1.08,3h9.8v3.56Zm-1.4,23.67c0,2.12-.48,3.2-2.12,3.84s-3.76.64-6.72.64a17.43,17.43,0,0,0-1.56-3.92c1.92.08,4.32.08,4.84.08s.88-.2.88-.68V116h-7.88v10.88h-4.72V116H153v9h-4.6V112h11.72v-2.11h4.72V112h12.56Zm-19-21a32.61,32.61,0,0,1,1.52,6.64l-2.08.64a28.12,28.12,0,0,0-1.48-6.68Zm11.4-2.68a18.89,18.89,0,0,0,2.4,4,14.18,14.18,0,0,0,2.24-4Z"/><path class="cls-1" d="M196.87,101.28h7.2v4.4h-7.2v1.4c2,1.6,5.92,5.12,7,6.08l-2.72,4c-1-1.24-2.68-3.16-4.24-4.87v14.39h-4.8V112.6a38.26,38.26,0,0,1-6,9.19,27.31,27.31,0,0,0-2.44-4.68,38.53,38.53,0,0,0,7.6-11.43h-6.72v-4.4h7.56V96.36c-2.24.44-4.48.8-6.6,1.08a14.49,14.49,0,0,0-1.4-3.72c5.8-.88,12.2-2.36,16.08-4.12l3.36,3.64a50,50,0,0,1-6.64,2.08Zm14.24,15.35h-4.76V94.28h4.76Zm8.48-26.51v30.75c0,2.84-.56,4.08-2.2,4.88s-4.28,1-8,1a18.06,18.06,0,0,0-1.64-5c2.6.12,5.2.12,6,.12s1.08-.24,1.08-1V90.12Z"/><path class="cls-1" d="M223.91,122.75a42.3,42.3,0,0,0,3.8-8.4l4.24,1.76a72.84,72.84,0,0,1-3.64,8.76Zm17.48-10.19H229.91V93h9.2a36,36,0,0,0,1-3.92l5.76.72c-.56,1.2-1.2,2.24-1.72,3.2h11v19.6H243.63a25,25,0,0,1,4.2,5.27l-3.92,2.28a27.52,27.52,0,0,0-4.76-6.32Zm5.64,9.23c1.92,0,2.24-.52,2.48-4.32a12.33,12.33,0,0,0,4.32,1.68c-.56,5.6-2,7-6.44,7h-7.6c-5.6,0-7.08-1.32-7.08-5.6V115h4.84v5.48c0,1.2.4,1.32,2.68,1.32ZM234.51,98.44h15.8V96.6h-15.8Zm0,5.24h15.8v-1.84h-15.8Zm0,5.28h15.8v-1.88h-15.8Zm21.92,4.63a33.13,33.13,0,0,1,4.44,8.56l-4.56,1.92a34.31,34.31,0,0,0-4.08-8.72Z"/><path class="cls-1" d="M286.11,90.52l-.64.64c3.84,2.44,10.4,4.6,16,5.68a16.39,16.39,0,0,0-2.68,3.52,55.34,55.34,0,0,1-7-2.16v1H273.59V98.12a68.78,68.78,0,0,1-7.2,2.32,17.16,17.16,0,0,0-2.52-3.36c7.44-1.8,14.76-4.72,18.44-8.36ZM285,118h15.36v3.24H285v1.32c0,2.16-.52,3.08-2.12,3.64s-3.76.6-6.8.56a13.78,13.78,0,0,0-1.52-3.64c1.92.08,4.28.08,4.84.08s.88-.2.88-.76v-1.2H264.91V118h15.32v-1.48H267.35v-3.19h12.88V112c-3.8.17-7.68.21-11.28.17a10.28,10.28,0,0,0-.8-2.88c8.84.08,19.4-.32,25-1.32l3.08,2.6a103.76,103.76,0,0,1-11.32,1.2v1.64h13.16v3.19H285Zm10.24-10.27H270v-7.2h25.2Zm-4.72-4.44h-16V105h16Zm-2.72-6.84a53.15,53.15,0,0,1-5.24-2.92,41.73,41.73,0,0,1-5.12,2.92Z"/><path class="cls-1" d="M316.47,120.35a25.83,25.83,0,0,0,8,.88c3,0,13.64,0,17.24-.16a16.29,16.29,0,0,0-1.8,4.72H324.47c-7.4,0-12.16-1-15.32-5.48a28.56,28.56,0,0,1-1.84,7,41.66,41.66,0,0,0-4-2c2-4,2.36-10.72,2.44-17.55l4.36.32c0,1.76-.12,3.52-.2,5.16a12.83,12.83,0,0,0,2.2,4.23v-12h-7.76v-4.16h6.76V97.56h-5.64V93.44h5.64V89.56h4.48v3.88h5.32v4.12h-5.32v3.72h6.28v4.16h-5.4v4.32h5.08v4.11h-5.08Zm13-1c-4.48,0-5.92-1.36-5.92-6.44V91H339v15.2H328.15V113c0,1.84.24,2.17,1.92,2.17h5.16c1.52,0,1.8-.92,2-5.16a13.47,13.47,0,0,0,4.16,1.84c-.52,5.67-1.8,7.59-5.8,7.59Zm-1.32-24.23v6.92h6.28V95.16Z"/><path class="cls-1" d="M377.11,113a56.18,56.18,0,0,0-5.16-4.63,16.78,16.78,0,0,1-2.68,3.44,22.24,22.24,0,0,0-3.12-2,35,35,0,0,0,15.28,11.15,21.84,21.84,0,0,0-3.52,4.36,38.54,38.54,0,0,1-13-10.11v11.63h-5v-11.4a38.59,38.59,0,0,1-12.84,9.88,29.35,29.35,0,0,0-3.36-4.08A35.45,35.45,0,0,0,360,108.32V99.08H345.39V94.4H360V89.48h5V94.4H380v4.68H365v9c.2.32.4.6.6.92a17.82,17.82,0,0,0,5-9.64l4.64.84a35.55,35.55,0,0,1-1.32,4.28c2.28,1.76,5,3.88,6.52,5.24Zm-20.6-12.79a39.06,39.06,0,0,1-1.44,4.32c1.44,1.24,3,2.56,3.88,3.52l-3.2,3.32a32.38,32.38,0,0,0-2.68-2.8,21.24,21.24,0,0,1-4.6,5.47,29.26,29.26,0,0,0-3.68-3.11c3.52-2.52,6-6.72,7.08-11.6Z"/><path class="cls-4" d="M107.43,100.68c-.48.52-1,1-1.44,1.52a18.05,18.05,0,0,0-2.28-3.4,23,23,0,0,0,5.72-9.28l3.64,1a24.78,24.78,0,0,1-1.24,3.08h3a26.35,26.35,0,0,0-1.2-2.92l3.92-1.08a38.15,38.15,0,0,1,1.76,4h2.92v3h-4.16v1.52h3.36v.08a25.85,25.85,0,0,0,5-8.68l3.72,1c-.36,1-.8,2-1.28,3.08H132a26.28,26.28,0,0,0-1.16-2.84l3.92-1.08a42.19,42.19,0,0,1,1.76,3.92h3.6v3h-5v1.52h3.92v2.76h-3.92v1.52h3.92v2.8h-3.92v1.52h5.44v3h-16v-9c-.48.6-1,1.16-1.44,1.68a27.36,27.36,0,0,0-1.64-2.24v.72h-3.36v1.52h3.36v2.8h-3.36v1.52h4.52v3h-15.2Zm29.4,12.44a22.9,22.9,0,0,1-7.76,7.35A84.42,84.42,0,0,0,140.71,122a22,22,0,0,0-3,4.52,59.18,59.18,0,0,1-15-3.16,72.47,72.47,0,0,1-16.48,3.44,17.12,17.12,0,0,0-1.92-4.28,81.26,81.26,0,0,0,12.52-1.84,30.17,30.17,0,0,1-6-4.68l1.84-.83h-6.12v-3.84h26.16l.84-.2ZM114.31,96.6h-2.88v1.52h2.88Zm0,4.28h-2.88v1.52h2.88Zm0,4.32h-2.88v1.52h2.88Zm2.16,10a23.83,23.83,0,0,0,6.56,3.47,22.44,22.44,0,0,0,5.88-3.47Zm14.88-18.6h-2.8v1.52h2.8Zm0,4.28h-2.8v1.52h2.8Zm0,4.32h-2.8v1.52h2.8Z"/><path class="cls-4" d="M178.79,96.84a21.48,21.48,0,0,1-3.76,6.88,18.27,18.27,0,0,0,6.4,3.44,13.87,13.87,0,0,0-2.52,3.24,20.19,20.19,0,0,1-6.68-4,23.17,23.17,0,0,1-6.52,3.56,17.89,17.89,0,0,0-2.2-3.56,20.26,20.26,0,0,0,6-3,28.19,28.19,0,0,1-2.4-4,10.52,10.52,0,0,1-1.68,1.6c-.44-.52-1.24-1.44-2-2.2v10.32h-3.4V98.48h-4v11.28h-2.92V98.48h-3.88V105a23.09,23.09,0,0,0,1.12-5.4l2.32.48a28.27,28.27,0,0,1-1.68,6.76,16.68,16.68,0,0,0-1.76-1v4.24H146V95.68h2a18.5,18.5,0,0,0-2.08-4l3.28-1.4a18.31,18.31,0,0,1,2.44,4.28l-2.52,1.16h3.52v-6.2h4.12v6.2h3.36l-2-.84a35.79,35.79,0,0,0,2.24-4.68l3.84,1.32c-1.12,1.56-2.2,3.08-3,4.2h2.4v1.68a16.52,16.52,0,0,0,4.64-7.88l4,.84a26.2,26.2,0,0,1-1.08,3h9.8v3.56Zm-1.4,23.67c0,2.12-.48,3.2-2.12,3.84s-3.76.64-6.72.64a17.43,17.43,0,0,0-1.56-3.92c1.92.08,4.32.08,4.84.08s.88-.2.88-.68V116h-7.88v10.88h-4.72V116H153v9h-4.6V112h11.72v-2.11h4.72V112h12.56Zm-19-21a32.61,32.61,0,0,1,1.52,6.64l-2.08.64a28.12,28.12,0,0,0-1.48-6.68Zm11.4-2.68a18.89,18.89,0,0,0,2.4,4,14.18,14.18,0,0,0,2.24-4Z"/><path class="cls-4" d="M196.87,101.28h7.2v4.4h-7.2v1.4c2,1.6,5.92,5.12,7,6.08l-2.72,4c-1-1.24-2.68-3.16-4.24-4.87v14.39h-4.8V112.6a38.26,38.26,0,0,1-6,9.19,27.31,27.31,0,0,0-2.44-4.68,38.53,38.53,0,0,0,7.6-11.43h-6.72v-4.4h7.56V96.36c-2.24.44-4.48.8-6.6,1.08a14.49,14.49,0,0,0-1.4-3.72c5.8-.88,12.2-2.36,16.08-4.12l3.36,3.64a50,50,0,0,1-6.64,2.08Zm14.24,15.35h-4.76V94.28h4.76Zm8.48-26.51v30.75c0,2.84-.56,4.08-2.2,4.88s-4.28,1-8,1a18.06,18.06,0,0,0-1.64-5c2.6.12,5.2.12,6,.12s1.08-.24,1.08-1V90.12Z"/><path class="cls-4" d="M223.91,122.75a42.3,42.3,0,0,0,3.8-8.4l4.24,1.76a72.84,72.84,0,0,1-3.64,8.76Zm17.48-10.19H229.91V93h9.2a36,36,0,0,0,1-3.92l5.76.72c-.56,1.2-1.2,2.24-1.72,3.2h11v19.6H243.63a25,25,0,0,1,4.2,5.27l-3.92,2.28a27.52,27.52,0,0,0-4.76-6.32Zm5.64,9.23c1.92,0,2.24-.52,2.48-4.32a12.33,12.33,0,0,0,4.32,1.68c-.56,5.6-2,7-6.44,7h-7.6c-5.6,0-7.08-1.32-7.08-5.6V115h4.84v5.48c0,1.2.4,1.32,2.68,1.32ZM234.51,98.44h15.8V96.6h-15.8Zm0,5.24h15.8v-1.84h-15.8Zm0,5.28h15.8v-1.88h-15.8Zm21.92,4.63a33.13,33.13,0,0,1,4.44,8.56l-4.56,1.92a34.31,34.31,0,0,0-4.08-8.72Z"/><path class="cls-4" d="M286.11,90.52l-.64.64c3.84,2.44,10.4,4.6,16,5.68a16.39,16.39,0,0,0-2.68,3.52,55.34,55.34,0,0,1-7-2.16v1H273.59V98.12a68.78,68.78,0,0,1-7.2,2.32,17.16,17.16,0,0,0-2.52-3.36c7.44-1.8,14.76-4.72,18.44-8.36ZM285,118h15.36v3.24H285v1.32c0,2.16-.52,3.08-2.12,3.64s-3.76.6-6.8.56a13.78,13.78,0,0,0-1.52-3.64c1.92.08,4.28.08,4.84.08s.88-.2.88-.76v-1.2H264.91V118h15.32v-1.48H267.35v-3.19h12.88V112c-3.8.17-7.68.21-11.28.17a10.28,10.28,0,0,0-.8-2.88c8.84.08,19.4-.32,25-1.32l3.08,2.6a103.76,103.76,0,0,1-11.32,1.2v1.64h13.16v3.19H285Zm10.24-10.27H270v-7.2h25.2Zm-4.72-4.44h-16V105h16Zm-2.72-6.84a53.15,53.15,0,0,1-5.24-2.92,41.73,41.73,0,0,1-5.12,2.92Z"/><path class="cls-4" d="M316.47,120.35a25.83,25.83,0,0,0,8,.88c3,0,13.64,0,17.24-.16a16.29,16.29,0,0,0-1.8,4.72H324.47c-7.4,0-12.16-1-15.32-5.48a28.56,28.56,0,0,1-1.84,7,41.66,41.66,0,0,0-4-2c2-4,2.36-10.72,2.44-17.55l4.36.32c0,1.76-.12,3.52-.2,5.16a12.83,12.83,0,0,0,2.2,4.23v-12h-7.76v-4.16h6.76V97.56h-5.64V93.44h5.64V89.56h4.48v3.88h5.32v4.12h-5.32v3.72h6.28v4.16h-5.4v4.32h5.08v4.11h-5.08Zm13-1c-4.48,0-5.92-1.36-5.92-6.44V91H339v15.2H328.15V113c0,1.84.24,2.17,1.92,2.17h5.16c1.52,0,1.8-.92,2-5.16a13.47,13.47,0,0,0,4.16,1.84c-.52,5.67-1.8,7.59-5.8,7.59Zm-1.32-24.23v6.92h6.28V95.16Z"/><path class="cls-4" d="M377.11,113a56.18,56.18,0,0,0-5.16-4.63,16.78,16.78,0,0,1-2.68,3.44,22.24,22.24,0,0,0-3.12-2,35,35,0,0,0,15.28,11.15,21.84,21.84,0,0,0-3.52,4.36,38.54,38.54,0,0,1-13-10.11v11.63h-5v-11.4a38.59,38.59,0,0,1-12.84,9.88,29.35,29.35,0,0,0-3.36-4.08A35.45,35.45,0,0,0,360,108.32V99.08H345.39V94.4H360V89.48h5V94.4H380v4.68H365v9c.2.32.4.6.6.92a17.82,17.82,0,0,0,5-9.64l4.64.84a35.55,35.55,0,0,1-1.32,4.28c2.28,1.76,5,3.88,6.52,5.24Zm-20.6-12.79a39.06,39.06,0,0,1-1.44,4.32c1.44,1.24,3,2.56,3.88,3.52l-3.2,3.32a32.38,32.38,0,0,0-2.68-2.8,21.24,21.24,0,0,1-4.6,5.47,29.26,29.26,0,0,0-3.68-3.11c3.52-2.52,6-6.72,7.08-11.6Z"/><rect class="cls-3" x="206.88" y="159.49" width="71.42" height="4"/><path class="cls-5" d="M432.63,29.44A19.24,19.24,0,1,1,408.5,16.86,19.25,19.25,0,0,1,432.63,29.44Z"/><path class="cls-6" d="M416.59,47.48c-.4-1.18-.41-1.21-1.65-1a12,12,0,0,1-2.87.12c-.54,0-.83-.31-.84-.83,0-.81-.07-1.58-.08-2.4s.18-.91.93-.83A8.47,8.47,0,0,0,416.5,42a2.72,2.72,0,0,0,1-.6,1.66,1.66,0,0,0-.56-2.92,6.92,6.92,0,0,0-2.13-.39c-1.28-.1-2.54-.16-3.76-.38a6.18,6.18,0,0,1-4.89-8.3,6.63,6.63,0,0,1,2.56-3.19,1,1,0,0,0,.45-1.29c-.23-.58-.39-1.15-.59-1.74a.73.73,0,0,1,.5-1.05c.61-.24,1.22-.45,1.85-.63a.78.78,0,0,1,1.08.59l.43,1.26c.31,1,.35,1,1.31.81a12.41,12.41,0,0,1,3.65-.18c1,.13,1.11.31,1.17,1.24,0,.71.08,1.41.08,2.1s-.16,1-1,.85a11,11,0,0,0-4.05.12,4.46,4.46,0,0,0-2.3,1.13,2,2,0,0,0,.67,3.44,5.15,5.15,0,0,0,1.65.33,36.31,36.31,0,0,1,4.32.41c2.33.49,4.07,1.68,4.72,4.08a5.94,5.94,0,0,1-2.34,6.58c-.88.69-.88.69-.55,1.76l.36,1.06c.23.8.17,1-.63,1.25l-.73.25C417.18,49.15,417.18,49.15,416.59,47.48Z"/><path class="cls-7" d="M469.57,1.86s0,17.08-12.92,17.08c12.92,0,12.92,17.09,12.92,17.09s0-17.09,12.92-17.09C469.57,18.94,469.57,1.86,469.57,1.86Z"/><path class="cls-8" d="M469.57,1.86s0,17.08-12.92,17.08c12.92,0,12.92,17.09,12.92,17.09s0-17.09,12.92-17.09C469.57,18.94,469.57,1.86,469.57,1.86Z"/><path class="cls-7" d="M448.7,35.22s0,6.79-5.13,6.79c5.13,0,5.13,6.78,5.13,6.78s0-6.78,5.14-6.78C448.7,42,448.7,35.22,448.7,35.22Z"/><path class="cls-8" d="M448.7,35.22s0,6.79-5.13,6.79c5.13,0,5.13,6.78,5.13,6.78s0-6.78,5.14-6.78C448.7,42,448.7,35.22,448.7,35.22Z"/><path class="cls-1" d="M74,93.63S74,105,65.33,105C74,105,74,116.45,74,116.45S74,105,82.59,105C74,105,74,93.63,74,93.63Z"/><path class="cls-8" d="M74,93.63S74,105,65.33,105C74,105,74,116.45,74,116.45S74,105,82.59,105C74,105,74,93.63,74,93.63Z"/></svg>