<?xml version="1.0" encoding="UTF-8"?>
<svg width="20px" height="20px" viewBox="0 0 20 20" version="1.1" xmlns="http://www.w3.org/2000/svg" xmlns:xlink="http://www.w3.org/1999/xlink">
    <!-- Generator: Sketch 51.2 (57519) - http://www.bohemiancoding.com/sketch -->
    <title>fb copy</title>
    <desc>Created with Sketch.</desc>
    <defs></defs>
    <g id="Page-1" stroke="none" stroke-width="1" fill="none" fill-rule="evenodd">
        <g id="首頁---深色" transform="translate(-1186.000000, -55.000000)" fill="#EEEEEE" fill-rule="nonzero">
            <g id="fb-copy" transform="translate(1186.000000, 55.000000)">
                <path d="M20,10 C20,4.4772549 15.5227124,0 10,0 C4.4772549,0 0,4.4772549 0,10 C0,15.5227124 4.4772549,20 10,20 C15.5227124,20 20,15.5227124 20,10 Z M0.909084967,10 C0.909084967,4.97908497 4.97908497,0.909084967 10,0.909084967 C15.020915,0.909084967 19.090915,4.97908497 19.090915,10 C19.090915,15.020915 15.020915,19.090915 10,19.090915 C4.97908497,19.090915 0.909084967,15.020915 0.909084967,10 Z" id="Shape"></path>
                <path d="M10.3648729,15.5555556 L10.3648729,9.99255083 L12.2001176,9.99255083 L12.4900887,8.14903008 L10.3648729,8.14903008 L10.3648729,7.22463966 C10.3648729,6.74360891 10.5225494,6.28446896 11.2128682,6.28446896 L12.5925926,6.28446896 L12.5925926,4.44444444 L10.6338078,4.44444444 C8.98688054,4.44444444 8.53746948,5.52915745 8.53746948,7.03275652 L8.53746948,8.14817965 L7.40740741,8.14817965 L7.40740741,9.99255083 L8.53746948,9.99255083 L8.53746948,15.5555556 L10.3648729,15.5555556 Z" id="Shape"></path>
            </g>
        </g>
    </g>
</svg>