<?xml version="1.0" encoding="utf-8"?>
<!-- Generator: Adobe Illustrator 16.0.0, SVG Export Plug-In . SVG Version: 6.00 Build 0)  -->
<!DOCTYPE svg PUBLIC "-//W3C//DTD SVG 1.1//EN" "http://www.w3.org/Graphics/SVG/1.1/DTD/svg11.dtd">
<svg version="1.1" id="Capa_1" xmlns="http://www.w3.org/2000/svg" xmlns:xlink="http://www.w3.org/1999/xlink" x="0px" y="0px"
	 width="595.281px" height="841.891px" viewBox="0 0 595.281 841.891" enable-background="new 0 0 595.281 841.891"
	 xml:space="preserve">
<path fill="#DFCBB6" d="M588.421,332.267c0-10.81-8.76-19.573-19.572-19.573H364.376l41.83-165.009
	c1.482-5.854,0.18-12.063-3.527-16.83c-3.709-4.769-9.408-7.55-15.445-7.55H268.789c-8.957,0-16.771,6.078-18.973,14.758
	l-44.314,174.631h-13.247v-13.561c0-10.807-8.756-19.57-19.563-19.576l-146.25-0.081c-0.003,0-0.008,0-0.011,0
	c-5.188,0-10.17,2.063-13.839,5.731c-3.672,3.672-5.734,8.654-5.734,13.848L6.95,699.017c0.003,10.807,8.764,19.568,19.574,19.568
	h146.111c10.81,0,19.573-8.762,19.573-19.571l0.005-49.641l67.826,33.898c2.717,1.357,5.71,2.064,8.75,2.064H537.55
	c10.811,0,19.572-8.764,19.572-19.573v-63.791h11.723c10.813,0,19.574-8.764,19.574-19.573c0-0.052-0.008-0.104-0.008-0.156
	c0-0.053,0.008-0.104,0.008-0.156V332.267H588.421z M46.091,679.439L46.01,318.634l107.095,0.058l-0.003,12.744
	c-0.01,0.276-0.042,0.55-0.042,0.829v285.438c0,0.047,0.01,0.089,0.01,0.136l-0.008,61.599H46.091V679.439z M517.978,646.187
	h-244.57l-81.188-40.576l0.031-253.771h28.478c8.957,0,16.771-6.078,18.973-14.758l44.312-174.631h78.063L320.25,327.461
	c-1.482,5.854-0.182,12.064,3.527,16.83s9.408,7.553,15.447,7.553h210.051v44.16H425.628c-10.813,0-19.572,8.764-19.572,19.573
	s8.76,19.573,19.572,19.573h123.646v44.268H425.628c-10.813,0-19.572,8.764-19.572,19.573s8.76,19.573,19.572,19.573h123.646v44.262
	H425.589c-10.813,0-19.572,8.764-19.572,19.573s8.76,19.573,19.572,19.573h92.387v44.215H517.978z"/>
</svg>
