<?xml version="1.0" encoding="utf-8"?>
<!-- Generator: Adobe Illustrator 16.0.0, SVG Export Plug-In . SVG Version: 6.00 Build 0)  -->
<!DOCTYPE svg PUBLIC "-//W3C//DTD SVG 1.1//EN" "http://www.w3.org/Graphics/SVG/1.1/DTD/svg11.dtd">
<svg version="1.1" id="Layer_1" xmlns="http://www.w3.org/2000/svg" xmlns:xlink="http://www.w3.org/1999/xlink" x="0px" y="0px"
	 width="595.281px" height="841.891px" viewBox="0 0 595.281 841.891" enable-background="new 0 0 595.281 841.891"
	 xml:space="preserve">
<g>
	<g>
		<path fill="#DFCBB6" d="M520.013,477.67l-0.424-5.824c-6.818-88.771-48.152-144.419-84.615-193.504
			c-33.766-45.451-62.928-84.701-62.928-142.614c0-4.65-2.604-8.9-6.732-11.033c-4.143-2.144-9.121-1.793-12.887,0.945
			c-54.763,39.189-100.457,105.241-116.418,168.264c-11.081,43.877-12.547,93.203-12.752,125.781
			c-50.574-10.803-62.03-86.458-62.151-87.281c-0.569-3.924-2.967-7.339-6.455-9.204c-3.524-1.841-7.667-1.975-11.239-0.206
			c-2.652,1.284-65.095,33.014-68.728,159.715c-0.255,4.214-0.266,8.429-0.266,12.654c0,123.08,100.142,223.223,223.222,223.223
			c123.081,0,223.221-100.143,223.221-223.223C520.861,489.186,520.439,483.423,520.013,477.67z M297.64,693.782
			c-41.031,0-74.407-35.556-74.407-79.264c0-1.489-0.012-2.991,0.096-4.831c0.497-18.433,3.997-31.016,7.836-39.384
			c7.194,15.453,20.066,29.658,40.946,29.658c6.855,0,12.402-5.547,12.402-12.401c0-17.658,0.364-38.027,4.759-56.411
			c3.913-16.313,13.261-33.644,25.106-47.547c5.268,18.045,15.537,32.65,25.564,46.905c14.352,20.395,29.188,41.479,31.791,77.435
			c0.156,2.131,0.314,4.274,0.314,6.575C372.046,658.226,338.671,693.782,297.64,693.782z M376.013,677.579
			c12.873-17.555,20.836-39.253,20.836-63.061c0-2.918-0.18-5.631-0.545-10.705c-2.941-40.485-20.539-65.506-36.076-87.583
			c-13.236-18.796-24.656-35.035-24.656-58.07c0-4.711-2.666-9.01-6.881-11.105c-4.189-2.107-9.252-1.635-12.994,1.212
			c-23.784,17.972-43.622,48.224-50.549,77.107c-3.537,14.813-4.771,30.834-5.208,44.01c-8.599-9.252-11.263-26.4-11.287-26.631
			c-0.557-3.984-3.003-7.46-6.576-9.313c-3.548-1.84-7.799-1.889-11.372-0.049c-3.125,1.599-30.579,17.343-32.153,75.255
			c-0.109,1.963-0.121,3.924-0.121,5.874c0,23.807,7.964,45.506,20.836,63.06C148.74,647.126,99.223,576.941,99.223,495.365
			c0-3.719-0.012-7.424,0.242-11.555c2.131-74.335,25.917-111.199,41.443-127.463c10.826,38.753,39.189,89.412,94.729,89.412
			c6.854,0,12.401-5.547,12.401-12.401c0-41.504,0.933-89.461,12.026-133.374c12.594-49.751,47.098-103.473,88.746-139.841
			c6.914,53.118,35.846,92.065,66.258,132.985c36.148,48.66,73.523,98.979,79.783,180.46l0.424,5.935
			c0.389,5.159,0.787,10.307,0.787,15.841C496.06,576.939,446.542,647.125,376.013,677.579z"/>
	</g>
</g>
</svg>
