<?xml version="1.0" encoding="utf-8"?>
<!-- Generator: Adobe Illustrator 16.0.0, SVG Export Plug-In . SVG Version: 6.00 Build 0)  -->
<!DOCTYPE svg PUBLIC "-//W3C//DTD SVG 1.1//EN" "http://www.w3.org/Graphics/SVG/1.1/DTD/svg11.dtd">
<svg version="1.1" id="Layer_1" xmlns="http://www.w3.org/2000/svg" xmlns:xlink="http://www.w3.org/1999/xlink" x="0px" y="0px"
	 width="595.281px" height="841.891px" viewBox="0 0 595.281 841.891" enable-background="new 0 0 595.281 841.891"
	 xml:space="preserve">
<g>
	<g>
		<path fill="#DFCBB6" d="M469.148,347.176h-27.357l5.668-16.941c1.527-4.567-0.936-9.509-5.502-11.036
			c-4.57-1.534-9.51,0.936-11.037,5.501l-7.52,22.476h-55.99c2.287-6.833,21.994-65.74,25.73-76.904
			c14.92,9.608,32.496,14.826,51.164,14.423l-3.896,11.646c-1.527,4.568,0.938,9.51,5.502,11.037c4.57,1.53,9.51-0.935,11.037-5.502
			l6.639-19.842c59.479-15.199,79.584-84.508,38.695-129.673c-4.48-4.948-12.627-3.22-14.734,3.084l-20.332,60.774l-30.041,6.113
			l-20.314-22.958l21.607-64.582c0.926-2.766,0.408-5.81-1.381-8.114c-1.789-2.302-4.615-3.557-7.52-3.351
			c-70.021,5.057-100.76,85.442-50.918,135.29l-16.064,48.014c-119.366,2.88-103.861,49.581-179.884,59.292
			c-2.149-10.68-11.6-18.746-22.902-18.746H94.909c-12.883,0-23.365,10.481-23.365,23.365v154.159
			c0,12.883,10.481,23.364,23.365,23.364h64.889c11.901,0,21.732-8.95,23.166-20.47c40.012,2.657,43.424,16.162,99.049,19.871
			l-3.53,10.55c-30.526,4.287-56.085,24.465-65.602,52.912c-8.919,26.66-2.185,56.78,17.574,78.604
			c4.468,4.937,12.622,3.231,14.734-3.084l20.333-60.777l30.038-6.112l20.314,22.961l-21.606,64.578
			c-1.961,5.862,2.654,11.904,8.897,11.465c65.693-4.74,98.35-76.711,57.242-128.131l14.318-42.791h45.707
			c17.422,0,31.598-14.175,31.598-31.6c0-5.879-1.615-11.389-4.422-16.107c18.533-6.861,26.289-28.857,16.238-45.757
			c18.533-6.859,26.291-28.855,16.24-45.757c12.047-4.46,20.658-16.065,20.658-29.646
			C500.746,361.352,486.57,347.176,469.148,347.176z M417.31,143.048l-18.588,55.566c-0.99,2.954-0.326,6.212,1.738,8.547
			l26.986,30.5c2.064,2.332,5.217,3.384,8.27,2.767l39.908-8.121c3.053-0.621,5.543-2.824,6.531-5.778l16.525-49.396
			c8.217,15.004,10.014,32.218,4.633,48.3c-17.973,53.717-96.721,55.642-124.063,5.141
			C360.062,195.13,378.468,153.814,417.31,143.048z M358.095,659.505c-6.445,19.265-22.525,33.751-42.672,39.335l18.59-55.564
			c0.988-2.954,0.324-6.212-1.738-8.546l-26.986-30.503c-2.107-2.38-5.285-3.376-8.271-2.767l-39.907,8.12
			c-3.053,0.62-5.542,2.823-6.531,5.778l-16.526,49.397c-27.563-50.344,22.16-105.611,79.642-86.379
			C348.996,590.198,369.136,626.493,358.095,659.505z M297.08,557.398l3.115-9.314c0,0,7.297-0.443,56.141-0.443l-9.711,29.021
			C332.115,565.152,314.564,558.669,297.08,557.398z M469.148,392.932c-12.449,0-92.205,0-104.768,0
			c-4.816,0-8.721,3.902-8.721,8.721s3.904,8.721,8.721,8.721h88.531c7.807,0,14.156,6.35,14.156,14.156
			c0,7.809-6.35,14.16-14.156,14.16c-33.428,0-55.262,0-88.531,0c-4.816,0-8.721,3.902-8.721,8.721c0,4.816,3.904,8.721,8.721,8.721
			h72.291c7.807,0,14.158,6.35,14.158,14.155c0,7.809-6.35,14.16-14.158,14.16c-7.459,0-64.885,0-72.291,0
			c-4.816,0-8.721,3.903-8.721,8.722c0,4.815,3.904,8.721,8.721,8.721h56.055c7.805,0,14.156,6.35,14.156,14.155
			c0,7.807-6.352,14.159-14.156,14.159c-0.566,0-105.934-0.018-106.5,0.026c-0.484,0.037-49.277,3.67-89.913-12.431
			c-1.537-0.604-19.017-6.363-40.862-7.667v-88.735c0-4.816-3.904-8.721-8.721-8.721s-8.721,3.902-8.721,8.721v103.308
			c0,3.266-2.657,5.922-5.923,5.922H94.909c-3.266,0-5.922-2.656-5.922-5.922V370.539c0-3.266,2.657-5.922,5.922-5.922h64.889
			c3.266,0,5.922,2.656,5.922,5.922v24.109c0,4.816,3.904,8.721,8.721,8.721s8.721-3.902,8.721-8.721v-11.19
			c82.139-9.339,65.981-55.039,173.524-59.198l-9.66,28.869c-0.891,2.66-0.445,5.585,1.191,7.863
			c1.639,2.276,4.273,3.625,7.08,3.625c57.676,0,55.82,0,113.852,0c7.807,0,14.158,6.351,14.158,14.157
			C483.306,386.582,476.955,392.932,469.148,392.932z"/>
	</g>
</g>
</svg>
