<?xml version="1.0" encoding="utf-8"?>
<!-- Generator: Adobe Illustrator 16.0.0, SVG Export Plug-In . SVG Version: 6.00 Build 0)  -->
<!DOCTYPE svg PUBLIC "-//W3C//DTD SVG 1.1//EN" "http://www.w3.org/Graphics/SVG/1.1/DTD/svg11.dtd">
<svg version="1.1" id="Capa_1" xmlns="http://www.w3.org/2000/svg" xmlns:xlink="http://www.w3.org/1999/xlink" x="0px" y="0px"
	 width="595.281px" height="841.891px" viewBox="0 0 595.281 841.891" enable-background="new 0 0 595.281 841.891"
	 xml:space="preserve">
<g>
	<g>
		<path fill="#DFCBB6" d="M526.724,543.399c-3.266-1.354-7.023-0.605-9.521,1.894l-95.484,95.484
			c-2.5,2.499-3.246,6.257-1.895,9.521c1.352,3.267,4.539,5.394,8.072,5.394h95.486c4.826,0,8.736-3.911,8.736-8.737V551.47
			C532.119,547.937,529.99,544.752,526.724,543.399z M448.988,638.219l65.654-65.653v65.653H448.988z"/>
	</g>
</g>
<g>
	<g>
		<path fill="#DFCBB6" d="M589.888,403.351c-3.266-1.354-7.023-0.605-9.523,1.893l-26.168,26.168V253.489
			c0-4.826-3.912-8.737-8.736-8.737h-67.133l24.369-24.369c0.004-0.004,0.006-0.009,0.01-0.012l23.482-23.481
			c5.029-5.03,7.801-11.723,7.801-18.838c0-7.116-2.771-13.806-7.801-18.839l-27.154-27.153c-5.029-5.03-11.723-7.801-18.838-7.801
			s-13.807,2.771-18.838,7.801l-23.494,23.493l-28.387,28.388l-60.811,60.811H77.457v-86.438c0-4.826-3.913-8.737-8.738-8.737
			C30.828,149.578,0,180.403,0,218.297v371.104c0,0.646,0.074,1.273,0.207,1.878c1.207,16.078,8.163,31.018,19.789,42.357
			c12.426,12.12,28.83,18.795,46.191,18.795h266.991l-50.284,50.284c-2.499,2.499-3.246,6.256-1.894,9.521
			c1.352,3.265,4.539,5.394,8.072,5.394h297.473c4.824,0,8.736-3.911,8.736-8.737v-297.47
			C595.281,407.89,593.152,404.703,589.888,403.351z M473.718,144.418c3.57-3.574,9.391-3.574,12.961,0l27.154,27.154
			c3.574,3.572,3.574,9.39,0,12.963l-17.313,17.314l-40.119-40.117L473.718,144.418z M444.044,174.089l40.119,40.116l-16.033,16.032
			l-40.115-40.116L444.044,174.089z M577.808,509.601h-16.119c-4.826,0-8.738,3.911-8.738,8.737s3.912,8.737,8.738,8.737h16.119
			v26.329h-16.119c-4.826,0-8.738,3.911-8.738,8.737s3.912,8.738,8.738,8.738h16.119v26.328h-16.119
			c-4.826,0-8.738,3.911-8.738,8.737s3.912,8.737,8.738,8.737h16.119v26.33h-16.119c-4.826,0-8.738,3.912-8.738,8.737
			c0,4.826,3.912,8.737,8.738,8.737h16.119v41.672H310.166l88.254-88.254c3.412-3.414,3.412-8.944,0-12.356
			c-0.391-0.393-0.813-0.731-1.252-1.034c-3.402-2.33-8.084-1.987-11.105,1.034l-35.41,35.409H66.188
			c-26.5,0-47.832-20.688-48.671-47.14c0.05-1.66,0.179-3.307,0.386-4.935c0.001-0.009,0.002-0.019,0.003-0.027
			c0.098-0.773,0.215-1.543,0.349-2.309c0.015-0.087,0.031-0.174,0.046-0.261c0.122-0.683,0.259-1.362,0.409-2.039
			c0.042-0.188,0.086-0.376,0.13-0.563c0.133-0.572,0.275-1.141,0.429-1.707c0.083-0.307,0.171-0.61,0.26-0.916
			c0.128-0.444,0.261-0.887,0.401-1.325s0.291-0.872,0.443-1.306c0.106-0.304,0.21-0.607,0.324-0.908
			c0.213-0.572,0.438-1.138,0.671-1.699c0.066-0.162,0.131-0.326,0.2-0.487c0.299-0.698,0.609-1.388,0.937-2.068
			c0.014-0.029,0.027-0.059,0.041-0.088c6.834-14.143,19.978-24.687,35.752-27.958c0.044-0.01,0.088-0.02,0.132-0.029
			c0.723-0.147,1.454-0.274,2.188-0.392c0.122-0.02,0.244-0.044,0.368-0.063c0.664-0.102,1.335-0.181,2.006-0.256
			c0.188-0.021,0.375-0.05,0.565-0.069c0.647-0.064,1.301-0.107,1.955-0.148c0.207-0.013,0.414-0.035,0.621-0.045
			c0.856-0.043,1.718-0.065,2.584-0.065c4.825,0,8.738-3.911,8.738-8.737v-63.353c0-4.826-3.913-8.737-8.738-8.737
			c-4.825,0-8.737,3.911-8.737,8.737v55.165c-14.754,1.866-28.449,8.446-39.248,18.992c-1.136,1.109-2.213,2.263-3.261,3.435
			v-325.36c0-25.277,18.4-46.342,42.508-50.501v85.693v177.628v0.001c0,4.825,3.912,8.737,8.737,8.737s8.737-3.912,8.737-8.737
			v-0.001V262.226h253.74l-48.302,48.302c-3.413,3.413-3.413,8.944,0,12.356c3.412,3.411,8.944,3.411,12.355,0l63.216-63.217
			c0.004-0.003,0.004-0.005,0.006-0.006l57.186-57.186l40.115,40.117l-4.705,4.707c-0.004,0.003-0.01,0.007-0.012,0.01
			L274.878,423.489l-40.116-40.117l34.727-34.727c3.412-3.413,3.412-8.944,0-12.356c-3.413-3.411-8.944-3.411-12.356,0
			l-40.906,40.905c-0.218,0.218-0.423,0.449-0.615,0.687c-0.064,0.079-0.121,0.164-0.182,0.247
			c-0.123,0.163-0.244,0.329-0.357,0.501c-0.064,0.1-0.122,0.202-0.183,0.306c-0.096,0.163-0.189,0.328-0.274,0.496
			c-0.056,0.109-0.105,0.22-0.157,0.334c-0.078,0.171-0.15,0.346-0.216,0.52c-0.023,0.062-0.054,0.12-0.076,0.182l-17.022,48.222
			l-11.605,32.879c-0.154,0.437-0.264,0.881-0.347,1.328h-29.057c-4.825,0-8.737,3.911-8.737,8.738c0,4.826,3.912,8.737,8.737,8.737
			h241.965c4.826,0,8.738-3.911,8.738-8.737c0-4.827-3.912-8.738-8.738-8.738h-173.6l53.285-18.81
			c0.044-0.016,0.086-0.038,0.13-0.054c0.207-0.077,0.411-0.163,0.612-0.255c0.08-0.037,0.161-0.072,0.238-0.11
			c0.209-0.104,0.415-0.22,0.617-0.344c0.065-0.039,0.133-0.075,0.197-0.116c0.21-0.135,0.415-0.282,0.616-0.438
			c0.05-0.039,0.102-0.072,0.151-0.112c0.243-0.195,0.481-0.405,0.707-0.631l179.799-179.798h75.869v186.661L411.74,573.871
			c-3.412,3.413-3.412,8.944,0,12.356c0.213,0.213,0.436,0.413,0.664,0.6c1.604,1.306,3.561,1.959,5.516,1.959
			s3.912-0.653,5.514-1.959c0.229-0.186,0.451-0.387,0.664-0.6c0.004-0.004,0,0,0.004-0.004l153.707-153.709V509.601z
			 M258.897,432.219l-25.027,8.835l-16.675-16.675l8.835-25.028L258.897,432.219z"/>
	</g>
</g>
</svg>
