<?xml version="1.0" encoding="utf-8"?>
<!-- Generator: Adobe Illustrator 16.0.0, SVG Export Plug-In . SVG Version: 6.00 Build 0)  -->
<!DOCTYPE svg PUBLIC "-//W3C//DTD SVG 1.1//EN" "http://www.w3.org/Graphics/SVG/1.1/DTD/svg11.dtd">
<svg version="1.1" id="Capa_1" xmlns="http://www.w3.org/2000/svg" xmlns:xlink="http://www.w3.org/1999/xlink" x="0px" y="0px"
	 width="595.281px" height="841.891px" viewBox="0 0 595.281 841.891" enable-background="new 0 0 595.281 841.891"
	 xml:space="preserve">
<g>
	<g>
		<path fill="#DFCBB6" d="M426.107,191.363c-30.131-28.391-81.76-34.87-128.467,11.837c-46.638-46.661-98.336-40.228-128.466-11.86
			c-35.099,33.038-35.717,88.308-1.877,122.147L297.64,443.853L427.984,313.51C461.824,279.671,461.205,224.401,426.107,191.363z
			 M411.796,297.3L297.64,411.479L183.484,297.323c-24.773-24.796-24.292-65.114,1.396-89.292
			c10.944-10.349,25.597-16.027,41.257-16.027c32.786,0,47.531,19.599,71.502,43.57c23.33-23.33,38.35-43.57,71.502-43.57
			c15.66,0,30.314,5.679,41.281,16.004C436.042,232.139,436.638,272.459,411.796,297.3z"/>
	</g>
</g>
<g>
	<g>
		<path fill="#DFCBB6" d="M556.152,192.004c-20.17,0-36.906,15.111-38.922,35.168l-14.492,143.119
			c-6.984,1.488-13.395,4.876-18.363,9.845L368.73,487.79c-15.912,14.493-25.139,35.167-25.299,56.78v128.237h137.373v-60.353
			c0-9.318,3.914-18.385,11.012-25.116l86.889-87.688c10.691-10.807,16.576-25.117,16.576-40.296V231.133
			C595.281,209.565,577.72,192.004,556.152,192.004z M572.384,459.354c0,9.112-3.525,17.697-9.959,24.2l-86.613,87.414
			c-11.379,10.761-17.904,25.872-17.904,41.486v37.457h-91.582V544.708c0.115-15.18,6.594-29.718,17.928-40.021l116.012-108.043
			c3.113-3.114,7.371-4.648,11.883-4.19c2.494,0.229,6.09,1.122,9.158,4.19c2.814,2.816,4.373,6.57,4.373,10.531
			s-1.58,7.716-3.984,10.144l-89.314,81.004l15.385,16.942l89.727-81.394c7.145-7.143,11.082-16.622,11.082-26.719
			s-3.916-19.575-11.059-26.696c-3.48-3.525-7.533-6.228-11.975-8.082l14.447-142.867c0.848-8.334,7.807-14.607,16.164-14.607
			c8.953,0,16.232,7.281,16.232,16.233V459.354L572.384,459.354z"/>
	</g>
</g>
<g>
	<g>
		<path fill="#DFCBB6" d="M226.55,487.79L110.905,380.135c-4.968-4.969-11.379-8.38-18.362-9.845L78.05,227.172
			c-2.015-20.057-18.751-35.168-38.922-35.168C17.561,192.004,0,209.565,0,231.133v228.222c0,15.179,5.884,29.489,16.576,40.272
			l86.888,87.689c7.098,6.731,11.013,15.82,11.013,25.139v60.353h137.372V544.57C251.712,522.957,242.462,502.305,226.55,487.79z
			 M228.954,649.912h-91.582v-37.457c0-15.592-6.525-30.726-17.904-41.486l-86.613-87.414c-6.434-6.503-9.959-15.088-9.959-24.2
			V231.133c0-8.952,7.281-16.233,16.233-16.233c8.356,0,15.317,6.273,16.164,14.562l14.447,142.867
			c-4.441,1.878-8.494,4.579-11.974,8.082c-7.121,7.121-11.059,16.6-11.059,26.696s3.938,19.576,11.082,26.719l89.727,81.394
			l15.386-16.942l-89.315-81.004c-2.427-2.428-3.984-6.159-3.984-10.144c0-3.983,1.557-7.715,4.373-10.531
			c3.045-3.068,6.663-3.961,9.158-4.19c4.533-0.435,8.769,1.076,11.883,4.19L211.027,504.64
			c11.333,10.304,17.813,24.842,17.927,40.021V649.912L228.954,649.912z"/>
	</g>
</g>
</svg>
