<?xml version="1.0" encoding="utf-8"?>
<!-- Generator: Adobe Illustrator 16.0.0, SVG Export Plug-In . SVG Version: 6.00 Build 0)  -->
<!DOCTYPE svg PUBLIC "-//W3C//DTD SVG 1.1//EN" "http://www.w3.org/Graphics/SVG/1.1/DTD/svg11.dtd">
<svg version="1.1" id="Capa_1" xmlns="http://www.w3.org/2000/svg" xmlns:xlink="http://www.w3.org/1999/xlink" x="0px" y="0px"
	 width="792px" height="792px" viewBox="0 0 792 792" enable-background="new 0 0 792 792" xml:space="preserve">
<g>
	<g>
		<g>
			<path fill="#DFCBB6" d="M324.082,693.8c-6.832,0-12.401-5.543-12.401-12.375s5.543-12.375,12.401-12.375h143.86
				c6.832,0,12.375,5.543,12.375,12.375s-5.543,12.375-12.375,12.375H324.082z"/>
			<path fill="#DFCBB6" d="M340.066,742.912c-6.832,0-12.375-5.543-12.375-12.375s5.568-12.375,12.375-12.375h111.891
				c6.832,0,12.375,5.543,12.375,12.375s-5.543,12.375-12.375,12.375H340.066z"/>
			<path fill="#DFCBB6" d="M384.358,571.828c0,6.808-5.518,12.323-12.323,12.323s-12.323-5.518-12.323-12.323
				c-0.052-52.104-1.547-91.032-8.74-127.075c-7.114-35.63-19.852-68.655-42.461-109.391c-3.3-5.955-1.16-13.458,4.771-16.758
				c5.956-3.3,13.458-1.16,16.784,4.77c24.002,43.262,37.589,78.479,45.168,116.559
				C382.734,477.521,384.307,517.894,384.358,571.828z"/>
			<path fill="#DFCBB6" d="M432.312,571.828c0,6.808-5.518,12.323-12.322,12.323c-6.806,0-12.323-5.518-12.323-12.323
				c0.053-53.936,1.624-94.281,9.126-131.896c7.58-38.079,21.167-73.295,45.169-116.559c3.301-5.955,10.828-8.095,16.759-4.77
				c5.956,3.3,8.068,10.828,4.771,16.758c-22.61,40.734-35.347,73.787-42.462,109.391
				C433.859,480.796,432.339,519.725,432.312,571.828z"/>
			<path fill="#DFCBB6" d="M315.523,341.112c-6.497-2.063-10.056-9.023-7.992-15.521c2.088-6.496,9.022-10.055,15.521-7.991
				c8.611,2.785,16.063,6.522,22.945,9.978l0.67,0.361c10.75,5.414,19.697,9.642,26.348,4.228l15.211-12.4
				c5.285-4.279,13.073-3.48,17.352,1.805c4.28,5.285,3.479,13.071-1.805,17.351l-15.211,12.401
				c-18.949,15.417-34.444,7.915-53.109-1.444l-0.567-0.258C328.852,346.577,322.303,343.303,315.523,341.112z"/>
			<path fill="#DFCBB6" d="M408.388,60.328c0,6.832-5.543,12.375-12.376,12.375c-6.832,0-12.375-5.543-12.375-12.375V12.375
				C383.637,5.543,389.18,0,396.012,0c6.834,0,12.376,5.543,12.376,12.375V60.328z"/>
			<path fill="#DFCBB6" d="M468.974,317.599c6.497-2.088,13.458,1.496,15.521,7.991c2.088,6.497-1.495,13.458-7.992,15.521
				c-6.779,2.191-13.328,5.491-19.388,8.534l-0.566,0.258c-18.641,9.358-34.16,16.887-53.108,1.443l-15.212-12.4
				c-5.284-4.28-6.084-12.066-1.805-17.351c4.28-5.285,12.066-6.084,17.353-1.806l15.211,12.401
				c6.651,5.414,15.571,1.16,26.349-4.229l0.672-0.36C452.912,324.122,460.362,320.385,468.974,317.599z"/>
			<path fill="#DFCBB6" d="M551.706,192.354c39.832,39.832,64.505,94.9,64.505,155.692c0,23.771-3.815,46.741-10.828,68.271
				c-7.244,22.249-17.995,43.003-31.53,61.515c-22.713,31.066-41.146,51.459-55.455,67.313
				c-25.756,28.488-37.048,40.968-37.048,82.63c0,6.832-5.543,12.375-12.375,12.375h-0.311h-72.11h-72.444
				c-6.832,0-12.401-5.543-12.401-12.375c0-41.25-11.524-53.857-37.099-81.882l-0.026-0.025l-0.026,0.025
				c-14.463-15.829-33.077-36.223-56.358-68.063c-13.535-18.512-24.286-39.291-31.53-61.54
				c-7.013-21.502-10.828-44.499-10.828-68.243c0-29.751,5.956-58.214,16.732-84.201l0.232-0.49
				c11.189-26.813,27.483-50.944,47.566-71.001c20.213-20.212,44.473-36.559,71.492-47.747v-0.026
				c25.986-10.775,54.449-16.731,84.202-16.731c29.701,0,58.137,5.956,84.15,16.731
				C507.182,155.771,531.493,172.142,551.706,192.354L551.706,192.354z M591.435,348.047c0-53.96-21.89-102.814-57.233-138.188
				c-18.071-18.073-39.601-32.613-63.422-42.462c-22.945-9.514-48.211-14.772-74.768-14.772c-26.528,0-51.794,5.259-74.714,14.772
				v-0.025l-0.052,0.025c-23.822,9.849-45.323,24.389-63.396,42.462c-17.892,17.892-32.355,39.239-42.23,62.803l-0.258,0.67
				c-9.487,22.919-14.772,48.186-14.772,74.714c0,21.192,3.377,41.611,9.565,60.611c6.471,19.773,15.984,38.184,27.947,54.579
				c22.353,30.576,40.554,50.506,54.708,66.025l-0.026,0.024c27.534,30.087,41.224,45.144,43.364,86.136h60.354h60.354
				c2.113-41.275,15.546-56.178,43.209-86.754c13.818-15.288,31.582-34.959,53.832-65.382
				c11.962-16.371,21.476-34.778,27.921-54.553C588.058,389.658,591.435,369.265,591.435,348.047z"/>
			<path fill="#DFCBB6" d="M356.051,792c-6.832,0-12.375-5.543-12.375-12.375c0-6.831,5.543-12.375,12.375-12.375h79.923
				c6.832,0,12.375,5.544,12.375,12.375c0,6.832-5.543,12.375-12.375,12.375H356.051z"/>
			<path fill="#DFCBB6" d="M547.839,104.285c-3.379,5.878-10.933,7.915-16.837,4.538c-5.878-3.377-7.913-10.931-4.536-16.835
				l23.978-41.533c3.377-5.878,10.932-7.915,16.835-4.538s7.915,10.932,4.538,16.835L547.839,104.285z"/>
			<path fill="#DFCBB6" d="M265.533,92.013c3.377,5.878,1.367,13.432-4.538,16.81c-5.878,3.377-13.432,1.34-16.809-4.538
				l-23.977-41.534c-3.377-5.878-1.341-13.432,4.538-16.809c5.904-3.377,13.458-1.341,16.835,4.537L265.533,92.013z"/>
			<path fill="#DFCBB6" d="M157.69,190.781c5.878,3.377,7.915,10.931,4.538,16.835c-3.377,5.878-10.932,7.915-16.81,4.538
				l-41.534-23.977c-5.904-3.378-7.94-10.932-4.563-16.81c3.377-5.904,10.931-7.915,16.835-4.538L157.69,190.781z"/>
			<path fill="#DFCBB6" d="M646.606,212.154c-5.904,3.377-13.458,1.341-16.836-4.538c-3.378-5.904-1.341-13.458,4.537-16.835
				l41.534-23.977c5.902-3.377,13.456-1.342,16.835,4.537c3.377,5.879,1.341,13.458-4.538,16.836L646.606,212.154z"/>
			<path fill="#DFCBB6" d="M267.441,396.954c2.63,6.266-0.309,13.509-6.574,16.14c-6.265,2.63-13.509-0.311-16.139-6.574
				c-4.203-9.95-7.477-20.443-9.643-31.271c-2.14-10.699-3.3-21.63-3.3-32.612c0-6.832,5.569-12.375,12.375-12.375
				c6.832,0,12.375,5.568,12.375,12.375c0,9.668,0.954,18.975,2.733,27.792C261.099,379.603,263.883,388.523,267.441,396.954
				L267.441,396.954z M267.441,288.286c-2.629,6.266-9.874,9.204-16.139,6.574c-6.265-2.63-9.204-9.875-6.574-16.139
				c4.15-9.823,9.229-19.131,15.03-27.768l0.026-0.025l-0.026-0.025c5.956-8.817,12.71-17.016,20.109-24.415
				c7.322-7.322,15.521-14.077,24.439-20.083v-0.026c8.561-5.774,17.918-10.854,27.818-15.029
				c9.926-4.203,20.393-7.478,31.247-9.644c10.699-2.166,21.682-3.3,32.639-3.3c6.834,0,12.376,5.543,12.376,12.375
				s-5.543,12.375-12.376,12.375c-9.693,0-19.025,0.954-27.817,2.707c-9.204,1.831-18.1,4.641-26.503,8.198
				c-8.173,3.455-16.063,7.76-23.564,12.813l0,0H318.1c-7.296,4.898-14.257,10.673-20.702,17.119
				c-6.368,6.368-12.143,13.355-17.119,20.754l-0.026-0.025C275.227,272.173,270.921,280.062,267.441,288.286z"/>
		</g>
	</g>
</g>
</svg>
