<?xml version="1.0" encoding="UTF-8"?>
<svg width="21px" height="23px" viewBox="0 0 21 23" version="1.1" xmlns="http://www.w3.org/2000/svg" xmlns:xlink="http://www.w3.org/1999/xlink">
    <!-- Generator: Sketch 51.2 (57519) - http://www.bohemiancoding.com/sketch -->
    <title>calendar-check-o - FontAwesome</title>
    <desc>Created with Sketch.</desc>
    <defs></defs>
    <g id="Page-1" stroke="none" stroke-width="1" fill="none" fill-rule="evenodd">
        <path d="M15.9966709,11.9776702 L9.71094908,18.263392 C9.55135067,18.4107136 9.30581466,18.4107136 9.14621626,18.263392 L5.61049776,14.7276735 C5.46317616,14.5680751 5.46317616,14.3225391 5.61049776,14.1752175 L6.17523058,13.6104846 C6.32255218,13.463163 6.56808819,13.463163 6.72768659,13.6104846 L9.42858267,16.3113807 L14.879482,10.8604814 C15.0390804,10.7131598 15.2846164,10.7131598 15.431938,10.8604814 L15.9966709,11.4252142 C16.1439925,11.5725358 16.1439925,11.8180718 15.9966709,11.9776702 Z M1.57143044,20.5714304 L18.8571653,20.5714304 L18.8571653,7.99998689 L1.57143044,7.99998689 L1.57143044,20.5714304 Z M6.28572178,5.64284122 L6.28572178,2.10712272 C6.28572178,1.88614031 6.11384657,1.71426511 5.89286417,1.71426511 L5.10714895,1.71426511 C4.88616654,1.71426511 4.71429133,1.88614031 4.71429133,2.10712272 L4.71429133,5.64284122 C4.71429133,5.86382363 4.88616654,6.03569883 5.10714895,6.03569883 L5.89286417,6.03569883 C6.11384657,6.03569883 6.28572178,5.86382363 6.28572178,5.64284122 Z M15.7143044,5.64284122 L15.7143044,2.10712272 C15.7143044,1.88614031 15.5424292,1.71426511 15.3214468,1.71426511 L14.5357316,1.71426511 C14.3147492,1.71426511 14.142874,1.88614031 14.142874,2.10712272 L14.142874,5.64284122 C14.142874,5.86382363 14.3147492,6.03569883 14.5357316,6.03569883 L15.3214468,6.03569883 C15.5424292,6.03569883 15.7143044,5.86382363 15.7143044,5.64284122 Z M20.4285958,4.857126 L20.4285958,20.5714304 C20.4285958,21.4308065 19.7165414,22.1428609 18.8571653,22.1428609 L1.57143044,22.1428609 C0.71205442,22.1428609 0,21.4308065 0,20.5714304 L0,4.857126 C0,3.99774997 0.71205442,3.28569555 1.57143044,3.28569555 L3.14286089,3.28569555 L3.14286089,2.10712272 C3.14286089,1.02676429 4.02679051,0.142834663 5.10714895,0.142834663 L5.89286417,0.142834663 C6.9732226,0.142834663 7.85715222,1.02676429 7.85715222,2.10712272 L7.85715222,3.28569555 L12.5714436,3.28569555 L12.5714436,2.10712272 C12.5714436,1.02676429 13.4553732,0.142834663 14.5357316,0.142834663 L15.3214468,0.142834663 C16.4018053,0.142834663 17.2857349,1.02676429 17.2857349,2.10712272 L17.2857349,3.28569555 L18.8571653,3.28569555 C19.7165414,3.28569555 20.4285958,3.99774997 20.4285958,4.857126 Z" id="calendar-check-o---FontAwesome" fill="#FFFFFF"></path>
    </g>
</svg>