<?xml version="1.0" encoding="utf-8"?>
<!-- Generator: Adobe Illustrator 16.0.0, SVG Export Plug-In . SVG Version: 6.00 Build 0)  -->
<!DOCTYPE svg PUBLIC "-//W3C//DTD SVG 1.1//EN" "http://www.w3.org/Graphics/SVG/1.1/DTD/svg11.dtd">
<svg version="1.1" id="圖層_1" xmlns="http://www.w3.org/2000/svg" xmlns:xlink="http://www.w3.org/1999/xlink" x="0px" y="0px"
	 width="204.6px" height="36.21px" viewBox="0 0 204.6 36.21" enable-background="new 0 0 204.6 36.21" xml:space="preserve">
<g id="圖層_2">
	<g id="menu">
		<g>
			<g>
				<path fill="#FFFFFF" d="M0.92,6.82c0,0.35-0.15,0.52-0.46,0.52C0.15,7.34,0,7.17,0,6.82V0.53C0,0.19,0.15,0,0.46,0
					c0.31,0,0.46,0.19,0.46,0.53V6.82z"/>
				<path fill="#FFFFFF" d="M9.39,5.43c0.008,0.549-0.258,1.067-0.71,1.38C8.113,7.194,7.434,7.381,6.75,7.34
					C6.079,7.348,5.427,7.118,4.91,6.69C4.539,6.456,4.287,6.073,4.22,5.64c0-0.36,0.16-0.54,0.47-0.54
					C4.916,5.124,5.114,5.264,5.21,5.47c0.121,0.25,0.279,0.479,0.47,0.68c0.292,0.263,0.678,0.397,1.07,0.37
					C7.195,6.551,7.636,6.428,8,6.17C8.26,5.975,8.409,5.665,8.4,5.34c0-0.38-0.25-0.7-0.75-1c-0.5-0.3-1.46-0.72-2.399-1.16
					c-0.265-0.129-0.475-0.35-0.59-0.62C4.505,2.292,4.423,1.989,4.42,1.68c0.029-0.481,0.295-0.916,0.71-1.16
					C5.627,0.17,6.222-0.012,6.83,0c0.612-0.013,1.217,0.139,1.75,0.44C9.007,0.657,9.28,1.091,9.29,1.57
					c0.001,0.127-0.041,0.251-0.12,0.35C9.104,2.008,9,2.06,8.89,2.06C8.654,2.081,8.434,1.936,8.36,1.71
					C8.284,1.423,8.112,1.172,7.87,1c-0.306-0.167-0.653-0.244-1-0.22C6.491,0.76,6.116,0.861,5.8,1.07
					C5.558,1.237,5.414,1.515,5.42,1.81c0,0.29,0.24,0.55,0.71,0.76c0.66,0.28,1.38,0.61,2.17,1C9.018,3.899,9.453,4.643,9.39,5.43z
					"/>
				<path fill="#FFFFFF" d="M16.88,6.72c0,0.271-0.17,0.41-0.51,0.41H12.69C12.451,7.179,12.204,7.132,12,7
					c-0.145-0.196-0.212-0.438-0.19-0.68v-5.9c0-0.28,0.16-0.42,0.48-0.42c0.31,0,0.47,0.14,0.47,0.42v5.44
					c0,0.32,0.18,0.47,0.55,0.47h3C16.71,6.33,16.88,6.46,16.88,6.72z"/>
				<path fill="#FFFFFF" d="M25.48,6.93c0,0.28-0.16,0.41-0.47,0.41s-0.31-0.11-0.42-0.35l-0.811-1.8H20.5L19.7,7
					c-0.056,0.207-0.247,0.347-0.46,0.34c-0.28,0-0.421-0.15-0.421-0.46c0-0.103,0.021-0.205,0.061-0.3l2.79-6.21
					c0.053-0.209,0.234-0.359,0.45-0.37c0.213,0.012,0.397,0.155,0.46,0.36l2.85,6.32C25.462,6.76,25.479,6.844,25.48,6.93z
					 M23.48,4.36L22.29,1.73c0-0.09-0.09-0.13-0.141-0.13c-0.05,0-0.12,0-0.17,0.15l-1.14,2.61H23.48z"/>
				<path fill="#FFFFFF" d="M33.51,6.85c0,0.33-0.17,0.49-0.51,0.49c-0.243,0-0.469-0.129-0.59-0.34l-3.75-5.39v5.24
					c0,0.33-0.15,0.49-0.471,0.49c-0.319,0-0.439-0.16-0.439-0.49V0.51c-0.035-0.24,0.131-0.463,0.372-0.499
					C28.161,0.005,28.2,0.005,28.24,0.01c0.197-0.014,0.389,0.073,0.51,0.23l3.85,5.5V0.51c0-0.33,0.15-0.5,0.46-0.5
					c0.311,0,0.45,0.17,0.45,0.5V6.85z"/>
				<path fill="#FFFFFF" d="M42,3.66c0.063,0.94-0.255,1.865-0.88,2.57c-0.644,0.629-1.521,0.959-2.42,0.91H36.77
					C36.607,7.159,36.444,7.108,36.32,7c-0.139-0.121-0.219-0.296-0.22-0.48V0.86c-0.002-0.182,0.079-0.354,0.22-0.47
					c0.11-0.135,0.276-0.212,0.45-0.21h1.94c0.949-0.074,1.88,0.295,2.52,1C41.773,1.889,42.046,2.768,42,3.66z M41,3.66
					c0.037-0.682-0.169-1.355-0.58-1.9C39.93,1.22,39.217,0.939,38.49,1H37.39c-0.24,0-0.35,0.11-0.35,0.34V6
					c-0.002,0.096,0.034,0.189,0.1,0.26c0.064,0.07,0.155,0.11,0.25,0.11h1C40.1,6.33,41,5.44,41,3.66z"/>
				<path fill="#FFFFFF" d="M55.46,5.17c0.036,0.569-0.18,1.125-0.59,1.52c-0.377,0.308-0.854,0.468-1.341,0.45H50.71
					C50.544,7.157,50.378,7.106,50.25,7C50.088,6.872,49.996,6.676,50,6.47V0.86c-0.002-0.18,0.075-0.351,0.21-0.47
					c0.114-0.134,0.283-0.211,0.46-0.21h2.8c0.454-0.015,0.894,0.163,1.21,0.49c0.347,0.378,0.53,0.877,0.51,1.39
					c0.003,0.307-0.08,0.608-0.239,0.87c-0.126,0.253-0.339,0.453-0.601,0.56c0.32,0.089,0.6,0.287,0.79,0.56
					C55.348,4.387,55.459,4.774,55.46,5.17z M54.24,2.06C54.24,1.36,53.85,1,53.06,1H51.33C51.172,0.976,51.024,1.085,51,1.244
					c-0.005,0.028-0.005,0.058,0,0.086v1.81h2.149c0.55,0.051,1.038-0.352,1.09-0.902C54.244,2.179,54.245,2.119,54.24,2.06z
					 M54.44,5.17c0-0.81-0.5-1.21-1.5-1.21H51V6c0,0.23,0.109,0.35,0.33,0.35h1.819C54,6.33,54.44,5.94,54.44,5.17z"/>
				<path fill="#FFFFFF" d="M63,6.72c0,0.271-0.17,0.41-0.51,0.41H58.77C58.541,7.164,58.309,7.118,58.11,7
					c-0.144-0.196-0.211-0.438-0.189-0.68v-5.9C57.92,0.14,58.08,0,58.4,0c0.311,0,0.471,0.14,0.471,0.42v5.44
					c0,0.32,0.18,0.47,0.56,0.47h3C62.79,6.33,63,6.46,63,6.72z"/>
				<path fill="#FFFFFF" d="M71.56,6.93c0,0.28-0.16,0.41-0.47,0.41c-0.311,0-0.311-0.11-0.42-0.35l-0.811-1.8h-3.27L65.79,7
					c-0.063,0.206-0.255,0.345-0.471,0.34c-0.279,0-0.42-0.15-0.42-0.46c0-0.103,0.021-0.205,0.061-0.3l2.79-6.21
					c0.054-0.212,0.241-0.363,0.46-0.37c0.193,0,0.343,0.12,0.45,0.36l2.85,6.32C71.542,6.76,71.559,6.844,71.56,6.93z M69.56,4.36
					L68.37,1.73c0-0.09-0.091-0.13-0.141-0.13s-0.109,0-0.16,0.15l-1.14,2.61H69.56z"/>
				<path fill="#FFFFFF" d="M80,5.22c-0.037,0.176-0.108,0.343-0.21,0.49c-0.558,1.042-1.66,1.674-2.84,1.63
					c-0.883,0.024-1.732-0.341-2.32-1c-0.621-0.754-0.935-1.714-0.88-2.69c-0.026-0.956,0.305-1.886,0.93-2.61
					c0.582-0.65,1.418-1.016,2.29-1c0.547-0.001,1.087,0.122,1.58,0.36c0.377,0.162,0.702,0.425,0.94,0.76
					c0.09,0.121,0.151,0.261,0.18,0.41c0,0.44-0.2,0.66-0.59,0.66c-0.21-0.003-0.396-0.134-0.471-0.33
					c-0.125-0.257-0.298-0.487-0.51-0.68c-0.344-0.278-0.778-0.42-1.22-0.4c-0.643,0.002-1.24,0.334-1.58,0.88
					c-0.418,0.581-0.633,1.284-0.61,2c-0.032,0.714,0.176,1.418,0.59,2c0.39,0.557,1.043,0.868,1.721,0.82
					c0.448,0.003,0.886-0.137,1.25-0.4c0.325-0.233,0.59-0.542,0.77-0.9c0.141-0.3,0.311-0.45,0.521-0.45
					c0.115,0.006,0.225,0.052,0.31,0.13C79.949,4.976,80.006,5.095,80,5.22z"/>
				<path fill="#FFFFFF" d="M87.65,6.88c-0.003,0.115-0.054,0.224-0.14,0.3c-0.069,0.097-0.181,0.157-0.3,0.16
					c-0.188-0.018-0.361-0.103-0.49-0.24l-3.47-3v2.72c0,0.35-0.17,0.52-0.49,0.52s-0.48-0.17-0.48-0.52V0.53
					c0-0.34,0.16-0.521,0.48-0.521s0.49,0.18,0.49,0.521v2.32l3.24-2.63C86.6,0.105,86.743,0.028,86.9,0
					c0.214-0.029,0.41,0.121,0.439,0.334c0.004,0.032,0.005,0.064,0.001,0.096c-0.002,0.151-0.081,0.291-0.21,0.37l-3,2.44
					c-0.13,0.1-0.19,0.18-0.19,0.24s0.07,0.16,0.221,0.27l3.38,2.75C87.635,6.602,87.676,6.743,87.65,6.88z"/>
				<path fill="#FFFFFF" d="M101.68,0.58c0,0.28-0.16,0.42-0.479,0.42h-2.29v5.8c0,0.35-0.16,0.53-0.471,0.53
					C98.13,7.33,98,7.15,98,6.8V1H95.69c-0.31,0-0.47-0.14-0.47-0.42c0-0.28,0.16-0.39,0.47-0.39h5.511
					C101.52,0.19,101.68,0.32,101.68,0.58z"/>
				<path fill="#FFFFFF" d="M108.84,6.74c0.024,0.197-0.116,0.377-0.313,0.401c-0.032,0.004-0.064,0.003-0.097-0.001h-3.82
					c-0.173,0.003-0.34-0.065-0.46-0.19c-0.133-0.125-0.209-0.298-0.21-0.48V0.86c-0.001-0.18,0.075-0.351,0.21-0.47
					c0.115-0.134,0.283-0.211,0.46-0.21h3.82c0.203-0.024,0.387,0.121,0.411,0.324c0.004,0.032,0.004,0.064-0.001,0.096
					c0.024,0.197-0.116,0.377-0.313,0.401c-0.032,0.004-0.064,0.004-0.097-0.001h-3.2c-0.239,0-0.359,0.11-0.359,0.34v1.81h3
					c0.202-0.023,0.386,0.122,0.409,0.325c0.004,0.028,0.004,0.057,0,0.085c0.03,0.202-0.109,0.39-0.312,0.42
					c-0.036,0.005-0.072,0.005-0.108,0h-3V6c-0.018,0.176,0.11,0.333,0.286,0.351c0.024,0.002,0.05,0.002,0.074-0.001h3.2
					c0.202-0.028,0.389,0.113,0.417,0.316C108.841,6.69,108.842,6.715,108.84,6.74z"/>
				<path fill="#FFFFFF" d="M117.64,6.93c0,0.28-0.149,0.41-0.47,0.41c-0.16,0-0.3-0.11-0.41-0.35L116,5.19h-3.28L111.87,7
					c-0.063,0.206-0.255,0.345-0.471,0.34c-0.279,0-0.42-0.15-0.42-0.46c-0.002-0.104,0.022-0.207,0.07-0.3l2.78-6.21
					c0.06-0.207,0.245-0.352,0.46-0.36c0.187,0,0.336,0.12,0.45,0.36l2.85,6.32C117.625,6.765,117.643,6.847,117.64,6.93z
					 M115.64,4.36l-1.149-2.63c0-0.09-0.091-0.13-0.141-0.13s-0.109,0-0.16,0.15L113,4.36H115.64z"/>
				<path fill="#FFFFFF" d="M130.57,5.43c0.009,0.549-0.258,1.067-0.71,1.38c-0.566,0.386-1.245,0.572-1.93,0.53
					c-0.671,0.008-1.323-0.222-1.84-0.65c-0.371-0.234-0.622-0.617-0.69-1.05c0-0.36,0.16-0.54,0.471-0.54
					c0.227,0.022,0.425,0.163,0.52,0.37c0.125,0.248,0.283,0.477,0.47,0.68c0.292,0.263,0.679,0.397,1.07,0.37
					c0.444,0.025,0.884-0.098,1.25-0.35c0.257-0.197,0.402-0.506,0.39-0.83c0-0.38-0.25-0.7-0.75-1
					c-0.649-0.36-1.449-0.75-2.39-1.19c-0.264-0.127-0.471-0.349-0.58-0.62c-0.157-0.268-0.243-0.57-0.25-0.88
					c0.029-0.48,0.296-0.915,0.71-1.16c0.498-0.338,1.089-0.509,1.69-0.49c0.611-0.017,1.216,0.131,1.75,0.43
					c0.427,0.217,0.699,0.651,0.71,1.13c0.001,0.127-0.041,0.25-0.12,0.35c-0.065,0.089-0.17,0.142-0.28,0.14
					c-0.236,0.021-0.456-0.124-0.53-0.35c-0.083-0.272-0.256-0.508-0.489-0.67c-0.306-0.168-0.652-0.244-1-0.22
					c-0.379-0.021-0.754,0.081-1.07,0.29c-0.242,0.167-0.385,0.445-0.38,0.74c0,0.29,0.24,0.55,0.71,0.76
					c0.66,0.28,1.38,0.61,2.17,1C130.181,3.922,130.619,4.651,130.57,5.43z"/>
				<path fill="#FFFFFF" d="M138.41,2.18c0.03,0.562-0.186,1.109-0.591,1.5c-0.364,0.318-0.836,0.486-1.319,0.47H134V6.8
					c0,0.35-0.16,0.53-0.48,0.53C133.2,7.33,133,7.15,133,6.8V0.89c-0.004-0.189,0.072-0.371,0.21-0.5
					c0.119-0.127,0.285-0.2,0.46-0.2h2.81c0.485-0.012,0.957,0.159,1.32,0.48C138.208,1.064,138.43,1.613,138.41,2.18z M137.41,2.18
					c0.015-0.324-0.101-0.641-0.32-0.88c-0.244-0.209-0.56-0.316-0.88-0.3h-1.891c-0.22,0-0.329,0.11-0.329,0.34v2h2.22
					c0.32,0.017,0.636-0.09,0.88-0.3c0.219-0.231,0.331-0.542,0.31-0.86H137.41z"/>
				<path fill="#FFFFFF" d="M145.77,6.74c0.03,0.191-0.101,0.37-0.291,0.4c-0.036,0.005-0.073,0.005-0.108,0h-3.83
					c-0.171,0.003-0.334-0.066-0.45-0.19c-0.139-0.121-0.219-0.296-0.22-0.48V0.86c-0.002-0.182,0.079-0.354,0.22-0.47
					c0.111-0.134,0.276-0.211,0.45-0.21h3.83c0.27,0,0.399,0.14,0.399,0.42c0.03,0.191-0.101,0.37-0.291,0.4
					c-0.036,0.006-0.073,0.006-0.108,0h-3.21c-0.17-0.023-0.326,0.096-0.35,0.266c-0.003,0.024-0.004,0.05-0.001,0.074v1.81h3
					c0.197-0.024,0.377,0.116,0.401,0.313c0.004,0.032,0.004,0.064-0.001,0.097c0.029,0.202-0.111,0.39-0.313,0.419
					c-0.032,0.004-0.064,0.005-0.097,0.001h-3V6c-0.023,0.169,0.095,0.326,0.264,0.35c0.029,0.004,0.058,0.004,0.086,0h3.21
					c0.197-0.029,0.38,0.108,0.408,0.305C145.772,6.683,145.773,6.711,145.77,6.74z"/>
				<path fill="#FFFFFF" d="M154.36,5.22c-0.036,0.176-0.107,0.343-0.21,0.49c-0.557,1.042-1.659,1.674-2.84,1.63
					c-0.883,0.024-1.731-0.341-2.319-1c-0.621-0.754-0.936-1.714-0.881-2.69c-0.032-0.943,0.284-1.866,0.891-2.59
					c0.584-0.653,1.424-1.019,2.3-1c0.544-0.001,1.081,0.122,1.57,0.36c0.397,0.154,0.744,0.418,1,0.76
					c0.085,0.123,0.143,0.263,0.17,0.41c0,0.44-0.19,0.66-0.59,0.66c-0.209-0.006-0.395-0.136-0.471-0.33
					c-0.125-0.257-0.299-0.487-0.51-0.68c-0.334-0.258-0.748-0.39-1.17-0.37c-0.646-0.001-1.248,0.332-1.59,0.88
					c-0.415,0.582-0.626,1.285-0.601,2c-0.034,0.713,0.17,1.417,0.58,2c0.37,0.557,1.002,0.882,1.67,0.86
					c0.449,0.004,0.888-0.136,1.25-0.4c0.326-0.235,0.594-0.543,0.78-0.9c0.127-0.3,0.297-0.45,0.51-0.45
					c0.116,0.005,0.226,0.051,0.311,0.13C154.287,5.045,154.34,5.127,154.36,5.22z"/>
				<path fill="#FFFFFF" d="M158.45,6.82c0,0.35-0.16,0.52-0.471,0.52c-0.31,0-0.46-0.17-0.46-0.52V0.53
					c0-0.34,0.15-0.521,0.46-0.521c0.311,0,0.471,0.18,0.471,0.521V6.82z"/>
				<path fill="#FFFFFF" d="M168.21,6.93c0,0.28-0.15,0.41-0.47,0.41c-0.16,0-0.301-0.11-0.41-0.35l-0.811-1.8h-3.279L162.44,7
					c-0.063,0.206-0.255,0.345-0.47,0.34c-0.28,0-0.42-0.15-0.42-0.46c-0.002-0.104,0.022-0.207,0.07-0.3l2.779-6.21
					c0.061-0.207,0.245-0.352,0.46-0.36c0.188,0,0.337,0.12,0.45,0.36l2.851,6.32C168.196,6.765,168.213,6.847,168.21,6.93z
					 M166.21,4.36L165,1.73c0-0.09-0.09-0.13-0.141-0.13c-0.05,0-0.109,0-0.159,0.15l-1.141,2.61H166.21z"/>
				<path fill="#FFFFFF" d="M175.52,6.72c0,0.271-0.16,0.41-0.5,0.41h-3.689c-0.234,0.02-0.469-0.044-0.66-0.18
					c-0.145-0.196-0.212-0.438-0.19-0.68V0.42c0-0.28,0.17-0.42,0.49-0.42s0.46,0.14,0.46,0.42v5.44c0,0.32,0.19,0.47,0.561,0.47h3
					C175.36,6.33,175.52,6.46,175.52,6.72z"/>
				<path fill="#FFFFFF" d="M179.54,6.82c0,0.35-0.15,0.52-0.471,0.52c-0.319,0-0.449-0.17-0.449-0.52V0.53
					c0-0.34,0.149-0.521,0.449-0.521c0.301,0,0.471,0.18,0.471,0.521V6.82z"/>
				<path fill="#FFFFFF" d="M188.21,6.72c0,0.28-0.16,0.42-0.47,0.42h-4.561c-0.125,0.001-0.244-0.05-0.33-0.14
					c-0.092-0.093-0.143-0.219-0.14-0.35c0.009-0.175,0.072-0.342,0.18-0.48l3.62-4.85c0.053-0.059,0.087-0.132,0.1-0.21
					c0-0.07-0.06-0.11-0.189-0.11h-3c-0.29,0-0.44-0.13-0.44-0.4s0.15-0.42,0.44-0.42h4.16c0.279,0,0.43,0.16,0.43,0.48
					c-0.011,0.134-0.06,0.262-0.14,0.37l-3.67,5c-0.052,0.056-0.087,0.125-0.101,0.2c0,0.09,0.061,0.13,0.2,0.13h3.479
					C188.05,6.33,188.21,6.46,188.21,6.72z"/>
				<path fill="#FFFFFF" d="M195.44,6.74c0.03,0.191-0.101,0.37-0.291,0.4c-0.036,0.005-0.072,0.005-0.108,0h-3.83
					c-0.17,0.002-0.333-0.067-0.45-0.19c-0.139-0.121-0.219-0.296-0.22-0.48V0.86c-0.002-0.182,0.079-0.354,0.22-0.47
					c0.112-0.132,0.276-0.208,0.45-0.21H195c0.27,0,0.399,0.14,0.399,0.42c0.03,0.191-0.101,0.37-0.291,0.4
					c-0.036,0.006-0.072,0.006-0.108,0h-3.21c-0.17-0.023-0.326,0.096-0.35,0.266c-0.003,0.024-0.003,0.05-0.001,0.074v1.81h3
					c0.197-0.024,0.377,0.116,0.401,0.313c0.004,0.032,0.004,0.064-0.001,0.097c0.029,0.202-0.111,0.39-0.313,0.419
					c-0.032,0.004-0.064,0.005-0.097,0.001h-3V6c-0.023,0.169,0.095,0.326,0.264,0.35c0.029,0.004,0.058,0.004,0.086,0H195
					c0.193-0.045,0.387,0.075,0.433,0.268C195.442,6.658,195.445,6.699,195.44,6.74z"/>
				<path fill="#FFFFFF" d="M203.77,3.66c0.06,0.941-0.261,1.867-0.89,2.57c-0.644,0.629-1.521,0.959-2.42,0.91h-1.88
					c-0.174,0.003-0.34-0.065-0.46-0.19c-0.134-0.125-0.21-0.298-0.21-0.48V0.86c-0.002-0.18,0.075-0.351,0.21-0.47
					c0.114-0.134,0.283-0.211,0.46-0.21h1.93c0.95-0.079,1.883,0.291,2.52,1C203.563,1.893,203.824,2.772,203.77,3.66z M202.77,3.66
					c0.037-0.682-0.168-1.355-0.58-1.9c-0.481-0.527-1.177-0.807-1.89-0.76h-1.1c-0.24,0-0.36,0.11-0.36,0.34V6
					c0.003,0.096,0.038,0.188,0.1,0.26c0.068,0.071,0.162,0.11,0.261,0.11h1c1.72-0.027,2.579-0.93,2.579-2.71H202.77z"/>
			</g>
			<g>
				<path fill="#FFFFFF" d="M47.51,15.29c0.14,0,0.36,0.24,0.65,0.72c0.156,0.314,0.261,0.652,0.31,1
					c-0.009,0.05-0.033,0.096-0.07,0.13c-0.29,0.34-0.68,0.83-1.18,1.49l3.78-0.3c0.385,0.002,0.751-0.166,1-0.46
					c0.189-0.32,0.33-0.48,0.41-0.48s0.279,0.11,0.489,0.33c0.21,0.22,0.391,0.46,0.391,0.55c-0.031,0.16-0.116,0.304-0.24,0.41
					c-0.155,0.171-0.247,0.39-0.26,0.62l-0.601,3l0.2,0.09c0.32,0.22,0.48,0.35,0.48,0.391c0.009,0.069-0.022,0.139-0.08,0.18
					l-8.33,0.66c0,0.6,0,1.119,0,1.569c4.354-0.239,7.12-0.456,8.3-0.649l0.92-0.09c0.168,0.059,0.323,0.146,0.46,0.26
					c0.21,0.149,0.311,0.26,0.311,0.33c0,0.069-0.24,0.149-0.721,0.199l-9.27,0.65c0,0.689,0,1.189,0,1.52l9.939-0.709
					c0.311-0.037,0.598-0.183,0.811-0.41c0.26-0.311,0.439-0.461,0.53-0.461c0.2,0.127,0.382,0.282,0.539,0.461
					c0.187,0.148,0.357,0.316,0.511,0.5c-0.044,0.193-0.133,0.375-0.261,0.529c-0.245,0.207-0.408,0.494-0.46,0.811
					c-0.442,2.236-1.02,4.443-1.729,6.609c-0.36,0.891-0.63,1.34-0.82,1.34c-0.911-0.83-1.754-1.732-2.52-2.699
					c-0.035-0.068-0.056-0.144-0.061-0.221v-0.08c0.147,0.016,0.288,0.067,0.41,0.15c0.55,0.402,1.136,0.754,1.75,1.051
					c0.207,0.002,0.386-0.146,0.42-0.351c0.523-1.181,0.919-2.415,1.181-3.681c0.228-0.957,0.392-1.93,0.489-2.91l-4.34,0.351
					c0.15,0.134,0.288,0.28,0.41,0.44c0.31,0.32,0.46,0.56,0.46,0.72c0.001,0.126-0.054,0.247-0.15,0.33
					c-0.258,0.54-0.391,1.132-0.39,1.729C51,32,50.87,32.65,50.77,33c-0.069,0.11-0.14,0.17-0.2,0.17
					c-0.06,0-0.189-0.139-0.329-0.43c-0.076-0.206-0.127-0.421-0.15-0.64c-0.76,0.09-1.68,0.181-2.76,0.26
					c-1.08,0.08-2.431,0.38-4.23,0.729c-0.25,0.021-0.476,0.158-0.609,0.371c-0.061,0.072-0.146,0.119-0.24,0.129
					c-0.205-0.058-0.394-0.164-0.55-0.31c-0.28-0.159-0.421-0.28-0.421-0.37c0.016-0.129,0.08-0.247,0.181-0.33l0.33-0.33
					c0.077-0.186,0.115-0.387,0.109-0.59v-1c-0.01-0.485-0.053-0.97-0.13-1.449c-0.086-0.354-0.152-0.711-0.2-1.07
					c0-0.07,0-0.11,0.091-0.11c0.09,0,0.29,0.14,0.569,0.421c0.28,0.279,0.63,0.539,0.63,0.649c-0.002,0.214-0.022,0.429-0.06,0.64
					v2.52l3.5-0.399V30.1c-0.008-0.475-0.064-0.947-0.17-1.41c-0.104-0.188-0.166-0.396-0.18-0.61
					c-0.212,0.02-0.422,0.049-0.631,0.09c-0.253,0.053-0.511,0.082-0.77,0.09c-0.075-0.004-0.149-0.021-0.22-0.049
					c0,0.18-0.07,0.379-0.11,0.619s-0.16,0.48-0.31,0.48c-0.15,0-0.271-0.279-0.521-0.83c-0.178-0.371-0.267-0.779-0.26-1.189
					c0-0.07,0.06-0.17,0.189-0.301c0.155-0.187,0.246-0.418,0.261-0.66c0.06-1,0.09-2.729,0.09-5.26
					c0.009-0.691-0.034-1.385-0.13-2.07c-0.071-0.328-0.115-0.663-0.13-1c0-0.19,0.06-0.29,0.17-0.29c0.109,0,0.279,0.35,0.55,1
					c0.024,0.098,0.054,0.195,0.09,0.289l2.34-0.219c-0.005-0.044-0.005-0.088,0-0.131c0.174-0.46,0.334-0.95,0.48-1.47
					c0.151-0.553,0.256-1.119,0.31-1.69C47.43,15.34,47.46,15.29,47.51,15.29z M44.51,23.02l4.65-0.46
					c0.674-0.05,1.342-0.154,2-0.311c0.123-0.012,0.246-0.012,0.369,0L52,18.919L44.45,19.6c0.031,0.169,0.052,0.339,0.06,0.51
					v0.649c2.45-0.209,4-0.389,4.71-0.52h0.53c0.172,0.055,0.333,0.135,0.479,0.24c0.2,0.17,0.311,0.301,0.311,0.37
					S50.39,20.96,50.1,21c-2.047,0.16-3.91,0.32-5.59,0.48V23.02z M50.29,31.451l0.069-0.101c0.126-0.265,0.207-0.549,0.24-0.841
					c0.055-0.287,0.092-0.577,0.11-0.869c0-0.08,0-0.301,0-0.66s0-0.859,0-1.18c0-0.051,0-0.08,0-0.09l-1.23,0.09
					c-0.92,0.05-1.89,0.14-2.91,0.24c0.086,0.055,0.167,0.119,0.24,0.189c0.36,0.301,0.55,0.529,0.55,0.71
					c0.008,0.142-0.023,0.284-0.09,0.41c-0.064,0.245-0.095,0.497-0.09,0.75v1.681L50.29,31.451z"/>
				<path fill="#FFFFFF" d="M66.16,16.49c0.08,0,0.35,0.229,0.81,0.68s0.74,0.75,0.74,0.92c-0.023,0.317-0.098,0.627-0.22,0.919
					c-0.138,1.086-0.201,2.178-0.19,3.271v6.85l1.18-0.221c0-0.26,0.101-0.56,0.17-0.89c0.116-0.704,0.184-1.417,0.2-2.13
					c0-0.53,0.08-1.28,0.11-2.28c0-0.09,0-0.3,0-0.649c0-0.5-0.07-0.9-0.07-1.19c0-0.13,0.07-0.19,0.2-0.19s0.22,0.16,0.5,0.5
					s0.46,0.58,0.46,0.74c0.015,0.199-0.031,0.397-0.13,0.57c-0.265,1.063-0.396,2.154-0.391,3.25c-0.149,1.949-0.27,3.23-0.38,3.83
					c0,0.199-0.109,0.311-0.149,0.311s-0.23-0.141-0.37-0.421c-0.11-0.249-0.172-0.518-0.18-0.79c-0.33,0-0.721,0.1-1.16,0.18
					c-0.44,0.08-1.19,0.32-2.08,0.61c-0.13,0-0.24,0.12-0.33,0.31c-0.09,0.19-0.08,0.111-0.11,0.111
					c-0.199-0.072-0.385-0.178-0.55-0.311c-0.27-0.16-0.41-0.29-0.41-0.37c0.009-0.124,0.063-0.241,0.15-0.33
					c0.129-0.097,0.246-0.208,0.35-0.33c0.093-0.183,0.138-0.386,0.13-0.59v-4.91c-0.007-0.483-0.058-0.966-0.149-1.44
					c-0.122-0.359-0.219-0.727-0.29-1.1c-0.006-0.043,0.024-0.084,0.068-0.09c0.007-0.001,0.015-0.001,0.021,0
					c0.12,0,0.31,0.141,0.59,0.42c0.44,0.32,0.66,0.529,0.66,0.63c0,0.222-0.023,0.443-0.07,0.66c0,0.22,0,0.39,0,0.5v5.94
					l1.23-0.201V20c-0.003-0.785-0.083-1.569-0.24-2.339c-0.141-0.321-0.245-0.656-0.31-1C66,16.55,66,16.49,66.16,16.49z
					 M73.23,30.49c0.13,0,0.3,0.24,0.511,0.7c0.113,0.261,0.201,0.532,0.26,0.81c-0.009,0.068-0.05,0.129-0.11,0.16
					c-0.382,0.272-0.743,0.573-1.08,0.9c-0.6,0.568-1.245,1.088-1.93,1.55c-0.602,0.415-1.229,0.788-1.88,1.12l-0.221,0.061
					c-0.06,0-0.079,0-0.079-0.09c-0.001-0.072,0.037-0.137,0.1-0.17c0.989-0.697,1.901-1.499,2.72-2.391
					c0.694-0.719,1.238-1.568,1.601-2.5c0.04-0.08,0.08-0.131,0.109-0.131V30.49z M73.32,16.65c0.101,0,0.28,0.14,0.53,0.44
					c0.129,0.149,0.218,0.328,0.26,0.52c-0.011,0.108-0.056,0.21-0.13,0.29c-0.248,0.13-0.482,0.284-0.7,0.46
					c-0.449,0.37-0.928,0.705-1.43,1l0,0l0.09,3.29c0.396-0.091,0.779-0.232,1.141-0.42l0.149-0.061
					c0.16,0.044,0.31,0.119,0.44,0.221c0.189,0.141,0.29,0.25,0.29,0.33S73.9,22.8,73.78,22.83L72,23.169v2.74
					c0.363-0.053,0.722-0.141,1.069-0.26H73.2c0.172,0.053,0.334,0.133,0.479,0.24c0.21,0.16,0.311,0.279,0.311,0.35
					s0,0.08-0.15,0.11c-0.67,0.101-1.28,0.2-1.82,0.31l0.061,3l2.17-0.129c0-1.381,0-2.681,0-3.931
					c-0.007-0.226-0.037-0.45-0.09-0.67c-0.035-0.106-0.055-0.218-0.061-0.33c-0.006-0.044,0.025-0.084,0.068-0.091
					c0.008,0,0.015,0,0.021,0c0.217,0.068,0.413,0.188,0.57,0.351c0.26,0.25,0.39,0.45,0.39,0.61
					c-0.003,0.088-0.034,0.172-0.09,0.24C75.029,25.804,75.008,25.902,75,26c0,1.051,0,2.211,0,3.48h0.35l0.73-0.07l0.41-5.8
					c-0.421,0-0.841,0.091-1.24,0.149c-0.189,0.016-0.372,0.076-0.53,0.181c-0.068,0.063-0.15,0.106-0.24,0.13
					c-0.09,0-0.22-0.08-0.399-0.24c-0.1-0.102-0.165-0.23-0.19-0.369c0.012-0.127,0.049-0.25,0.11-0.36
					c0.169-0.306,0.258-0.65,0.26-1c0.1-1,0.17-2.19,0.22-3.5c0-0.38,0-0.84,0-1.38c0-0.54,0-0.88,0-1c0-0.12,0-0.189,0.09-0.189
					c0.091,0,0.301,0.14,0.591,0.41s0.479,0.59,0.479,0.75c-0.021,0.203-0.089,0.399-0.2,0.57c-0.1,0.291-0.157,0.594-0.17,0.9
					L75.2,19.49c0.419-0.07,0.831-0.182,1.229-0.33h0.18c0.146,0.043,0.284,0.107,0.41,0.19C77.2,19.5,77.29,19.6,77.29,19.66
					c0,0.061-0.061,0.08-0.181,0.11c-0.72,0.101-1.369,0.2-2,0.31L74.85,23h1c0.247-0.012,0.463-0.168,0.55-0.399
					c0.15-0.271,0.261-0.41,0.33-0.41c0.07,0,0.19,0.091,0.391,0.28C77.32,22.66,77.52,22.88,77.52,23c0,0.121-0.08,0.17-0.24,0.311
					c-0.176,0.166-0.286,0.389-0.31,0.63l-0.31,5.37c0.81-0.09,1.5-0.18,2.08-0.29l0.199-3.33l-0.79,0.11
					c-0.125,0.043-0.257,0.066-0.39,0.07c-0.192-0.039-0.374-0.121-0.53-0.24c-0.17-0.15-0.26-0.24-0.26-0.271
					c0.004-0.05,0.041-0.091,0.09-0.101L79,25l0.189-2.83l-0.85,0.24c-0.123,0.068-0.26,0.105-0.4,0.11
					c-0.186-0.042-0.358-0.132-0.5-0.261c-0.102-0.076-0.195-0.164-0.279-0.26c-0.006-0.043,0.025-0.084,0.069-0.089
					c0.003-0.001,0.007-0.001,0.011-0.001l2-0.4l0.189-3l-1.38,0.33c-0.059,0.035-0.123,0.059-0.19,0.07
					c-0.189-0.014-0.369-0.092-0.51-0.22c-0.189-0.1-0.28-0.18-0.28-0.24c0.001-0.071,0.034-0.137,0.091-0.18L78.6,18
					c0.283-0.024,0.541-0.174,0.7-0.41c0.2-0.31,0.34-0.46,0.42-0.46s0.24,0.12,0.48,0.35c0.239,0.23,0.39,0.45,0.39,0.52
					c-0.024,0.191-0.108,0.369-0.24,0.51c-0.11,0.242-0.169,0.504-0.17,0.771L79.5,28.91c0.451-0.059,0.896-0.16,1.33-0.3
					c0.127-0.052,0.263-0.083,0.399-0.09c0.269,0.075,0.52,0.2,0.74,0.37c0.37,0.26,0.55,0.43,0.55,0.51
					c0.013,0.07-0.035,0.139-0.106,0.15c-0.014,0.002-0.029,0.002-0.043,0c-1.891,0.119-4.33,0.33-7.341,0.63
					c-1.424,0.104-2.843,0.282-4.25,0.53c-0.145,0.033-0.291,0.057-0.439,0.07c-0.3-0.05-0.58-0.182-0.811-0.381
					c-0.199-0.16-0.31-0.3-0.31-0.41c0-0.109,0.11-0.27,0.33-0.27c0.43,0,1.06,0,1.91-0.061l-0.181-5.869
					c0-1.141-0.069-2.67-0.17-4.58c-0.09-1.101-0.13-1.701-0.13-1.82V17.3c0.101,0,0.28,0.31,0.54,0.92
					c0.1,0.213,0.18,0.434,0.24,0.661c0.6-0.507,1.066-1.152,1.36-1.88c0.08-0.24,0.14-0.33,0.199-0.33V16.65z M76.58,30.759
					c0.209,0.023,0.407,0.107,0.569,0.24c1.058,0.6,2.062,1.289,3,2.061c0.431,0.35,0.641,0.641,0.641,0.87
					c-0.01,0.335-0.039,0.669-0.09,1c0,0.329-0.12,0.5-0.24,0.5s-0.21-0.101-0.311-0.29c-0.955-1.469-2.113-2.795-3.439-3.939
					c-0.108-0.078-0.178-0.198-0.19-0.33c0,0,0.01-0.08,0.061-0.09V30.759z"/>
				<path fill="#FFFFFF" d="M90.55,29.81c0.11,0,0.17,0.32,0.17,1c0.051,1.27-0.195,2.533-0.72,3.689c-0.26,0.5-0.49,0.74-0.7,0.74
					s-0.29-0.16-0.44-0.48c-0.084-0.203-0.147-0.414-0.189-0.629c0.005-0.162,0.086-0.311,0.22-0.4
					c0.866-1.019,1.372-2.295,1.44-3.63C90.37,29.91,90.43,29.81,90.55,29.81z M93.44,15.53c0.127,0,0.337,0.27,0.63,0.81
					c0.171,0.267,0.283,0.567,0.33,0.88c-0.011,0.114-0.073,0.217-0.17,0.28c-0.3,0.32-0.62,0.71-1,1.16L90.4,23.22l3.221-0.439
					c0.594-0.934,1.058-1.943,1.38-3c0-0.111,0.09-0.171,0.18-0.171s0.34,0.261,0.63,0.79c0.166,0.266,0.278,0.562,0.33,0.87
					c-0.017,0.149-0.106,0.28-0.24,0.351c-0.462,0.389-0.894,0.813-1.29,1.27l-3.699,4.891l4.64-1.141
					c-0.19-0.41-0.38-0.82-0.59-1.23c-0.06-0.146-0.097-0.302-0.11-0.459c0-0.061,0-0.08,0.09-0.08s0.15,0.06,0.28,0.189
					c0.563,0.596,1.065,1.246,1.5,1.939c0.166,0.193,0.273,0.429,0.31,0.681c-0.012,0.261-0.056,0.519-0.13,0.771
					c-0.149,0.359-0.27,0.539-0.37,0.539c-0.1,0-0.229-0.109-0.289-0.35c-0.144-0.549-0.316-1.09-0.521-1.62
					c-1.706,0.485-3.376,1.087-5,1.8c-0.226,0.148-0.482,0.244-0.75,0.28c-0.133,0-0.293-0.13-0.479-0.39
					c-0.104-0.145-0.178-0.309-0.221-0.48c-0.005-0.093,0.047-0.18,0.13-0.221c0.414-0.18,0.783-0.449,1.08-0.789
					c1.026-1.25,1.969-2.566,2.82-3.939c-1.018,0.215-2.021,0.5-3,0.85c-0.164,0.075-0.34,0.119-0.521,0.129
					c-0.119,0-0.27-0.119-0.439-0.369c-0.121-0.145-0.204-0.316-0.24-0.5c-0.01-0.078,0.036-0.152,0.11-0.18
					c0.304-0.188,0.57-0.429,0.79-0.711c0.798-1.242,1.522-2.531,2.17-3.859c0.521-0.943,0.911-1.952,1.16-3
					C93.32,15.58,93.36,15.53,93.44,15.53z M92.67,29.4c0.06,0,0.12,0.051,0.2,0.17c0.473,0.801,0.852,1.652,1.13,2.54
					c-0.021,0.279-0.107,0.55-0.25,0.79c-0.19,0.34-0.351,0.5-0.48,0.5s-0.14-0.061-0.17-0.189c-0.077-0.92-0.204-1.834-0.38-2.74
					c-0.07-0.33-0.12-0.664-0.15-1C92.56,29.419,92.6,29.4,92.67,29.4z M94.6,28.759c0.103,0.018,0.195,0.07,0.26,0.15
					c0.53,0.477,1.009,1.006,1.431,1.58c0.172,0.145,0.285,0.348,0.319,0.57c-0.011,0.254-0.055,0.506-0.13,0.75
					c-0.16,0.359-0.3,0.54-0.41,0.54c-0.109,0-0.189-0.091-0.25-0.28c-0.291-0.986-0.693-1.936-1.199-2.83
					c-0.06-0.123-0.097-0.254-0.11-0.39c-0.006-0.044,0.024-0.084,0.068-0.091C94.585,28.759,94.593,28.759,94.6,28.759z
					 M104.48,20.201c0.258,0.025,0.506,0.115,0.721,0.26c0.279,0.25,0.42,0.42,0.42,0.52s0,0.16-0.091,0.16
					c-1.31,0.141-2.779,0.34-4.38,0.59h-0.109c0.091,0.074,0.178,0.154,0.26,0.24c0.5,0.449,0.75,0.76,0.75,0.92
					c-0.027,0.318-0.108,0.629-0.24,0.92c-0.158,1.082-0.232,2.176-0.22,3.27V32.6c1.357-0.108,2.699-0.366,4-0.771
					c0.088-0.063,0.191-0.102,0.3-0.109c0.297,0.09,0.572,0.24,0.811,0.439c0.38,0.271,0.569,0.45,0.569,0.521
					c0,0.069-0.08,0.29-0.24,0.29c-1.55,0.1-3.539,0.279-6,0.52c-2.159,0.24-3.329,0.391-3.5,0.461
					c-0.112,0.041-0.23,0.064-0.35,0.069c-0.329-0.047-0.637-0.193-0.88-0.42c-0.23-0.16-0.35-0.28-0.35-0.37s0.149-0.26,0.46-0.26
					c0.67,0,2.119-0.1,4.359-0.29v-7.841c-0.006-0.784-0.079-1.566-0.22-2.34c-0.1-0.31-0.18-0.529-0.22-0.66
					c-0.674,0.074-1.342,0.191-2,0.351c-0.104,0.051-0.216,0.081-0.33,0.091c-0.233-0.06-0.449-0.173-0.63-0.33
					c-0.28-0.221-0.42-0.371-0.42-0.461c-0.013-0.088,0.049-0.168,0.137-0.18c0.015-0.002,0.028-0.002,0.043,0
					c1.22-0.1,2.07-0.189,2.54-0.26l1.62-0.221l1.8-0.31c0.343-0.034,0.679-0.114,1-0.239
					C104.217,20.24,104.348,20.212,104.48,20.201z"/>
				<path fill="#FFFFFF" d="M130.2,18.18c0.277,0.074,0.538,0.199,0.77,0.37c0.38,0.26,0.57,0.43,0.57,0.51
					c0.012,0.082-0.045,0.158-0.127,0.17c-0.015,0.002-0.029,0.002-0.043,0c-1.66,0.073-3.604,0.189-5.83,0.35
					c-0.24,0.67-0.46,1.34-0.681,2c-0.149,0.351-0.319,0.521-0.529,0.521c-0.04,0-0.061-0.05-0.061-0.149
					c0.013-0.187,0.043-0.371,0.09-0.551c0.131-0.6,0.261-1.18,0.391-1.75l-3.641,0.301c-0.42,0.049-0.81,0.08-1.159,0.09v2.149
					c0.018,0.126-0.07,0.242-0.196,0.261c-0.021,0.002-0.043,0.002-0.064,0c-0.06,0-0.18-0.131-0.37-0.391
					c-0.135-0.126-0.22-0.297-0.239-0.48c0.029-0.086,0.066-0.17,0.109-0.25c0.068-0.264,0.095-0.537,0.08-0.81v-0.41
					c-2.51,0.2-3.899,0.341-4.16,0.41c-0.186,0.05-0.377,0.081-0.569,0.09c-0.306-0.038-0.59-0.175-0.811-0.39
					c-0.229-0.15-0.35-0.27-0.35-0.381c0-0.109,0.13-0.279,0.37-0.279c1,0,2.779-0.07,5.5-0.2c-0.024-0.795-0.162-1.583-0.41-2.34
					c-0.087-0.219-0.147-0.447-0.18-0.68c0-0.06,0-0.09,0.069-0.09c0.268,0.088,0.513,0.231,0.721,0.42
					c0.39,0.39,0.59,0.68,0.59,0.87c-0.001,0.101-0.024,0.2-0.07,0.29c0,0.15,0,0.23,0,0.26v1.23l2-0.09c1.13-0.09,2.13-0.17,3-0.26
					c0-0.18,0.08-0.33,0.1-0.46c0.194-0.923,0.285-1.866,0.271-2.81c0-0.11,0-0.17,0.09-0.17s0.43,0.17,0.72,0.53
					c0.249,0.242,0.423,0.551,0.5,0.89c-0.159,0.35-0.34,0.74-0.55,1.16c-0.21,0.42-0.189,0.521-0.26,0.771
					c1.313-0.098,2.617-0.295,3.9-0.59C129.887,18.231,130.042,18.194,130.2,18.18z M122.08,20.61c0.08,0,0.279,0.19,0.59,0.57
					c0.189,0.233,0.304,0.52,0.33,0.819c0.004,0.117-0.027,0.232-0.09,0.33c-0.09,0.07-0.171,0.15-0.24,0.24l2.13,1.79
					c1.238,1.038,2.556,1.978,3.94,2.81c1.127,0.48,2.327,0.768,3.55,0.851c0.12,0,0.17,0.069,0.17,0.2c0,0.13-0.05,0.26-0.17,0.26
					c-0.53,0.051-1.23,0.13-2.101,0.26c-0.354,0.083-0.716,0.137-1.08,0.16c-0.186-0.012-0.358-0.098-0.479-0.24
					c-1-0.91-2.21-2-3.7-3.289L122.3,23l-0.2,0.201c-1.161,1.317-2.47,2.498-3.899,3.52c-1.08,0.76-2.483,1.63-4.21,2.609
					c-0.154,0.113-0.332,0.189-0.521,0.221c-0.06,0-0.09-0.051-0.09-0.15c0-0.061,0.07-0.119,0.2-0.18
					c1.487-0.886,2.902-1.889,4.229-3c1.071-0.896,2.046-1.902,2.91-3c0.578-0.713,1.014-1.531,1.28-2.41
					C122,20.68,122,20.61,122.08,20.61z M119.62,29.72c0.12,0,0.279,0.24,0.489,0.71c0.1,0.261,0.17,0.532,0.21,0.81
					c0,0,0,0.08-0.1,0.131c-0.35,0.224-0.684,0.471-1,0.739c-0.567,0.475-1.169,0.905-1.8,1.29c-0.561,0.348-1.146,0.655-1.75,0.92
					h-0.17c-0.08,0-0.11,0-0.11-0.09s0-0.09,0.11-0.13c0.904-0.606,1.739-1.311,2.49-2.101c0.636-0.636,1.142-1.391,1.489-2.219
					C119.55,29.759,119.59,29.72,119.62,29.72z M125.39,27.18c0.225,0.032,0.435,0.126,0.61,0.271c0.229,0.199,0.35,0.35,0.35,0.43
					s0,0.18-0.09,0.18l-3.42,0.311v4.899c-0.016,0.759-0.134,1.513-0.35,2.239c-0.11,0.41-0.221,0.611-0.33,0.611
					c-0.147-0.003-0.277-0.1-0.32-0.24c-0.56-0.762-1.174-1.48-1.84-2.15c-0.084-0.09-0.134-0.207-0.141-0.33c0,0,0-0.08,0.091-0.08
					c0.145,0.036,0.28,0.101,0.399,0.189c0.419,0.379,0.908,0.671,1.44,0.861c0.1,0,0.16-0.16,0.16-0.48c0-0.84,0.1-1.641,0.13-2.41
					v-3.05c-1.46,0.12-2.351,0.21-2.681,0.26c-0.102,0.042-0.21,0.065-0.319,0.069c-0.218-0.039-0.422-0.136-0.59-0.279
					c-0.25-0.21-0.381-0.35-0.381-0.42s0.07-0.09,0.2-0.09c1.17-0.07,2-0.131,2.41-0.17l1.36-0.141v-1.33
					c-0.011-0.336-0.055-0.672-0.13-1c-0.035-0.145-0.059-0.291-0.07-0.439c0-0.061,0-0.09,0.11-0.09c0.109,0,0.31,0.13,0.569,0.4
					c0.26,0.27,0.48,0.539,0.48,0.719c-0.001,0.164-0.031,0.327-0.09,0.48c-0.081,0.307-0.118,0.623-0.11,0.939v0.291l1.189-0.16
					c0.339-0.012,0.674-0.063,1-0.15C125.145,27.261,125.266,27.214,125.39,27.18z M124.6,30.36c0.187,0.008,0.37,0.052,0.54,0.13
					c0.906,0.407,1.791,0.861,2.65,1.36c0.38,0.26,0.569,0.46,0.569,0.59c-0.009,0.369-0.046,0.737-0.109,1.101
					c-0.05,0.39-0.16,0.59-0.3,0.59c-0.141,0-0.181-0.09-0.271-0.271c-0.842-1.196-1.852-2.264-3-3.17
					c-0.14-0.101-0.2-0.181-0.2-0.239c-0.013-0.043,0.012-0.088,0.055-0.1C124.556,30.343,124.58,30.347,124.6,30.36z"/>
				<path fill="#FFFFFF" d="M153.32,17.46c0.216,0.024,0.42,0.107,0.591,0.24c0.25,0.23,0.38,0.39,0.38,0.48
					c0,0.09,0,0.15-0.09,0.15l-6.771,0.44c0,0.53-0.07,1.069-0.09,1.64l3.18-0.209c0.393-0.015,0.759-0.201,1-0.511
					c0.19-0.31,0.33-0.46,0.42-0.46s0.28,0.109,0.48,0.33s0.399,0.46,0.399,0.55c-0.031,0.163-0.12,0.308-0.25,0.41
					c-0.148,0.175-0.239,0.392-0.26,0.62l-0.39,2.8l0,0c0.174,0.06,0.336,0.147,0.479,0.261c0.221,0.18,0.33,0.299,0.33,0.379
					s-0.239,0.16-0.72,0.221h-0.62l2.061,1.55c0.15,0.093,0.235,0.264,0.22,0.44c-0.005,0.418-0.042,0.836-0.11,1.25
					c0,0.119-0.06,0.18-0.13,0.18c-0.113-0.008-0.213-0.077-0.26-0.18c-0.25-0.451-0.51-0.891-0.79-1.311l-2.17,0.279
					c0.091,0.076,0.178,0.156,0.26,0.24c0.32,0.32,0.49,0.58,0.49,0.771c0,0.171-0.03,0.34-0.09,0.5
					c-0.017,0.177-0.017,0.354,0,0.53c1.286-0.126,2.563-0.34,3.819-0.641c0.174-0.063,0.355-0.1,0.54-0.109
					c0.286,0.082,0.555,0.217,0.79,0.4c0.4,0.309,0.59,0.489,0.59,0.569c0.019,0.114-0.06,0.222-0.175,0.239
					c-0.021,0.004-0.043,0.004-0.064,0c-1.591,0.07-3.431,0.171-5.521,0.311v4.2c-0.026,0.591-0.184,1.167-0.46,1.69
					c-0.16,0.299-0.3,0.459-0.41,0.459c-0.109,0-0.27-0.1-0.35-0.289c-0.638-0.854-1.336-1.658-2.09-2.41
					c-0.075-0.103-0.12-0.224-0.13-0.35c0-0.061,0-0.08,0.09-0.08c0.159,0.038,0.31,0.109,0.439,0.209
					c0.487,0.448,1.063,0.789,1.69,1c0.13,0,0.2-0.119,0.21-0.35c0.06-0.57,0.11-1.13,0.14-1.689v-2.291l-4,0.311l-1.84,0.15
					c0.466,0.471,0.896,0.977,1.29,1.51c0.182,0.17,0.305,0.395,0.35,0.641c-0.017,0.256-0.06,0.512-0.13,0.76
					c-0.149,0.379-0.27,0.569-0.38,0.569c-0.109,0-0.229-0.11-0.3-0.351c-0.355-1.072-0.825-2.105-1.4-3.079
					c-2.21,0.17-3.439,0.29-3.68,0.351c-0.188,0.043-0.378,0.069-0.57,0.079c-0.326-0.036-0.633-0.173-0.88-0.39
					c-0.25-0.15-0.37-0.27-0.37-0.37s0.15-0.29,0.46-0.29c1.25,0,4-0.109,8.301-0.35l3.18-0.28v-0.57
					c-0.009-0.392-0.063-0.78-0.16-1.159c-0.021-0.113-0.051-0.224-0.09-0.33l-4.86,0.629c-1.149,0.15-2.199,0.33-3.149,0.551
					c-0.127,0.078-0.271,0.123-0.42,0.13c-0.279-0.058-0.536-0.192-0.74-0.39c-0.34-0.221-0.51-0.381-0.51-0.48
					c0-0.15,0.069-0.08,0.199-0.09c1.591-0.1,3-0.221,4.101-0.35l2.27-0.24v-1.69c-1.22,0.12-2.39,0.22-3.5,0.31
					c-0.014,0.336-0.051,0.67-0.109,1c0,0.09-0.05,0.131-0.15,0.131c-0.1,0-0.22-0.17-0.399-0.521c-0.11-0.257-0.175-0.53-0.19-0.81
					c-0.018-0.116-0.018-0.234,0-0.35c0.075-0.584,0.105-1.172,0.09-1.761c-0.025-0.733-0.089-1.464-0.189-2.19
					c-0.061-0.6-0.091-0.959-0.091-1.08c0-0.1,0-0.16,0.091-0.17c0.09-0.01,0.29,0.281,0.5,0.851c0.012,0.06,0.012,0.12,0,0.181
					l3.81-0.311v-1.61h-0.17c-2.72,0.181-4.39,0.31-5,0.421c-0.193,0.049-0.391,0.076-0.59,0.079c-0.218-0.042-0.42-0.138-0.59-0.28
					c-0.25-0.22-0.37-0.359-0.37-0.42c0-0.06,0.06-0.08,0.17-0.08c2.24-0.11,3.76-0.19,4.58-0.27c0.819-0.08,1.359-0.09,2-0.15
					c-0.015-0.611-0.078-1.22-0.19-1.82c-0.127-0.323-0.225-0.658-0.29-1c0-0.12,0.05-0.18,0.15-0.18c0.109,0,0.39,0.22,0.859,0.66
					c0.471,0.44,0.74,0.75,0.74,0.9c-0.018,0.317-0.092,0.629-0.22,0.92c-0.038,0.141-0.065,0.285-0.08,0.43
					c1.35-0.11,2.44-0.21,3.26-0.3c0.595-0.041,1.187-0.122,1.771-0.24C152.798,17.487,153.059,17.463,153.32,17.46z M143.05,24.82
					c1.34-0.09,2.51-0.18,3.5-0.27v-1.381c-1.11,0.08-1.81,0.141-2.1,0.201c-0.078,0.026-0.158,0.043-0.24,0.049
					c-0.208-0.047-0.402-0.139-0.57-0.27c-0.2-0.17-0.31-0.279-0.31-0.33c0-0.05,0.06-0.08,0.16-0.08c1-0.06,1.739-0.109,2.1-0.16
					c0.335-0.008,0.668-0.034,1-0.08V21.14l-3.61,0.3c0.014,0.17,0.014,0.341,0,0.511C143,22.18,143,23.14,143.05,24.82z
					 M147.34,21.07v1.34l1.1-0.109l0.83-0.131c0.121-0.036,0.245-0.06,0.37-0.069c0.194,0.021,0.379,0.097,0.53,0.22
					c0.229,0.211,0.35,0.34,0.35,0.42s0,0.17-0.09,0.17c-1,0.051-2,0.11-3.09,0.2v1.38c1.78-0.16,3-0.31,3.68-0.439h0.11l0.31-3.291
					L147.34,21.07z M147.34,25.121v1.67l4.67-0.51c-0.312-0.447-0.648-0.875-1.01-1.281c0,0,0-0.08,0-0.109
					C149.69,25,148.48,25.05,147.34,25.121z"/>
				<path fill="#FFFFFF" d="M164.74,15.53c0.109,0,0.3,0.34,0.569,1c0.12,0.39,0.2,0.71,0.25,0.939l3.33-0.37
					c0.391-0.021,0.754-0.206,1-0.51c0.19-0.3,0.33-0.46,0.41-0.46s0.28,0.11,0.49,0.33c0.21,0.22,0.39,0.45,0.39,0.55
					c0,0.1-0.09,0.24-0.26,0.42c-0.15,0.176-0.235,0.398-0.24,0.63l-0.53,4.779c0.152,0.051,0.3,0.113,0.44,0.191
					c0.22,0.17,0.33,0.279,0.33,0.359s-0.13,0.13-0.4,0.17l-4.859,0.48c0,5.553-0.03,8.956-0.091,10.209
					c-0.018,0.377-0.067,0.752-0.149,1.121c0,0.319-0.13,0.479-0.26,0.479s-0.29-0.28-0.57-0.83c-0.162-0.376-0.244-0.78-0.24-1.19
					c0.018-0.243,0.082-0.48,0.19-0.699c0.155-0.52,0.236-1.059,0.24-1.601c0.079-2.319,0.116-6.517,0.109-12.59
					c0.011-0.719-0.032-1.438-0.13-2.15c-0.083-0.328-0.133-0.663-0.15-1C164.57,15.62,164.63,15.53,164.74,15.53z M165.62,23.371
					c1.909-0.19,3.18-0.34,3.79-0.461l0.42-5.229l-4.21,0.54v2c0.843-0.074,1.679-0.215,2.5-0.42h0.3
					c0.182,0.047,0.35,0.135,0.49,0.26c0.199,0.153,0.3,0.264,0.3,0.33c0,0.061-0.08,0.1-0.26,0.13l-3.33,0.44V23.371z M173,15.7
					c0.069,0,0.21,0.26,0.42,0.77c0.079,0.207,0.136,0.421,0.17,0.64l4.43-0.53c0.201-0.021,0.376-0.146,0.46-0.33
					c0.194-0.243,0.424-0.455,0.681-0.63c0.221,0.083,0.427,0.201,0.609,0.35c0.29,0.29,0.44,0.49,0.44,0.61
					c-0.106,0.287-0.27,0.548-0.48,0.77c-0.128,0.224-0.185,0.482-0.16,0.74V33.71c-0.015,0.335-0.051,0.669-0.109,1
					c-0.07,0.27-0.141,0.549-0.19,0.83c-0.05,0.279-0.22,0.439-0.38,0.439c-0.164-0.021-0.316-0.099-0.43-0.221
					c-1.074-1.164-2.23-2.25-3.46-3.25c-0.059-0.06-0.097-0.137-0.11-0.219l0.09-0.09c0.175,0.006,0.345,0.051,0.5,0.129
					c0.844,0.617,1.773,1.105,2.761,1.451c0.119,0,0.18-0.101,0.199-0.291c0.021-0.189,0.08-0.57,0.11-0.92s0-0.699,0-1.311v-8.389
					l-4.73,0.41v0.659c0,0.479-0.079,0.72-0.239,0.72s-0.301-0.18-0.42-0.539c-0.202-0.295-0.311-0.644-0.311-1
					c0.011-0.148,0.034-0.297,0.07-0.44c0.099-0.79,0.149-1.585,0.149-2.38c0.03-1.24-0.043-2.482-0.22-3.71
					c0-0.48-0.08-0.75-0.08-0.83C172.77,15.68,172.86,15.7,173,15.7z M173.86,22.6l4.75-0.46v-4.86L173.7,17.76
					c0.046,0.5,0.076,1.041,0.09,1.621v0.31c0.951-0.11,1.896-0.271,2.83-0.479l0.35-0.07c0.165,0.055,0.321,0.135,0.46,0.24
					c0.2,0.17,0.3,0.289,0.3,0.379c0,0.091-0.1,0.111-0.3,0.15l-3.62,0.48c0.01,0.83,0.03,1.609,0.03,2.21H173.86z"/>
				<path fill="#FFFFFF" d="M203.35,18.88c0.265,0.035,0.521,0.123,0.75,0.26c0.33,0.24,0.5,0.38,0.5,0.42
					c0.013,0.078-0.022,0.157-0.09,0.199l-7.31,0.521l0.239,0.219c0.45,0.41,0.681,0.681,0.681,0.811
					c-0.018,0.294-0.078,0.584-0.181,0.859c-0.096,0.609-0.155,1.225-0.18,1.84c2.34-0.213,3.83-0.383,4.47-0.51
					c0.175-0.037,0.353-0.064,0.53-0.08c0.183,0.062,0.353,0.156,0.5,0.281c0.25,0.149,0.38,0.26,0.38,0.33
					c0,0.069-0.16,0.119-0.46,0.149l-5.439,0.53v3.629l2.63-0.279c0.412-0.007,0.806-0.172,1.1-0.46c0.22-0.341,0.38-0.5,0.5-0.5
					s0.271,0.13,0.5,0.39c0.23,0.26,0.46,0.471,0.46,0.57c-0.024,0.187-0.117,0.357-0.26,0.48c-0.159,0.193-0.257,0.43-0.28,0.68
					l-0.7,4.289c0.148,0.082,0.292,0.173,0.431,0.271c0.239,0.159,0.35,0.27,0.35,0.35s-0.189,0.09-0.56,0.109
					c-2.681,0.16-5.13,0.32-7.37,0.48c0,0.381-0.02,0.762-0.061,1.14c0,0.13,0,0.19-0.13,0.19s-0.25-0.17-0.439-0.521
					c-0.111-0.25-0.179-0.517-0.2-0.79c-0.019-0.189-0.019-0.381,0-0.57c0.089-0.916,0.125-1.838,0.109-2.76
					c0-0.92-0.06-1.91-0.159-3c0-0.83-0.061-1.33-0.061-1.51s0-0.16,0.061-0.18c0.06-0.02,0.33,0.3,0.55,0.9
					c0.122,0.32,0.203,0.657,0.24,1l2.479-0.24v-5.32c-0.007-0.699-0.08-1.396-0.22-2.08c-0.101-0.32-0.17-0.54-0.2-0.65
					l-4.93,0.371c0,1.27-0.08,2.619-0.2,4.049c-0.114,1.505-0.338,2.999-0.67,4.471c-0.293,1.289-0.688,2.553-1.181,3.779
					c-0.482,1.034-1.03,2.036-1.64,3c-0.11,0.16-0.17,0.24-0.2,0.24c-0.029,0-0.09-0.05-0.09-0.16c0.002-0.172,0.039-0.342,0.11-0.5
					c0.479-0.879,0.88-1.68,1.21-2.41c0.38-0.912,0.685-1.855,0.91-2.819c0.345-1.385,0.596-2.792,0.75-4.21
					c0.197-1.943,0.284-3.896,0.26-5.85c-0.013-0.451-0.063-0.898-0.15-1.34c-0.069-0.491-0.109-0.801-0.109-0.92
					c0-0.12,0.06-0.19,0.18-0.19c0.157,0.235,0.294,0.482,0.41,0.74c0.252,0.421,0.409,0.892,0.46,1.38V20
					c2.38-0.24,4.92-0.449,7.62-0.66c1.073-0.063,2.143-0.192,3.2-0.389C202.748,18.91,203.049,18.886,203.35,18.88z M194.57,34
					c3.271-0.189,5.37-0.35,6.311-0.459l0.52-4.84l-6.88,0.629C194.54,30.11,194.55,31.669,194.57,34z M195.57,15.51
					c0.129,0.015,0.251,0.067,0.351,0.15c0.625,0.445,1.204,0.951,1.729,1.51c0.271,0.22,0.4,0.4,0.4,0.53
					c-0.015,0.261-0.059,0.519-0.13,0.77c-0.16,0.38-0.3,0.571-0.42,0.571c-0.13,0-0.23-0.11-0.311-0.311
					c-0.4-0.975-0.929-1.893-1.569-2.73c-0.07-0.12-0.114-0.252-0.13-0.39c0-0.053,0.02-0.08,0.06-0.08L195.57,15.51z"/>
			</g>
		</g>
	</g>
</g>
</svg>
