<?xml version="1.0" encoding="UTF-8"?>
<svg width="10px" height="10px" viewBox="0 0 10 10" version="1.1" xmlns="http://www.w3.org/2000/svg" xmlns:xlink="http://www.w3.org/1999/xlink">
    <!-- Generator: Sketch 51.2 (57519) - http://www.bohemiancoding.com/sketch -->
    <title>ion-search - Ionicons</title>
    <desc>Created with Sketch.</desc>
    <defs></defs>
    <g id="Page-1" stroke="none" stroke-width="1" fill="none" fill-rule="evenodd">
        <g id="energy-park" transform="translate(-1103.000000, -40.000000)" fill="#4A4A4A">
            <g id="Group" transform="translate(1096.000000, 33.000000)">
                <path d="M16.921875,15.4114583 C17.0434034,15.5329867 17.0434034,15.6545133 16.921875,15.7760417 L15.8020833,16.921875 C15.7499997,16.9739586 15.680556,17 15.59375,17 C15.5243052,17 15.4635419,16.9739586 15.4114583,16.921875 L13.2239583,14.6822917 C12.5642328,15.0815992 11.8697953,15.28125 11.140625,15.28125 C10.0121471,15.28125 9.03993464,14.8776082 8.22395833,14.0703125 C7.40798203,13.2630168 7,12.2864641 7,11.140625 C7,9.99478594 7.40798203,9.0182332 8.22395833,8.2109375 C9.03993464,7.4036418 10.0121471,7 11.140625,7 C12.2691029,7 13.2369751,7.4036418 14.0442708,8.2109375 C14.8515665,9.0182332 15.2552083,9.99478594 15.2552083,11.140625 C15.2552083,11.8697953 15.0729185,12.5468719 14.7083333,13.171875 L16.921875,15.4114583 Z M11.140625,8.61458333 C10.4461771,8.61458333 9.85156497,8.86197669 9.35677083,9.35677083 C8.86197669,9.85156497 8.61458333,10.4461771 8.61458333,11.140625 C8.61458333,11.8350729 8.86197669,12.429685 9.35677083,12.9244792 C9.85156497,13.4192733 10.4461771,13.6666667 11.140625,13.6666667 C11.8350729,13.6666667 12.4253448,13.4192733 12.9114583,12.9244792 C13.3975719,12.429685 13.640625,11.8350729 13.640625,11.140625 C13.640625,10.4461771 13.3975719,9.85156497 12.9114583,9.35677083 C12.4253448,8.86197669 11.8350729,8.61458333 11.140625,8.61458333 Z" id="ion-search---Ionicons"></path>
            </g>
        </g>
    </g>
</svg>